<svg width="356" height="209" fill="none" xmlns="http://www.w3.org/2000/svg"><path d="M326.655 56.3634l-2.39-.4674 1.195.9349 1.195-.4675zm-5.257-3.2723l-1.195-.9349c.478-.7012 1.433-.7012 1.433-1.8699-3.584-1.1687-8.602-.7012-11.231.2337.239.2338.478.2338.478.7012-.955 1.4025-2.867.2338-4.301.4675l1.434.7012c-.717 1.8699-3.107-.7012-3.345 1.4024.716.935 2.867-1.4024 3.584.7012-.717 0-1.912.935-2.868.935 1.195 1.4024 2.151-.7012 3.107-.2337 1.195-2.1037 3.106 1.4024 3.823-1.1687 2.39.7012 5.496 4.2072 7.886 1.6361.717.935 1.672.2338 2.389.2338-.239-.935-2.628-1.4025-1.194-2.8049zm-27.003-.2337c-.955-.2337-1.911-.4675-2.867-.2337.956.2337 1.195 1.1686 2.15.9349l.717-.7012c.717.2337.717 1.1687.956 1.8699-2.15 1.4024-4.779-.2338-6.691.4675.717 1.4024 1.195-.4675 2.39.2337 1.673.4675 3.345.4675 5.257.2337l-.956-.9349 1.195-1.4024c-.717-.2338-1.434-.2338-2.151-.4675zm-11.709 1.1687h-1.433c1.911.7012 4.54.9349 6.691 1.1687-.956-1.6362-3.585-.2338-5.258-1.1687zM70.0145 100.773l1.1948-.233-.7169-.468-.4779.701zm-9.0804 1.403c.7169.935 1.6727-.701 2.6285-.935.239-1.4026-1.4337 1.168-2.6285.935zm1.6727-1.87c-.239.234-.4779 0-.7169-.234-.2389-.4673 0-.9348.4779-.9348.9559 0 .9559-.4675 1.1948-1.4024-1.9116-.935-1.9116 3.0382-3.5843 1.1686.2389-.4674.4779-.4674.9558-.4674-1.4337.4674-3.8233-1.4024-5.2571 1.1686 1.1948-.7012 3.1065-1.4024 4.3013-.4674.2389.2337 0 .4674-.239.7012l-.9558.2336c1.6727-.2336 2.6285.234 3.5843.701l.239-.467zM283.642 52.8574l-2.15-.2337 1.672.2337h.478zM66.908 98.2022l1.1948-.2337v-.4675c-1.1948-.7012-1.9116 1.1687-3.1064 1.1687h1.6727c-.239-.2337 0-.4675.2389-.7012v.2337zm227.487-50.0195c-1.194-.7012-3.106-.7012-4.062-.2338 1.195.4675 2.39-.4674 3.107.4675l.955-.2337zm-11.231.7012l-.955.2337c.477 1.1687.477.935 1.911.7012-.239-.7012-1.673.4675-.956-.9349zm.717-1.4024c.956.2337 2.151.2337 3.107.4674-.478-.7012-2.39-.7012-3.107-.4674zm-6.691 2.3373c1.195-.7012 1.912.2338 2.868.935.239-.4675.478-.7012.956-.935l-4.779-.9349c.239.4674.716.4674.955.9349zm5.974-2.5711l-2.867-.4675c0 1.1687 1.195.7013 1.912.7013l.955-.2338zm-6.451 0c.716.2338 1.672.2338 2.389.4675l-.239-.7012-2.15.2337zm-6.691 1.8699c-2.151-.9349-3.824-.4675-6.93-.4675 4.301 1.1687 7.886 0 12.426.7012-.239-1.1686-1.195 0-1.912-.7012-.956 1.6362-2.39-1.4024-3.584.4675zm4.062-2.1036l-1.673-1.1687.239-.2337c.239 0 .239-.2338.478-.2338h-.239v.2338c-.239.2337-.717.4674-.239 1.1686l1.434.7013v-.4675zm-7.169-1.4024c-.239 1.4024-1.672.4674-2.628.4674-.478 1.6362-1.195-.7012-1.912 0 .956 1.1687 2.868.2338 4.301.4675l.239-.9349zm3.346 0l.478-.935c-.239.2338-.239.4675-.478.4675-.956-1.8699 0 .7012-1.195.2337.239.935.717.2338 1.195.2338zm-9.559-.4675c.239.2337.478.2337.478.7012-1.194 1.4024-2.867 0-3.823-.2337l.239-.4675c.478-.7012-1.195 0-1.673 0 .239.2337.478.2337.478.7012-.239.2337-.239.4675-.478.4675-.239-.2338-.956-.4675-.956-.935l.239-.4674-.955.2337.716.4675c-1.194 1.8699-4.301-.7012-5.496 1.1686 3.107 1.6362 6.691-1.4024 9.798-.2337.239.7012 1.433 0 1.911 0l.717-1.1687c-.239-.9349-.717-.4674-1.195-.2337zm-13.142.7012l-1.195 1.4024c.478.7012.956-.2337 1.195-.7012v-.7012zm1.433 4.441c.956 0 2.151-.7012 3.107-.2337-1.434-.4675-2.39-1.4025-3.107.2337zm-3.823 1.1687l1.912-.4675-.239-.7012-1.673 1.1687zM60.6951 92.5926l2.3896-.4675v-.2337l-2.3896.4674v.2338zm-1.4337 0l-1.1948.2337v.2337l1.1948-.2337v-.2337zm-8.3635 2.1036l-1.1948.2337v.2338l1.1948-.2338v-.2337zM255.206 50.7538c0 .4674.239.4674.478.7012l.717-.2338-.239-.7012-.956.2338zM56.3939 95.3974l1.1948-.9349-2.3896.4674 1.1948.4675zm-10.7531.4675c-1.6727-.2338-.7168 1.6361-1.1947 2.5711.7168.9349 1.9116.9349 2.1506.2337-.239-.4675.2389-.7012.4779-1.1687.4779.7012 1.1948.7012 1.6727 0l.7169-1.1687c-.7169-1.8698-2.1507.2338-2.8675-1.1686 0 .2337-.4779.7012-.9559.7012zM266.198 53.5586l1.195-.2337-2.389.2337h1.194zm-5.018 0c.717 0 1.195.4675 2.151.2337-.478-.4674-1.434-.4674-2.151-.2337zM49.9421 100.306l1.1948-.234c.4779-.4673-.7169-.2336-1.1948.234zm-4.5402 1.402l-.239.468c.4779.467 1.6727-1.403 2.6286-.234l-.7169 1.169 2.8675-.702c-1.4338-.934-3.1065-1.402-4.5402-.701zM302.281 54.2598c-.478.2337-1.912-1.1687-2.39-.2337 1.195 0 1.434 1.6361 2.39.2337zm6.93 2.5711h1.672c-.716-.9349-.716 0-1.672 0zm-76.945-3.506l-1.194-.935-1.195 1.6362 2.389-.7012zM73.3599 80.672c-.7169-.7012-2.6285.935-3.5844-.2337.7169 1.6361 2.3896 0 3.5844.2337zm3.3454-2.5711v-.4675l-1.1948.2338v.4675l1.1948-.2338zm6.6908-1.8699c-1.6727-.2337-3.8233.4675-6.2129.935 2.1506 1.4024 3.8233-.935 6.2129-.935zM67.147 79.5033l5.496-.9349c-2.3896.4675-3.5843-.7012-5.496.9349zm-22.223 3.2723c.2389-.2337.2389-.7012 0-1.1686l-.7169.4674c.9558.2338-.4779 1.1687.7169.7012zm20.3113-4.4409l-.2389-.7013c-.4779 1.1687-1.6727 0-2.3896.2338.7169.7012 1.6727.9349 2.6285.4675zm.4779-.935l1.4338.4675c-.239-.7012-.9558-.4675-1.4338-.4675zm-14.5763 2.5711c.4779-.7012-.478-1.6362.4779-2.3374L50.42 77.166c-1.4338.4674-4.0623.9349-5.2571 2.3373 1.1948.4675 2.8675.7012 4.3013.935-.239-.2338 0-.4675.2389-.7012.4779 0 .9558.4674 1.4338.2337zm7.1687-2.3374l-.4779-.2337 1.9116-.7012c-1.1948.4675-2.3896.2337-2.8675-.935l.239.7013-2.6285.9349c.9558.4675 2.3895.7012 3.8233.2337zm15.2932-4.6747l-.7168-.4675.2389-.4674c.239-.2338-1.6727-.935-2.3895.2337.2389.2337.4779.2337.4779.7012l-1.4338.7012c.7169.7012 1.9117 1.4024 2.8675 1.1687-.7169-1.4024.7169-1.4024.9558-1.8699zm.478-2.3373l-1.1948.2337c.4779.4675.9558.4675 1.4337.4675l-.2389-.7012zm-8.6025 1.4024c-.4779 1.6361-2.3896-.935-2.8675 1.4024-.4779-.2338-1.1948.7012-1.9117 1.1687h-.9558c.239.2337.7169.2337.9558 0l1.4338.2337v.2337c1.6727 1.6362 3.8233 0 5.735-.2337-.478-.2337 0-1.1687-.7169-1.6361.239-.935 2.1506-.0001 1.6727-1.4025l-3.3454.2338zm-19.1166 4.441v.4674l1.1948-.2337v-.2337h-1.1948zm-7.8856 2.5711v.2337l1.1948-.2337v-.2338l-1.1948.2338zm-16.9659.2337c-.239-1.1687.7168 0 .7168-.9349-.4779.2337-1.6727-.0001-1.4337 1.1686l.7169-.2337zm11.2309-7.2458l-.2389.4674c.2389.935 1.1948.935 1.9116.7013l-1.6727-1.1687zm25.0906-4.6748v-.2337l-2.6286.4675v.4674l2.6286-.7012zm7.8855-1.6361c0-.935-1.4337-.7012-2.1506-.935l-.2389.4675c.4779.2337 1.1948 1.1687 2.3895.4675zm-13.3816 1.1687l.239.7012c.4779-1.6362 1.6727.9349 2.3896-.4675l-2.6286-.2337zm5.974-1.8699c-.4779-.935-.9559.4675-1.6727.7012.7168-.2337 1.4337 0 1.6727-.7012zm10.5141-2.1037l.4779-.9349c-.239-.2337 0-.4675.239-.7012 1.9116.4675 4.7791-1.1687 7.1687-1.6362.2389-.4674.4779-1.1686 1.1948-.9349-.9559-1.1687-3.1065.4675-4.5402-.2337l.2389.7012c-2.8675-.4675-4.5402 2.8048-6.9297 3.0385.2389.2338 1.1948 1.4025 2.1506.7012zm-9.3193-2.571c.2389.2337.4779.2337.4779.7012-1.1948.7012.4779.7012-.4779 1.6361l-3.5844.7012c1.4337.935 3.3454-1.1687 5.0181 0 .7169.2338 2.1506-.9349 3.1064-1.4024.478-.2337-1.9116-.4675-1.1947-1.1687-1.1948 1.1687-1.4338 0-2.3896 1.6362-.4779-.7012-.7169-3.2723-.9558-2.1036zm-4.7792 5.1422l.7169-.935-.9558.2337.2389.7013zm-5.257-.7013c.9558-.4674 1.6727-.2337 2.3895.4675-.2389-.4675.239-.7012.239-.9349h.7169c.2389.4674-.239.9349-.239 1.4024l.9558-.2337c.4779-.7013 0-.935-.7168-1.1687 0 0-.239-.2338-.478-.2338v.2338c-.9558 0-2.1506 0-2.8674.4674zm-.478 1.1687c0 .4675.7169.4675 1.1948.4675l-.2389-.7012-.9559.2337zm-16.9659 4.441c1.1948-.4675 2.3895-.4675 3.3454-.4675 0 .2338.2389.2338.2389.4675 0-.2337 0-.4675.4779-.4675l-1.1947-.4674-2.8675.9349zm-10.2752 1.8699c.239.9349 1.9117-.7012 2.1506.7012l.7169-.2337-.7169-.4675.239-.4675-2.3896.4675zm9.0804-.4675c-.239-.2337-.4779-.2337-.4779-.7012.2389-.2337.4779-.2337.9558-.4674l-1.9117.7012 1.4338.4674zm3.3454-.2337c.2389 0 .2389 0 .4779.2337 0 0 0-.2337.239-.2337h.7168c.239-.2337 0-.7012-.2389-.9349 0 .4674-.4779.7012-.7169.9349h-.4779c-.7169-.2337-1.4338-.2337-2.3896 0h2.3896zm53.2875-12.6218c.4779 0 .9558 0 .2389-.2337l-.2389.2337c-.478 0-1.1948.2338-1.1948.7012.4779.2338.9558 0 1.1948-.7012zM25.0905 88.3853l1.4338.7012c-.478-.2337-.478-.4675-.478-.9349l-.9558.2337zm5.735 68.0177v-.468l1.4337-.234v.468l-1.4337.234zM340.753 59.8695c.239 1.6361-1.912 1.8699-2.39 1.8699 1.195-.4675 1.195-2.3374 2.39-1.8699zm7.886 53.9935c-.239.233-.239.935-.717.935l-.239-.702.956-.233zm-1.195 5.843l.239 1.169-.478-.935.239-.234zm-37.516-66.6149l-1.195.2338-.478-.2338h1.673zm-34.276-26.6459l.105 1.8699c.956-.935-1.299-1.6362-.105-1.8699zm-7.303 12.388l-1.195.2338v-.2338h1.195zm-31.781 5.8434h-.956c0-1.1687-1.673 0-1.434-.4675.956-1.1686.956.935 2.39.4675zm-6.93-4.9084c.717-.4675 2.867.2337 1.673 0-.239.9349-1.195.2337-1.673 0zm.239 4.6747c.717.2337 1.434.2337 1.673-.2338 0 .7013-.717.4675-1.195.7013 0-.2338-.239-.4675-.478-.4675zm-.478-.2338c-.956 0-1.673.7013-2.868-.2337.478-.4675 1.673 0 2.868.2337zm-3.584 0l-.478 1.1687-.478-.2337.956-.935zm-.956 3.5061l-.956.2337c-.239-.4674.717-.9349.239-1.6361l.717 1.4024zm3.823-5.8434c-.956 0-3.345-.2338-2.628 1.6361-2.868.4675.955-2.1036-.478-2.8048-.478 2.3374-2.868 0-2.868 2.8048-.956-.7012-1.434-2.1036-2.867-2.3373 3.345-.2338 4.779-1.1687 7.407-1.8699l-.239 1.6361c.478 1.4025 1.912-.4674 2.151.935h-.478zm-9.797-.2337c-.717 0-1.912 1.1686-2.629.2337 0 .7012-.717.4675-1.194.7012l.238 3.2723-1.433-1.1687.717-.2337c-.239-.4675-.478-2.1036-1.434-2.5711-.478.7012-1.434.2337-1.912 1.1687 0 .4674.239.4674.478.7012-.956 1.6361-3.106-.4675-3.345 1.4024l-.717-.4675c-.717 0-.956.4675-1.195.935-3.823-.935-3.823 5.6096-7.408 3.0385l.956.2338c1.434-2.3374 5.018-2.3374 5.496-5.1422.478-.2338 1.195 0 1.195-.7012l-2.628-.2338c.477-.2337 1.194 0 1.194-.7012l-1.672-.4674 5.496-.935c.716-.2337 1.672-1.8699 2.389-.2337 1.195-.2338 2.151-1.1687 2.868-2.1037.717 2.5711 3.106 1.1687 4.779 1.6362l-.239 1.6362zm-29.153 14.9591c-.239-.7012-.239-1.1687.239-1.6362l.239 1.1687c0 .2337-.239.4675-.478.4675zm-.956-9.3495l-.956.2338-.716-.2338h1.672zm10.275-5.1422c1.195.4675 4.063-1.1687 4.063.935l-.478-.2338.239-.4674c-.239-.7013-.956 0-1.434 0-1.434 1.6361-4.54 1.6361-6.691.7012-.717 3.7397-2.867 2.8048-5.257 3.9735l-.239-.7012c.239-.2338.239-.4675.478-.4675.717.7012 2.629-.7012 3.823-1.1687-.239-1.4024-1.911.2338-2.15-.7012.239 0 .478-.2337.478-.4675l-.717-.4674c-2.151-.4675-3.823 1.1686-5.257.4674l4.779-1.4024-.239-.9349 1.434 1.6361c1.911-2.1036 2.389-.4674 4.54-2.1036l-.478 1.1687c.717 1.4024 2.151 0 3.106.2337zm-12.903 10.0507l-1.195-.935 1.195-.2337c-.239.4675-.239.7012 0 1.1687zm-11.47-8.882l-1.434.2337v-.4674l1.434.2337zm6.691.4675c.716 1.4024 2.628 2.5711 3.345 2.5711l-.239.4674c.717.935 1.434 0 2.151.7013-1.434.2337-2.629.7012-4.063.4674-.717-1.4024-2.628-1.1687-3.823-.9349h.239c.239-.7012 1.912-.4675 1.434-1.8699-1.434 0-2.868-.4675-4.302.2337-1.433 1.6362-2.389.2338-4.062.4675 1.912-.9349 4.301-1.4024 5.974-2.8048 0-.4675-.478-.7012-.956-.935-.239 0-.478.2338-.478.4675l-.478-2.1036c.478 1.4024 1.912.7012 2.868 1.1687.717 2.3373 3.345.7012 5.018 1.1686-1.195.4675-2.151-.4674-2.628.935zm-9.32 2.5711v.4674l-.956.2338c-.239.4675-.478.9349-.955.2337l.955-.2337c.239-.4675.478-.935.956-.7012zm-5.257-1.4024c-.239 0-.239 0-.478.2337 0 0 .239-.2337.478-.2337.717-.2338 1.434 0 1.673-1.1687-.239-1.4024-1.912.2337-2.151-.7012.717-.2338 1.673 0 2.151-.935l.239.7012c.478.2338.956.935 1.434.7012-2.629-.2337.477 3.5061-.956 4.9085-.717.2337-1.912 0-2.151-.9349l.239-.4675h-1.673c1.195 0 1.912-.2338 2.868-.935 0-1.1686-1.195-1.1686-1.673-1.1686zm-3.584 3.7397c-.239 1.1687.478 2.8049 1.911 2.8049l-.477.2337c-1.673-2.5711-2.39 1.6362-4.302.2337.717-.4674 2.39 0 2.868-1.4024-.239-.9349-1.434-1.1687-1.434-2.3373.478-.2338.717.2337 1.195.4674 1.195-.2337.239-1.1686.717-1.6361-.239-3.9735-4.063 2.1036-4.779-1.1687l3.106-1.1687c-.239-.2337-.478-.4675-.717-.2337l1.912-3.7398c0 .7012-.956 1.8699.478 2.1036l.478-.9349c.239 2.5711 1.433 5.3759-.956 6.7783zm-6.93-4.441l-1.195.2338c0-.4675.956-1.1687 1.195-.2338zm-5.018 4.9085h1.912c-.478.935-1.673 0-1.912 0zm-2.151-1.4024c1.673-2.8048 6.691 0 7.647-2.1036 0 .4674.239.4674.478.7012-.717 1.1687-3.346.4674-5.018.7012-.717 2.3373-1.434 0-3.107.7012zm-2.389 1.6361l.478.7013-.956-.2338.478-.4675zm.478 9.817l.478-.935c.239.2338.955.4675.955.935-.716 0-1.433.7012-1.433 0zm-3.346-8.1808c.239 0 .478-.2337.478-.4675l-1.673-1.4024.717.2337c1.195-1.6361 2.868-1.6361 4.063-1.8698-.478.2337-1.434 0-1.434.7012l.478.2337-.717.7012-.239-.9349c-.478 0-.717 0-.956.4674.239.2338.478.2338.478.7012-.239.935-.478 1.6362.478 1.8699-.956-.2337-.717.935-1.434 1.1687l-.239-1.4024zm-5.018-1.1687c-.717 0-1.673.2338-1.911-.9349 1.433-1.1687 1.672 0 1.911.9349h.478c-.239.2338-.239.2338-.239.4675.239.7012.478 1.1687 1.195.9349l-1.195 1.4025c-.478-.2338-1.673-.7013-1.195-.4675.717-.4675.478-.935.956-1.6362v-.7012zm-2.15.2338c-.239-.4675-.717-.2338-.956-.2338l.239-.4675.717.7013zm-2.39 1.6361l1.434.7012-.717.2338c0-.4675-.717-.4675-.717-.935zm-5.974 10.2844l2.151-.9349-.478.9349c-.478.2337-1.195.7012-1.673 0zm-2.39-1.6361v.2337l-1.433.4675v-.4675l1.433-.2337zm-4.301-7.7133l8.125-.7013c.717 1.6362 1.672-.9349 2.389.2338.717 1.1687.956-1.1687 1.434.4675-1.195-.4675-1.434 1.6361-2.389.2337l-.239.4675-.717-.4675c-2.151-.2337-3.107 1.8699-4.302.2337-.955 1.8699-.716.7012-2.15.935.239 0 .478-.2338.478-.4675-.956-1.1687-2.39.2337-2.629-.9349zm2.629-2.5711c-1.195 1.4024-2.151-.2338-3.107.2337l.239-.7012c1.673.2337 3.346-2.1036 5.257-.7012.239-.7012 1.912-.4675 1.434-1.8699l.717-.2338c.478 2.8049-3.345 1.4025-4.54 3.2724zm-3.346 3.9735l-.955.2337v-.4675l.955.2338zm2.151 7.0121c-.478.9349-1.912 0-2.151 1.6361-.478-1.4024 1.195-2.1036 2.151-1.6361zm-7.408-7.9471l2.151-.9349-.239.4675-1.912.4674zm4.063-3.7398c-.717 2.8049-4.541 2.1037-6.213 2.5711.239-1.4024 1.911.7013 1.433-1.1686 1.434 1.4024 3.346-.7012 4.063-.4675 0-.4675 0-.935.717-.935zm-4.78 5.6097v.2338l-1.911.4674v-.4674l1.911-.2338zm-2.628 9.5832c.956-.2337.239-1.1687 1.434-1.1687.478.2338.478.4675.478.935-.478-.2338-1.434 1.4024-1.912.2337zm0-13.323l-.956.2338c-.478.2337-1.434.2337-1.195.9349-1.672.4675-3.584.4675-4.54 2.1036-.239-1.4024-1.912-.4674-2.151-.9349l4.302-1.6362-.239.4675.478.2338c1.433-.2338 2.628-1.1687 3.106-2.5711-.478 1.1686.956.7012 1.195 1.1686zm-9.319 7.9471l1.194-.7012-.239.4674-.955.2338zm-.956-2.8049c.956 1.8699 1.911-1.4024 3.106.4675-.717-.2337-2.867 1.6362-3.106-.4675zm-.478-2.5711l-.717-.2337h1.673l-.956.2337zm-2.1508 13.0893h1.9118l-1.195.2337-.7168-.2337zm-1.4337-13.323l-4.5402.7012v-.2337c1.1948-.2338 4.3012-1.6362 4.5402-.4675zm-5.496.9349l-1.4338.7013-1.4337-.4675 2.8675-.2338zm-2.1507 12.1543l1.1948-.2337c0 .7012-.7168.4675-1.1948.7012v-.4675zM86.5025 54.961h1.6727c-.4779.2338-1.4337 0-1.6727.7012v-.7012zm-2.1506 9.3495l-.2389.4674-.478-.4674c.478.2337 1.1948-1.1687.7169 0zm-5.0181.7012c.9558-.4675 1.9117-.2338 2.3896.4675-.7169-.2338-1.9117-.2338-2.3896-.4675zM78.139 63.843c2.3896-1.6362 6.4519-.935 9.0804-1.8699l.239.7012-.7169.2337c-3.5844-.4674-4.7792.935-8.6025.935zm1.9117 6.0771c-.4779 0-.4779.7013-.7169.935l-.2389-.7012.9558-.2338zm-2.8675 1.4025v-.2338l.9558-.2337c0 .4675-.4779.4675-.9558.4675zm.4779 3.2723c-.2389-.2338-1.1948-.4675-.2389-1.1687l-.7169-.4675 1.1948-.9349c.2389 1.4024 1.6727-.2338 1.9116.7012-1.4337-.4675-1.4337 1.1687-2.1506 1.8699zm-2.8675-14.9592l-.2389.4675-.9559-.2337 1.1948-.2338zm-3.1064 7.4796l-2.3896.2337c.4779-.9349 1.9117-.4674 2.3896-.2337zm-8.3635 7.4796v-.4675l.9558-.2337v.2337l-.9558.4675zM46.8356 63.6093l1.1948-.935-.4779.7012-.7169.2338zm5.735 37.6317c-.239.234-.239 0 0 0-.239 0-.239 0 0 0 .239-.234.7169-.701.9558-.935l-2.1506.467c.239.702-.7169.935-1.1948.935 1.4338-.233 2.8675.701 4.3013.935l-.239.468 5.2571-.468c-.239-.467.2389-.701.4779-1.168-.7169.934-1.1948 1.168-2.6286.934l-.4779-.934c.4779-.702 1.4338-.468 2.1506-.935l-2.8674-.234.4779.234-.4779.935-1.9117-1.169.239-.4676-1.1948.2336c.2389 0 .2389 0 .4779.234.2389 1.636-.7169.935-1.1948.935zm-.239 30.386v-.234l1.6727-.234v.234l-1.6727.234zm-4.7791 6.544l-.239-.701 1.1948.467-.9558.234zm-7.4077-32.255l-.2389-.468 1.6727-.701-1.4338 1.169zm-2.8675.233l1.1948-.701.239.701h-1.4338zm.7169 3.039l-.239.467 1.9117 1.169-.239.467c0 .702.478.702.7169 1.403l-.9558.234c.2389-.935-1.6727-2.104-1.6727-3.039l-.7169-.467c0-1.169.7169-.468 1.1948-.234zm-2.3896-2.338v-.233l.9559-.234v.467h-.9559zm-3.5843 3.273c1.1948-.468 2.6285-1.87 3.8233-1.169-1.4338 1.169-2.6285.935-3.8233 1.169zm.9558 3.272l-.7169-.234h1.9117l-1.1948.234zm-2.3896-7.713c.7169-.234 1.6727 1.168 2.6286 1.168-.9559 1.87-1.4338-1.402-2.6286-1.168zm-.9558-.468l-.9558-.701.7168-.935c.7169.701.9559 1.169.239 1.636zM161.296 53.7923l.717-.2337c0 .2337 0 .4675-.239.7012-.239 0-.478 0-.478-.4675zm61.412-1.8699c.239-.2337.239-.4674.478-.7012 0 .2338-.239.4675-.478.7012zM21.2672 94.4625l-.9558.4674c-.239 0-.7169 0-.9559.2338v-.2338l.9559-.2337v-.2337c-.239-.4675-.7169-.2338-1.1948-.2338.4779-1.4024 1.6727.7012 2.1506.2338zm18.8776 88.3525c-.4779.234-.7169.701-1.1948.935-.2389 0-.4779 0-.7168-.234v-.467l.7168.701c.239-.468.4779-1.169 1.1948-.935zm-12.6647-62.174v-.468l2.1506-.233v.467l-2.1506.234zm9.3193 33.892l-1.6727.701v-.701c.239-.468 1.4338-.935 1.6727 0zm.239 1.168l.2389.702c-1.4337-.468-2.8675.233-4.0622-.935 1.6727 0 2.3895.935 3.8233.233zm5.0181 27.348v-.468c.2389-.234.4779-.935.9558-.935l.239 1.169-1.1948.234zm-9.0804-53.526l.9558-.468-.9558.935v-.467zm2.8675 17.998l.9558-.234.4779.234h-1.4337zm1.4337 13.089v0c0-.234-.2389-.234-.4779-.468-.2389-1.168 2.1506-2.103.4779-3.038.7169 0 1.4338-.701 1.9117-1.169L37.5163 155l.9558-1.169.239 1.169c.9558.935 1.4337-.935 2.3896 0l-1.4338.701.7169.702h-.7169c-.7169.467-2.6285.935-1.6727 2.571-.7169-.234-.9558.935-.7169 1.636zm12.1869-3.039v.468l-2.8675.467v-.467l2.8675-.468zm7.1687 21.27v-.467l2.1506-.234v.468l-2.1506.233zm-4.3013-49.084l.239-.468c.239.468 0 .468-.239.468-.4779 0-1.1947 0-1.4337.233 0 .468-.239.702-.4779.935 0-.467.2389-.701.4779-.935 0-.467-.239-.935-.7169-.935.239-1.402 2.1506.935 1.9117-1.168l2.3896-.468-2.6286 1.403c0 .467 0 .935.4779.935zm12.1869 39.501l-1.4338-.467h-.2389c-.239.233-.7169.701-.478 1.168-1.4337-.701-1.9116.234-3.3454-.233l3.5844-.935v-.234H64.5185v.701zm4.5401 6.545v-.468l.9559-.234v.468l-.9559.234zM57.8277 87.4504v.4674c.4779-.2337.7168-.4674.9558-.7012-.239 0-.4779.2338-.9558.2338zm7.8855 46.9806c.478-.935 1.4338-.467 1.9117-.233.239-.234.239-.234.4779-.234 0-.234.239-.234.239-.701l.7168.701c-.4779.234-.7168 0-.9558 0-.2389.234-.2389.234-.4779.234 0 0-.239.233-.239.467-.4779 0-1.4337.468-1.6727-.234zm10.0363-2.337v-.234c-.7169-.233-1.6727-.701-1.6727.701l1.6727-.467zM39.4279 91.8914c-.2389 0-.2389-.0001-.4779.2337.239 0 .239.2337.4779.2337v-.4674zm2.6286-.4675c-.239 0-.239 0 0 0-.239.2337-.4779.2337-.4779.4675 0-.2338.2389-.4675.4779-.4675zM28.9138 93.995l-1.1948 1.6361c.478.2338 1.6727.935 2.6286.2338v-.7012c.4779 0 .7168-.2338 1.1948-.4675.4779 0 .9558.2337 1.1947-.2337-.4779 0-.9558 0-1.1947.2337-.478 0-1.1948-.2338-1.1948.4675-.4779.4674-.9559.2337-1.4338-1.1687zm-2.8675 1.4024l1.6727-.2337c-.4779-1.6362-.7168.7012-1.4337-.4675.239.2337 0 .4675-.239.7012zM64.0405 81.607c.478.2337.9559.7012 1.4338.9349.9558 0 1.6727-.2337 2.3896-1.1687-1.1948-.7012-2.3896-.2337-3.8234.2338zm-8.1245 5.3759l-.7169 1.1687c.7169 0 1.6727 0 2.3896-.4675v-.4675c-.4779 0-.7169-.2337-1.1948-.4674-.2389.2337-.2389.2337-.4779.2337zm-2.6285 1.6361h.4779v-.4674c.2389 0 .2389-.2338.4779-.4675-.7169.2337-1.1948.2337-2.1506.9349h1.1948zm-6.4519 1.1687c0 .2338-.2389.4675-.2389.4675.9558-.2337 2.1506-.4675 3.1064-1.1687-.9558-.2337-1.9116.4675-2.8675.7012zm-3.5843.2338c.2389 0 .4779-.2338.7168-.2338.478.935-.9558.935-.9558 1.4024.4779-.2337 1.1948-.2337 1.9117-.4674.2389-.2338.2389-.4675.2389-.7012-.2389 0-.7169-.2338-.9558-.7013-.239.2338-.9558.2338-.9558.7013zM36.0825 93.06c.478 0 .9559-.2337 1.6727-.7012h.239l-.239-.2337c-.7168.2337-1.1947.2337-1.6727-.2337l-.7168.2337v.2337h-.7169c.4779.2338.9558.4675 1.4337.7012zm-4.7791-.2337h.239l-.239.4675 1.1948.9349.4779-.9349.239.7012c.2389.4674.7168.2337 1.1947.2337.239-.2337.478-.4675.478-.9349-.239-.2338-.478-.4675-.7169-.2338l-.239-.7012-2.3895.2338s0 .2337-.239.2337zM341.47 159.207l.956-.935c0 .468 0 .935.478.935.239-.233.956-1.168 1.433-.467l.239.701-1.433-.234h-1.673zm5.974-32.489c0 .701-.717 1.402-.956 2.104l-.478-.234c0-.935 0-2.337 1.434-1.87zM48.9862 110.824l.239.935-.239.234c.239-.234.478-.234.7169 0v-.234c0-.468 0-.935-.2389-1.169l-.478.234zm.9559-.234h-.9559l.478.234c.2389 0 .2389-.234.4779-.234zm-11.7089 4.675l.2389 1.169.9558-.234h-.2389c.2389-.234.4779-.468.9558-.468v-.233c-.2389-.234 0-.468.239-.701h.7169c-1.4338-1.637-1.4338 1.869-2.8675.467zm-3.8234 3.974v.467l1.4338-.234v-.467l-1.4338.234zm9.5583-4.675l1.1948-.234c-.4779 0-.9558.234-1.1948.234zm13.8596 7.713c0 .701 1.9116-.467 2.6285-.701l-2.6285.701zm-3.8234 1.169l2.3896-.701c-.4779 0-.9558-.234-1.1948 0 .4779-.234 1.1948 0 1.1948-.468 0 0-.2389 0-.2389-.234-.239.468-1.1948.468-2.1507.702.239.233.239.467 0 .701zm-1.6727.467l1.6727-.467c0-.234-.2389-.468-.2389-.701-.4779.233-1.1948.467-1.4338 1.168zm3.8234 1.169l2.3895-.701v-.468l-2.3895 1.169zm-.7169.234l-1.9117-.234c.7169.234 1.4338.935 1.9117.234zm13.1426-1.87h-.4779c.239.233.4779.233.4779 0zm-2.1506 1.402c.4779 0 .7169 0 1.1948-.234-.4779 0-.7169 0-1.1948.234zm-2.8675-.467v.467h.9559c.2389-.234.4779-.467.9558-.467-.7169-.234-1.4338 0-1.9117 0zm-1.6727 1.402l-1.4337.234.2389.234c.478-.234.7169-.234 1.1948-.468h.4779l-.2389-.467-.239.467zM344.337 96.5661c.717-2.3374-1.194-2.5711-2.867-2.5711 0 .2337.239.7012.478 1.1687l1.195-.2338c-.239.2338-.239.7012-.478.935l1.672.7012zM198.096 132.795c-.239.234-.239.468-.717.468l1.194.467c-.477 0-.477-.467-.477-.935zm-19.117 1.636c-.239 0-.478 0-.478.234l-.717.468c.717 1.636.478.233.717-.468l.478-.234zM39.4279 121.108c1.1948.234 2.6286 1.169 3.5844.234-.2389-.467-.7169-.701-.9558-.935-.9559 0-1.9117.234-2.6286.701zm27.0022 5.376c-.9558 0-1.6727 0-2.6285.234-.4779.234-.9558.468-1.6727.468.4779 0 .7169.467 1.1948.934 1.1948-.701 3.3454.702 3.1064-1.636zm268.3489-8.414c-2.628-.234-5.496-1.169-8.363-.935 2.389.701 5.735.935 8.363.935zm-300.8471-3.74l.4779-1.169c0 .468 0 .935.478.935-.478.234-1.1948 0-.9559.234zm306.1041 25.244h.717c2.151-.702 1.912 1.636 1.673 2.571-.478-.935-2.868-.935-2.39-2.571zm4.301 35.527c-.239.234-.239.702-.716.702v-.468l.716-.234zm-1.433 4.208l.239.701-.478-.701h.239zm-3.585-15.193l.717.234c.478-.935 1.434-1.403 2.151-1.87-.717-.935-2.151-1.169-2.868-1.169 1.673-1.169 2.629.234 3.585.935.239-.234.478-.467.717-.701.239 0 .477.233.477.467-.477 0-.716 0-.955.234.239.234.478.234.955.234.239-2.571 4.063-.468 5.496-1.636.239-.935-.955-.935-.955-1.637 1.672-1.636 3.345 1.403 4.54 1.87.239 1.403 1.911 2.338 2.15 3.506-4.062-1.168-7.885-2.337-12.425-1.402 0 0 0-.234-.239-.234l-.239.234c.239 0 .478.234.478.467-.956 0-1.195.468-1.673 1.169-.956-.234-1.673-.467-1.912-.701zm-14.098 12.622l-.478-.234h1.195l-.717.234zm-46.836 10.752v-.234h.956l-.956.234zm-24.612 9.816l-1.673.702c.478 0 1.195-.935 1.673-.702zm-3.346-.467l1.434.467-.239.234c-.478-.234-1.195-.234-1.195-.701zm-5.496 1.636h-1.195c.478-.234 1.434-.701.956-1.169.239.234.478.935.239 1.169zm-13.62-8.648c-.956-.468-2.39 0-3.585-.234l3.346-.234.239.468zm-23.896.467c-3.584 0-9.797.935-11.948-.233 1.434-.468 2.629.233 3.823-.468 2.39 1.403 6.213-.935 8.125.701zm-12.665.468c-.478-.701-1.195 0-1.673-.234l1.434-.467.239.701zm-4.54-.234c.478 0 1.434-.467 2.151 0-.239-.234-1.673.234-2.151 0zm-7.886.468c1.434-.234 2.39-.234 4.063-.234l-4.779.701c-.717-.234-1.912-.467-2.39.234-.478-.234-.956-.468-.717-.935 1.195 0 2.868.701 3.584-.701 0 .233 0 .701.239.935zm-19.116 1.168c.239-.234 1.434-.234 1.673 0-.478 0-1.195.468-1.673 0zm-12.904 1.169c1.912-.468 3.584-.468 4.301-.234-1.194.468-2.867.234-4.301.234zm-54.7211-48.851c0 .701.7169.234 1.1948.234v-.468l-1.1948.234zm-23.6568 49.085v-.234h.9559l-.9559.234zm-2.6285-6.311v-.234l1.4338-.234v.234l-1.4338.234zm-4.7791-15.427l-.239-.234.9558-.467-.7168.701zm0 20.101v-.467l.9558.467h-.9558zm-5.2571-23.139l-.239-.234 1.4338-.468-1.1948.702zm1.4337 3.973l.7169.468c-1.1948.467-1.1948-.234-1.9116-.468.7168-.701 1.1947-.467 1.9116-.234-.4779-.233-.4779 0-.7169.234zm-3.8233-1.636l-.2389.234 1.6727.701-.239.234c0 .467.4779.467.4779.935l-.9558.233c.239-.701-1.4337-1.636-1.4337-2.103l-.7169-.468c.4779-.467 1.1948 0 1.4337.234zm-1.1948-1.87h-.2389.2389zm-4.3012 2.571c1.1948-.234 2.3896-1.402 3.5844-.935-.7169.468-1.1948.468-1.9117.701.7169.234.239 1.169-.2389 1.403v-1.403c-.239 0-.7169 0-1.4338.234zm.7169 2.338l-.7169-.234h1.9117l-1.1948.234zm-1.6727-5.61c.7169 0 1.4337.935 2.3896.935l-.239.234c.4779 0 .9558 0 1.4337.233l.9559-1.168c0 .233.2389.467.2389.467l.7169-.234v.234c.7169-.467 1.1948-1.636 1.9117-.935l-.7169.234.4779-.234v.468h-.9558l-.4779.233.9558.935c-.9558.234-1.6727-.935-2.8675-.233-2.3896 1.636-4.5402 1.402-6.9298 3.038l1.4338.468c-2.1506-.234-.4779 1.168-1.9117 1.869l-.4779-.934c-.4779 0-.7169.934-1.1948 1.402-.2389-.234-.9558-.468-.9558-.935.4779 0 .7169-.701.9558-.935 0 .468 0 .935.4779.935-.2389-.935.9559-1.169 1.4338-1.636-.7169-.701-1.6727.234-2.1506-.468-1.4338 1.87-5.4961.702-5.974 3.273 1.1948.935 1.4338-.702 2.8675-.468-.4779.701-2.8675.468-1.9116 1.87-.4779 1.169-1.1948-.467-1.6727.701-1.1948 1.403-1.4338-1.87-3.1065-.701l1.1948-1.402-.9558-.234c-.9559-.234-1.9117-.234-1.6727-1.169h.7168l-.2389.468.4779.233c.9558-2.571 3.8233 1.403 4.7791-1.402.478.234.7169.701 1.1948.468.239-.234.4779-.468.239-.702 1.1948-.233 2.8675.702 3.3454-1.168 2.8675.233 5.496-1.637 8.1245-2.104-.7168-.701-1.1947-1.636-1.9116-1.636zm-.9558-.234l-.7169-.467.7169-.702c.4779.468.7168.702 0 1.169zm-.9559-5.142l-.9558.234v-.234l.9558-.234v.234zm-3.3454-.234l1.1948-.234-.7169.935c-.4779-.233-.2389-.467-.4779-.701zm-4.7791-1.87v-.233l1.1948-.234c0 .467-.7169.234-1.1948.467zm93.1932 25.01l.239.234-.478.234 1.195-.468c-.239-.234-.717 0-.956 0zm-41.8174 1.403c-.4779 0-2.1506-.935-2.1506.233l2.1506-.233zm-5.0181-4.675c-1.4338 0-3.3454-.935-4.7792 0 .9559.935 3.3454.701 4.7792 0zm3.1064-2.338c-.9558-.701-2.1506-.233-3.5843-.467-.239.935-1.4338.935-2.1506.701-.9559-.234.4779-1.636-1.1948-.935 1.6727.468-.239 1.87 1.6727 1.87v-.467c2.1506-1.169 3.1064-.468 5.257-.702zm-2.6285-15.192l1.1948-.234-.7169-.468-.4779.702zm-8.6025.701c.7169.701 1.4338-.468 2.3896-.701.4779-.702-1.1948 1.168-2.3896.701zm-3.1064.233l-.4779-.701c0-.233.2389-.233.4779-.233 0-.234.239-.234.239-.234h-1.1948l.2389.234-.4779.701-1.6727-.701.239-.234-.9559.234c.239 0 .239 0 .4779.233-.2389.935-1.1947.468-1.6726.468h-.239.239c.2389-.234.7168-.468.9558-.701l-1.9117.233c.239.468-.7168.701-1.1948.701h1.4338c.2389-.233.4779-.233.9558-.233.239.234.7169.233.7169.701.2389 0 .4779.234.9558.234l-.239.233 5.0182-.233c-.239-.468.2389-.468.4779-.935-.9559.467-1.1948.467-2.3896.233zm.9558-2.804c-.9558 0-1.9116 0-2.6285.935.4779-.234 1.1948-.468 1.9117-.702h-.478l1.1948-.233zm3.8233 1.402c-.2389.234-.4779 0-.7168-.234-.239-.233.2389-.701.4779-.701.9558 0 .9558-.467.9558-.935-1.9116-.701-1.9116 2.104-3.3454.701.239-.233.4779-.233.9558-.467-.4779.234-1.1947 0-1.9116 0 0 0 .2389 0 .2389.234.239 0 .478.233.7169.233.239.234 0 .468-.2389.468l-.9559.234c1.6727 0 2.3896.233 3.3454.467h.4779zm3.5844-1.169c.239 0 .239 0 0 0zm0-.701c-.4779.234-.9558.468-1.4337.468h1.1947l.239-.468zm-5.0181-3.74l2.1506-.467v-.234l-2.1506.468v.233zm-1.4337 0l-1.1948.234v.234l1.1948-.234v-.234zm-7.8856 1.403l-1.1948.234v.233l1.1948-.233v-.234zm5.257.467l1.1948-.701-2.1506.234.9558.467zm-10.0362.468c-1.4337-.234-.7169 1.168-1.1948 1.87.4779.701 1.6727.701 1.9117.233-.239-.467.2389-.467.4779-.935.4779.468 1.1948.468 1.6727 0l.239-.233h-.9559v-.468l1.1948-.233.239-.234c-.4779-1.403-1.9117.233-2.6286-.935 0 .701-.4779.935-.9558.935zm3.8233 3.272l1.1948-.234c.239-.233-.7168-.233-1.1948.234zm-4.3012.935l-.239.234c.478.234 1.6727-1.169 2.3896-.234l-.7169.935 2.6286-.468c-1.1948-.701-2.8675-.934-4.0623-.467zm5.496 8.648l.9559-.233h-1.1948l.2389.233zm-.9558-17.53c-1.6727-.701-3.8233 1.402-5.0181 0-.4779.234-.9558 0-1.1948.468.239-.234.4779 0 .7169.233-1.4338.468-1.9117.701-2.8675 1.403 2.3896-1.403 5.496-.935 8.3635-2.104zm8.6025-1.636c-.7169.234-1.4338.234-2.3896-.234-1.6727.935-2.3896.234-4.0623 1.169h2.8675v-.234c.9558.234 2.3896 0 3.5844-.701zm-22.9399 3.74c1.1947.233 1.4337.701 2.8674.233l.239-.233c.4779.467 1.1948.467 1.6727 0 .4779-2.104-2.1506.935-3.3454-.468l-1.4337.468zm36.7994-8.415c-.7169-.467-2.3896.701-3.1065-.234.239 1.403 1.9117.234 3.1065.234zm3.1064-1.636v-.234l-1.1948.234v.234l1.1948-.234zm6.2129-1.402c-1.6727-.234-3.5843.467-5.735.701 1.4338.701 2.6286 0 4.0623-.468v-.233h1.6727zm-15.2933 2.337l5.2571-.701c-2.1506.233-3.1064-.468-5.2571.701zm-20.5503 2.337c.239-.233.239-.467.239-.701l-.9559.468c.9559-.234-.4779.467.7169.233zm18.8776-3.272v-.467c-.4779.701-1.4337 0-2.1506 0 .4779.701 1.1948.701 2.1506.467zm.478-.467l1.1947.233c0-.701-.7168-.467-1.1947-.233zm-13.3816 1.636c.4779-.468-.239-1.169.4779-1.403l-1.1948.468c-.4779 0-.7169-.234-1.1948-.468-1.1948.234-2.6285.468-3.3454 1.169.9558.467 2.6285.701 3.8233.701-.239-.467 0-.701 0-.701.4779 0 .7169.467 1.4338.234zm3.3454-1.87l-.478.234c.239.233.478.233.7169.233 0-.233 0-.467-.2389-.467zm3.1064.234l-.239-.234 1.6727-.468c-.7168.234-1.6727.234-2.1506-.233l-.7168.701c0 .234-.239.234-.239.234.4779.233 1.1948.233 1.6727 0zm10.7531-3.039c.7168.467 1.6727.935 2.6285.701-.2389-.467 0-.701.239-.701h-2.8675zm-1.4338-.468c.4779 0 .7169 0 .7169-.467l-.239-.234c0 .234-.2389.468-.4779.701zm-5.496 1.403c1.4338 1.402 3.3454 0 5.2571 0-.4779-.234 0-.701-.239-1.169-1.6727 1.403-3.3454 1.403-5.0181 1.169zm-14.5764 1.169v.233l1.1948-.233v-.234l-1.1948.234zm-23.1788 2.103c-.239-.935.7168 0 .7168-.701-.4779.234-1.6727 0-1.4337.701h.7169zm11.231-4.207h.7168l-.2389-.234c-.239 0-.239 0-.4779.234zm22.9399-4.207v-.234h-.239v.234h.239zm9.5582-3.974c-.4779.234-.7168.234-1.1947.234.2389 0 .4779.234.7168.467.239 0 .4779 0 .4779-.701zm3.8234-1.87c-.478 0-.9559.234-1.4338.468.239 0 .4779 0 .7169.467 0-.467.7169-.701.7169-.935zm4.5401-.233c.239 0 .239 0 0 0-.2389-.234-.4779-.468-.7168-.468-.4779 0-.7169.234-1.1948.234.4779.467 1.1948.234 1.9116.234zm-7.1687 1.869c.239-.233 0-.233 0 0l.239-.233c.2389-.234.4779-.468.4779-.701-.4779.233-1.1948.701-1.6727.934.4779.234.7169 0 .9558 0zm-9.0803-.934c.2389 0 .4779.233.4779.467-.9559.234-.239.467-.239.701.239 0 .239 0 .239-.234l-.4779.702c.4779 0 .7168 0 1.1947.233.478 0 .7169 0 1.1948-.233.4779-.234.9559-.468 1.4338-.702v-.467c-.4779-.234-.9559-.467-.7169-.701-1.1948.701-1.1948 0-2.3896 1.168-.2389 0-.2389-1.869-.7168-.934zm-6.2129 3.272s0 .234-.239.234h.9558v-.234h-.7168zm-3.5844.701c0 .234.239.234.4779.234.239 0 .239-.234.4779-.234v-.234l-.9558.234zm-15.7712 3.272c.9559-.233 1.9117-.233 2.8675-.233 0 0 0 .233.239.233 0-.233 0-.233.4779-.467l-.9558-.468-2.6286.935zm-9.7972 1.169c.2389.701 1.9116-.467 1.9116.467h.7169l-.7169-.467h-.2389v-.234l-1.6727.234zm8.1245-.701c.239 0 .4779-.234.7169-.234l-.7169.234zm.239.467c-.239 0-.4779-.233-.4779-.467 0 0 0 .234.2389.234l.239.233zm2.6285-.233h-1.6727 1.6727zm1.9117-.468c-.239 0-.239-.234 0 0zm-10.5142 12.622l1.4338.467c-.4779 0-.4779-.467-.4779-.701l-.9559.234zm186.8643-24.075c.717 0 1.673-.234 2.39 0 .239-.234.239-.234.478-.467-.717-.234-1.434-.234-1.912-.468h-1.195c.717.234.478.468.239.935zm-12.664-.234h.478-.478zm-1.673.234l.239.234c.239-.468.478-.468.956-.468-.478 0-.956 0-1.195.234zm-25.091 1.636c-.239.935-1.672.468-3.106.701 0 .234 0 .468.239.468l5.974-.935-3.107-.234zm-3.106.234c.478 0 .956-.234 1.195-.234-.717-.234-1.434-.467-2.151 0 .717-.234.956 0 .956.234zm-7.408 1.169h.478v-.234h.717v-.468c-.239 0-.478.234-.717.468l-.478.234zm-3.345.467c.717 0 1.195-.234 1.673-.467-.478-.468-.478-.935-1.673-.468v.935zm-6.93.468h.717c-.239-.234-.478 0-.717 0zm-9.797.467c.717-.234 1.673-.234 2.389-.467-.239 0-.239 0-.477-.234h-2.868c.239.467.478.701.956.701zm-7.408.935c.956 0 1.912 0 3.107-.234-1.195-.467-2.151-1.168-3.107.234zm-13.62 1.636c1.911-.234 3.823-.467 5.496-1.169v-.233l.478.233c.239 0 .239 0 .477-.233-1.194-1.169-1.672.701-2.867-.702l-.239 1.169-1.434-.467.239.701c-.239.701-.956 0-1.434-.234l-.716.935zm-10.515 1.169c2.151-.468 4.541-.468 7.169-.701.478-.468 1.195-.702 1.673-1.403-3.345-.701-5.974.935-8.842 2.104zm-7.885-.234c.956 2.571 3.106 0 4.779.935.478.234 1.195.234 1.673 0l.478-.701v-.234c0-.467-.239-.467-.478-.701-.239 0-.478-.234-.478-.234-.478.234-.956.701-1.434.234-1.195.467-2.151 1.636-3.584 1.636l-.239-.701c-.239-.468-.478-.468-.717-.234zm-4.54 1.636c.478 0 .956-.234 1.433-.467-.716 0-1.194 0-1.433.467-.239 0-.239-.234 0 0zm-10.514 1.403c.239-.234.478 0 .716 0 .478 0 1.195.467 1.434.935.239 0 .239-.234.478-.234l.478-1.169v.468c.239-.234.239-.468.478-.468-.956 0-2.39-.701-3.584-.234.239.234 0 .468 0 .702zm-15.2937 1.636c.239.233.239.467.239.467.4779.468.7169 1.169.9558 1.636-.7169-.467-1.4337-.935-2.1506-1.168-.239.233-.4779.233-.4779.935.4779.467.7169-.234 1.1948-.234.9558 2.337 3.8233.234 4.7791.467.239-.233.239-.467.239-.701l.7169.935c2.1506.234.9558-2.337 1.1947-2.104.7169-.233 1.4339-.467 1.9119-.934.478 0 1.195 0 1.911-.234v-.468c-2.628-.935-4.5397 0-6.9293.702-.4779.934 1.4337 1.168.7169 1.402 0-.468-.239-.468-.478-.701l-.2389.467v-.467c-.7169 0-.9558.935-1.6727 1.402-.239-.234-.9558-.467-.239-.701l-.4779-.234 1.1948-.701-2.3896.234zm-15.7711 0c.2389 0 .4779-.234.9558-.234v-.234l-1.4338.234v.467l.478-.233zm-14.5764 0h-2.1507c0-.234 0-.701-.4779-.701-.4779.467-1.4337.467-1.1948 1.168-.7168 0-1.4337.234-1.6727.468-.2389 0-.2389-.935-.4779-1.169v.467l-.9558.234c-.7169.468-1.4337 1.169-1.9117.234l-.4779.935-.2389-.234c-.4779 0-.9559.234-1.1948.468 0 .233.2389.233.2389.467h-.4779c.4779.701 1.6727.234 2.3896.935-1.9117 1.636-4.3012-.701-5.9739 1.169h.2389c.7169 0 1.4338 0 1.9117-.701l-.239.467.7169.234c1.6727 0 3.1064-.234 4.7791-.468l.239-.233c-.4779-.468-.7169-.702-1.1948-.468.4779 0 .9558-.234 1.6727-.701v-.468l.9558.702c.7169-.468 1.6727-.702 2.6286-.935-.239 0-.4779-.234-.9559-.702l.239.702h.7169c1.1948-.234 2.3895-.702 2.8675-1.87zm1.4337 0c-.239 0-.7169.233-.9558.233l-.239.234 1.4338-.234-.239-.233zm5.496-.701c-.2389 0-.4779-.234-.7169-.234l-.2389.467s.4779 0 .9558-.233zm.4779-.468h-.2389.2389zm7.1688-1.87h-.9559c-.2389.234-.7168.234-.9558.701l.4779.234c-.4779 1.87-1.9116 0-2.8675.468l.239 1.402c1.4337-1.636 3.3454-.701 4.7791-1.87h.239l.2389-.467c-.2389.233-.2389.233-.4779.467-.2389 0-.4779-.467-.7168-.935zm9.5582-1.636c-.2389 0-.2389 0-.4779.234-.2389.234-.4779.701-.9558.935-.239-.234-.4779-.701-.7169-.701-.2389.233-.4779.467-.9558.701.239.233.239.233.4779.233l.9558-.233 1.6727-.234v-.935zm-1.9116-4.441c.9558 0 1.9116-.467 2.8675-.701-.239 0-.4779.234-.9559.234-.7168.467-1.4337.233-1.9116.467zm-7.1687.234l1.1948-.234-.239-.234-.9558.468zm-3.1065.701l-.2389.701s.2389 0 .2389.234c.7169-.234 1.9117.467 2.1506-.701.239 0 .478 0 .7169.233.239-.233.4779-.233.7169-.467l-.9558-.701h.2389v-.234c-.9558.468-1.9117.701-2.8675.935zm-9.3193 2.104v.467c.2389-.467.9558-.234 1.4337-.234.239 0 .4779-.233.4779-.233.9559-.702 1.9117-.702 2.8675-.702v-.467c-.7168.234-1.6727.467-2.3895.467h-.7169c-.4779.468-.9558.702-1.6727.702zM44.924 149.858c-.478 0-.9559.234-1.4338.234.4779 0 1.1948 0 1.4338-.234zm3.5843 2.571c.239 0 .7169-.234.9559-.234-.478-.233-.7169-.701-.9559-1.168-.4779.701-.9558-.234-1.4337.701l1.4337.701zm-.9558.234c.239 0 .4779 0 .9558-.234-.2389 0-.4779-.234-.4779-.234l-.4779.468zm13.8595-1.169c.239-.234.239-.234.4779-.467l-.2389-.234h-.7169v.701h.4779zm-6.4518.701c1.1948 0 1.4337.935 2.6285.468.239-.234.4779-.234.239-.468.7168-.233 1.9116 0 2.8674-.233-2.1506-.468-4.3012.701-5.7349.233zm-2.8675.468c.2389 0 .7169-.234.9558-.234-.4779-.234-.9558-.234-.9558.234-.239 0-.239 0 0 0zm30.3476-1.87l.4779-.234h-.4779v.234zm-.478 1.402c1.1948-.233 3.1065.468 4.0623-.935-1.1948-.701-2.3896-.233-3.8233.234-.239 0-.239.234-.239.701zm-12.6647 1.87h.4779c1.9117-2.805 2.8675-.234 5.0181-1.168-.4779.701-1.6727 1.168-2.3896 1.168.239.701 1.4338.234 1.9117.468.239-1.403 3.8233-.234 4.7792-1.87v.467c1.1947-.233 2.3895-.233 3.3454-.701l-.9559-.234s.239 0 .239-.233v-.702h-.4779l.2389-.233c.239-.234.239-.468.4779-.702h-.7168c.4779-.233 1.1947 0 1.4337-.467l-.7169-.468c-.4779.234-1.4337 0-1.6727.468.239 0 .478.234.478.467-1.9117.468-3.5844 0-5.0181 1.169l1.6727.701-.239.234-1.6727-.701c-3.5844-.701-6.2129.234-8.8414 1.169 1.1948.233 2.3895.467 3.5843-.234.239.935-1.1948.935-.9558 1.402zm-43.0123-7.246l.4779-.701.239.234c-.4779 1.402-2.1506 0-2.8675.935v.467c.2389.234 1.9116-.701 2.1506.234.7169 0 1.4337-.467 1.4337-.935 1.1948.234 3.5844-.701 3.3454.935 2.3896 1.402 4.7792-.234 7.4077-.701l.4779.935c-.9558 3.038-5.496.935-7.8856 2.805-.9558-1.169-2.8674 0-4.3012 0v.233l-.4779-.467-.4779.701c-.7169.234-.9558.935-1.4338 1.169-.2389-.935 1.1948-1.403 1.6727-2.104l-1.4337-.701.7169-.935c-.9559-.467-1.1948-.701-2.1506-.935l.4779-.935c.7168-.467 2.3895-.935 2.6285-.234zM259.03 11.0186c-.717 3.506 0 7.0121 2.15 10.0507 2.151 3.2723 5.018 5.1422 8.842 5.8434 3.584.7012 3.48 0 6.586-2.1037 3.107-2.1036 4.779-4.9084 5.496-8.4145.717-3.7398 0-7.01206-2.15-10.28437-2.151-3.27231-1.808-5.142196-5.392-5.843405-3.823-.701209-7.169 0-10.036 1.869885-2.868 2.33737-4.779 5.1422-5.496 8.88199zM124.497 202.916c-.239.935 0 1.87.478 2.571.478.701 1.194 1.403 2.15 1.403.956.233 1.673 0 2.39-.468.717-.467 1.195-1.169 1.434-2.103.239-.935 0-1.87-.478-2.572-.478-.701-1.195-1.168-2.151-1.402-.956-.234-1.912 0-2.628.467-.717.468-1.195 1.169-1.195 2.104zm78.139-172.9648c-.478 1.8699 0 3.5061 1.195 5.1422 1.194 1.6362 2.628 2.5711 4.54 3.0386 1.672.2337 3.345 0 5.018-1.1687 1.434-.9349.784-2.5711 1.262-4.2072.478-1.8699 0-3.5061-.956-5.1422-.956-1.6362-1.023-2.5711-2.935-3.0386-1.911-.4675-3.584 0-5.257.9349-1.433 1.1687-2.389 2.5711-2.867 4.441zM81.2455 198.008c-.4779 2.337 0 4.674 1.4337 6.778 1.4337 2.104 3.3454 3.506 5.9739 3.973 2.3896.468 2.9348.001 5.0854-1.402 2.1507-1.402 3.3454-3.272 3.8234-5.61.4779-2.571 0-4.674-1.4338-6.778-1.4337-2.104-1.74-3.506-4.3685-3.973-.7169 0-1.1948-.234-1.6727-.234 1.1948-.234 2.3896-.468 3.3454-.701 2.8675 1.636 7.6467-.702 10.9917-.468 3.585-.234 7.647-1.87 10.753-.935.956-.701 2.629-1.636 4.063-1.168l1.672.467c0 .467-.717.234-1.194.467.716 1.169 4.062 0 4.54-.233-.717.467-1.434-.234-1.912-.468l.717-.701 3.823-.234c.239.234 0 .468-.239.468h-.717c.239.467.956 0 1.195 0 .478-.701.956-1.169 1.912-1.169l.956.701c-.478 1.403-1.673 0-2.39.935 1.434.701 3.585-1.402 5.496-.467-.239.467-.478.233-.956.467.478.234.956-.467 1.673 0l.717.468 1.912-1.87 1.672.935c0-.468-.717-.468-1.194-.935.238-.234.477-.234.955-.468l.717.468.478-.935.717.467c.239-.233.478-.233.956-.467l.717 1.402v.234h.717v-.234c-.239.234-.478 0-.717-.233-.717-.935 1.194-.935 1.433-.935 1.673.701 3.824.701 5.735.467.239-1.169 1.673-.701 2.629-.701.239-.234.478 0 .717.234.478-1.169 1.673.233 2.389-.234.956-.234 1.912 0 2.868 0l.956-.935c.717.701 1.194.234 1.911 0 .717-1.402 1.673-.234 2.868.234 0-.468.478-.935 1.434-.935.478.467 1.672-.468 1.911.701 3.585-1.169 6.452-.234 9.797-.935 1.434-.234 5.258-1.169 7.647-.935 1.912.701 3.346-.701 5.257.234 2.868-.234 5.735-1.636 8.603-.701.239-.234.239-.468.478-.468l.239.234-.478.701c.478 0 1.911.468 2.15-.701 2.39-.468 5.257.467 7.169-.701 6.213 0 11.47-.935 17.444-.702l.717.468c.239-.701 1.433-.234 1.672 0 5.496-.468 8.842-1.403 13.86 0 2.628-2.104 5.735.234 8.841-.935 1.434.467 2.868-.468 4.541.234.477-.702 1.433-.234 2.15 0 1.195-1.403 2.151.935 3.823-.234.717 2.337 2.868.234 4.302 0 3.106-.935 5.496.701 8.363 0 1.195.701 2.868 0 4.062.467 2.868-.467 6.691-.233 9.798.468 4.779-.468 8.841-.234 12.903.234 1.434.233 5.257 2.804 7.169.233h1.673l-.239.702c1.195-.468 3.345.701 4.779 0 2.868.233 5.496.935 8.125 1.402 2.389.234 5.257-.935 6.929.467 2.39-.467 4.541.234 6.691.468.956-2.104 4.062-.468 5.257-1.636-.239-.468-1.195-.935-.717-1.403 1.434-.233-.239.702 1.195.935l1.434-1.168c-1.673 0-2.629-3.74-5.018-1.637-.717-.934-1.673.702-2.629 0 .239-.233.478-.233.956-.467-.956-.935-3.106 1.636-3.345-.701-2.868 0-6.93 0-9.32-.935.478-.701-.239-1.636-.956-1.87 1.434-.701 3.346 0 5.019.234 3.345-.468 8.602.935 9.797-1.636l-.956-1.169c.239-.234 1.912.234 1.673-.701l-2.39.233v-1.168c-1.912-1.636-5.496-1.169-6.691-3.273 1.434-1.869 5.018.234 5.735-2.337 2.151-.935 4.302-2.104 5.496-3.973l-1.194.233c-1.912-2.103 2.867-1.636 1.911-3.973l-.956 1.402c-.478-.935-.955-1.402-.478-2.337 1.912-.468.717-2.338.956-3.506-.478-.935 0-1.87.478-2.805.717 0 1.673 0 2.629.234.717 2.103 2.628 3.038 4.54 3.739.239-1.869 2.628-3.272 3.345-5.142-1.433-1.168-3.345-1.402-5.018-2.103-.717 1.636-2.867 1.869-4.54 1.636.478-.935.717-1.87-.239-2.571.956-.702 0-1.87 0-2.571-1.912-.702-1.673-3.506-4.062-3.74 1.911-1.636 3.584-3.506 4.779-5.142-.239-.702-.956-.935-1.434-1.637.956 1.403-.478 2.338-1.434 3.506-.716-.233-.955.234-1.433.702-.239 0-.717-.234-.956-.468.717-.467.956-1.168 1.912-1.168l-.478-.234 1.194-1.636c-1.672.233-3.106 1.168-4.301 2.103 0-.467.239-1.168.239-1.636 1.912-.935 3.584-1.87 5.018-3.272l.717.701 3.107-.935-2.629-1.169 1.912-1.402c-.717-.701-.717-1.636-.717-2.571.956 0 1.673 0 2.15-.701-.239-.702-1.433-1.169-.716-2.104 1.433-.234-.239.935 1.194 1.169l1.434-1.87c-1.912 0-3.106-5.142-5.496-2.104-.717-1.168-1.195 0-1.912.234h-.478s-.238 0-.238-.234c.238-.467.477-.467.955-.467-1.194-1.169-3.345 2.337-3.584-.935h.956c0-2.338 2.867-.468 3.106-2.805 1.434.935.717-1.636 2.151-1.402-.478-3.039 3.823-5.61 1.912-8.649 3.584-1.636-.717-3.506.238-6.077.956-.9348 2.39-1.4023 3.107-3.0384 0-.7013-.956-2.1037.239-2.3374-1.434-1.1687-4.062-.4675-6.452-.7012.717-.935 2.868-1.4024 2.151-3.5061l-.956 2.1037c-.717-1.1687-.956-1.8699-.717-3.2724 2.151-.7012.717-3.2723.717-4.9084-1.434-3.5061 3.345-6.7784.717-9.8169.956-.935 0-2.3374 0-3.7398h-.239 1.433c-1.672-1.1687-.716-2.1036-2.628-3.0386l.239-.2337c.717.4674 1.434.7012 1.673 1.4024V67.349c.239 0 .478.2338.716.4675-.238-.2337-.477-.4675-.955-.7012-.239-1.1687-.717-2.3374-2.151-1.6361l-.717.2337c0 .4675 0 .9349.239 1.1687h-1.195c-.478-.4675-.955-.7012-1.672-.7012-.239-.2338-.478-.4675-.717-.7012h-.956c-1.673-2.8049-.478-6.0772-.956-9.5832.717-.4675 1.434-2.1037 2.39-1.6362.478-.9349-.239-1.8699-.239-2.8048-1.434-.7012-3.107-.2338-4.54-.4675l-8.125 1.8699c-.239.9349-.239 1.6361-1.434 1.4024l-.478-.2337c1.434-.935-.478-1.4024-.239-2.5711l-.716-.4675 10.753-2.5711c.478.2337.955.7012 1.433.4675.956-.935-1.433-1.4024.239-1.8699.478 1.4024.956 1.6361 2.39 1.6361.478 0 .478-.7012.478-1.1686-.956-.7013-.956-1.6362-1.195-3.0386h-.239c0-1.1687-.956-2.5711-1.434-3.7398l-4.779-1.6361.956.9349c-1.195 0-3.584 0-4.062 1.8699-3.824.9349-6.691 0-10.275 0l-1.195 1.4024c-.717-.7012-.956-1.4024-1.912-1.4024-.239 1.8699-3.345.7012-4.54.9349l-2.39-.2337.956-1.6362-2.628.2338c0 .4674.478 1.1687 0 1.4024-1.195-.7012-.717-1.1687-2.151-1.8699-2.151.7012-4.54-.2337-5.735.2337l.478.2338c-2.629 1.8699-5.735-1.1687-8.364.7012-3.345-2.5711-6.69 2.1036-10.036-1.1687-1.433-.4675-1.911 1.8699-3.106.2337-1.434.4675-4.301.935-4.301-.4674-1.673-.4675-2.629 1.8699-4.541.9349-1.194.2337-2.389 0-3.584-.7012-1.195 2.3374-2.867-.2337-4.54.7012l-.717-.4675c.239-.2337.239-.4674.239-.7012-1.195 2.3374-3.345-.4674-5.257 1.1687l-.239-.7012c-1.195 1.4024-3.107-1.4024-4.062.4675-3.107.4674-6.93-1.1687-9.32 1.1687-3.345-.4675-5.496.4674-8.841 0-.239.4674.239 1.4024.956 1.6361 1.672.935 4.062-.2337 5.974.4675l-.478 1.1687c.717-.7012.956.4674 1.433.7012-.238 1.6361-1.194.4674-1.911.4674h-.239c.717.935 1.912.4675 2.867 1.1687-.478 1.4024-1.672 2.1037-2.867 2.1037 0 .4674 1.195.4674.956 1.1686l-.239.4675 3.584-.4675c-1.673.4675.717 1.1687-.239 1.8699-1.912.7012-3.345-.4674-5.018 0l.478.2338c-.956.9349-2.629.7012-3.823 1.1686.239-1.1686-1.195-1.1686-1.673-1.8698l.956-2.1037c-.478.7012-1.912 1.6362-2.39 3.0386-.956-.2337-1.195.7012-1.673 1.4024-.477-.9349-2.628 0-4.301-.9349-.717-.7012 0-1.4024.478-1.8699-1.195 1.1687-2.389-.2338-4.062.9349-1.434-.2337-2.629-2.1036-3.107-3.0385-1.194 1.1686-.955 1.1686-.239 2.5711 1.673.2337 1.673 1.1686 2.151 2.5711-.239.7012-1.195.4674-1.912.7012-.477-.4675-.239-1.4025-.477-1.8699-.239 1.6361-1.673.9349-2.868.9349-.478-.2337-.478-.4675-.478-.9349-.478.2337-1.434 0-1.434.7012l-.478-.2338.717-1.6361c-1.194 0-3.345-.2337-4.779.2337.239.2338.478.2338.478.7012-1.195.4675-.956 1.1687-1.912 1.8699l-5.018.2338c0 .4674.239.4674.478.7012-3.584 1.4024-7.407.2337-11.231 1.4024-.239-1.1687-.956-1.1687-1.911-1.4024.239.7012 0 1.1686-.239 1.6361l-.717-.4674c-.239 1.6361-1.673.4674-2.629.4674-.956 1.4024-2.867-.2337-3.823 1.1687l-1.195-.7012c1.195-2.3374 5.018.2337 5.018-2.5711 1.912-1.1687 4.54.7012 5.257-2.3374.717-.9349-1.672.935-1.672-1.1686l-3.346 1.8698.478.2338-.239.4675-1.434-.7013c.956.7013.478 1.4025.717 2.1037-4.54.7012-7.885 2.3373-12.425 1.8699-2.151 1.4024-6.452 1.1686-9.559 1.6361-1.434-1.8699-.239-2.1036.478-3.7398.717-.2337 1.434-.4674 2.151.2338l-.239.4674c1.673.935 3.345-.4674 5.018 0l.717-.2337c.239-2.5711 2.867-.2337 3.823-2.3374-1.195.935-4.301-.4674-6.213 1.6362-.478-.2337-.478-.7012-.478-.9349l-.956 1.6361c-.955-.7012-1.911-1.1687-2.867-1.1687-.717-.2337-.478-.9349-.239-1.4024-.717 2.3374-2.867.7012-3.345 3.0386l-2.629.2337 1.912.7012c-4.54 2.1036-11.948 3.7398-16.966 3.7398-2.629-.4675 0-2.3374-.717-3.9735-.239-1.4024-.478-2.5711-.717-3.9735 0-.2338-.239-.7012-.239-1.1687-.239 0-.478.2337-.478.4675l.717.4674c0 .4675-.478.4675-.956.4675 0 .935.956 2.1036 0 3.0386l-4.779 1.1687c.717.7012 2.151-.935 2.39.4674l-.478.4675c.478-.4675.956.2337 1.433.4675-.238 1.4024-1.911.9349-2.867 1.4024.239.2337.478.2337.478.7012-.239.2337-.239.4675-.478.4675l-.478-.2338v.2338c-5.974 2.8048-13.859 1.6361-18.4 3.506l-.478-.2337c.239.9349-1.194 1.8699-2.15 1.1687-1.673-1.4024-4.062 2.3373-5.257-1.1687l.239-.4675-.717-.4675c.717-.9349 1.912-1.8698 2.628-1.6361.956-2.1036 3.107.2337 5.018-.7012l-.477-.2338 1.433-1.1686c-4.062.4674-7.646 2.1036-11.709 2.8048 0-.2337-.239-.2337-.239-.2337l-.477.4674c.238 0 .477-.2337.955-.2337.717.7012 1.434 2.1036 2.629 2.1036-1.434 1.1687-3.823 2.3374-5.018 1.8699-1.673 1.1687-4.5404 1.6362-6.4521 2.1036l-.2389-.7012-.4779 2.3374c-2.1506-3.506-6.6908 0-9.5583-.2337-.4779.7012-1.4338.9349-2.1506 1.1686-.239-.4674 1.1948 3.2723-1.1948 2.8049l-.9558-1.1687c0 .4675.2389.7012 0 1.1687-1.1948-.4675-4.0623 2.5711-5.2571-.7012-.4779 0-.7169.9349-1.1948.2337-.4779-2.1036 2.6285-.4675 1.1948-2.8048l.9558-.4675h-.2389c-.4779-.9349 0-2.3374 1.1948-2.5711 2.8674.7012 5.496-2.3374 8.3635-1.1687.4779-1.1687 2.3895 0 3.8233-.9349v-.4675h-3.8233l.4779.2337c-1.6727.935-2.8675-.2337-4.5402.7012-.9558.2338-.7169-.9349-1.6727-.4674-1.1948 1.1687-3.8233 2.1036-5.496 1.8699l-5.974.4674c-.4779 1.6362-3.1064.7012-4.3012 2.1037-3.1064-1.8699-5.9739 1.4024-8.8414 1.1686-4.0623 1.8699-8.3635 1.4025-12.1868 3.7398l-2.8675-.9349c1.1948-.2338 1.6727-2.1036 3.1064-1.4024-1.6727-1.8699-2.6285 2.3373-4.3012-.4675l.2389 1.1687c.478 0 .7169-.2338.9559.2337-.7169 1.6362-1.6727.4675-3.1065 1.8699v.2337c-3.1064 1.4024-6.4518 1.6362-10.2751 1.4025 1.6727-2.8049 4.3012.4674 6.4518-1.8699-.7169-.935-2.1506-.2338-2.6285-1.1687.2389-.7012.7169-.935 1.4337-1.1687l.4779.2337.478-1.1686c.7168 1.4024 1.6727-.4675 2.6285-.4675l-.4779-.2338c1.1948-1.6361.9558 1.4025 1.1948 1.1687.4779-.4675 1.1947-.7012 1.9116-.7012-.2389-.9349.9559-1.1687 1.4338-1.8699.4779.2338.4779.4675.4779.935 2.6285-.2338 5.0181-.2338 7.1687-1.8699 1.6727-.2338 2.8675.9349 5.0181 1.4024l.9558-.4675c-.4779-1.1687-2.1506-.2337-2.8675-1.1687 1.1948.4675 1.6727-1.6361 2.3896-1.6361l1.1948.9349c-.239-.2337 0-.4674.239-.7012.7168 1.4024 1.6727-.7012 2.3895-.2337l.4779-.935c1.4338.4675 2.8675-.4674 4.5402-1.4024.7169 1.1687 1.6727-.2337 2.3896.4675-.4779.4675-1.1948.9349-.9558 1.6361 1.1948.2338 2.8675-1.4024 3.8233-1.1686-.4779 0-.9558 0-1.4338-.4675.7169-.4675.7169-.9349 1.4338-1.8699.4779.2337.4779.4675.4779.935 2.3896-1.4025 5.9739-1.1687 8.6025-.7013.4779-.7012-.4779-.9349.2389-1.6361l.9559-.2338c-.478 0-.9559.0001-1.6727-.4674 1.4337-2.3374 4.0622-1.6362 5.9739-2.3374 3.8233-.2337 8.8414-1.6361 13.1426-2.5711l-2.1506-.2337c.7169-1.8699 2.3896-.2338 3.8233-1.1687l.9559.9349c0-1.8698 1.9116.2338 2.3895-1.1686v-.4675c-1.9116 1.1687-4.5401.2337-5.7349.2337-.4779 1.4024-2.3896.7012-3.5844.7012-.4779-.2337-.9558-.7012-1.4337-.4674l.2389.7012c-.9558.7012-2.6285.9349-4.0623.2337 1.1948.2337.7169 1.4024 1.4338 1.8699-.7169-.4675-1.4338 1.6362-2.3896.2337l.239-.4674c-.239-.935-1.1948 1.1686-1.4338-.4675-1.4337 0-.7168 2.3374-2.3895 1.1687.2389-.4675.4779-.4675.9558-.4675l-1.1948-.9349c-.239.2337-.239.4674-.4779.4674-.239-.2337-.4779-.2337-.4779-.7012 2.6285-1.1687 6.4518-1.6361 8.6024-2.3373-2.6285-2.1037-4.0622 1.6361-6.6908 0 .7169-.7013 2.6286-.7013 2.1506-2.3374l-3.5843.7012c0 .4675.2389.4675.4779.7012-2.6285 1.1687-4.3012 2.8048-7.4077 1.8699.9559-1.1687 2.6286-1.8699 3.5844-1.8699-.4779 0-1.4338-1.1687-1.6727.2337l-6.6908 1.8699c.9558 0 1.9116-.9349 2.6285.2338v.4674c-1.9116-.2337-3.8233 2.1037-5.9739.935.4779-.4675.9558-.935 1.9116-1.1687 0-.7012-.9558 0-1.4337 0-.7169 2.5711-3.5844.2337-5.0181 1.4024l-1.9117.4675.7169.4675c-1.4337.7012-2.3896 2.8048-4.0623 1.1687l.4779-1.1687c-.4779-.2338-3.1064 1.4024-4.7791 1.8699.4779 2.1036-2.3896.9349-2.8675 2.1036-.7169 0-1.6727-.935-1.9117 0l-.2389-.7012c-2.1506 2.3373-6.4519 1.1687-9.0804 2.3373l-.2389-.7012c-.478.4675-1.4338 1.4025-2.1507.935l-.4779-.2338v.2338c-1.9116 0-4.0622 1.6361-5.7349 1.6361l.4779.2338c-1.6727 2.3373-4.5402-1.1687-6.6908.7012l1.4337.7012c-1.4337 2.1036-3.5843 2.1036-5.735 1.6361l-.9558.935c-1.4337 1.4024-4.7791 0-3.8233 2.5711l-.9558.7012c2.8675-1.1687 5.257-.2337 8.3635-.2337.7168.9349-.4779.9349-.4779 1.1686 1.1947 1.4025 1.9116-.4674 2.8674-.7012.478.7012 1.1948.7012 1.6727 0 .7169.2338.478 1.1687.7169 1.6362-1.1948.2337-2.6285 2.1036-3.5843.7012-.9559-.2337-.7169.9349-1.1948 1.4024l-2.6286.2338 1.9117 1.1686c-.4779 1.4024-1.6727-.4674-1.9117 1.1687 1.4338 1.6362 4.3013-1.6361 6.6908-.7012 0 .2337 0 .2337 0 0s0-1.1687.7169-.9349c0 1.8698 2.3896.4674 3.5844 1.1686.4779.4675 2.3895-1.1686 2.6285.935l-2.1506.9349c-.7169 1.8699-3.3454 1.4024-5.0181 2.5711 3.1064-.7012 6.9297-1.6361 9.5583-2.8048l-.9559-.935c.9559-.4674 1.9117-1.6361 2.8675-.7012 0 .7012-.7168.4675-1.1948.7012.478 0 2.3896.4675 3.1065 1.6362.2389-.4675.9558-.7012 1.1948-1.4024.7168 1.1687 1.6727-.2338 2.3896.4675-.478 2.1036-2.6286 1.1686-4.0623 1.6361.2389.2337 0 .4675-.239.7012-1.4337.4675-1.6727-.7012-3.1064-.4675l.7168-1.1686c-2.1506.7012-3.1064 1.6361-5.0181 1.8699 0 .4674.478.7012.9559.9349-1.6727 1.6362-4.0623-1.4024-5.496 1.1687 1.1947.4675 1.9116-1.8699 2.6285-.2338l-.4779.935-.4779-.2337c.4779 1.6361-1.9117.4674-2.8675.7012-.4779-.7012 1.4337 2.5711-1.1948 2.1036 0 .4675.2389.4675.4779.7012l-2.1506.9349c.9558 0 1.9116 1.4025 2.6285.2338l-.7169-.4675c0-.2337 0-.2337.239-.4675.4779-.4674 1.1948-.7012 1.6727-.2337l.4779.2337-.9558.935c2.3896.2337 4.3012-2.5711 6.6908-1.8699 1.4337.4675 1.4337-2.1036 2.8675-.935 1.1948-1.1686 2.8675-1.4024 4.7791-.9349l1.4338.4675-.7169-.4675.4779-.9349c6.6908-.2338 9.7973-4.6748 16.2491-3.2724l1.9117 1.1687.2389-.4674-1.4337-2.1037c1.6727-1.4024 3.3454-.7012 5.496-1.6361 0-.4675-.239-.4675-.4779-.7012.2389-.7012 1.1948-.4675 1.9116-.7012l.7169.4674c-.239.7012-.9558.4675-1.6727.7012h1.6727l-.9558.935c-.239 0-.4779-.2338-.7169 0l.239.4675-.239.2337h.4779l.4779.7012c-.2389 0-.4779.2337-.7168.2337l1.1947.4675c-.2389.2337-.4779.2337-.9558.2337 0 0 .239 0 .239.2338-.9559.4675-1.9117.4675-2.8675.7012l-.239-.7012c-.7168 2.1036-3.8233.9349-4.7791 2.1036-.239-.2337-.4779 0-.7169.4675-.7169 0-1.1948.2337-1.4337-.7012.7168 0 1.9116-.7012 2.3895-1.6362-2.3895 1.1687-3.5843-2.3373-5.496 1.6362l-2.1506-.7012c-1.1948-.4675.9558.4674 0 1.1686l-.7169-.4674c-.9558.9349-3.3454 1.8699-5.0181 1.4024l.239.7012c-4.0623.7012-7.8856 2.1036-11.231 3.506h-1.4337l.2389.4675-.7169.2338c-.4779-.2338-.9558-.2338-1.4337 0 0-.2338-.239-.2338-.4779-.2338l-.9558.2338c.4779.7012.7168.4674.9558.2337-.239.2337-.4779.4675-.7169.7012 0 .4675.239.4675.7169.7012h-.9558l-.239.2337c-.7169 0-1.1948-.4674-.9558-1.1686-.239.4674-1.1948 1.1686-1.4338.7012l-1.1948 1.4024s.239 0 .239.2337h-.239c0 .2338 1.4338.7012.7169 1.4024h-.2389l.9558.935-4.3012 1.8699c1.6727-.2338 3.3454-.4675 5.257-.935 0 0 .239.2338.4779.2338l.239-.2338c.4779 0 1.1948-.2337 1.6727-.2337v.2337l.9558-.2337v-.2337c.9558-.2338 1.9117-.4675 3.1065-.7012.2389.2337.4779.4674.7168.9349l.239-1.1687h.2389c.478 1.1687 2.6286-1.1687 2.6286.935-.239-.7012.4779-1.1687.7168-1.6362l.9559.935-1.6727 1.4024c.7168-1.1687 1.9116.4674 2.1506-1.1687l1.4337.7012c0-3.2723 2.6286.9349 3.3454-1.8699l1.1948.935c-.2389.2337-.7168 1.1686-1.1948.7012l.239.7012c.4779 0 .7169-.2338.9558.2337-.7168 1.4023-1.6727.4675-2.8675 1.4023-2.1506 1.636-4.5402-.4673-6.2129 2.571-1.6727 0-2.8674-.234-4.0622 1.169 2.3895.935 5.0181-1.87 6.2129-.935h-.239v.467h.4779c0 .234.239.234.239.468.2389-.234.4779-.468.9558-.701h.4779c.4779 0 .7169 0 1.1948.467 0 1.169-1.9117 1.169-1.4337 1.403.7168.467 1.6727-.234 2.6285-.234-.239-.468.2389-.701.4779-1.169-.239.234-.4779 0-.7169-.234.4779-1.168 1.4338-1.402 2.3896-1.869l1.1948.934c-.7169.702-1.9117.935-2.3896 1.87l.7169 1.637c1.1948-.468 2.1506-.702 2.6285-2.104.4779.234.4779.467.4779.935 1.9117.234 3.8234-.468 5.735-.468l-.4779.935-.4779-.233-.239-.234 2.8675.467c-.9558.468-1.6727 1.169-2.8675 1.403 1.4338 0 3.5844-1.403 5.0181-.701-1.1948 1.636-3.8233.934-5.257 2.337l1.9116.467c-1.6727.234-3.5843 0-3.8233 2.104-.4779-.234-.4779-.701-.4779-.935l-1.1948.234.239-.468-.9559.468.4779.234c.7169 2.337-2.1506-.468-1.9116 1.636-.4779-.234-.4779-.702-.4779-.935l-1.4338.467s.239-.234.239 0c-.7169-.234-1.4338-.467-1.9117.468h.239l-.7169.233h.9559c.4779.468.9558.935 1.9116.468l-.7169-.468h1.4338c0 .702-.239 1.169-.7169 2.104-.4779-.234-.4779-.701-.4779-.935-.239.234-.239.468-.4779.701h-.4779l.2389.234c-.9558.468-1.9116.701-2.8675 1.169l-.7168-.701c.2389-.468.4779-.468.9558-.468l-.9558-.935c0 .701-.9559.468-1.4338.468l.4779.233c-.2389.468-.4779.468-.9558.468-.4779-.468 0-1.403-1.1948-.935 0 .467.4779 1.169 0 1.402.239 0 .7169-.233.4779-.935.7169 1.403 2.3896-.233 2.8675 1.403-1.6727.701-.4779 2.805-2.8675 2.337.239 1.402-1.6727.468-1.9116 1.403-.4779 1.168-2.8675-.702-3.1065 1.168l1.4338.234c-.4779.234-.7169 1.169-1.6727.935 4.7791 3.973 6.9297-3.506 10.992-.935-.7169.234-1.4337.467-2.1506.935-.7169 0-1.1948 0-1.6727.701 1.6727.701 4.3012.234 6.4518.468l-1.1948.467 1.4338-.234v.234c-3.1065.467-2.3896 1.87-5.735 1.636l-.4779.935c-.9558-.701-.239-1.169-.239-1.87l-4.0622.234c.9558.701 1.6727 0 2.8675-.468 1.6727 2.104-1.9117 1.87-1.9117 3.74 1.6727.234 2.3896-2.805 4.0623-.935l-1.1948.935c0 .468.9558-.935 1.9116-.701l.239-.467-.7169-.702c0-.701.9559-.467 1.1948-.467.4779 1.87 1.1948-.935 2.1506.467l-.2389.468c.2389.935 1.9116-.701 1.9116.935h.7169c0-.468-.7169-.701-.9558-.935 1.1948-.935 3.1064-1.636 4.7791-1.169 1.1948-2.571 2.1506 1.636 3.5844-.234 0 .935 1.6727 2.338 3.1064 3.273l-.4779.935c.239.233 1.4338-.468 1.6727-1.403.239.468.7169.935 1.1948 1.169l-1.1948-1.87c1.1948-.234 2.3896 0 3.3454.234.239.234.239.467.239.701v.467c-.9559.702-2.3896-.701-2.6286 1.169l2.8675-.467c-.4779-.702.239-1.169.4779-1.636l1.4338.467v.234c-.4779.233 1.1948-.468 1.4337.233l-.7168 1.169h.4779v-.234c-.239 0-.4779.234-.4779.468h-.7169c-.7169 1.636-2.1506.701-3.3454 1.87-.239-.234-.9558-.468-.9558-.935 0 .701-.7169 1.636-1.6727 1.402l-.239-.233v-.468.234l-.239.234c0 .701-.2389 1.869-1.4337 1.402-.239.701-1.1948.467-1.9117.701l-.7168-.467c-.4779.233-5.496.935-8.3635 2.103-1.1948.935-3.1065.935-4.7792 1.403 2.3896 1.168 3.8233-.935 6.4519 0 1.4337-.468 2.8675-1.169 4.5402-1.403l.9558.935c-.239-2.337 2.1506-.701 3.1064-1.402v.467l4.3013-.467v-.468c1.9116-.467 3.8233-1.168 6.2128-.935 1.1948-.701 3.8234-1.402 5.4961-1.168.2389-.234.2389-.468.7168-.468.4779.468 1.1948 1.169 2.1506.935.239-.234.239-.234.478-.234l1.1948.702c-2.1507 1.87-4.7792.935-7.1688 1.87.239 1.168 2.6286-.234 1.6727 1.402-.7168.234-1.1948.234-1.6727-.467-.2389.467-.4779.467-.9558.467l-1.4337-.701c.2389-.234.4779-.468.2389-.701-.4779-.468-1.1948 0-1.6727 0 1.9117-.234.4779 1.636 1.1948 2.337-2.1506-.234-2.6285 2.337-4.0623.234-1.9116 1.168-2.3895-2.338-4.0622-.234l3.5843.701-1.6727 1.403c2.3896 0 5.0181-.468 7.6466-.935-2.1506 1.402-5.9739.701-8.3635 1.636v-.468c-.2389.234-.4779.234-.7168.468l-.9559-.234v.468l.7169-.234c-.4779.234-.7169.234-1.1948 0l-.2389-.234v.234c-1.6727 0-3.8233 1.168-5.496 1.168l.2389.234c-1.6727 1.636-4.0623-.935-6.2129.468l1.4338.467c-1.4338 1.403-3.5844 1.636-5.4961 1.169v-.468c-1.4337 1.169-4.3012 0-3.8233 1.87l-.9558.468c2.8675-.935 4.7791 0 7.8856-.234.4779.701-.4779.701-.4779.935.9558.935 1.9116-.234 2.6285-.468.4779.468 1.1948.468 1.6727 0v.234c-2.6285.935-4.0623 1.169-6.2129 1.636.9558-.467 1.6727 0 2.3896.234v.234l-1.1948.234h-1.4337l.4779.233-1.1948.234c.4779 0 1.1948 0 1.6727-.234l.9558.468c-.4779.935-1.4337-.468-1.6727.701.7169.701 1.9117.234 3.3454-.234l-3.3454 3.506 2.3896-.467c-.239-.234-.9558-.468-.9558-.935 1.1947-1.87 3.5843-2.338 5.7349-2.104l-.9558-.701c0-.234.239-.467.7169-.234 0 .935.9558.701 1.9116.701-.7168.935-1.9116.935-2.8675 1.637l1.1948.467c0 .234 0 .468-.2389.468-.239 0-.4779.233-.7169.233-.4779-.233-1.1948-.701-1.6727-.701.239 0 .4779 2.104 2.3896 1.169l.2389-.468c.9559-.233 1.9117-.233 2.8675-.467.4779.234.9559.234 1.1948.467h-.7169c0 .468.478.468.7169.702-1.6727 1.168-3.8233-.935-5.2571.934 1.1948.234 1.9117-1.402 2.3896-.233l-.4779.701v.234c.4779 1.168-1.9116.233-2.6285.467-.4779-.467 1.1948 1.87-1.1948 1.636 0 .234.239.234.4779.468l-1.9117.701c.7169 0 1.6728.935 2.6286 0l-.7169-.467c0-.234.239-.234.239-.234.4779-.468 1.1948-.468 1.4337-.234l.4779.234-1.4337.467c2.3896.234 4.0623-1.87 6.4518-1.402 1.1948.234 1.4338-1.403 2.6286-.701.9558-.702 2.1506-.935 3.5843-.935 0 .233.239.467.4779.467.4779.234.9559 0 .9559-.234l.9558.234-.7169-.234.4779-.701c2.3896 0 4.3013-.467 5.974-1.168.7168 0 1.6727.233 2.6285.467v.467l-1.1948-.233c-1.1948-.234.7169.467-.239.701l-.7168-.468c-.9559.702-3.1065 1.169-4.7792 1.169v.468c-4.5402.701-8.6024 1.87-12.1868 3.038-.7169-.467-1.9116.234-2.3896.701 0 .468.478.468.7169.702-.4779.233-2.6285.467-1.9117-.702-.2389.234-1.1947.702-1.4337.468l-.9558.935c.4779.234.9558.234 1.4337.467v-.233c2.8675-1.169 5.0181-.468 7.1687-1.87h2.1507v.467c.4779-.234.7168.234.9558.468-1.1948.467-1.1948 2.337-2.8675 1.87l-2.1506.233c-.7169 0 1.1948.468 1.4337 1.169l.239-.935c.2389 1.169 2.3896-.701 2.3896.935 0-.468.4779-.701.7168-1.169l.7169.701-.9558.702c.7168-.702 1.6727.467 1.9116-.935l1.4338.467c.2389-2.337 2.3895.701 3.1064-1.402l.9558.701c-.2389.234-.7168.935-1.1947.467v.468c.2389 0 .7168-.234.9558 0-.7169 1.169-1.4338.467-2.6285.935-1.9117 1.169-4.3013-.234-5.974 1.87-1.6727 0-2.6285-.234-3.8233.935 2.6285.701 5.496-2.104 6.2129 0 .4779-.468 1.6727-1.169 2.3896-.468 0 .935-1.9117.935-1.4338.935.7169.468 1.6727 0 2.3896-.234-.239-.467.239-.467.4779-.935-.2389.234-.4779.001-.7169-.233.478-.701 1.4338-.935 2.1507-1.403l.9558.702c-.7169.467-1.6727.701-2.1506 1.402l.4779 1.169c.9558-.234 2.1506-.468 2.6285-1.403.4779 0 .4779.468.4779.701 1.4338.234 3.3454-.233 4.7792-.233 0 0 .2389 0 .2389.233l.7169.702-.239-.234-.2389.234 2.6285.467c-.7169.468-1.6727.935-2.6285.935 1.1948 0 3.3454-1.169 4.5402-.467-1.1948 1.168-3.5844.701-5.0181 1.636l2.6285.467c-1.1948-.234-.9558 1.87-1.6727.468-.9558-.234-.4779.935-1.4337.935l-.9559-.468v.468h.7169c.239.467.239 1.636-.9558 1.636l-.9559.234c2.1507 0 4.3013.701 6.4519.934-1.6727.702-3.1065.702-4.5402.935-.7169-.233 0-.701 0-1.168h.239v-.234l-.9559.234c0 .233.239.467.4779.467-.7168 1.169-1.4337-.467-2.6285 0-.9558-.935-2.8675-.467-4.0623-1.402h-.9558l1.4338.935c-.9559.701-2.3896.701-3.5844 1.402 2.6285.701 4.3012-2.337 6.6908-.701l.239.234c.2389.467 1.6727 0 1.4337 1.168l-.4779.702c-2.6285 1.636-5.496.935-8.1246 2.337 2.1507-.935 4.0623-.468 6.2129-.701-.2389.701-1.1948.701 0 1.168l-2.6285.702 9.0804-1.169c.2389.701.9558 1.169 1.1948 1.87.7168-.468-.478-.935-.7169-1.403v-.233c2.8675-1.636 7.6466.233 10.992-2.104.4779 0 .239.701.4779.935-.7168 1.402-2.1506 0-3.3454 1.169l-1.1947.467c.2389-.234.4779 0 .7168.234-.9558 1.169-2.6285.467-4.0622.701l-.7169-.467c0 .467-.7169.233-1.1948.467 1.9117-.467 3.5843 1.636 5.735.234 1.1948-.234 3.3454-.468 4.7791 0-2.3896 1.87-6.9298 3.038-10.0362 1.87-.239 0-.4779-.234-.4779-.468 0 .468.4779 2.104 1.6727 2.571l-.9558-1.402c2.8675-.468 5.257 1.402 7.8856-.234l1.6727.234c-.239 2.104-2.8675-.234-3.3454 1.87l-.9559.234c-.7168 1.168-1.9116.467-3.1064 1.402-.239-.234-.7169-.234-.7169-.701 0 .467-.7169 1.168-1.6727 1.168v-1.636.234l-.239.234c-.2389.467-.4779 1.168-1.4337.935-.2389.467-1.1948.467-1.6727.467l-.7169-.467c-.4779.233-5.0181.701-7.8856 1.636-1.1947.701-3.1064.701-4.5401.935 2.1506.935 3.5843-.701 5.9739 0 1.4337-.234 2.6285-.701 4.3012-.935l.7169.701c-.239-1.636 2.1506-.467 2.8675-.935v.234l4.0623-.234v-.234c1.9116-.233 3.5843-.701 5.7349-.701 1.1948-.467 3.5844-.935 5.2571-.935.2389-.467 1.1948-.467 1.6727-.467l2.1506 1.168c-2.1506 1.403-4.3012.702-6.6908 1.403 0 .701 2.3896-.234 1.4337 1.169-.4779.233-1.1947.233-1.6727-.234-.2389.467-.4779.234-.9558.467l-.9558-.701c.2389-.234.4779-.234.2389-.467-.4779-.468-.9558 0-1.6727 0 1.6727 0 .478 1.168.9559 1.636-1.9117-.234-2.3896 1.636-3.8233 0-1.6727.701-2.1507-1.636-3.8234-.234l3.3454.467-1.6727 1.169c3.8234 0 8.1246-.701 12.4258-1.402-.4779.233-.9558.467-1.1948.701-1.9116 1.169-3.1064 3.039-3.5843 5.61zM3.10644 75.5298l.47792-.9349.47791.4674c-.47791 2.1037-2.38957 0-3.106441 1.4025l.238961.7012c.47791.2337 2.15061-1.1687 2.38957.2337.71687 0 1.19479-.7012 1.19479-1.4024 1.43374.2337 4.06227-.935 3.82331 1.4024 2.62854 1.8699 5.25704-.2337 7.88564-.9349l.7168 1.4024c-.7168 4.2072-5.9739 1.4024-8.36348 3.9735-1.19479-1.8699-3.10645 0-4.77915 0v.4675l-.95583-.935-.47791.935c-.71687.2337-.95583 1.1686-1.43374 1.8699-.477918-1.4025 1.19478-1.8699 1.6727-3.0386l-1.6727-1.1687 1.19478-1.6361C1.43374 77.8672 1.19479 77.166 0 76.9322l.477915-1.1687c.477914-.4674 2.150615-1.4024 2.628525-.2337z" fill="#fff"/></svg>