<svg width="160" height="72" fill="none" xmlns="http://www.w3.org/2000/svg"><path d="M12.9119 11.9973l1.076-.1818-.538.3636-.538-.1818zm2.3672-1.2724l.538-.3636c-.2152-.2727-.6456-.2727-.6456-.7271 1.614-.45444 3.8735-.27266 5.0571.09089-.1076.09089-.2152.09089-.2152.27267.4304.54534 1.2912.09084 1.9368.18174l-.6456.2727c.3228.7271 1.3988-.2727 1.5064.5453-.3228.3636-1.2912-.5453-1.614.2727.3228 0 .8608.3636 1.2912.3636-.538.5453-.9684-.2727-1.3988-.0909-.538-.818-1.3988.5453-1.7215-.4545-1.076.2727-2.4748 1.636-3.5508.6362-.3228.3636-.7532.0909-1.076.0909.1076-.3635 1.1836-.5453.538-1.0906zm12.1587-.0909c.4304-.0909.8608-.1818 1.2912-.0909-.4304.0909-.538.4544-.9684.3635l-.3228-.2726c-.3228.0909-.3228.4544-.4304.7271.9684.5453 2.152-.0909 3.0128.1818-.3228.5453-.538-.1818-1.076.0909-.7532.1817-1.5064.1817-2.3672.0908l.4304-.3635-.538-.5453c.3228-.0909.6456-.0909.9684-.1818zm5.2723.4544h.6457c-.8608.2727-2.0444.3636-3.0128.4545.4304-.6363 1.614-.0909 2.3671-.4545zm95.7629 18.1778l-.538-.0909.323-.1818.215.2727zm4.089.5453c-.323.3636-.753-.2727-1.183-.3636-.108-.5453.645.4545 1.183.3636zm-.753-.7271c.108.0909.215 0 .323-.0909.107-.1818 0-.3636-.215-.3636-.431 0-.431-.1817-.538-.5453.86-.3635.86 1.1816 1.614.4545-.108-.1818-.216-.1818-.431-.1818.646.1818 1.722-.5454 2.367.4544-.538-.2726-1.398-.5453-1.936-.1818-.108.0909 0 .1818.107.2727l.431.0909c-.754-.0909-1.184.0909-1.614.2727l-.108-.1818zM32.2798 10.634l.9683-.0909-.7532.0909h-.2151zm97.5922 17.6324l-.538-.0909v-.1818c.538-.2726.861.4545 1.399.4545h-.753c.107-.0909 0-.1818-.108-.2727v.0909zM27.4378 8.8162c.538-.27266 1.3988-.27266 1.8292-.09088-.538.18177-1.076-.18178-1.3988.18177l-.4304-.09089zm5.0571.27267l.4304.09089c-.2151.45444-.2152.36355-.8608.27267.1076-.27267.7532.18177.4304-.36356zm-.3228-.54533c-.4304.09089-.9683.09089-1.3987.18178.2152-.27267 1.0759-.27267 1.3987-.18178zm3.0128.90889c-.538-.27267-.8608.09088-1.2912.36355-.1076-.18178-.2152-.27267-.4304-.36355l2.152-.36356c-.1076.18178-.3228.18178-.4304.36356zm-2.69-.99978l1.2912-.18178c0 .45445-.538.27267-.8608.27267l-.4304-.09089zm2.9052 0c-.3228.09089-.7532.09089-1.076.18178l.1076-.27267.9684.09089zm3.0128.72711c.9684-.36356 1.7216-.18178 3.1204-.18178-1.9368.45445-3.5508 0-5.5952.27267.1076-.45444.538 0 .8608-.27267.4304.63622 1.076-.54533 1.614.18178zm-1.8292-.818l.7532-.45444-.1076-.09089c-.1076 0-.1076-.09089-.2152-.09089h.1076v.09089c.1076.09089.3228.18178.1076.45444l-.6456.27267v-.18178zm3.228-.54533c.1076.54533.7532.18178 1.1836.18178.2152.63622.538-.27267.8608 0-.4304.45444-1.2912.09088-1.9368.18177l-.1076-.36355zm-1.5064 0l-.2152-.36356c.1076.09089.1076.18178.2152.18178.4304-.72711 0 .27267.538.09089-.1076.36356-.3228.09089-.538.09089zm4.304-.18178c-.1076.09089-.2152.09089-.2152.27267.538.54533 1.2912 0 1.7216-.09089l-.1076-.18178c-.2152-.27266.538 0 .7532 0-.1076.09089-.2152.09089-.2152.27267.1076.09089.1076.18178.2152.18178.1076-.09089.4304-.18178.4304-.36356l-.1076-.18178.4304.09089-.3228.18178c.538.72711 1.9367-.27267 2.4747.45444-1.3988.63622-3.0127-.54533-4.4115-.09089-.1076.27267-.6456 0-.8608 0l-.3228-.45444c.1076-.36355.3228-.18178.538-.09089zm5.9179.27267l.538.54533c-.2152.27267-.4304-.09089-.538-.27267v-.27266zm-.6456 1.72688c-.4304 0-.9684-.27266-1.3988-.09089.6456-.18177 1.076-.54533 1.3988.09089zm1.7216.4544l-.8608-.18173.1076-.27267.7532.4544zM132.67 26.0851l-1.076-.1818v-.0909l1.076.1818v.0909zm.645 0l.538.0908v.0909l-.538-.0909v-.0908zm3.766.818l.538.0908v.0909l-.538-.0909v-.0908zM45.0841 9.81598c0 .18178-.1076.18178-.2152.27262l-.3228-.09084.1076-.27267.4304.09089zM134.607 27.1757l-.538-.3635 1.076.1817-.538.1818zm4.842.1818c.753-.0909.322.6362.538.9998-.323.3635-.861.3635-.969.0909.108-.1818-.107-.2727-.215-.4545-.215.2727-.538.2727-.753 0l-.323-.4544c.323-.7271.968.0909 1.291-.4545 0 .0909.215.2727.431.2727zM40.1345 10.9066l-.538-.0908 1.076.0908h-.538zm2.2596 0c-.3228 0-.538.1818-.9684.0909.2152-.1817.6456-.1817.9684-.0909zm95.1179 18.1778l-.538-.0909c-.215-.1818.323-.0909.538.0909zm2.044.5453l.108.1818c-.215.1818-.753-.5453-1.184-.0909l.323.4545-1.291-.2727c.645-.3636 1.399-.5453 2.044-.2727zM23.887 11.1793c.2152.0909.8608-.4544 1.076-.0909-.538 0-.6456.6362-1.076.0909zm-3.1204.9998h-.7532c.3228-.3636.3228 0 .7532 0zm34.647-1.3633l.538-.3636.538.6362-1.076-.2726zm71.5534 10.6339c.323-.2726 1.184.3636 1.614-.0909-.323.6363-1.076.0001-1.614.0909zm-1.506-.9997v-.1818l.538.0909v.1818l-.538-.0909zm-3.013-.7271c.753-.0909 1.721.1817 2.797.3635-.968.5453-1.721-.3635-2.797-.3635zm7.317 1.2724l-2.475-.3636c1.076.1818 1.614-.2726 2.475.3636zm10.006 1.2724c-.107-.0909-.107-.2726 0-.4544l.323.1818c-.43.0909.215.4544-.323.2726zm-9.146-1.7268l.108-.2727c.215.4544.753 0 1.076.0909-.323.2726-.753.3635-1.184.1818zm-.215-.3636l-.645.1818c.107-.2727.43-.1818.645-.1818zm6.564.9998c-.215-.2727.215-.6363-.215-.9089l.538-.1818c.645.1818 1.829.3636 2.367.9089-.538.1818-1.291.2727-1.937.3635.108-.0908 0-.1817-.108-.2726-.215 0-.43.1818-.645.0909zm-3.228-.9089l.215-.0909-.861-.2727c.538.1818 1.076.0909 1.291-.3635l-.107.2726 1.183.3636c-.43.1818-1.076.2727-1.721.0909zm-6.887-1.8178l.323-.1818-.107-.1817c-.108-.0909.753-.3636 1.076.0908-.108.0909-.216.0909-.216.2727l.646.2727c-.323.2726-.861.5453-1.291.4544.323-.5453-.323-.5453-.431-.7271zm-.215-.9089l.538.0909c-.215.1818-.43.1818-.645.1818l.107-.2727zm3.874.5454c.215.6362 1.076-.3636 1.291.5453.215-.0909.538.2727.861.4544h.43c-.107.0909-.323.0909-.43 0l-.646.0909v.0909c-.753.6362-1.721 0-2.582-.0909.215-.0909 0-.4544.323-.6362-.108-.3636-.969 0-.754-.5453l1.507.0909zm8.608 1.7268v.1818l-.538-.0909v-.0909h.538zm3.551.9998v.0909l-.538-.0909v-.0909l.538.0909zm7.639.0909c.108-.4544-.323 0-.323-.3635.215.0908.753 0 .646.4544l-.323-.0909zm-5.057-2.8175l.108.1817c-.108.3636-.538.3636-.861.2727l.753-.4544zm-11.298-1.8178v-.0909l1.184.1818v.1817l-1.184-.2726zm-3.551-.6362c0-.3636.646-.2727.969-.3636l.107.1818c-.215.0909-.538.4544-1.076.1818zm6.026.4544l-.108.2727c-.215-.6363-.753.3635-1.076-.1818l1.184-.0909zm-2.69-.7271c.215-.3636.43.1818.753.2727-.323-.0909-.646 0-.753-.2727zm-4.735-.818l-.215-.3636c.108-.0908 0-.1817-.107-.2726-.861.1818-2.152-.4545-3.228-.6362-.108-.1818-.216-.4545-.538-.3636.43-.4544 1.398.1818 2.044-.0909l-.108.2727c1.292-.1818 2.045 1.0906 3.121 1.1815-.108.0909-.538.5454-.969.2727zm4.197-.9998c-.108.0909-.215.0909-.215.2727.538.2726-.216.2727.215.6362l1.614.2727c-.646.3635-1.507-.4545-2.26 0-.323.0909-.968-.3636-1.399-.5454-.215-.0908.861-.1817.538-.4544.538.4544.646 0 1.076.6362.216-.2726.323-1.2724.431-.818zm2.152 1.9996l-.323-.3636.43.0909-.107.2727zm2.367-.2727c-.43-.1818-.753-.0909-1.076.1818.108-.1818-.108-.2727-.108-.3636h-.322c-.108.1818.107.3636.107.5454l-.43-.0909c-.215-.2727 0-.3636.323-.4545 0 0 .107-.0909.215-.0909v.0909c.43 0 .968 0 1.291.1818zm.215.4544c0 .1818-.323.1818-.538.1818l.108-.2726.43.0908zm7.64 1.7269c-.538-.1817-1.076-.1817-1.507-.1817 0 .0908-.107.0908-.107.1817 0-.0909 0-.1817-.215-.1817l.538-.1818 1.291.3635zm4.626.7271c-.107.3636-.86-.2726-.968.2727l-.323-.0909.323-.1818-.108-.1817 1.076.1817zm-4.088-.1817c.107-.0909.215-.0909.215-.2727-.108-.0909-.215-.0909-.43-.1818l.86.2727-.645.1818zm-1.507-.0909c-.107 0-.107 0-.215.0909 0 0 0-.0909-.107-.0909h-.323c-.108-.0909 0-.2727.107-.3636 0 .1818.216.2727.323.3636h.215c.323-.0909.646-.0909 1.076 0h-1.076zm-23.994-4.908c-.216 0-.431 0-.108-.0909l.108.0909c.215 0 .538.0909.538.2727-.216.0908-.431 0-.538-.2727zm28.083 11.452l-.646.2726c.216-.0909.216-.1817.216-.3635l.43.0909zm-2.582 26.4486v-.1818l-.646-.0909v.1818l.646.0909zM6.56354 13.3606c-.10761.6363.86078.7271 1.07599.7271-.538-.1817-.538-.9088-1.07599-.7271zM3.01277 34.3559c.10761.0909.10759.3636.32279.3636l.1076-.2727-.43039-.0909zm.538 2.2723l-.10761.4544.2152-.3636-.10759-.0908zM20.4438 10.7249l.538.0909.2152-.0909h-.7532zm18.7223-5.54424l.538.09089v-.09089h-.538zm14.3107 2.27221h.4304c0-.45444.7532 0 .6456-.18177-.4304-.45445-.4304.36355-1.076.18177zm3.1204-1.90866c-.3228-.18178-1.2912.09089-.7532 0 .1076.36355.538.09089.7532 0zm-.1076 1.81777c-.3228.09089-.6456.09089-.7532-.09088 0 .27266.3228.18177.538.27266 0-.09089.1076-.18178.2152-.18178zm.2152-.09088c.4304 0 .7532.27266 1.2911-.09089-.2151-.18178-.7531 0-1.2911.09089zm1.614 0l.2152.45444.2152-.09089-.4304-.36355zm.4304 1.36333l.4304.09089c.1075-.18178-.3229-.36356-.1077-.63622l-.3227.54533zm-1.7216-2.27222c.4304 0 1.5064-.09089 1.1836.63622 1.2911.18178-.4304-.818.2152-1.09066.2152.90888 1.2911-.00001 1.2911 1.09066.4304-.27267.6456-.818 1.2912-.90889-1.5064-.09089-2.1519-.45444-3.3355-.72711l.1076.63622c-.2152.54534-.8608-.18177-.9684.36356h.2152zm4.4115-.09089c.3228 0 .8608.45444 1.1836.09089 0 .27266.3228.18178.538.27267l-.1076 1.27244.6456-.45445-.3228-.09089c.1076-.18177.2152-.81799.6456-.99977.2152.27266.6456.09089.8608.45444 0 .18178-.1076.18178-.2152.27267.4304.63622 1.3988-.18178 1.5064.54533l.3228-.18178c.3228 0 .4304.18178.538.36356 1.7216-.36356 1.7216 2.18133 3.3356 1.18155l-.4304.09089c-.6456-.90889-2.2596-.90889-2.4748-1.99955-.2152-.09089-.538 0-.538-.27267l1.1836-.09089c-.2152-.09089-.538 0-.538-.27266l.7532-.18178-2.4748-.36355c-.3228-.09089-.7532-.72711-1.076-.09089-.538-.09089-.9684-.45445-1.2912-.818-.3228.99977-1.3988.45444-2.152.63622l.1076.63622zm13.1271 5.81688c.1076-.2727.1076-.4544-.1076-.6362l-.1076.4544c0 .0909.1076.1818.2152.1818zm.4304-3.63555l.4304.09089.3228-.09089h-.7532zM70.3699 6.4531c-.538.18178-1.8292-.45445-1.8292.36355l.2152-.09089-.1076-.18177c.1076-.27267.4304 0 .6456 0 .6456.63622 2.0444.63622 3.0128.27266.3227 1.45422 1.2911 1.09067 2.3671 1.54511l.1076-.27266c-.1076-.09089-.1076-.18178-.2152-.18178-.3228.27266-1.1836-.27267-1.7215-.45445.1075-.54533.8607.09089.9683-.27266-.1076 0-.2152-.09089-.2152-.18178l.3228-.18178c.9684-.18178 1.7216.45445 2.3672.18178l-2.152-.54533.1076-.36356-.6456.63622c-.8608-.81799-1.0759-.18177-2.0443-.81799l.2152.45444c-.3228.54533-.9684 0-1.3988.09089zm5.8103 3.9082l.538-.36354-.538-.09089c.1076.18173.1076.27263 0 .45443zm5.1648-3.45376l.6456.09089v-.18178l-.6456.09089zm-3.0128.18178c-.3228.54533-1.1836.99978-1.5064.99978l.1076.18177c-.3228.36356-.6456 0-.9684.27267.6456.09089 1.1836.27267 1.8292.18178.3228-.54534 1.1836-.45445 1.7216-.36356h-.1076c-.1076-.27267-.8608-.18178-.6456-.72711.6456 0 1.2912-.18178 1.9368.09089.6456.63622 1.076.09089 1.8292.18178-.8608-.36356-1.9368-.54534-2.69-1.09067 0-.18178.2152-.27266.4304-.36355.1076 0 .2152.09089.2152.18178l.2152-.818c-.2152.54533-.8608.27266-1.2912.45444-.3228.90889-1.5064.27267-2.2596.45444.538.18178.9684-.18177 1.1836.36356zm4.1964.99978v.18177l.4304.09089c.1076.18178.2152.36356.4304.09089l-.4304-.09089c-.1076-.18178-.2152-.36355-.4304-.27266zm2.3672-.54534c.1075 0 .1076 0 .2152.09089 0 0-.1077-.09089-.2152-.09089-.3228-.09089-.6456 0-.7532-.45444.1076-.54533.8608.09089.9684-.27267-.3228-.09089-.7532 0-.9684-.36355l-.1076.27266c-.2152.09089-.4304.36356-.6456.27267 1.1836-.09089-.2152 1.36333.4304 1.90866.3228.09089.8608 0 .9684-.36355l-.1076-.18178h.7531c-.5379 0-.8607-.09089-1.2911-.36355 0-.45445.5379-.45445.7532-.45445zm1.6139 1.45422c.1076.45445-.2152 1.09062-.8607 1.09062l.2152.0909c.7531-.99974 1.0759.6363 1.9367.0909-.3228-.1818-1.076 0-1.2912-.54531.1076-.36355.6456-.45444.6456-.90889-.2152-.09088-.3228.09089-.538.18178-.5379-.09089-.1076-.45444-.3228-.63622.1076-1.54511 1.8292.818 2.152-.45444l-1.3988-.45445c.1076-.09088.2152-.18177.3228-.09089l-.8608-1.45421c0 .27266.4304.7271-.2152.81799l-.2151-.36355c-.1077.99977-.6456 2.09044.4303 2.63577zm3.1204-1.72688l.538.09088c0-.18177-.4304-.45444-.538-.09088zm2.2596 1.90866h-.8608c.2152.36355.7532 0 .8608 0zm.9684-.54533c-.7532-1.09067-3.0128 0-3.4432-.818 0 .18178-.1076.18178-.2152.27267.3228.45444 1.5064.18177 2.2596.27266.3228.90889.6456 0 1.3988.27267zm1.076.63622l-.2152.27266.4304-.09088-.2152-.18178zm-.2152 3.81735l-.2152-.3636c-.1076.0909-.4304.1818-.4304.3636.3228 0 .6456.2726.6456 0zm1.5064-3.18113c-.1076 0-.2152-.09089-.2152-.18178l.7532-.54533-.3228.09089c-.538-.63622-1.2912-.63622-1.8292-.72711.2152.09089.6456 0 .6456.27266l-.2152.09089.3228.27267.1076-.36356c.2152 0 .3228.00001.4304.18178-.1076.09089-.2152.09089-.2152.27267.1076.36355.2152.63622-.2152.72711.4304-.09089.3228.36354.6456.45444l.1076-.54533zm2.2596-.45444c.3228 0 .7532.09088.8608-.36356-.6456-.45444-.7532 0-.8608.36356h-.2152c.1076.09088.1076.09088.1076.18177-.1076.27267-.2152.4544-.538.36356l.538.54534c.2152-.0909.7532-.2727.538-.1818-.3228-.1818-.2152-.36354-.4304-.63621v-.27266zm.9684.09088c.1076-.18177.3228-.09088.4304-.09088l-.1076-.18178-.3228.27266zm1.076.63619l-.6456.2727.3228.0909c0-.1818.3228-.1818.3228-.3636zm2.6897 3.9991l-.968-.3635.215.3635c.215.0909.538.2727.753 0zm1.076-.6362v.0909l.646.1818v-.1818l-.646-.0909zm1.937-2.9993l-3.658-.2727c-.323.6362-.754-.36353-1.076.0909-.323.4545-.431-.45443-.646.1818.538-.1818.646.6362 1.076.0909l.108.1818.322-.1818c.969-.0909 1.399.7271 1.937.0909.431.7271.323.2726.969.3635-.108 0-.216-.0909-.216-.1818.431-.4544 1.076.0909 1.184-.3635zm-1.184-.99979c.538.54529.969-.09088 1.399.09089l-.107-.27266c-.754.09089-1.507-.818-2.368-.27267-.107-.27267-.86-.18178-.645-.72711l-.323-.09089c-.215 1.09067 1.506.54534 2.044 1.27244zm1.507 1.54509l.43.0909v-.1818l-.43.0909zm-.969 2.7267c.216.3635.861 0 .969.6362.215-.5453-.538-.818-.969-.6362zm3.336-3.0902l-.968-.3636.107.1818.861.1818zm-1.829-1.45425c.323 1.09065 2.044.81795 2.797.99975-.107-.54531-.86.2727-.645-.45442-.646.54532-1.507-.27267-1.829-.18178 0-.18177 0-.36355-.323-.36355zm2.152 2.18135v.0909l.861.1817v-.1817l-.861-.0909zm1.183 3.7264c-.43-.0909-.107-.4544-.645-.4544-.215.0909-.215.1817-.215.3635.215-.0909.645.5454.86.0909zm0-5.18064l.431.09084c.215.0909.645.0909.538.3636.753.1818 1.614.1818 2.044.818.108-.5453.861-.1818.969-.3636l-1.937-.6362.107.1818-.215.0909c-.645-.0909-1.183-.4545-1.399-.99979.216.45445-.43.27267-.538.45445zm4.197 3.09024l-.538-.2727.107.1818.431.0909zm.43-1.0907c-.43.7271-.861-.5453-1.399.1818.323-.0909 1.292.6362 1.399-.1818zm.215-.9998l.323-.0909h-.753l.43.0909zm.969 5.0898h-.861l.538.0909.323-.0909zm.645-5.1807l2.045.2727v-.0909c-.538-.0909-1.937-.6362-2.045-.1818zm2.475.3636l.646.2727.645-.1818-1.291-.0909zm.969 4.7262l-.538-.0909c0 .2727.322.1818.538.2727v-.1818zm1.721-4.5444h-.753c.215.0909.645 0 .753.2726v-.2726zm.968 3.6355l.108.1818.215-.1818c-.215.0909-.538-.4544-.323 0zm2.26.2727c-.43-.1818-.861-.0909-1.076.1818.323-.0909.861-.0909 1.076-.1818zm.538-.4545c-1.076-.6362-2.905-.3635-4.089-.7271l-.107.2727.322.0909c1.614-.1818 2.152.3635 3.874.3635zm-.861 2.3632c.215 0 .215.2726.323.3635l.108-.2727-.431-.0908zm1.291.5453v-.0909l-.43-.0909c0 .1818.215.1818.43.1818zm-.215 1.2724c.108-.0909.538-.1817.108-.4544l.323-.1818-.538-.3635c-.108.5453-.754-.0909-.861.2726.645-.1818.645.4545.968.7271zm1.291-5.8168l.108.1817.43-.0909-.538-.0908zm1.399 2.9084l1.076.0909c-.215-.3636-.861-.1818-1.076-.0909zm3.766 2.9084v-.1817l-.43-.0909v.0909l.43.1817zm7.425-4.2717l-.538-.3636.215.2727.323.0909zm-2.583 14.633c.108.0909.108 0 0 0 .108 0 .108 0 0 0-.107-.0908-.323-.2726-.43-.3635l.968.1818c-.107.2726.323.3635.538.3635-.645-.0909-1.291.2727-1.937.3636l.108.1818-2.367-.1818c.107-.1818-.108-.2727-.215-.4545.322.3636.538.4545 1.183.3636l.215-.3636c-.215-.2726-.645-.1817-.968-.3635l1.291-.0909-.215.0909.215.3635.861-.4544-.108-.1818.538.0909c-.107 0-.107 0-.215.0909-.107.6362.323.3635.538.3635zm.108 11.8156v-.0909l-.753-.0909v.0909l.753.0909zm2.152 2.5449l.107-.2727-.538.1818.431.0909zm3.335-12.5427l.108-.1818-.753-.2726.645.4544zm1.292.0909l-.538-.2727-.108.2727h.646zm-.323 1.1816l.107.1817-.86.4545.107.1818c0 .2726-.215.2726-.323.5453l.431.0909c-.108-.3636.753-.818.753-1.1816l.323-.1817c0-.4545-.323-.1818-.538-.0909zm1.076-.9089v-.0909l-.431-.0909v.1818h.431zm1.614 1.2724c-.538-.1818-1.184-.7271-1.722-.4544.646.4544 1.184.3635 1.722.4544zm-.431 1.2725l.323-.0909h-.861l.538.0909zm1.076-2.9994c-.322-.0909-.753.4545-1.183.4545.43.7271.645-.5454 1.183-.4545zm.431-.1817l.43-.2727-.323-.3636c-.322.2727-.43.4545-.107.6363zM87.3705 10.9975l-.3228-.0909c0 .0909 0 .1818.1076.2727.1076 0 .2152 0 .2152-.1818zm-27.653-.7271c-.1076-.0909-.1076-.1818-.2152-.27264 0 .09084.1076.18174.2152.27264zm90.7065 16.5418l.43.1817c.108 0 .323 0 .43.0909v-.0909l-.43-.0908v-.0909c.108-.1818.323-.0909.538-.0909-.215-.5453-.753.2726-.968.0909zm-8.501 34.3559c.216.0909.323.2727.538.3636.108 0 .216 0 .323-.0909v-.1818l-.323.2727c-.107-.1818-.215-.4545-.538-.3636zm5.703-24.1764v-.1818l-.968-.0909v.1818l.968.0909zm-4.196 13.1789l.753.2726v-.2726c-.108-.1818-.646-.3636-.753 0zm-.108.4544l-.107.2727c.645-.1818 1.291.0909 1.829-.3636-.753 0-1.076.3636-1.722.0909zm-2.259 10.634v-.1818c-.108-.0909-.216-.3635-.431-.3635l-.107.4544.538.0909zm4.088-20.8135l-.43-.1818.43.3636v-.1818zm-1.291 6.9984l-.43-.0909-.215.0909h.645zm-.645 5.0898v0c0-.0909.107-.0909.215-.1818.107-.4544-.969-.818-.215-1.1815-.323 0-.646-.2727-.861-.4545l.753-.3636-.43-.4544-.108.4544c-.43.3636-.646-.3635-1.076 0l.646.2727-.323.2727h.323c.322.1818 1.183.3635.753.9998.323-.0909.43.3635.323.6362zm-5.488-1.1816v.1818l1.291.1818v-.1818l-1.291-.1818zm-3.228 8.2709v-.1818l-.968-.0909v.1818l.968.0909zm1.937-19.0866l-.108-.1818c-.107.1818 0 .1818.108.1818.215 0 .538 0 .645.0909 0 .1817.108.2726.216.3635 0-.1818-.108-.2727-.216-.3635 0-.1818.108-.3636.323-.3636-.107-.5453-.968.3636-.861-.4544l-1.076-.1818 1.184.5453c0 .1818 0 .3636-.215.3636zm-5.488 15.3602l.646-.1818h.107c.108.0909.323.2726.216.4544.645-.2726.86.0909 1.506-.0909l-1.614-.3635v-.0909h-.861v.2727zm-2.044 2.5448v-.1817l-.431-.0909v.1818l.431.0908zm5.057-34.3559v.1818c-.215-.0909-.323-.1818-.43-.2727.107 0 .215.0909.43.0909zm-3.551 18.2686c-.215-.3635-.645-.1817-.861-.0908-.107-.0909-.107-.0909-.215-.0909 0-.0909-.107-.0909-.107-.2727l-.323.2727c.215.0909.323 0 .43 0 .108.0909.108.0909.215.0909 0 0 .108.0908.108.1817.215 0 .646.1818.753-.0909zm-4.519-.9088v-.0909c.323-.0909.753-.2727.753.2726l-.753-.1817zm16.355-15.6329c.108 0 .108 0 .215.0909-.107 0-.107.0909-.215.0909v-.1818zm-1.183-.1818c.107 0 .107 0 0 0 .107.0909.215.0909.215.1818 0-.0909-.108-.1818-.215-.1818zm5.917.9998l.538.6362c-.215.0909-.753.3636-1.183.0909v-.2727c-.215 0-.323-.0909-.538-.1817-.215 0-.43.0908-.538-.0909.215 0 .43 0 .538.0909.215 0 .538-.0909.538.1817.215.1818.43.0909.645-.4544zm1.292.5453l-.754-.0909c.216-.6362.323.2727.646-.1817-.108.0908 0 .1817.108.2726zm-17.109-5.3624c-.215.0909-.43.2727-.645.3635-.431 0-.753-.0908-1.076-.4544.538-.2727 1.076-.0909 1.721.0909zm3.659 2.0904l.323.4545c-.323 0-.754 0-1.076-.1818v-.1818c.215 0 .322-.0909.538-.1818.107.0909.107.0909.215.0909zm1.183.6363h-.215v-.1818c-.107 0-.107-.0909-.215-.1818.323.0909.538.0909.968.3636h-.538zm2.906.4544c0 .0909.107.1818.107.1818-.43-.0909-.968-.1818-1.399-.4545.431-.0909.861.1818 1.292.2727zm1.614.0909c-.108 0-.216-.0909-.323-.0909-.215.3636.43.3636.43.5453-.215-.0909-.538-.0909-.861-.1817-.107-.0909-.107-.1818-.107-.2727.107 0 .323-.0909.43-.2727.108.0909.431.0909.431.2727zm3.228 1.1815c-.216 0-.431-.0908-.754-.2726h-.107l.107-.0909c.323.0909.538.0909.754-.0909l.322.0909v.0909h.323c-.215.0909-.43.1818-.645.2726zm2.152-.0909h-.108l.108.1818-.538.3636-.216-.3636-.107.2727c-.108.1818-.323.0909-.538.0909-.108-.0909-.215-.1818-.215-.3636.107-.0909.215-.1817.322-.0909l.108-.2726 1.076.0909s0 .0908.108.0908zM6.24074 51.9883l-.43041-.3635c0 .1818.00002.3635-.21518.3635-.1076-.0908-.4304-.4544-.6456-.1817l-.1076.2726.64558-.0909h.75321zM3.55077 39.3548c0 .2727.3228.5453.43039.818l.21521-.0909c0-.3635 0-.9089-.6456-.7271zM137.942 33.1744l-.107.3635.107.0909c-.107-.0909-.215-.0909-.323 0v-.0909c0-.1817 0-.3635.108-.4544l.215.0909zm-.43-.0909h.43l-.215.0909c-.108 0-.108-.0909-.215-.0909zm5.272 1.8178l-.107.4544-.431-.0909h.108c-.108-.0909-.215-.1818-.431-.1818v-.0908c.108-.0909 0-.1818-.107-.2727h-.323c.646-.6362.646.7271 1.291.1818zm1.722 1.5451v.1818l-.646-.0909v-.1818l.646.0909zm-4.304-1.8178l-.538-.0909c.215 0 .43.0909.538.0909zm-6.241 2.9993c0 .2727-.861-.1818-1.184-.2726l1.184.2726zm1.722.4545l-1.076-.2727c.215 0 .43-.0909.538 0-.216-.0909-.538 0-.538-.1818 0 0 .107 0 .107-.0909.108.1818.538.1818.969.2727-.108.0909-.108.1818 0 .2727zm.753.1817l-.753-.1817c0-.0909.107-.1818.107-.2727.215.0909.538.1818.646.4544zm-1.722.4545l-1.076-.2727v-.1818l1.076.4545zm.323.0909l.861-.0909c-.323.0909-.646.3635-.861.0909zm-5.918-.7271h.215c-.107.0909-.215.0909-.215 0zm.968.5453c-.215 0-.322 0-.538-.0909.216 0 .323 0 .538.0909zm1.292-.1818v.1818h-.431c-.107-.0909-.215-.1818-.43-.1818.323-.0909.645 0 .861 0zm.753.5454l.645.0908-.107.0909c-.215-.0909-.323-.0909-.538-.1817h-.215l.107-.1818.108.1818zM4.94955 27.6302c-.3228-.9089.538-.9998 1.29119-.9998 0 .0909-.10759.2727-.2152.4544l-.53801-.0909c.10761.0909.10762.2727.21523.3636l-.75321.2727zM70.8003 41.7179c.1076.0909.1076.1818.3228.1818l-.538.1818c.2152 0 .2152-.1818.2152-.3636zm8.6079.6362c.1076 0 .2152 0 .2152.0909l.3228.1818c-.3228.6362-.2152.0909-.3228-.1818l-.2152-.0909zm62.8378-5.1806c-.538.0909-1.183.4544-1.614.0909.108-.1818.323-.2727.431-.3636.43 0 .86.0909 1.183.2727zm-12.159 2.0904c.431 0 .754 0 1.184.0909.215.0909.43.1818.753.1818-.215 0-.323.1818-.538.3636-.538-.2727-1.506.2726-1.399-.6363zM9.25351 35.9919c1.18359-.0909 2.47479-.4544 3.76599-.3635-1.076.2726-2.5824.3635-3.76599.3635zM144.721 34.5377l-.215-.4544c0 .1817 0 .3635-.215.3635.215.0909.538 0 .43.0909zM6.88634 44.3537h-.3228c-.9684-.2727-.8608.6362-.75321.9998.21521-.3636 1.2912-.3636 1.07601-.9998zM4.94955 58.1688c.10759.0909.10761.2726.3228.2726v-.1817l-.3228-.0909zm.6456 1.636l-.10762.2726.21523-.2726h-.10761zm1.61399-5.9078l-.3228.0909c-.21521-.3636-.6456-.5453-.9684-.7271.3228-.3636.9684-.4544 1.2912-.4544-.75321-.4545-1.18358.0908-1.61399.3635-.1076-.0909-.21519-.1818-.3228-.2727-.1076 0-.21521.0909-.21521.1818.21521 0 .3228 0 .43039.0909-.10759.0909-.21518.0909-.43039.0909-.10759-.9998-1.82917-.1818-2.47477-.6362-.10761-.3636.4304-.3636.4304-.6363-.75319-.6362-1.50641.5454-2.044401.7272-.10759.5453-.860779.9088-.968369 1.3633 1.82918-.4545 3.55077-.9089 5.59515-.5453 0 0 0-.0909.10761-.0909l.10757.0909c-.10759 0-.21518.0908-.21518.1817.43041 0 .538.1818.75319.4545.43041-.0909.75319-.1818.8608-.2727zm6.34836 4.908l.2152-.0909h-.538l.3228.0909zm21.0894 4.1809v-.0909h-.4304l.4304.0909zm11.0828 3.8173l.7531.2727c-.2152 0-.5379-.3636-.7531-.2727zm1.5063-.1818l-.6456.1818.1076.0909c.2152-.0909.538-.0909.538-.2727zm2.4748.6363h.538c-.2152-.0909-.6456-.2727-.4304-.4545-.1076.0909-.2152.3636-.1076.4545zm6.1332-3.3629c.4304-.1818 1.076 0 1.614-.0909l-1.5064-.0909-.1076.1818zm10.7599.1818c1.614 0 4.4116.3635 5.3799-.0909-.6455-.1818-1.1835.0908-1.7215-.1818-1.076.5453-2.7976-.3636-3.6584.2727zm5.7028.1817c.2152-.2726.5379 0 .7531-.0909l-.6456-.1817-.1075.2726zm2.0443-.0909c-.2152 0-.6456-.1817-.9684 0 .1076-.0908.7532.0909.9684 0zm3.5508.1818c-.6456-.0909-1.076-.0909-1.8292-.0909l2.152.2727c.3228-.0909.8608-.1818 1.076.0909.2152-.0909.4304-.1818.3228-.3636-.538 0-1.2912.2727-1.614-.2726 0 .0908 0 .2726-.1076.3635zm8.6079.4545c-.1076-.0909-.6455-.0909-.7532 0 .2152 0 .538.1817.7532 0zm5.8104.4544c-.8608-.1818-1.614-.1818-1.9368-.0909.538.1818 1.2912.0909 1.9368.0909zM116.96 46.2624c0 .2726-.322.0908-.538.0908v-.1817l.538.0909zm10.653 19.0866v-.0909h-.431l.431.0909zm1.183-2.454v-.0909l-.645-.0909v.0909l.645.0909zm2.152-5.9987l.108-.0908-.431-.1818.323.2726zm0 7.8165v-.1818l-.43.1818h.43zm2.367-8.998l.108-.0909-.646-.1818.538.2727zm-.645 1.5451l-.323.1818c.538.1817.538-.0909.861-.1818-.323-.2727-.538-.1818-.861-.0909.215-.0909.215 0 .323.0909zm1.721-.6362l.108.0909-.753.2726.107.0909c0 .1818-.215.1818-.215.3636l.431.0909c-.108-.2727.645-.6363.645-.818l.323-.1818c-.215-.1818-.538 0-.646.0909zm.538-.7271h.108-.108zm1.937.9997c-.538-.0908-1.076-.5453-1.614-.3635.323.1818.538.1818.861.2727-.323.0908-.108.4544.108.5453v-.5453c.107 0 .322 0 .645.0908zm-.323.9089l.323-.0909h-.861l.538.0909zm.754-2.1813c-.323 0-.646.3636-1.076.3636l.107.0908c-.215 0-.43 0-.645.0909l-.431-.4544c0 .0909-.107.1818-.107.1818l-.323-.0909v.0909c-.323-.1818-.538-.6363-.861-.3636l.323.0909-.215-.0909v.1818h.43l.215.0909-.43.3635c.43.0909.753-.3635 1.291-.0909 1.076.6363 2.044.5454 3.12 1.1816l-.645.1818c.968-.0909.215.4544.861.7271l.215-.3636c.215 0 .323.3636.538.5454.107-.0909.43-.1818.43-.3636-.215 0-.323-.2727-.43-.3636 0 .1818 0 .3636-.215.3636.107-.3635-.431-.4544-.646-.6362.323-.2727.753.0909.968-.1818.646.7271 2.475.2727 2.69 1.2724-.538.3636-.645-.2726-1.291-.1817.215.2726 1.291.1817.861.7271.215.4544.538-.1818.753.2726.538.5454.646-.7271 1.399-.2726l-.538-.5454.43-.0908c.431-.0909.861-.0909.754-.4545h-.323l.107.1818-.215.0909c-.43-.9998-1.721.5453-2.152-.5454-.215.0909-.323.2727-.538.1818-.107-.0909-.215-.1817-.107-.2726-.538-.0909-1.292.2726-1.507-.4545-1.291.0909-2.475-.6362-3.658-.818.323-.2727.538-.6362.861-.6362zm.43-.0909l.323-.1818-.323-.2726c-.215.1817-.323.2726 0 .4544zm.43-1.9995l.431.0908v-.0908l-.431-.0909v.0909zm1.507-.0909l-.538-.0909.323.3635c.215-.0909.107-.1817.215-.2726zm2.152-.7271v-.0909l-.538-.0909c0 .1818.323.0909.538.1818zm-41.964 9.7251l-.1076.0908.2152.0909-.538-.1817c.1076-.0909.3228 0 .4304 0zm18.83.5453c.215 0 .968-.3636.968.0909l-.968-.0909zm2.259-1.8178c.646 0 1.507-.3635 2.152 0-.43.3636-1.506.2727-2.152 0zm-1.398-.9089c.43-.2726.968-.0909 1.614-.1818.107.3636.645.3636.968.2727.43-.0909-.215-.6362.538-.3635-.753.1817.108.7271-.753.7271v-.1818c-.969-.4545-1.399-.1818-2.367-.2727zm1.183-5.9077l-.538-.0909.323-.1818.215.2727zm3.874.2726c-.323.2727-.646-.1818-1.076-.2726-.215-.2727.538.4544 1.076.2726zm1.399.0909l.215-.2727c0-.0908-.108-.0908-.215-.0908 0-.0909-.108-.0909-.108-.0909h.538l-.108.0909.216.2726.753-.2726-.108-.0909.431.0909c-.108 0-.108 0-.216.0908.108.3636.538.1818.754.1818h0c-.108-.0909-.323-.1818-.431-.2726l.861.0908c-.108.1818.323.2727.538.2727h-.646c-.107-.0909-.215-.0909-.43-.0909-.108.0909-.323.0909-.323.2727-.107 0-.215.0909-.43.0909l.107.0909-2.259-.0909c.107-.1818-.108-.1818-.215-.3636.43.1818.538.1818 1.076.0909zm-.431-1.0907c.431 0 .861 0 1.184.3636-.215-.0909-.538-.1818-.861-.2727h.215l-.538-.0909zm-1.721.5454c.107.0909.215 0 .322-.0909.108-.0909-.107-.2727-.215-.2727-.43 0-.43-.1818-.43-.3635.861-.2727.861.818 1.506.2726-.107-.0909-.215-.0909-.43-.1817.215.0908.538 0 .861 0 0 0-.108 0-.108.0908-.108 0-.215.0909-.323.0909-.107.0909 0 .1818.108.1818l.43.0909c-.753 0-1.076.0909-1.506.1818h-.215zm-1.614-.4545c-.108 0-.108 0 0 0zm0-.2726c.215.0909.43.1817.645.1817h-.538l-.107-.1817zm2.259-1.4543l-.968-.1817v-.0909l.968.1818v.0908zm.646 0l.538.0909v.0909l-.538-.0909v-.0909zm3.551.5454l.538.0909v.0909l-.538-.0909v-.0909zm-2.368.1818l-.538-.2727.969.0909-.431.1818zm4.52.1817c.645-.0909.322.4545.538.7271-.216.2727-.754.2727-.861.0909.107-.1817-.108-.1817-.215-.3635-.216.1818-.538.1818-.754 0l-.107-.0909h.43v-.1818l-.538-.0909-.107-.0909c.215-.5453.86.0909 1.183-.3635 0 .2726.215.3635.431.3635zm-1.722 1.2725l-.538-.0909c-.108-.0909.323-.0909.538.0909zm1.937.3635l.107.0909c-.215.0909-.753-.4544-1.076-.0909l.323.3636-1.183-.1818c.538-.2727 1.291-.3635 1.829-.1818zm-2.475 3.3629l-.43-.0909h.538l-.108.0909zm.43-6.8166c.754-.2727 1.722.5453 2.26 0 .215.0908.43 0 .538.1817-.108-.0909-.215 0-.323.0909.646.1818.861.2727 1.291.5454-1.076-.5454-2.474-.3636-3.766-.818zm-3.873-.6363c.323.0909.645.0909 1.076-.0909.753.3636 1.076.0909 1.829.4545h-1.291v-.0909c-.431.0909-1.076 0-1.614-.2727zm10.329 1.4543c-.538.0909-.645.2726-1.291.0908l-.107-.0908c-.216.1817-.538.1817-.754 0-.215-.818.969.3635 1.507-.1818l.645.1818zm-16.57-3.272c.323-.1818 1.076.2726 1.399-.0909-.108.5453-.861.0909-1.399.0909zm-1.399-.6363v-.0909l.538.0909v.0909l-.538-.0909zm-2.797-.5453c.753-.0909 1.614.1818 2.582.2727-.645.2726-1.183 0-1.829-.1818v-.0909h-.753zm6.886.9089l-2.367-.2727c.968.0909 1.399-.1817 2.367.2727zm9.254.9089c-.108-.0909-.108-.1818-.108-.2727l.43.1818c-.43-.0909.216.1818-.322.0909zm-8.501-1.2725v-.1817c.215.2726.646 0 .969 0-.216.2726-.538.2726-.969.1817zm-.215-.1817l-.538.0908c0-.2726.323-.1817.538-.0908zm6.026.6362c-.216-.1818.107-.4545-.216-.5454l.538.1818c.216 0 .323-.0909.538-.1818.538.0909 1.184.1818 1.507.4545-.431.1818-1.184.2727-1.722.2727.108-.1818 0-.2727 0-.2727-.215 0-.323.1818-.645.0909zm-1.507-.7271l.215.0909c-.107.0909-.215.0908-.322.0908 0-.0908 0-.1817.107-.1817zm-1.399.0909l.108-.0909-.753-.1818c.323.0909.753.0909.968-.0909l.323.2727c0 .0909.108.0909.108.0909-.216.0909-.538.0909-.754 0zm-4.842-1.1816c-.322.1818-.753.3636-1.183.2727.108-.1818 0-.2727-.108-.2727h1.291zm.646-.1818c-.215 0-.323 0-.323-.1817l.108-.0909c0 .0909.107.1817.215.2726zm2.475.5454c-.646.5453-1.507 0-2.367 0 .215-.0909 0-.2727.107-.4545.753.5454 1.507.5454 2.26.4545zm6.563.4544v.0909l-.538-.0909v-.0909l.538.0909zm10.438.818c.107-.3635-.323 0-.323-.2727.215.0909.753 0 .645.2727h-.322zm-5.058-1.636h-.322l.107-.0909c.108 0 .108 0 .215.0909zm-10.329-1.636v-.0909h.107v.0909h-.107zm-4.304-1.5451c.215.0909.323.0909.538.0909-.108 0-.215.0909-.323.1818-.108 0-.215 0-.215-.2727zm-1.722-.7271c.215 0 .431.0909.646.1818-.108 0-.215 0-.323.1817 0-.1817-.323-.2726-.323-.3635zm-2.044-.0909c-.108 0-.108 0 0 0 .108-.0909.215-.1818.323-.1818.215 0 .323.0909.538.0909-.215.1818-.538.0909-.861.0909zm3.228.7271c-.108-.0909 0-.0909 0 0l-.108-.0909c-.107-.0909-.215-.1818-.215-.2726.215.0908.538.2726.753.3635-.215.0909-.323 0-.43 0zm4.089-.3635c-.108 0-.216.0909-.216.1817.431.0909.108.1818.108.2727-.108 0-.108 0-.108-.0909l.216.2727c-.216 0-.323 0-.538.0909-.216 0-.323 0-.538-.0909-.216-.0909-.431-.1818-.646-.2727v-.1818c.215-.0908.43-.1817.323-.2726.538.2726.538 0 1.076.4544.107 0 .107-.7271.323-.3635zm2.797 1.2724s0 .0909.108.0909h-.431v-.0909h.323zm1.614.2727c0 .0909-.107.0909-.215.0909s-.108-.0909-.215-.0909v-.0909l.43.0909zm7.102 1.2724c-.431-.0909-.861-.0909-1.291-.0909 0 0 0 .0909-.108.0909 0-.0909 0-.0909-.215-.1818l.43-.1817 1.184.3635zm4.411.4545c-.107.2726-.86-.1818-.86.1817h-.323l.323-.1817h.107v-.0909l.753.0909zm-3.658-.2727c-.108 0-.215-.0909-.323-.0909l.323.0909zm-.108.1818c.108 0 .216-.0909.216-.1818 0 0 0 .0909-.108.0909l-.108.0909zm-1.183-.0909h.753-.753zm-.861-.1818c.108 0 .108-.0909 0 0zm4.734 4.908l-.645.1818c.215 0 .215-.1818.215-.2727l.43.0909zm-84.1422-9.3615c-.3228 0-.7532-.0909-1.076 0l-.2152-.1818c.3228-.0909.6456-.0909.8608-.1818h.538c-.3228.0909-.2152.1818-.1076.3636zm5.7027-.0909h-.2152.2152zm.7532.0909l-.1076.0908c-.1076-.1817-.2152-.1817-.4304-.1817.2152 0 .4304 0 .538.0909zm11.298.6362c.1075.3635.7531.1818 1.3987.2726 0 .0909 0 .1818-.1076.1818l-2.6899-.3635 1.3988-.0909zm1.3987.0909c-.2152 0-.4304-.0909-.538-.0909.3228-.0909.6456-.1818.9684 0-.3228-.0909-.4304 0-.4304.0909zm3.3356.4544h-.2152v-.0909h-.3228v-.1818c.1076 0 .2152.0909.3228.1818l.2152.0909zm1.5064.1818c-.3228 0-.538-.0909-.7532-.1818.2152-.1818.2152-.3635.7532-.1818v.3636zm3.1204.1818h-.3228c.1076-.0909.2152 0 .3228 0zm4.4115.1817c-.3228-.0908-.7531-.0909-1.0759-.1817.1076 0 .1075 0 .2151-.0909h1.2912c-.1076.1818-.2152.2726-.4304.2726zm3.3356.3636c-.4304 0-.8608 0-1.3988-.0909.538-.1818.9684-.4544 1.3988.0909zm6.1332.6362c-.8608-.0909-1.7216-.1818-2.4748-.4544v-.0909l-.2152.0909c-.1076 0-.1076 0-.2152-.0909.538-.4545.7532.2727 1.2912-.2727l.1076.4545.6456-.1818-.1076.2726c.1076.2727.4304.0001.6456-.0908l.3228.3635zm4.7339.4545c-.968-.1818-2.0439-.1818-3.2275-.2727-.2152-.1818-.538-.2727-.7532-.5453 1.5064-.2727 2.6899.3635 3.9807.818zm3.551-.0909c-.43.9998-1.399 0-2.152.3635-.215.0909-.538.0909-.753 0l-.215-.2726v-.0909c0-.1818.107-.1818.215-.2727.108 0 .215-.0909.215-.0909.215.0909.431.2727.646.0909.538.1818.968.6362 1.614.6362l.107-.2726c.108-.1818.216-.1818.323-.0909zm2.045.6362c-.216 0-.431-.0909-.646-.1818.323 0 .538 0 .646.1818.107 0 .107-.0909 0 0zm4.734.5453c-.108-.0909-.215 0-.323 0-.215 0-.538.1818-.645.3636-.108 0-.108-.0909-.216-.0909l-.215-.4545v.1818c-.107-.0909-.107-.1818-.215-.1818.43 0 1.076-.2726 1.614-.0908-.108.0908 0 .1817 0 .2726zm6.886.6362c-.107.0909-.107.1818-.107.1818-.215.1818-.323.4545-.431.6362.323-.1817.646-.3635.969-.4544.107.0909.215.0909.215.3636-.215.1817-.323-.0909-.538-.0909-.43.9089-1.722.0909-2.152.1817-.108-.0908-.108-.1817-.108-.2726l-.322.3635c-.969.0909-.431-.9089-.538-.818-.323-.0909-.646-.1817-.861-.3635-.215 0-.538 0-.861-.0909v-.1818c1.184-.3635 2.044 0 3.12.2727.216.3635-.645.4544-.322.5453 0-.1818.107-.1818.215-.2727l.107.1818v-.1818c.323 0 .431.3636.754.5454.107-.0909.43-.1818.107-.2727l.215-.0909-.538-.2726 1.076.0908zm7.102 0c-.108 0-.215-.0908-.431-.0908v-.0909l.646.0909v.1817l-.215-.0909zm6.563 0h.969c0-.0908 0-.2726.215-.2726.215.1818.646.1818.538.4544.323 0 .646.0909.753.1818.108 0 .108-.3636.215-.4544v.1817l.431.0909c.323.1818.645.4545.861.0909l.215.3636.107-.0909c.216 0 .431.0909.538.1818 0 .0908-.107.0908-.107.1817h.215c-.215.2727-.753.0909-1.076.3636.861.6362 1.937-.2727 2.69.4544h-.108c-.322 0-.645 0-.86-.2726l.107.1817-.323.0909c-.753 0-1.398-.0909-2.152-.1818l-.107-.0908c.215-.1818.323-.2727.538-.1818-.215 0-.431-.0909-.753-.2727v-.1818l-.431.2727c-.323-.1818-.753-.2727-1.183-.3635.107 0 .215-.0909.43-.2727l-.108.2727h-.322c-.538-.0909-1.076-.2727-1.292-.7272zm-.645 0c.107 0 .323.0909.43.0909l.108.0909-.646-.0909.108-.0909zm-2.475-.2726c.108 0 .215-.0909.323-.0909l.107.1818s-.215 0-.43-.0909zm-.215-.1818h0zm-3.228-.7271h.43c.108.0909.323.0909.431.2727l-.216.0908c.216.7272.861 0 1.292.1818l-.108.5454c-.646-.6363-1.506-.2727-2.152-.7272h-.108l-.107-.1817c.107.0909.107.0909.215.1817.108 0 .215-.1817.323-.3635zm-4.304-.6362c.107 0 .107 0 .215.0909.108.0908.215.2726.43.3635.108-.0909.216-.2726.323-.2726.108.0908.215.1817.431.2726-.108.0909-.108.0909-.216.0909l-.43-.0909-.753-.0909v-.3635zm.861-1.7269c-.431 0-.861-.1818-1.292-.2727.108 0 .216.0909.431.0909.323.1818.645.0909.861.1818zm3.228.0909l-.538-.0909.107-.0909.431.1818zm1.398.2726l.108.2727s-.108 0-.108.0909c-.322-.0909-.86.1818-.968-.2727-.108 0-.215 0-.323.0909-.107-.0909-.215-.0909-.323-.1818l.431-.2726h-.108v-.0909c.431.1818.861.2727 1.291.3635zm4.197.818v.1818c-.108-.1818-.431-.0909-.646-.0909-.107 0-.215-.0909-.215-.0909-.43-.2726-.861-.2726-1.291-.2726v-.1818c.323.0909.753.1818 1.076.1818h.323c.215.1818.43.2726.753.2726zm9.253 4.3627c.216 0 .431.0909.646.0909-.215 0-.538 0-.646-.0909zm-1.614.9998c-.107 0-.322-.0909-.43-.0909.215-.0909.323-.2727.43-.4545.216.2727.431-.0908.646.2727l-.646.2727zm.431.0909c-.108 0-.215 0-.431-.0909.108 0 .216-.0909.216-.0909l.215.1818zm-6.241-.4545c-.108-.0909-.108-.0909-.215-.1818l.107-.0908h.323v.2726h-.215zm2.905.2727c-.538 0-.645.3635-1.183.1818-.108-.0909-.216-.0909-.108-.1818-.323-.0909-.861 0-1.291-.0909.968-.1818 1.937.2727 2.582.0909zm1.291.1818c-.107 0-.322-.0909-.43-.0909.215-.0909.43-.0909.43.0909.108 0 .108 0 0 0zm-13.665-.7271l-.215-.0909h.215v.0909zm.215.5453c-.538-.0909-1.398.1818-1.829-.3636.538-.2726 1.076-.0909 1.722.0909.107 0 .107.0909.107.2727zm5.703.7271h-.215c-.861-1.0907-1.291-.0909-2.26-.4544.216.2726.754.4544 1.076.4544-.107.2727-.645.0909-.86.1818-.108-.5454-1.722-.0909-2.152-.7271v.1817c-.538-.0908-1.076-.0908-1.507-.2726l.431-.0909s-.108 0-.108-.0909v-.2727h.215l-.107-.0909c-.108-.0908-.108-.1817-.216-.2726h.323c-.215-.0909-.538 0-.645-.1818l.322-.1818c.216.0909.646 0 .754.1818-.108 0-.216.0909-.216.1818.861.1818 1.614 0 2.26.4544l-.753.2727.107.0909.754-.2727c1.614-.2727 2.797.0909 3.981.4545-.538.0908-1.076.1817-1.614-.0909-.108.3635.538.3635.43.5453zm19.368-2.8176l-.215-.2726-.108.0909c.215.5453.969 0 1.291.3635v.1818c-.107.0909-.86-.2727-.968.0909-.323 0-.646-.1818-.646-.3636-.538.0909-1.613-.2726-1.506.3636-1.076.5453-2.152-.0909-3.335-.2727l-.216.3636c.431 1.1815 2.475.3635 3.551 1.0906.431-.4544 1.291 0 1.937 0v.0909l.215-.1817.215.2726c.323.0909.431.3636.646.4545.107-.3636-.538-.5454-.753-.818l.645-.2727-.323-.3636c.431-.1817.538-.2726.969-.3635l-.215-.3636c-.323-.1817-1.076-.3635-1.184-.0909zm-44.223 21.8133c.107.3636 0 .7272-.215.9998-.216.2727-.538.5453-.969.5453-.43.0909-.753 0-1.076-.1817-.323-.1818-.538-.4545-.645-.818-.108-.3636 0-.7271.215-.9998.215-.2727.538-.4545.968-.5453.431-.0909.861 0 1.184.1817.323.1818.538.4545.538.818zm19.475-1.9086c.215.9089 0 1.8178-.645 2.6358-.646.8179-1.507 1.3633-2.69 1.5451-1.076.1817-2.045 0-3.013-.5454-.968-.5453-1.506-1.2724-1.722-2.1813-.215-.9998 0-1.8178.646-2.6358.646-.818 1.506-1.3633 2.69-1.5451.323 0 .538-.0909.753-.0909-.538-.0909-1.076-.1818-1.506-.2726-1.291.6362-3.443-.2727-4.95-.1818-1.614-.0909-3.443-.7271-4.842-.3636-.43-.2726-1.183-.6362-1.829-.4544l-.753.1818c0 .1817.323.0909.538.1817-.323.4545-1.829 0-2.045-.0909.323.1818.646-.0908.861-.1817l-.323-.2727-1.721-.0909c-.108.0909 0 .1818.107.1818h.323c-.107.1818-.43 0-.538 0-.215-.2727-.43-.4544-.861-.4544l-.43.2726c.215.5454.753 0 1.076.3636-.646.2726-1.614-.5454-2.475-.1818.108.1818.215.0909.431.1818-.216.0909-.431-.1818-.7536 0l-.3228.1817-.8607-.7271-.7532.3636c0-.1818.3228-.1818.538-.3636-.1076-.0909-.2152-.0908-.4304-.1817l-.3228.1817-.2152-.3635-.3228.1818c-.1076-.0909-.2152-.0909-.4304-.1818l-.3228.5453v.0909h-.3228v-.0909c.1076.0909.2152 0 .3228-.0909.3228-.3635-.538-.3635-.6456-.3635-.7532.2726-1.7216.2726-2.5824.1818-.1076-.4545-.7532-.2727-1.1836-.2727-.1076-.0909-.2152 0-.3228.0909-.2152-.4545-.7532.0909-1.076-.0909-.4304-.0909-.8608 0-1.2912 0l-.4304-.3636c-.3228.2727-.538.0909-.8608 0-.3228-.5453-.7532-.0909-1.2912.0909 0-.1818-.2152-.3635-.6456-.3635-.2151.1817-.7531-.1818-.8607.2726-1.614-.4544-2.9052-.0909-4.4116-.3635-.6456-.0909-2.3672-.4545-3.4432-.3636-.8608.2727-1.5064-.2726-2.3672.0909-1.2912-.0909-2.5823-.6362-3.8735-.2727-.1076-.0908-.1076-.1817-.2152-.1817l-.1076.0909.2152.2726c-.2152 0-.8608.1818-.9684-.2726-1.076-.1818-2.3672.1817-3.228-.2727-2.7976 0-5.1648-.3636-7.8547-.2727l-.3228.1818c-.1077-.2727-.6456-.0909-.7532 0-2.4748-.1818-3.9812-.5453-6.2408 0-1.1836-.818-2.5824.0909-3.9812-.3636-.6456.1818-1.2912-.1817-2.0443.0909-.2153-.2726-.6456-.0909-.9684 0-.538-.5453-.9684.3636-1.7216-.0909-.3228.9089-1.2912.0909-1.9368 0-1.3988-.3635-2.4748.2727-3.766 0-.538.2727-1.2912 0-1.8292.1818-1.2912-.1818-3.0128-.0909-4.4115.1818-2.152-.1818-3.9812-.0909-5.8104.0909-.6456.0909-2.3672 1.0907-3.228.0909h-.7532l.1076.2726c-.538-.1817-1.5064.2727-2.152 0-1.2911.0909-2.4747.3636-3.6583.5454-1.076.0909-2.3672-.3636-3.1204.1818-1.076-.1818-2.0444.0908-3.01279.1817-.43039-.818-1.82918-.1817-2.36717-.6362.10759-.1818.53799-.3635.3228-.5453-.6456-.0909.1076.2726-.538.3635l-.6456-.4544c.75319 0 1.1836-1.4542 2.25959-.6362.3228-.3636.7532.2726 1.1836 0-.1076-.0909-.21522-.0909-.43042-.1818.43039-.3636 1.39879.6362 1.50639-.2727 1.2912 0 3.1204 0 4.1964-.3635-.2152-.2727.1076-.6363.4304-.7271-.6456-.2727-1.5064 0-2.2596.0908-1.5064-.1817-3.87359.3636-4.41158-.6362l.43041-.4544c-.10759-.0909-.8608.0909-.75321-.2727l1.07599.0909v-.4544c.86079-.6363 2.47479-.4545 3.01279-1.2725-.6456-.7271-2.2596.0909-2.58239-.9089-.96838-.3635-1.93678-.818-2.47477-1.5451l.53799.0909c.8608-.818-1.2912-.6362-.86079-1.5451l.43039.5453c.21521-.3635.4304-.5453.21521-.9088-.8608-.1818-.3228-.9089-.43041-1.3634.2152-.3635 0-.7271-.21519-1.0906-.3228 0-.75319 0-1.18358.0908-.3228.818-1.18361 1.1816-2.0444 1.4543-.10759-.7271-1.18358-1.2725-1.50638-1.9996.6456-.4544 1.50638-.5453 2.25956-.818.3228.6362 1.2912.7271 2.04441.6362-.2152-.3635-.32282-.7271.10759-.9997-.43041-.2727 0-.7272 0-.9998.86078-.2727.7532-1.3634 1.82921-1.4542-.8608-.6363-1.61402-1.3634-2.15201-1.9996.1076-.2727.43039-.3635.6456-.6362-.43041.5453.21519.9089.6456 1.3633.3228-.0909.43039.0909.64558.2727.10761 0 .3228-.0909.43041-.1818-.3228-.1818-.43039-.4544-.8608-.4544l.2152-.0909-.538-.6362c.75321.0908 1.39879.4544 1.93678.8179 0-.1817-.1076-.4544-.1076-.6362-.86079-.3635-1.61397-.7271-2.25957-1.2724l-.3228.2727-1.39879-.3636 1.1836-.4544-.8608-.5454c.3228-.2726.32279-.6362.32279-.9998-.43039 0-.75319 0-.96839-.2726.10759-.2727.6456-.4545.3228-.818-.6456-.0909.10759.3635-.53801.4544l-.64558-.7271c.86079 0 1.39877-1.9995 2.47478-.818.32278-.4544.53799 0 .86079.0909h.2152s.1076 0 .1076-.0909c-.10759-.1818-.21519-.1818-.4304-.1818.53801-.4544 1.50641.9089 1.614-.3635h-.43041c0-.9089-1.29118-.1818-1.39879-1.0907-.6456.3636-.3228-.6362-.96838-.5453.21519-1.1816-1.72159-2.1813-.8608-3.3629-1.61398-.6362.3228-1.3633-.1076-2.3631-.43039-.3636-1.07599-.5453-1.39879-1.1816 0-.2726.43039-.818-.1076-.9088.6456-.4545 1.82917-.1818 2.90518-.2727-.3228-.3636-1.29119-.5453-.96839-1.3633l.43039.818c.3228-.4545.43041-.7272.3228-1.2725-.9684-.2727-.3228-1.2724-.3228-1.9086.6456-1.3634-1.50637-2.6358-.32278-3.8174-.43041-.3635 0-.9089 0-1.4542h.10757-.64558c.7532-.4544.3228-.818 1.18359-1.1815l-.1076-.0909c-.3228.1817-.6456.2726-.75321.5453v-.6362c-.10759 0-.21518.0909-.32278.1818.1076-.0909.21521-.1818.4304-.2727.10761-.4545.32279-.9089.96839-.6362l.3228.0909c0 .1817.00001.3635-.10759.4544h.53798c.21521-.1818.43042-.2727.7532-.2727.10761-.0909.21521-.1817.32282-.2726h.43039c.75318-1.0907.21517-2.3631.43037-3.7265-.32278-.1817-.64558-.818-1.07599-.6362-.21519-.3635.10761-.7271.10761-1.0907.6456-.27262 1.39878-.09084 2.04437-.18173l3.6584.72713c.1076.3635.1076.6362.6456.5453l.2152-.0909c-.6456-.3635.2152-.5453.1076-.9998l.3228-.18173-4.842-.99978c-.2152.09089-.4304.27267-.6456.18178-.4304-.36355.6456-.54533-.10759-.72711-.21519.54533-.43039.63622-1.07598.63622-.2152 0-.21518-.27266-.21518-.45444.43039-.27267.43039-.63622.53798-1.18156h.10758c0-.45444.43041-.99977.6456-1.45421l2.15199-.63622-.4304.36355c.538 0 1.614 0 1.8292.72711 1.7216.36355 3.0128 0 4.6268 0l.5379.54533c.3228-.27266.4304-.54533.8608-.54533.1076.72711 1.5064.27266 2.0444.36355l1.076-.09088-.4304-.63623 1.1836.09089c0 .18178-.2152.45445 0 .54534.538-.27267.3228-.45445.9684-.72711.9684.27266 2.0444-.09089 2.5824.09088l-.2152.09089c1.1836.72711 2.5824-.45444 3.766.27267 1.5063-.99978 3.0127.818 4.5191-.45444.6456-.18178.8608.7271 1.3988.09088.6456.18178 1.9368.36356 1.9368-.18177.7532-.18178 1.1836.72711 2.0444.36355.538.09089 1.076 0 1.614-.27266.538.90888 1.2912-.09089 2.0444.27266l.3228-.18178c-.1076-.09089-.1076-.18177-.1076-.27266.538.90888 1.5064-.18178 2.3671.45444l.1076-.27266c.538.54533 1.3988-.54534 1.8292.18177 1.3988.18178 3.1204-.45444 4.1964.45445 1.5064-.18178 2.4748.18177 3.9812 0 .1076.18177-.1076.54533-.4304.63622-.7532.36355-1.8292-.09089-2.69.18177l.2152.45445c-.3228-.27267-.4304.18178-.6456.27267.1076.63622.538.18177.8608.18177h.1076c-.3228.36356-.8608.18178-1.2912.45445.2152.54533.7532.81799 1.2912.81799 0 .18178-.538.18178-.4304.45445l.1076.18174-1.614-.18174c.7532.18174-.3228.45444.1076.72714.8608.2726 1.5064-.1818 2.2596 0l-.2152.0909c.4304.3635 1.1836.2726 1.7216.4544-.1076-.4544.538-.4544.7532-.7271l-.4304-.81801c.2152.27267.8608.63621 1.076 1.18151.4304-.0908.538.2727.7531.5454.2153-.3636 1.1837 0 1.9368-.3636.3228-.2726 0-.5453-.2152-.7271.538.4545 1.076-.0909 1.8292.3636.6456-.0909 1.1836-.81803 1.3988-1.18159.538.45445.4304.45445.1076.99979-.7532.0909-.7532.4544-.9684.9998.1076.2726.538.1817.8608.2726.2152-.1817.1076-.5453.2152-.7271.1076.6362.7532.3636 1.2912.3636.2152-.0909.2152-.1818.2152-.3636.2152.0909.6456 0 .6456.2727l.2152-.0909-.3228-.6362c.538 0 1.5064-.0909 2.152.0909-.1076.0909-.2152.0909-.2152.2726.538.1818.4304.4545.8608.7271l2.2596.0909c0 .1818-.1076.1818-.2152.2727 1.614.5453 3.3355.0909 5.0571.5453.1076-.4544.4304-.4544.8608-.5453-.1076.2727 0 .4544.1076.6362l.3228-.1818c.1076.6363.7532.1818 1.1836.1818.4304.5454 1.2912-.0909 1.7216.4545l.538-.2727c-.538-.9089-2.2596.0909-2.2596-.9998-.8608-.4544-2.0444.2727-2.3672-.9089-.3228-.3635.7532.3636.7532-.4544l1.5064.7271-.2152.0909.1076.1818.6456-.2727c-.4304.2727-.2152.5453-.3228.818 2.0444.2727 3.5508.9089 5.5952.7271.9684.5453 2.9052.4545 4.3039.6362.6456-.7271.1076-.818-.2152-1.4542-.3228-.0909-.6456-.1818-.9684.0909l.1076.1818c-.7531.3635-1.5063-.1818-2.2595 0l-.3228-.0909c-.1076-.9998-1.2912-.0909-1.7216-.9089.538.3636 1.9368-.1818 2.7976.6362.2152-.0909.2152-.2726.2152-.3635l.4304.6362c.4304-.2727.8607-.4545 1.2911-.4545.3228-.0908.2152-.3635.1076-.5453.3228.9089 1.2912.2727 1.5064 1.1816l1.1836.0909-.8608.2726c2.0444.818 5.38 1.4542 7.6396 1.4542 1.1836-.1817 0-.9088.3228-1.5451.1076-.5453.2152-.9997.3228-1.5451 0-.0909.1076-.2726.1076-.4544.1076 0 .2152.0909.2152.1818l-.3228.1817c0 .1818.2152.1818.4304.1818 0 .3636-.4304.818 0 1.1816l2.1519.4544c-.3228.2727-.9683-.3635-1.0759.1818l.2152.1818c-.2152-.1818-.4304.0909-.6456.1817.1076.5454.8608.3636 1.2912.5454-.1077.0909-.2153.0909-.2153.2726.1076.0909.1076.1818.2153.1818l.2151-.0909v.0909c2.6896 1.0907 6.2406.6362 8.2856 1.3633l.215-.0908c-.108.3635.538.7271.968.4544.753-.5453 1.829.9089 2.367-.4544l-.107-.1818.323-.1818c-.323-.3636-.861-.7271-1.184-.6362-.43-.818-1.399.0909-2.26-.2727l.216-.0909-.646-.4544c1.829.1818 3.443.818 5.272 1.0906 0-.0908.108-.0908.108-.0908l.215.1817c-.107 0-.215-.0909-.43-.0909-.323.2727-.646.818-1.184.818.646.4545 1.722.9089 2.26.7272.753.4544 2.044.6362 2.905.818l.108-.2727.215.9089c.968-1.3634 3.012 0 4.304-.0909.215.2727.645.3635.968.4544.108-.1817-.538 1.2725.538 1.0907l.43-.4544c0 .1817-.107.2726 0 .4544.538-.1818 1.83.9998 2.368-.2727.215 0 .322.3636.538.0909.215-.818-1.184-.1818-.538-1.0906l-.431-.1818h.108c.215-.3636 0-.9089-.538-.9998-1.291.2727-2.475-.9089-3.766-.4544-.215-.4545-1.076 0-1.722-.3636v-.1818h1.722l-.215.0909c.753.3636 1.291-.0909 2.044.2727.43.0909.323-.3636.753-.1818.538.4544 1.722.818 2.475.7271l2.69.1818c.215.6362 1.399.2727 1.937.818 1.399-.7271 2.69.5453 3.981.4544 1.829.7271 3.766.5454 5.488 1.4543l1.291-.3636c-.538-.0909-.753-.818-1.399-.5453.753-.7271 1.184.9089 1.937-.1818l-.108.4544c-.215 0-.323-.0909-.43.0909.323.6362.753.1818 1.399.7271v.0909c1.398.5453 2.905.6362 4.626.5454-.753-1.0907-1.936.1817-2.905-.7272.323-.3635.969-.0909 1.184-.4544-.108-.2727-.323-.3636-.646-.4544l-.215.0908-.215-.4544c-.323.5453-.753-.1818-1.184-.1818l.215-.0909c-.538-.6362-.43.5454-.538.4545-.215-.1818-.538-.2727-.86-.2727.107-.3635-.431-.4544-.646-.7271-.215.0909-.215.1818-.215.3636-1.184-.0909-2.26-.0909-3.228-.7272-.753-.0908-1.291.3636-2.26.5454l-.43-.1818c.215-.4544.968-.0909 1.291-.4544-.538.1817-.753-.6363-1.076-.6363l-.538.3636c.108-.0909 0-.1818-.108-.2727-.322.5454-.753-.2726-1.076-.0909l-.215-.3635c-.645.1818-1.291-.1818-2.044-.5454-.323.4545-.753-.0908-1.076.1818.215.1818.538.3636.43.6362-.538.0909-1.291-.5453-1.721-.4544.215 0 .43 0 .645-.1818-.323-.1818-.323-.3635-.645-.7271-.216.0909-.216.1818-.216.3636-1.076-.5454-2.69-.4545-3.873-.2727-.215-.2727.215-.3636-.108-.6362l-.43-.0909c.215 0 .43 0 .753-.1818-.646-.9089-1.829-.6362-2.69-.9089-1.722-.0909-3.981-.6362-5.918-.9997l.969-.0909c-.323-.7271-1.076-.0909-1.722-.4545l-.43.3636c0-.7271-.861.0909-1.076-.4545v-.1817c.86.4544 2.044.0908 2.582.0908.215.5454 1.076.2727 1.614.2727.215-.0909.43-.2727.645-.1818l-.107.2727c.43.2727 1.183.3636 1.829.0909-.538.0909-.323.5453-.646.7271.323-.1818.646.6362 1.076.0909l-.107-.1818c.107-.3635.538.4545.645-.1818.646 0 .323.9089 1.076.4545-.107-.1818-.215-.1818-.43-.1818l.538-.3636c.108.0909.108.1818.215.1818.108-.0909.215-.0909.215-.2726-1.183-.4545-2.905-.6363-3.873-.9089 1.183-.818 1.829.6362 3.013 0-.323-.2727-1.184-.2727-.969-.9089l1.614.2726c0 .1818-.107.1818-.215.2727 1.184.4545 1.937 1.0907 3.336.7271-.431-.4544-1.184-.7271-1.614-.7271.215 0 .645-.4544.753.0909l3.013.7271c-.431 0-.861-.3635-1.184.0909v.1818c.861-.0909 1.722.818 2.69.3635-.215-.1817-.43-.3635-.861-.4544 0-.2727.431 0 .646 0 .323.9998 1.614.0909 2.259.5453l.861.1818-.323.1818c.646.2726 1.076 1.0906 1.83.4544l-.216-.4544c.216-.0909 1.399.5453 2.152.7271-.215.818 1.076.3635 1.292.818.322 0 .753-.3636.86 0l.108-.2727c.968.9089 2.905.4545 4.089.9089l.107-.2727c.216.1818.646.5454.969.3636l.215-.0909v.0909c.861 0 1.829.6362 2.582.6362l-.215.0909c.753.9089 2.044-.4544 3.013.2727l-.646.2726c.646.818 1.614.818 2.583.6363l.43.3635c.646.5453 2.152 0 1.722.9998l.43.2727c-1.291-.4545-2.367-.0909-3.766-.0909-.323.3635.215.3635.215.4544-.538.5453-.861-.1818-1.291-.2727-.215.2727-.538.2727-.753 0-.323.0909-.215.4545-.323.6363.538.0909 1.184.818 1.614.2726.43-.0909.323.3636.538.5454l1.184.0909-.861.4544c.215.5453.753-.1818.861.4544-.646.6363-1.937-.6362-3.013-.2726 0 .0909 0 .0909 0 0s0-.4545-.323-.3636c0 .7271-1.076.1818-1.614.4545-.215.1817-1.076-.4545-1.183.3635l.968.3636c.323.7271 1.506.5453 2.259.9997-1.398-.2726-3.12-.6362-4.303-1.0906l.43-.3636c-.43-.1818-.861-.6362-1.291-.2726 0 .2726.323.1817.538.2726-.215 0-1.076.1818-1.399.6362-.108-.1817-.43-.2726-.538-.5453-.323.4545-.753-.0909-1.076.1818.215.818 1.184.4544 1.829.6362-.107.0909 0 .1818.108.2727.645.1818.753-.2727 1.399-.1818l-.323-.4544c.968.2726 1.399.6362 2.259.7271 0 .1817-.215.2726-.43.3635.753.6362 1.829-.5453 2.475.4545-.538.1817-.861-.7271-1.184-.0909l.215.3635.215-.0909c-.215.6363.861.1818 1.292.2727.215-.2727-.646.9998.538.818 0 .1818-.108.1818-.216.2727l.969.3635c-.431 0-.861.5454-1.184.0909l.323-.1818c0-.0908 0-.0909-.108-.1817-.215-.1818-.538-.2727-.753-.0909l-.215.0909.43.3635c-1.076.0909-1.936-.9998-3.012-.7271-.646.1818-.646-.818-1.291-.3635-.538-.4545-1.292-.5454-2.152-.3636l-.646.1818.323-.1818-.215-.3636c-3.013-.0908-4.412-1.8177-7.317-1.2724l-.861.4544-.108-.1817.646-.818c-.753-.5454-1.506-.2727-2.475-.6363 0-.1817.108-.1817.215-.2726-.107-.2727-.538-.1818-.86-.2727l-.323.1818c.107.2727.43.1818.753.2727h-.753l.43.3635c.108 0 .215-.0909.323 0l-.108.1818.108.0909h-.215l-.215.2726c.107 0 .215.0909.322.0909l-.538.1818c.108.0909.216.0909.431.0909 0 0-.108 0-.108.0909.431.1818.861.1818 1.291.2727l.108-.2727c.323.818 1.722.3635 2.152.818.108-.0909.215 0 .323.1818.323 0 .538.0909.645-.2727-.322 0-.86-.2727-1.076-.6362 1.076.4544 1.614-.9089 2.475.6362l.969-.2727c.538-.1817-.431.1818 0 .4545l.322-.1818c.431.3636 1.507.7271 2.26.5453l-.108.2727c1.83.2727 3.551.818 5.058 1.3633h.645l-.107.1818.322.0909c.215-.0909.431-.0909.646 0 0-.0909.107-.0909.215-.0909l.43.0909c-.215.2727-.322.1818-.43.0909.108.0909.215.1818.323.2726 0 .1818-.108.1818-.323.2727h.43l.108.0909c.323 0 .538-.1818.43-.4544.108.1817.538.4544.646.2726l.538.5454s-.108 0-.108.0908h.108c0 .0909-.646.2727-.323.5454h.108l-.431.3635 1.937.7271c-.753-.0908-1.506-.1817-2.367-.3635 0 0-.108.0909-.215.0909l-.108-.0909c-.215 0-.538-.0909-.753-.0909v.0909l-.43-.0909v-.0909c-.431-.0909-.861-.1818-1.399-.2727-.108.0909-.215.1818-.323.3636l-.107-.4544h-.108c-.215.4544-1.184-.4545-1.184.3635.108-.2727-.215-.4544-.322-.6362l-.431.3635.753.5454c-.322-.4545-.86.1818-.968-.4545l-.646.2727c0-1.2724-1.183.3636-1.506-.7271l-.538.3635c.108.0909.323.4545.538.2727l-.108.2727c-.215 0-.322-.0909-.43.0909.323.5453.753.1817 1.291.5453.969.6362 2.045-.1818 2.798.9998.753 0 1.291-.0909 1.829.4544-1.076.3636-2.26-.7271-2.798-.3635h.108v.1817h-.215c0 .0909-.108.0909-.108.1818-.107-.0909-.215-.1818-.43-.2726h-.215c-.216 0-.323 0-.538.1817 0 .4545.86.4545.645.5454-.323.1817-.753-.0909-1.183-.0909.107-.1818-.108-.2727-.216-.4545.108.0909.216 0 .323-.0909-.215-.4544-.645-.5453-1.076-.7271l-.538.3636c.323.2727.861.3635 1.076.7271l-.323.6362c-.538-.1818-.968-.2726-1.183-.818-.215.0909-.215.1818-.215.3636-.861.0909-1.722-.1818-2.583-.1818l.215.3636.216-.0909.107-.0909-1.291.1818c.43.1817.753.4544 1.291.5453-.645 0-1.614-.5453-2.259-.2727.538.6362 1.721.3636 2.367.9089l-.861.1818c.753.0909 1.614 0 1.722.818.215-.0909.215-.2727.215-.3636l.538.0909-.108-.1818.431.1818-.216.0909c-.322.9089.969-.1818.861.6362.215-.0909.215-.2726.215-.3635l.646.1817s-.108-.0908-.108 0c.323-.0908.646-.1817.861.1818h-.107l.322.0909h-.43c-.215.1818-.43.3636-.861.1818l.323-.1818h-.646c0 .2727.108.4545.323.818.215-.0909.215-.2727.215-.3635.108.0908.108.1817.216.2726h.215l-.108.0909c.431.1818.861.2727 1.291.4545l.323-.2727c-.107-.1818-.215-.1818-.43-.1818l.43-.3635c0 .2726.431.1817.646.1817l-.215.0909c.107.1818.215.1818.43.1818.215-.1818 0-.5453.538-.3636 0 .1818-.215.4545 0 .5454-.108 0-.323-.0909-.215-.3636-.323.5454-1.076-.0909-1.291.5454.753.2726.215 1.0906 1.291.9088-.108.5454.753.1818.861.5454.215.4544 1.291-.2727 1.398.4544l-.645.0909c.215.0909.323.4544.753.3636-2.152 1.5451-3.12-1.3634-4.95-.3636.323.0909.646.1818.969.3636.323 0 .538 0 .753.2726-.753.2727-1.937.0909-2.905.1818l.538.1818-.646-.0909v.0909c1.399.1818 1.076.7271 2.583.6362l.215.3636c.43-.2727.107-.4545.107-.7272l1.83.0909c-.431.2727-.754 0-1.292-.1817-.753.818.861.7271.861 1.4542-.753.0909-1.076-1.0907-1.829-.3636l.538.3636c0 .1818-.43-.3636-.861-.2727l-.107-.1818.322-.2726c0-.2727-.43-.1818-.538-.1818-.215.7271-.538-.3636-.968.1818l.108.1817c-.108.3636-.861-.2726-.861.3636h-.323c0-.1818.323-.2727.43-.3636-.538-.3635-1.398-.6362-2.152-.4544-.538-.9998-.968.6362-1.614-.0909 0 .3636-.753.9089-1.398 1.2725l.215.3635c-.108.0909-.646-.1818-.753-.5453-.108.1818-.323.3635-.538.4544l.538-.7271c-.538-.0909-1.076 0-1.507.0909-.107.0909-.107.1818-.107.2727v.1818c.43.2726 1.076-.2727 1.183.4544l-1.291-.1818c.215-.2727-.108-.4544-.215-.6362l-.646.1818v.0909c.215.0908-.538-.1818-.645.0909l.322.4544h-.215v-.0909c.108 0 .215.0909.215.1818h.323c.323.6362.969.2726 1.507.7271.107-.0909.43-.1818.43-.3636 0 .2727.323.6363.753.5454l.108-.0909v-.1818.0909l.107.0909c0 .2726.108.7271.646.5453.108.2727.538.1818.861.2727l.323-.1818c.215.0909 2.474.3636 3.766.818.538.3636 1.398.3636 2.152.5453-1.076.4545-1.722-.3635-2.906 0-.645-.1817-1.291-.4544-2.044-.5453l-.43.3635c.107-.9088-.969-.2726-1.399-.5453v.1818l-1.937-.1818v-.1818c-.861-.1817-1.722-.4544-2.798-.3635-.538-.2727-1.721-.5453-2.474-.4545-.108-.0908-.108-.1817-.323-.1817-.215.1817-.538.4544-.969.3635-.107-.0909-.107-.0909-.215-.0909l-.538.2727c.969.7271 2.152.3636 3.228.7271-.107.4544-1.183-.0909-.753.5453.323.0909.538.0909.753-.1817.108.1817.215.1817.431.1817l.645-.2726c-.107-.0909-.215-.1818-.107-.2727.215-.1818.538 0 .753 0-.861-.0909-.215.6362-.538.9089.968-.0909 1.183.9089 1.829.0909.861.4544 1.076-.9089 1.829-.0909l-1.614.2727.753.5453c-1.076 0-2.259-.1818-3.443-.3636.969.5454 2.69.2727 3.766.6363v-.1818c.108.0909.215.0909.323.1818l.43-.0909v.1818l-.322-.0909c.215.0908.322.0908.538 0l.107-.0909v.0909c.753 0 1.722.4544 2.475.4544l-.108.0909c.754.6362 1.83-.3636 2.798.1818l-.646.1817c.646.5454 1.614.6363 2.475.4545v-.1818c.646.4545 1.937 0 1.722.7271l.43.1818c-1.291-.3636-2.152 0-3.551-.0909-.215.2727.216.2727.216.3636-.431.3635-.861-.0909-1.184-.1818-.215.1818-.538.1818-.753 0v.0909c1.183.3635 1.829.4544 2.797.6362-.43-.1818-.753 0-1.076.0909v.0909l.538.0909h.646l-.215.0908.538.0909c-.215 0-.538 0-.753-.0909l-.431.1818c.215.3636.646-.1817.753.2727-.322.2727-.86.0909-1.506-.0909l1.506 1.3633-1.076-.1817c.108-.0909.431-.1818.431-.3636-.538-.7271-1.614-.9089-2.583-.818l.431-.2727c0-.0908-.108-.1817-.323-.0909 0 .3636-.43.2727-.861.2727.323.3636.861.3636 1.291.6362l-.538.1818c0 .0909 0 .1818.108.1818s.215.0909.323.0909c.215-.0909.538-.2727.753-.2727-.108 0-.215.818-1.076.4545l-.108-.1818c-.43-.0909-.86-.0909-1.291-.1818-.215.0909-.43.0909-.538.1818h.323c0 .1818-.215.1818-.323.2727.753.4544 1.722-.3636 2.367.3635-.538.0909-.86-.5453-1.076-.0909l.216.2727v.0909c-.216.4544.86.0909 1.183.1817.215-.1817-.538.7272.538.6363 0 .0909-.107.0909-.215.1818l.861.2726c-.323 0-.753.3636-1.184 0l.323-.1818c0-.0909-.108-.0908-.108-.0908-.215-.1818-.538-.1818-.645-.0909l-.215.0909.645.1817c-1.076.0909-1.829-.7271-2.905-.5453-.538.0909-.646-.5453-1.184-.2727-.43-.2726-.968-.3635-1.614-.3635 0 .0909-.107.1817-.215.1817-.215.0909-.43.0001-.43-.0908l-.431.0908.323-.0908-.215-.2727c-1.076 0-1.937-.1818-2.69-.4544-.323 0-.753.0908-1.184.1817v.1818l.538-.0909c.538-.0909-.322.1818.108.2727l.323-.1818c.43.2727 1.399.4544 2.152.4544v.1818c2.044.2727 3.873.7271 5.487 1.1816.323-.1818.861.0909 1.076.2726 0 .1818-.215.1818-.322.2727.215.0909 1.183.1818.86-.2727.108.0909.538.2727.646.1818l.43.3636c-.215.0909-.43.0909-.645.1818v-.0909c-1.291-.4545-2.26-.1818-3.228-.7271h-.969v.1817c-.215-.0909-.322.0909-.43.1818.538.1818.538.9089 1.291.7271l.969.0909c.322 0-.538.1818-.646.4545l-.108-.3636c-.107.4544-1.076-.2727-1.076.3636 0-.1818-.215-.2727-.322-.4545l-.323.2727.43.2726c-.323-.2726-.753.1818-.861-.3635l-.645.1818c-.108-.9089-1.076.2726-1.399-.5454l-.43.2727c.107.0909.322.3636.538.1818v.1818c-.108 0-.323-.0909-.431 0 .323.4544.646.1817 1.184.3635.861.4545 1.937-.0909 2.69.7271.753 0 1.183-.0909 1.721.3636-1.183.2726-2.474-.818-2.797 0-.215-.1818-.753-.4545-1.076-.1818 0 .3636.861.3636.645.3636-.322.1817-.753 0-1.076-.0909.108-.1818-.107-.1818-.215-.3636.108.0909.215 0 .323-.0909-.215-.2726-.646-.3635-.968-.5453l-.431.2727c.323.1817.753.2726.969.5453l-.216.4544c-.43-.0909-.968-.1817-1.183-.5453-.215 0-.215.1818-.215.2727-.646.0909-1.507-.0909-2.152-.0909 0 0-.108 0-.108.0909l-.323.2726.108-.0909.107.0909-1.183.1818c.323.1818.753.3636 1.183.3636-.538 0-1.506-.4545-2.044-.1818.538.4544 1.614.2727 2.26.6362l-1.184.1818c.538-.0909.43.7271.753.1818.431-.0909.215.3635.646.3635l.43-.1818v.1818h-.323c-.107.1818-.107.6362.431.6362l.43.0909c-.968 0-1.937.2727-2.905.3636.753.2726 1.399.2726 2.044.3635.323-.0909 0-.2726 0-.4544h-.107v-.0909l.43.0909c0 .0909-.107.1818-.215.1818.323.4544.646-.1818 1.184 0 .43-.3636 1.291-.1818 1.829-.5454h.43l-.645.3636c.43.2727 1.076.2727 1.614.5453-1.184.2727-1.937-.9089-3.013-.2726l-.108.0908c-.107.1818-.753 0-.645.4545l.215.2727c1.183.6362 2.475.3635 3.658.9088-.968-.3635-1.829-.1817-2.797-.2726.107.2726.538.2726 0 .4544l1.183.2727-4.089-.4545c-.107.2727-.43.4545-.538.7272-.322-.1818.216-.3636.323-.5454v-.0909c-1.291-.6362-3.443.0909-4.949-.818-.216 0-.108.2727-.216.3636.323.5453.969 0 1.507.4544l.538.1818c-.108-.0909-.215 0-.323.0909.43.4544 1.184.1818 1.829.2727l.323-.1818c0 .1818.323.0909.538.1818-.861-.1818-1.614.6362-2.582.0909-.538-.0909-1.507-.1818-2.152 0 1.076.7271 3.12 1.1815 4.519.7271.107 0 .215-.0909.215-.1818 0 .1818-.215.818-.753.9998l.43-.5454c-1.291-.1817-2.367.5454-3.551-.0909l-.753.0909c.108.818 1.291-.0909 1.507.7271l.43.0909c.323.4545.861.1818 1.399.5454.107-.0909.323-.0909.323-.2727 0 .1818.322.4544.753.4544v-.6362.0909l.107.0909c.108.1818.216.4544.646.3635.108.1818.538.1818.753.1818l.323-.1818c.215.0909 2.26.2727 3.551.6363.538.2726 1.399.2726 2.044.3635-.968.3636-1.614-.2726-2.69 0-.645-.0909-1.183-.2726-1.937-.3635l-.322.2726c.107-.6362-.969-.1817-1.292-.3635v.0909l-1.829-.0909v-.0909c-.861-.0909-1.614-.2727-2.582-.2727-.538-.1818-1.614-.3635-2.367-.3635-.108-.1818-.538-.1818-.754-.1818l-.968.4544c.968.5454 1.937.2727 3.013.5454 0 .2726-1.076-.0909-.646.4544.215.0909.538.0909.753-.0909.108.1818.216.0909.431.1818l.43-.2727c-.107-.0908-.215-.0909-.107-.1817.215-.1818.43 0 .753 0-.753 0-.215.4544-.431.6362.861-.0909 1.076.6362 1.722 0 .753.2726.968-.6362 1.722-.0909l-1.507.1818.753.4544c-1.721 0-3.658-.2727-5.595-.5453.215.0909.431.1818.538.2726.861.4545 1.399 1.1816 1.614 2.1814zm35.185-47.6257l-.215-.3636-.215.1818c.215.818 1.076 0 1.399.5453l-.108.2727c-.215.0909-.968-.4544-1.076.0909-.323 0-.538-.2727-.538-.5453-.646.0909-1.829-.3636-1.722.5453-1.183.7271-2.367-.0909-3.55-.3636l-.323.5454c.323 1.636 2.69.5453 3.766 1.5451.538-.7271 1.399 0 2.152 0v.1818l.43-.3636.215.3636c.323.0908.431.4544.646.7271.215-.5454-.538-.7271-.753-1.1816l.753-.4544-.538-.6362c.43-.1818.538-.4545 1.076-.5454l-.215-.4544c-.215-.1818-.969-.5454-1.184-.0909z" fill="#F1F1F1"/></svg>