<svg width="486" height="125" fill="none" xmlns="http://www.w3.org/2000/svg"><path d="M39.1825 16.7496l3.2652-.3317-1.6326.6634-1.6326-.3317zm7.1834-2.3217l1.6326-.6634c-.653-.4975-1.9591-.4975-1.9591-1.3267 4.8978-.8292 11.7548-.4975 15.3465.1658-.3265.1659-.6531.1659-.6531.4976 1.3061.995 3.9183.1658 5.8775.3316l-1.9592.4975c.9796 1.3267 4.2448-.4975 4.5713.9951-.9796.6633-3.9183-.9951-4.8978.4975.9795 0 2.6122.6633 3.9183.6633-1.6326.9951-2.9387-.4975-4.2448-.1658-1.6326-1.4925-4.2448.995-5.2244-.8292-3.2652.4975-7.51 2.9851-10.7752 1.1609-.9795.6633-2.2856.1658-3.2652.1658.3265-.6633 3.5917-.995 1.6326-1.99zm36.8969-.1659c1.3061-.1658 2.6122-.3317 3.9183-.1658-1.3061.1658-1.6326.8292-2.9387.6633l-.9796-.4975c-.9795.1659-.9795.8292-1.306 1.3267 2.9386.995 6.5304-.1658 9.1425.3317-.9795.995-1.6326-.3317-3.2652.1658-2.2856.3317-4.5713.3317-7.1834.1659l1.3061-.6634-1.6327-.995c.9796-.1658 1.9592-.1658 2.9387-.3317zm15.9996.8292h1.9586c-2.6117.4975-6.2034.6634-9.1421.8292 1.3061-1.1609 4.8978-.1658 7.1835-.8292zM389.866 48.2587l-1.632-.1658.979-.3317.653.4975zm12.408.995c-.979.6634-2.285-.4975-3.592-.6633-.326-.995 1.96.8292 3.592.6633zm-2.285-1.3267c.326.1659.653 0 .979-.1658.327-.3317 0-.6634-.653-.6634-1.306 0-1.306-.3316-1.633-.995 2.613-.6633 2.613 2.1559 4.898.8292-.326-.3317-.653-.3317-1.306-.3317 1.959.3317 5.225-.995 7.184.8292-1.633-.4975-4.245-.995-5.878-.3317-.326.1659 0 .3317.327.4976l1.306.1658c-2.286-.1658-3.592.1658-4.898.4975l-.326-.3317zM97.9563 14.262l2.9387-.1658-2.2857.1658h-.653zM394.111 46.4345l-1.632-.1658v-.3317c1.632-.4975 2.612.8292 4.244.8292h-2.285c.326-.1659 0-.3317-.327-.4975v.1658zM83.2628 10.9453c1.6327-.4975 4.2448-.4975 5.5509-.1659-1.6326.3317-3.2652-.3316-4.2448.3317l-1.3061-.1658zm15.3465.4975l1.3061.1658c-.653.8292-.653.6634-2.6121.4975.3265-.4975 2.2856.3317 1.306-.6633zm-.9795-.995c-1.3061.1658-2.9387.1658-4.2448.3316.6531-.4975 3.2652-.4975 4.2448-.3316zm9.1422 1.6583c-1.632-.4975-2.612.1659-3.918.6634-.326-.3317-.653-.4975-1.306-.6634l6.53-.6633c-.326.3317-.979.3317-1.306.6633zm-8.1627-1.8242l3.9187-.33165c0 .82915-1.633.49755-2.6126.49755l-1.3061-.1659zm8.8157 0c-.979.1659-2.285.1659-3.265.3317l.327-.4975 2.938.1658zm9.143 1.3267c2.939-.6633 5.224-.3317 9.469-.3317-5.877.8292-10.775 0-16.979.4976.327-.8292 1.633 0 2.612-.4976 1.306 1.1609 3.265-.995 4.898.3317zm-5.551-1.4925l2.286-.8292-.327-.16584c-.326 0-.326-.16584-.653-.16584h.327v.16584c.326.16584.979.33167.326.82919l-1.959.49755v-.3317zm9.796-.99504c.326.99504 2.285.33168 3.592.33168.653 1.16086 1.632-.49752 2.612 0-1.306.82916-3.919.16583-5.878.33167l-.326-.66335zm-4.572 0l-.653-.66335c.327.16584.327.33168.653.33168 1.307-1.3267 0 .49751 1.633.16583-.326.66335-.979.16584-1.633.16584zm13.061-.33167c-.326.16583-.653.16583-.653.49751 1.633.995 3.919 0 5.225-.16584l-.327-.33167c-.653-.49752 1.633 0 2.286 0-.327.16583-.653.16583-.653.49751.326.16584.326.33167.653.33167.326-.16584 1.306-.33167 1.306-.66335l-.327-.33167 1.306.16584-.979.33167c1.632 1.32674 5.877-.49751 7.51.82919-4.245 1.16085-9.143-.99503-13.388-.16584-.326.49749-1.959 0-2.612 0l-.979-.82919c.326-.66335.979-.33167 1.632-.16583zm17.959.49751l1.633.995c-.653.4975-1.306-.1658-1.633-.49749V9.2869zm-1.959 3.1509c-1.306 0-2.939-.4975-4.245-.1658 1.959-.3317 3.265-.9951 4.245.1658zm5.224.8292l-2.612-.3317.327-.4975 2.285.8292zm252.075 29.1874l-3.266-.3317v-.1658l3.266.3317v.1658zm1.959 0l1.632.1658v.1659l-1.632-.1659v-.1658zm11.428 1.4925l1.633.1659v.1658l-1.633-.1658v-.1659zM136.812 12.7695c0 .3317-.326.3317-.653.4975l-.979-.1658.326-.4976 1.306.1659zm271.666 31.6749l-1.633-.6633 3.266.3317-1.633.3316zm14.694.3317c2.285-.1658.979 1.1609 1.632 1.8242-.979.6634-2.612.6634-2.939.1659.327-.3317-.326-.4975-.653-.8292-.653.4975-1.632.4975-2.285 0l-.98-.8292c.98-1.3267 2.939.1658 3.918-.8292 0 .1658.653.4975 1.307.4975zm-301.38-30.0166l-1.632-.1658 3.265.1658h-1.633zm6.857 0c-.979 0-1.632.3317-2.938.1659.653-.3317 1.959-.3317 2.938-.1659zM417.294 47.927l-1.632-.1658c-.653-.3317.979-.1658 1.632.1658zm6.204.9951l.327.3316c-.653.3317-2.286-.995-3.592-.1658l.979.8292-3.918-.4975c1.959-.6634 4.245-.9951 6.204-.4975zM72.4876 15.257c.6531.1659 2.6122-.8291 3.2652-.1658-1.6326 0-1.9591 1.1609-3.2652.1658zm-9.4691 1.8243h-2.2857c.9796-.6634.9796 0 2.2857 0zm105.1395-2.4876l1.633-.6634 1.633 1.1609-3.266-.4975zm217.137 19.403c.98-.4975 3.592.6633 4.898-.1659-.98 1.1609-3.265 0-4.898.1659zm-4.571-1.8242v-.3317l1.632.1658v.3317l-1.632-.1658zm-9.143-1.3267c2.286-.1659 5.225.3316 8.49.6633-2.939.995-5.225-.6633-8.49-.6633zm22.204 2.3217l-7.51-.6634c3.265.3317 4.897-.4975 7.51.6634zm30.366 2.3217c-.326-.1658-.326-.4975 0-.8292l.98.3317c-1.306.1658.653.8292-.98.4975zm-27.754-3.1509l.326-.4975c.653.8292 2.286 0 3.266.1658-.98.4975-2.286.6634-3.592.3317zm-.653-.6633l-1.959.3316c.326-.4975 1.306-.3316 1.959-.3316zm19.918 1.8242c-.653-.4975.653-1.1609-.654-1.6584l1.633-.3317c1.959.3317 5.551.6634 7.184 1.6584-1.633.3317-3.919.4975-5.878.6633.327-.1658 0-.3316-.326-.4975-.653 0-1.306.3317-1.959.1659zm-9.796-1.6584l.653-.1658-2.612-.4975c1.632.3316 3.265.1658 3.918-.6634l-.326.4975 3.591.6634c-1.306.3316-3.265.4975-5.224.1658zm-20.897-3.3168l.979-.3316-.326-.3317c-.327-.1658 2.285-.6634 3.265.1658-.327.1659-.653.1659-.653.4975l1.959.4976c-.98.4975-2.612.995-3.918.8291.979-.995-.98-.995-1.306-1.3267zm-.654-1.6583l1.633.1658c-.653.3317-1.306.3317-1.959.3317l.326-.4975zm11.755.995c.653 1.1609 3.265-.6634 3.919.995.653-.1658 1.632.4975 2.612.8292h1.306c-.327.1658-.98.1658-1.306 0l-1.959.1658v.1659c-2.286 1.1608-5.225 0-7.837-.1659.653-.1658 0-.8291.98-1.1608-.327-.6634-2.939 0-2.286-.995l4.571.1658zm26.122 3.1509v.3317l-1.633-.1658v-.1659h1.633zm10.775 1.8242v.1659l-1.632-.1659V32.67l1.632.1658zm23.183.1659c.327-.8292-.979 0-.979-.6634.653.1658 2.285 0 1.959.8292l-.98-.1658zm-15.346-5.141l.326.3317c-.326.6633-1.632.6633-2.612.4975l2.286-.8292zm-34.285-3.3167v-.1659l3.592.3317v.3317l-3.592-.4975zm-10.775-1.1609c0-.6634 1.959-.4975 2.938-.6634l.327.3317c-.653.1658-1.633.8292-3.265.3317zm18.285.8292l-.327.4975c-.653-1.1609-2.285.6633-3.265-.3317l3.592-.1658zm-8.163-1.3267c.653-.6634 1.306.3316 2.286.4975-.98-.1659-1.96 0-2.286-.4975zm-14.367-1.4926l-.653-.6633c.326-.1659 0-.3317-.327-.4975-2.612.3316-6.53-.8292-9.795-1.1609-.327-.3317-.653-.8292-1.633-.6633 1.306-.8292 4.245.3316 6.204-.1659l-.326.4975c3.918-.3316 6.203 1.9901 9.469 2.1559-.327.1659-1.633.995-2.939.4975zm12.734-1.8242c-.326.1659-.653.1659-.653.4975 1.633.4975-.653.4975.653 1.1609l4.898.4975c-1.959.6634-4.571-.8292-6.857 0-.979.1658-2.939-.6633-4.245-.995-.653-.1659 2.613-.3317 1.633-.8292 1.633.8292 1.959 0 3.265 1.1609.653-.4976.98-2.3218 1.306-1.4926zm6.531 3.6484l-.98-.6633 1.306.1658-.326.4975zm7.183-.4975c-1.306-.3316-2.285-.1658-3.265.3317.327-.3317-.327-.4975-.327-.6633h-.979c-.327.3316.326.6633.326.995l-1.306-.1659c-.653-.4975 0-.6633.98-.8291 0 0 .326-.1659.653-.1659v.1659c1.306 0 2.939 0 3.918.3316zm.653.8292c0 .3317-.979.3317-1.632.3317l.326-.4975 1.306.1658zm23.183 3.1509c-1.632-.3316-3.265-.3316-4.571-.3316 0 .1658-.327.1658-.327.3316 0-.1658 0-.3316-.653-.3316l1.633-.3317 3.918.6633zm14.041 1.3267c-.327.6634-2.612-.4975-2.939.4975l-.98-.1658.98-.3317-.327-.3316 3.266.3316zm-12.408-.3316c.326-.1659.653-.1659.653-.4976-.327-.1658-.653-.1658-1.306-.3316l2.612.4975-1.959.3317zm-4.571-.1659c-.327 0-.327 0-.653.1659 0 0 0-.1659-.327-.1659h-.98c-.326-.1658 0-.4975.327-.6633 0 .3316.653.4975.98.6633h.653c.979-.1658 1.959-.1658 3.265 0h-3.265zm-72.815-8.9552c-.653 0-1.306 0-.326-.1658l.326.1658c.653 0 1.633.1658 1.633.4975-.653.1658-1.306 0-1.633-.4975zm85.222 20.8955l-1.959.4975c.653-.1658.653-.3316.653-.6633l1.306.1658zm-7.836 48.2587v-.3317l-1.959-.1658v.3317l1.959.1658zM19.9177 19.2371c-.3266 1.1609 2.6121 1.3267 3.2652 1.3267-1.6326-.3316-1.6326-1.6583-3.2652-1.3267zM9.14252 57.5456c.32652.1658.32648.6634.97948.6634l.3266-.4976-1.30608-.1658zm1.63258 4.1459l-.3265.8292.653-.6633-.3265-.1659zm51.2638-47.2636l1.6327.1658.653-.1658h-2.2857zM118.854 4.31177l1.632.16584v-.16584h-1.632zm43.427 4.14594h1.306c0-.82919 2.286 0 1.959-.33168-1.306-.82918-1.306.66336-3.265.33168zm9.469-3.48259c-.979-.33167-3.918.16584-2.286 0 .327.66335 1.633.16584 2.286 0zm-.326 3.31675c-.98.16584-1.96.16584-2.286-.16584 0 .49752.979.33168 1.633.49752 0-.16584.326-.33168.653-.33168zm.653-.16584c1.306 0 2.285.49752 3.918-.16583-.653-.33167-2.286 0-3.918.16583zm4.897 0l.653.82919.654-.16583-1.307-.66336zm1.307 2.48757l1.306.1658c.326-.3316-.98-.6633-.327-1.16083l-.979.99503zm-5.225-4.14594c1.306 0 4.571-.16584 3.592 1.16086 3.918.33168-1.306-1.49253.653-1.99005.653 1.65838 3.918 0 3.918 1.99005 1.306-.49751 1.959-1.49253 3.918-1.65837-4.571-.16584-6.53-.82919-10.122-1.3267l.327 1.16086c-.653.99503-2.612-.33167-2.939.66335h.653zm13.388-.16583c.979 0 2.612.82918 3.591.16583 0 .49751.98.33168 1.633.49752l-.327 2.32172 1.96-.82919-.98-.16584c.326-.33167.653-1.49253 1.959-1.82421.653.49751 1.959.16584 2.612.82919 0 .33167-.326.33168-.653.49751 1.306 1.16086 4.245-.33167 4.572.99503l.979-.33168c.98 0 1.306.33167 1.633.66335 5.224-.66335 5.224 3.98014 10.122 2.15584l-1.306.1659c-1.959-1.65839-6.857-1.65839-7.51-3.64844-.653-.16583-1.633 0-1.633-.49751l3.592-.16584c-.653-.16583-1.633 0-1.633-.49751l2.286-.33167-7.51-.66336c-.98-.16583-2.286-1.3267-3.265-.16583-1.633-.16584-2.939-.82919-3.919-1.49254-.979 1.82421-4.244.82919-6.53 1.16086l.327 1.16087zm39.835 10.61357c.327-.4975.327-.8292-.326-1.1608l-.327.8291c0 .1659.327.3317.653.3317zm1.306-6.6335l1.306.1659.98-.1659h-2.286zm-14.04-3.6484c-1.633.33167-5.551-.82919-5.551.66335l.653-.16584-.327-.33167c.327-.49752 1.307 0 1.96 0 1.959 1.16086 6.204 1.16086 9.142.49751.98 2.6534 3.918 1.99005 7.184 2.81925l.326-.49753c-.326-.16584-.326-.33167-.653-.33167-.979.49751-3.592-.49751-5.224-.82919.326-.99502 2.612.16584 2.939-.49751-.327 0-.654-.16584-.654-.33168l.98-.33167c2.939-.33168 5.224.82919 7.183.33167l-6.53-.99502.327-.66335-1.96 1.16086c-2.612-1.49253-3.265-.33168-6.203-1.49254l.653.82919c-.98.99503-2.939 0-4.245.16584zm17.632 7.131l1.633-.6633-1.633-.1659c.327.3317.327.4975 0 .8292zm15.673-6.30182l1.959.16584v-.33167l-1.959.16583zm-9.143.33168c-.979.99503-3.591 1.82421-4.571 1.82421l.327.33168c-.98.66335-1.959 0-2.939.49755 1.959.1658 3.592.4975 5.551.3316.979-.99499 3.592-.82915 5.224-.6633h-.326c-.327-.49753-2.613-.33169-1.959-1.32671 1.959 0 3.918-.33168 5.877.16583 1.959 1.16088 3.265.16584 5.551.33168-2.612-.66335-5.878-.99503-8.163-1.99005 0-.33168.653-.49752 1.306-.66335.326 0 .653.16584.653.33168l.653-1.49254c-.653.99502-2.612.49751-3.918.82919-.98 1.65837-4.572.49751-6.857.82918 1.632.33168 2.938-.33167 3.591.66335zm12.735 1.82421v.33168l1.306.16585c.326.3317.653.6633 1.306.1658l-1.306-.1658c-.327-.33169-.653-.66337-1.306-.49753zm7.183-.99502c.327 0 .327 0 .653.16584 0 0-.326-.16584-.653-.16584-.979-.16584-1.959 0-2.285-.82919.326-.99502 2.612.16584 2.938-.49751-.979-.16584-2.285 0-2.938-.66335l-.327.49751c-.653.16584-1.306.66335-1.959.49751 3.592-.16583-.653 2.48758 1.306 3.48258.98.1658 2.612 0 2.939-.6633l-.327-.3317h2.286c-1.633 0-2.612-.16585-3.918-.66336 0-.82919 1.632-.82919 2.285-.82919zm4.898 2.65335c.327.8292-.653 1.9901-2.612 1.9901l.653.1658c2.286-1.8242 3.265 1.1609 5.877.1659-.979-.3317-3.265 0-3.918-.9951.327-.6633 1.959-.8291 1.959-1.6583-.653-.1659-.979.1658-1.632.3316-1.633-.1658-.327-.8291-.98-1.1608.327-2.81925 5.551 1.4925 6.53-.8292l-4.244-.82919c.326-.16584.653-.33167.979-.16584l-2.612-2.6534c0 .49752 1.306 1.32671-.653 1.49254l-.653-.66335c-.327 1.82421-1.959 3.81424 1.306 4.80924zm9.469-3.15087l1.633.16584c0-.33167-1.306-.82919-1.633-.16584zm6.857 3.48257h-2.612c.653.6634 2.286 0 2.612 0zm2.939-.995c-2.286-1.99005-9.143 0-10.449-1.49254 0 .33167-.326.33167-.653.49751.98.82923 4.571.33168 6.857.49753.98 1.6584 1.959 0 4.245.4975zm3.265 1.1609l-.653.4975 1.306-.1659-.653-.3316zm-.653 6.9651l-.653-.6633c-.327.1658-1.306.3317-1.306.6633.979 0 1.959.4975 1.959 0zm4.571-5.8043c-.326 0-.653-.1658-.653-.3317l2.286-.995-.98.1659c-1.632-1.1609-3.918-1.1609-5.551-1.3267.653.1658 1.96 0 1.96.4975l-.653.1658.979.4975.327-.6633c.653 0 .979 0 1.306.3316-.327.1659-.653.1659-.653.4976.326.6633.653 1.1608-.653 1.3267 1.306-.1659.979.6633 1.959.8291l.326-.995zm6.857-.8292c.98 0 2.286.1659 2.612-.6633-1.959-.8292-2.285 0-2.612.6633h-.653c.327.1659.327.1659.327.3317-.327.4975-.653.8292-1.633.6634l1.633.995c.653-.1659 2.285-.4975 1.632-.3317-.979-.3317-.653-.6633-1.306-1.1609v-.4975zm2.939.1659c.326-.3317.979-.1659 1.306-.1659l-.327-.3316-.979.4975zm3.265 1.1608l-1.959.4975.98.1659c0-.3317.979-.3317.979-.6634zm8.163 7.2969l-2.939-.6634.654.6634c.653.1658 1.632.4975 2.285 0zm3.265-1.1609v.1659l1.959.3316v-.3316l-1.959-.1659zm5.878-5.4726l-11.102-.4975c-.98 1.1608-2.286-.6634-3.265.1658-.98.8292-1.306-.8292-1.959.3317 1.632-.3317 1.959 1.1608 3.265.1658l.326.3317.98-.3317c2.939-.1658 4.245 1.3267 5.877.1659 1.306 1.3267.98.4975 2.939.6633-.326 0-.653-.1658-.653-.3317 1.306-.8292 3.265.1659 3.592-.6633zm-3.592-1.8242c1.633.995 2.939-.1659 4.245.1658l-.327-.4975c-2.285.1658-4.571-1.4925-7.183-.4975-.327-.4975-2.612-.3317-1.959-1.3267l-.98-.16585c-.653 1.99005 4.571.99505 6.204 2.32175zm4.571 2.8192l1.306.1658v-.3316l-1.306.1658zm-2.938 4.9751c.653.6634 2.612 0 2.938 1.1609.653-.995-1.632-1.4925-2.938-1.1609zm10.122-5.6384l-2.939-.6634.327.3317 2.612.3317zm-5.551-2.6534c.979 1.99 6.204 1.4925 8.489 1.8242-.326-.9951-2.612.4975-1.959-.8292-1.959.995-4.571-.4975-5.55-.3317 0-.3317-.001-.6633-.98-.6633zm6.53 3.9801v.1658l2.613.3317v-.3317l-2.613-.1658zm3.592 6.7993c-1.306-.1658-.326-.8292-1.959-.8292-.653.1658-.653.3317-.653.6634.653-.1659 1.959.995 2.612.1658zm0-9.4527l1.306.1658c.653.1658 1.959.1658 1.633.6633 2.285.3317 4.898.3317 6.204 1.4926.326-.995 2.612-.3317 2.938-.6634l-5.877-1.1608.327.3316-.654.1659c-1.959-.1659-3.591-.8292-4.244-1.8242.653.8292-1.306.4975-1.633.8292zm12.734 5.6384l-1.632-.4975.326.3317 1.306.1658zm1.306-1.99c-1.306 1.3267-2.612-.995-4.244.3317.979-.1659 3.918 1.1608 4.244-.3317zm.654-1.8242l.979-.1659h-2.286l1.307.1659zm2.938 9.2869h-2.612l1.633.1658.979-.1658zm1.959-9.4528l6.204.4975v-.1658c-1.632-.1658-5.877-1.1609-6.204-.3317zm7.51.6634l1.959.4975 1.96-.3317-3.919-.1658zm2.939 8.6235l-1.633-.1658c0 .4975.98.3317 1.633.4975v-.3317zm5.224-8.2918h-2.285c.653.1658 1.959 0 2.285.4975v-.4975zm2.939 6.6335l.327.3316.653-.3316c-.653.1658-1.633-.8292-.98 0zm6.857.4975c-1.306-.3317-2.612-.1659-3.265.3316.979-.1658 2.612-.1658 3.265-.3316zm1.633-.8292c-3.266-1.1609-8.816-.6634-12.408-1.3267l-.327.4975.98.1658c4.898-.3316 6.53.6634 11.755.6634zm-2.613 4.3118c.654 0 .654.4975.98.6633l.327-.4975-1.307-.1658zm3.919.995v-.1659l-1.306-.1658c0 .3317.653.3317 1.306.3317zm-.653 2.3217c.326-.1658 1.632-.3317.326-.8292l.98-.3317-1.633-.6633c-.326.995-2.285-.1658-2.612.4975 1.959-.3317 1.959.8292 2.939 1.3267zm3.918-10.6136l.326.3317 1.307-.1659-1.633-.1658zm4.245 5.3068l3.265.1659c-.653-.6634-2.612-.3317-3.265-.1659zm11.428 5.3068v-.3317l-1.306-.1658v.1658l1.306.3317zm22.53-7.7944l-1.633-.6633.653.4975.98.1658zm-7.837 26.6999c.327.1658.327 0 0 0 .327 0 .327 0 0 0-.326-.1659-.979-.4975-1.306-.6634l2.939.3317c-.326.4975.98.6634 1.633.6634-1.959-.1659-3.919.4975-5.878.6633l.327.3317-7.184-.3317c.327-.3317-.326-.4975-.653-.8292.98.6634 1.633.8292 3.592.6634l.653-.6634c-.653-.4975-1.959-.3316-2.939-.6633l3.919-.1659-.653.1659.653.6633 2.612-.8292-.327-.3316 1.633.1658c-.327 0-.327 0-.653.1658-.327 1.1609.979.6634 1.632.6634zm.327 21.5589v-.1659l-2.286-.1658v.1658l2.286.1659zm6.53 4.6434l.327-.4975-1.633.3317 1.306.1658zm10.123-22.8856l.326-.3316-2.286-.4976 1.96.8292zm3.918.1659l-1.633-.4975-.326.4975h1.959zm-.98 2.1558l.327.3317-2.612.8292.326.3317c0 .4975-.653.4975-.979.995l1.306.1659c-.327-.6634 2.285-1.4926 2.285-2.1559l.98-.3317c0-.8292-.98-.3317-1.633-.1659zm3.265-1.6583v-.1659l-1.306-.1658v.3317h1.306zm4.898 2.3217c-1.632-.3317-3.591-1.3267-5.224-.8292 1.959.8292 3.592.6634 5.224.8292zm-1.306 2.3217l.98-.1658h-2.612l1.632.1658zm3.265-5.4726c-.979-.1658-2.285.8292-3.591.8292 1.306 1.3267 1.959-.995 3.591-.8292zm1.306-.3317l1.307-.4975-.98-.6633c-.98.4975-1.306.8291-.327 1.1608zM265.135 14.9254l-.979-.1659c0 .1659 0 .3317.326.4975.327 0 .653 0 .653-.3316zm-83.916-1.3267c-.326-.1659-.326-.3317-.653-.4975 0 .1658.327.3316.653.4975zm275.258 30.1824l1.306.3317c.326 0 .979 0 1.306.1658v-.1658l-1.306-.1659v-.1658c.326-.3317.979-.1658 1.632-.1658-.653-.9951-2.285.4975-2.938.1658zm-25.795 62.6869c.653.165.979.497 1.632.663.327 0 .653 0 .98-.166v-.332l-.98.498c-.326-.332-.653-.829-1.632-.663zm17.305-44.1131v-.3317l-2.939-.1658v.3317l2.939.1658zm-12.734 24.0464l2.285.4975v-.4975c-.326-.3316-1.959-.6633-2.285 0zm-.327.8292l-.326.4975c1.959-.3316 3.918.1659 5.551-.6633-2.286 0-3.266.6633-5.225.1658zm-6.857 19.4025v-.331c-.326-.166-.653-.664-1.306-.664l-.326.83 1.632.165zm12.408-37.9763l-1.306-.3317 1.306.6634v-.3317zm-3.918 12.7695l-1.306-.1658-.653.1658h1.959zm-1.959 9.2869v0c0-.1658.326-.1658.653-.3317.326-.8292-2.939-1.4925-.653-2.1559-.98 0-1.959-.4975-2.612-.8292l2.285-.6633-1.306-.8292-.326.8292c-1.306.6633-1.959-.6634-3.266 0l1.96.4975-.98.4975h.98c.979.3317 3.591.6634 2.285 1.8242.98-.1658 1.306.6634.98 1.1609zm-16.653-2.1559v.3317l3.918.3317v-.3317l-3.918-.3317zm-9.795 15.0908v-.331l-2.939-.166v.332l2.939.165zm5.877-34.8254l-.327-.3317c-.326.3317 0 .3317.327.3317.653 0 1.633 0 1.959.1658 0 .3317.327.4975.653.6633 0-.3316-.326-.4975-.653-.6633 0-.3317.327-.6634.98-.6634-.327-.995-2.939.6634-2.613-.8292l-3.265-.3316 3.592.995c0 .3317 0 .6634-.653.6634zm-16.653 28.0265l1.959-.3317h.327c.327.1658.98.4975.653.8292 1.959-.4975 2.612.1658 4.571-.1658l-4.897-.6634v-.1658h-2.613v.4975zm-6.204 4.6439v-.332l-1.306-.166v.332l1.306.166zm15.347-62.687v.3316c-.653-.1658-.98-.3316-1.306-.4975.326 0 .653.1659 1.306.1659zm-10.775 33.3333c-.653-.6633-1.959-.3317-2.612-.1658-.327-.1659-.327-.1659-.653-.1659 0-.1658-.327-.1658-.327-.4975l-.98.4975c.653.1659.98 0 1.307 0 .326.1659.326.1659.653.1659 0 0 .326.1658.326.3316.653 0 1.959.3317 2.286-.1658zm-13.714-1.6584v-.1658c.979-.1659 2.285-.4975 2.285.4975l-2.285-.3317zm49.631-28.524c.327 0 .327 0 .653.1658-.326 0-.326.1659-.653.1659v-.3317zm-3.592-.3317c.327 0 .327 0 0 0 .327.1658.653.1658.653.3317 0-.1659-.326-.3317-.653-.3317zm17.959 1.8242l1.633 1.1609c-.653.1658-2.286.6633-3.592.1658v-.4975c-.653 0-.98-.1658-1.633-.3317-.653 0-1.306.1659-1.632-.1658.653 0 1.306 0 1.632.1658.653 0 1.633-.1658 1.633.3317.653.3317 1.306.1658 1.959-.8292zm3.918.995l-2.285-.1658c.653-1.1609.979.4975 1.959-.3317-.327.1659 0 .3317.326.4975zM398.029 34.66c-.653.1659-1.306.4975-1.959.6634-1.306 0-2.285-.1658-3.265-.8292 1.633-.4975 3.265-.1658 5.224.1658zm11.102 3.8143l.98.8292c-.98 0-2.286 0-3.266-.3317v-.3317c.654 0 .98-.1658 1.633-.3316.327.1658.327.1658.653.1658zm3.592 1.1609h-.653v-.3317c-.327 0-.327-.1658-.653-.3317.979.1659 1.632.1658 2.938.6634h-1.632zm8.816.8291c0 .1659.326.3317.326.3317-1.306-.1658-2.938-.3317-4.244-.8292 1.306-.1658 2.612.3317 3.918.4975zm4.898.1659c-.327 0-.653-.1659-.98-.1659-.653.6634 1.306.6634 1.306.9951-.653-.1659-1.632-.1659-2.612-.3317-.326-.1658-.326-.3317-.326-.4975.326 0 .979-.1659 1.306-.4975.326.1658 1.306.1658 1.306.4975zm9.795 2.1559c-.653 0-1.306-.1659-2.285-.4975h-.327l.327-.1659c.979.1659 1.632.1659 2.285-.1658l.98.1658v.1659h.98c-.654.1658-1.307.3316-1.96.4975zm6.531-.1659h-.327l.327.3317-1.633.6634-.653-.6634-.326.4975c-.327.3317-.98.1659-1.633.1659-.326-.1659-.653-.3317-.653-.6634.327-.1658.653-.3317.98-.1658l.326-.4975 3.265.1658s0 .1658.327.1658zM18.9381 89.7181l-1.3061-.6634c0 .3317 0 .6634-.653.6634-.3265-.1659-1.3061-.8292-1.9591-.3317l-.3265.4975 1.9591-.1658h2.2856zm-8.163-23.0514c0 .4975.9796.995 1.3061 1.4925l.653-.1658c0-.6634.0001-1.6584-1.9591-1.3267zM418.6 55.3897l-.326.6634.326.1658c-.326-.1658-.653-.1658-.979 0v-.1658c0-.3317 0-.6634.326-.8292l.653.1658zm-1.306-.1658h1.306l-.653.1658c-.326 0-.326-.1658-.653-.1658zm16 3.3167l-.327.8292-1.306-.1658h.327c-.327-.1659-.653-.3317-1.306-.3317v-.1658c.326-.1659 0-.3317-.327-.4975h-.98c1.96-1.1609 1.96 1.3267 3.919.3316zm5.224 2.8193v.3316l-1.959-.1658v-.3317l1.959.1659zm-13.061-3.3168l-1.632-.1658c.653 0 1.306.1658 1.632.1658zm-18.938 5.4727c0 .4975-2.612-.3317-3.592-.4976l3.592.4976zm5.224.8291l-3.265-.4975c.653 0 1.306-.1658 1.633 0-.653-.1658-1.633 0-1.633-.3316 0 0 .327-.0001.327-.1659.326.3317 1.632.3317 2.938.4975-.326.1659-.326.3317 0 .4975zm2.286.3317l-2.286-.3317c0-.1658.327-.3316.327-.4975.653.1659 1.632.3317 1.959.8292zm-5.224.8292l-3.266-.4975v-.3317l3.266.8292zm.979.1658l2.612-.1658c-.979.1658-1.959.6634-2.612.1658zm-17.959-1.3267h.654c-.327.1659-.654.1659-.654 0zm2.939.9951c-.653 0-.979 0-1.632-.1659.653 0 .979 0 1.632.1659zm3.918-.3317v.3317h-1.306c-.326-.1659-.653-.3317-1.306-.3317.98-.1659 1.959 0 2.612 0zm2.286.995l1.959.1659-.326.1658c-.653-.1658-.98-.1658-1.633-.3317h-.653l.327-.3317.326.3317zM15.0199 45.2736c-.9796-1.6583 1.6326-1.8242 3.9182-1.8242 0 .1659-.3265.4975-.653.8292l-1.6326-.1658c.3265.1658.3265.4975.653.6633l-2.2856.4975zM214.851 70.9784c.326.1659.326.3317.979.3317l-1.632.3317c.653 0 .653-.3317.653-.6634zm26.122 1.1609c.326 0 .653 0 .653.1658l.979.3317c-.979 1.1609-.653.1659-.979-.3317l-.653-.1658zm190.688-9.4527c-1.633.1658-3.592.8292-4.898.1658.327-.3317.98-.4975 1.306-.6633 1.306 0 2.613.1658 3.592.4975zm-36.897 3.8142c1.306 0 2.286 0 3.592.1659.653.1658 1.306.3316 2.286.3316-.653 0-.98.3317-1.633.6634-1.633-.4975-4.571.4975-4.245-1.1609zM28.0807 60.5307c3.5917-.1659 7.51-.8292 11.4282-.6634-3.2652.4975-7.8365.6634-11.4282.6634zm411.0903-2.6534l-.653-.8292c0 .3317 0 .6633-.653.6633.653.1659 1.633 0 1.306.1659zM20.8972 75.7877h-.9795c-2.9387-.4975-2.6122 1.1609-2.2857 1.8242.6531-.6633 3.9183-.6633 3.2652-1.8242zm-5.8773 25.2073c.3265.166.3265.498.9796.498v-.332l-.9796-.166zm1.9591 2.985l-.3265.498.653-.498h-.3265zm4.8978-10.7793l-.9796.1658c-.653-.6634-1.959-.995-2.9386-1.3267.9796-.6633 2.9387-.8292 3.9182-.8292-2.2856-.8292-3.5917.1659-4.8978.6634-.3265-.1659-.653-.3317-.9795-.4976-.3266 0-.6531.1659-.6531.3317.653 0 .9795 0 1.3061.1659-.3266.1658-.6531.1658-1.3061.1658-.3265-1.8242-5.55088-.3317-7.51-1.1609-.32653-.6633 1.30612-.6633 1.30612-1.1608-2.28565-1.1609-4.57135.995-6.20395 1.3267-.32652.995-2.61214 1.6584-2.93866155 2.4875C5.55077 92.7032 10.7751 91.874 16.979 92.5373c0 0 0-.1658.3265-.1658l.3265.1658c-.3265 0-.653.1659-.653.3317 1.3061 0 1.6326.3317 2.2856.8292 1.3061-.1659 2.2857-.3317 2.6122-.4975zm19.2648 8.9553l.653-.166H40.162l.9796.166zm63.9984 7.628v-.165h-1.306l1.306.165zm33.631 6.966l2.286.497c-.653 0-1.632-.663-2.286-.497zm4.572-.332l-1.959.332.326.165c.653-.165 1.633-.165 1.633-.497zm7.51 1.161h1.632c-.653-.166-1.959-.498-1.306-.829-.326.165-.653.663-.326.829zm18.611-6.136c1.307-.332 3.266 0 4.898-.166l-4.571-.166-.327.332zm32.653.331c4.897 0 13.387.664 16.326-.165-1.96-.332-3.592.165-5.225-.332-3.265.995-8.489-.663-11.101.497zm17.305.332c.653-.497 1.633 0 2.286-.166l-1.959-.331-.327.497zm6.204-.166c-.653 0-1.959-.331-2.939 0 .327-.166 2.286.166 2.939 0zm10.775.332c-1.959-.166-3.265-.166-5.551-.166l6.531.498c.979-.166 2.612-.332 3.265.165.653-.165 1.306-.331.98-.663-1.633 0-3.919.498-4.898-.497 0 .165 0 .497-.327.663zm26.122.829c-.326-.166-1.959-.166-2.286 0 .653 0 1.633.332 2.286 0zm17.632.829c-2.612-.331-4.898-.331-5.877-.165 1.632.331 3.918.165 5.877.165zm74.774-34.6597c0 .4975-.98.1658-1.633.1658v-.3316l1.633.1658zm32.325 34.8257v-.166h-1.306l1.306.166zm3.592-4.477v-.166l-1.959-.166v.166l1.959.166zm6.53-10.9457l.327-.1658-1.306-.3317.979.4975zm0 14.2617v-.331l-1.306.331h1.306zm7.184-16.4176l.326-.1658-1.959-.3317 1.633.4975zm-1.959 2.8193l-.98.3316c1.633.3317 1.633-.1658 2.612-.3316-.979-.4976-1.632-.3317-2.612-.1659.653-.1658.653 0 .98.1659zm5.224-1.1609l.327.1658-2.286.4975.326.1659c0 .3316-.653.3317-.653.6633l1.306.1659c-.326-.4976 1.96-1.1609 1.96-1.4926l.979-.3316c-.653-.3317-1.632 0-1.959.1658zm1.633-1.3267h.326-.326zm5.877 1.8242c-1.633-.1658-3.265-.995-4.898-.6633.98.3316 1.633.3316 2.612.4975-.979.1658-.326.8292.327.995v-.995c.326 0 .979 0 1.959.1658zm-.98 1.6587l.98-.166h-2.612l1.632.166zm2.286-3.9804c-.979 0-1.959.6633-3.265.6633l.326.1659c-.653 0-1.306 0-1.959.1658l-1.306-.8292c0 .1658-.326.3317-.326.3317l-.98-.1659v.1659c-.979-.3317-1.632-1.1609-2.612-.6634l.98.1659-.654-.1659v.3317h1.307l.653.1658-1.306.6634c1.306.1658 2.285-.6633 3.918-.1658 3.265 1.1608 6.204.995 9.469 2.1559l-1.959.3316c2.938-.1658.653.8297 2.612 1.3267l.653-.663c.653 0 .98.663 1.633.995.326-.166 1.306-.332 1.306-.664-.653 0-.98-.497-1.306-.663 0 .332 0 .663-.653.663.326-.663-1.307-.8288-1.96-1.1605.98-.4975 2.286.1658 2.939-.3317 1.959 1.3262 7.51.4975 8.163 2.3222-1.632.663-1.959-.498-3.918-.332.653.497 3.918.332 2.612 1.327.653.829 1.633-.332 2.286.497 1.632.995 1.959-1.327 4.244-.497l-1.632-.995 1.306-.166c1.306-.166 2.612-.166 2.286-.829h-.98l.327.331-.653.166c-1.307-1.8242-5.225.995-6.531-.995-.653.166-.979.498-1.633.332-.326-.166-.653-.332-.326-.4978-1.633-.1659-3.918.4978-4.571-.8292-3.919.1658-7.51-1.1609-11.102-1.4926.98-.4975 1.633-1.1608 2.612-1.1608zm1.306-.1659l.98-.3316-.98-.4975c-.653.3316-.979.4975 0 .8291zm1.306-3.6484l1.306.1659v-.1659l-1.306-.1658v.1658zm4.572-.1658l-1.633-.1659.98.6634c.653-.1658.326-.3317.653-.4975zm6.53-1.3267v-.1659l-1.633-.1658c0 .3317.98.1658 1.633.3317zM303.012 108.789l-.327.166.653.166-1.632-.332c.326-.165.979 0 1.306 0zm57.141.995c.653 0 2.939-.663 2.939.166l-2.939-.166zm6.857-3.316c1.959 0 4.571-.664 6.53 0-1.306.663-4.571.497-6.53 0zm-4.245-1.659c1.306-.497 2.939-.166 4.898-.331.326.663 1.959.663 2.939.497 1.306-.166-.653-1.161 1.632-.663-2.285.331.327 1.326-2.285 1.326v-.331c-2.939-.829-4.245-.332-7.184-.498zm3.592-10.7792l-1.633-.1658.98-.3317.653.4975zm11.755.4976c-.98.4975-1.96-.3317-3.266-.4976-.653-.4975 1.633.8292 3.266.4976zm4.244.1658l.653-.4975c0-.1659-.326-.1659-.653-.1659 0-.1658-.326-.1658-.326-.1658h1.632l-.326.1658.653.4976 2.286-.4976-.327-.1658 1.306.1658c-.326 0-.326 0-.653.1659.327.6633 1.633.3317 2.286.3317h0c-.327-.1659-.98-.3317-1.306-.4976l2.612.1659c-.327.3317.979.4975 1.632.4975h-1.959c-.326-.1658-.653-.1658-1.306-.1658-.326.1658-.979.1658-.979.4975-.327 0-.653.1658-1.306.1658l.326.1659-6.857-.1659c.327-.3317-.326-.3317-.653-.6633 1.306.3316 1.633.3316 3.265.1658zm-1.306-1.99c1.306 0 2.612-.0001 3.592.6633-.653-.1658-1.633-.3317-2.612-.4975h.653l-1.633-.1658zm-5.224.995c.326.1658.653 0 .98-.1659.326-.1658-.327-.4975-.654-.4975-1.306 0-1.306-.3316-1.306-.6633 2.613-.4975 2.613 1.4925 4.572.4975-.327-.1658-.653-.1659-1.306-.3317.653.1658 1.632 0 2.612 0 0 0-.327 0-.327.1659-.326 0-.653.1658-.979.1658-.327.1658 0 .3317.326.3317l1.306.1658c-2.285 0-3.265.1658-4.571.3317h-.653zm-4.898-.8292c-.326 0-.326 0 0 0zm0-.4975c.653.1658 1.306.3317 1.959.3317h-1.632l-.327-.3317zm6.857-2.6534l-2.939-.3317v-.1658l2.939.3316v.1659zm1.959 0l1.633.1658v.1658l-1.633-.1658v-.1658zm10.775.995l1.633.1658v.1659l-1.633-.1659v-.1658zm-7.183.3317l-1.633-.4975 2.939.1658-1.306.3317zm13.714.3316c1.959-.1658.979.8292 1.632 1.3268-.653.4975-2.285.4975-2.612.1658.327-.3317-.326-.3317-.653-.6634-.653.3317-1.632.3317-2.285 0l-.327-.1658h1.306v-.3317l-1.632-.1658-.327-.1659c.653-.995 2.612.1659 3.592-.6633 0 .4975.653.6633 1.306.6633zm-5.225 2.3218l-1.632-.1659c-.327-.1658.979-.1658 1.632.1659zm5.878.6633l.326.1659c-.653.1658-2.285-.8292-3.265-.1659l.98.6634-3.592-.3317c1.633-.4975 3.918-.6633 5.551-.3317zm-7.51 6.1365l-1.306-.166h1.632l-.326.166zm1.306-12.4383c2.286-.4975 5.224.995 6.857 0 .653.1658 1.306 0 1.633.3317-.327-.1659-.654 0-.98.1658 1.959.3317 2.612.4975 3.918.995-3.265-.995-7.51-.6633-11.428-1.4925zm-11.755-1.1609c.98.1659 1.959.1659 3.265-.1658 2.286.6633 3.266.1658 5.551.8292h-3.918v-.1659c-1.306.1659-3.265.0001-4.898-.4975zm31.346 2.6534c-1.632.1659-1.959.4975-3.918.1659l-.327-.1659c-.653.3317-1.632.3317-2.285 0-.653-1.4925 2.939.6634 4.571-.3316l1.959.3316zm-50.284-5.9701c.98-.3317 3.265.4975 4.245-.1659-.327.9951-2.612.1659-4.245.1659zm-4.245-1.1609v-.1658l1.633.1658v.1659l-1.633-.1659zm-8.489-.995c2.285-.1658 4.897.3317 7.836.4975-1.959.4975-3.592 0-5.551-.3317v-.1658h-2.285zm20.897 1.6584l-7.183-.4975c2.938.1658 4.244-.3317 7.183.4975zm28.081 1.6584c-.327-.1659-.327-.3317-.327-.4976l1.306.3317c-1.306-.1658.653.3317-.979.1659zm-25.795-2.3218v-.3316c.653.4975 1.959 0 2.938 0-.653.4975-1.632.4975-2.938.3316zm-.653-.3316l-1.633.1658c0-.4975.98-.3317 1.633-.1658zm18.285 1.1608c-.653-.3317.326-.8292-.653-.995l1.632.3317c.653 0 .98-.1659 1.633-.3317 1.633.1658 3.592.3317 4.571.8292-1.306.3317-3.591.4975-5.224.4975.326-.3317 0-.4975 0-.4975-.653 0-.98.3316-1.959.1658zm-4.572-1.3267l.654.1659c-.327.1658-.654.1658-.98.1658 0-.1658 0-.3317.326-.3317zm-4.244.1659l.326-.1659-2.285-.3317c.979.1659 2.285.1659 2.938-.1658l.98.4975c0 .1659.326.1659.326.1659-.653.1658-1.632.1658-2.285 0zm-14.694-2.1559c-.979.3316-2.285.6633-3.591.4975.326-.3317 0-.4975-.327-.4975h3.918zm1.959-.3317c-.653 0-.979 0-.979-.3317l.326-.1658c0 .1658.327.3317.653.4975zm7.51.995c-1.959.995-4.571 0-7.183 0 .653-.1658 0-.4975.326-.8292 2.286.995 4.572.995 6.857.8292zm19.918.8292v.1658l-1.632-.1658v-.1658l1.632.1658zm31.673 1.4925c.326-.6633-.98 0-.98-.4975.653.1659 2.286 0 1.959.4975h-.979zm-15.347-2.985h-.979l.326-.1659c.327 0 .327 0 .653.1659zm-31.346-2.9851v-.1658h.327v.1658h-.327zm-13.061-2.8193c.653.1659.98.1659 1.633.1659-.327 0-.653.1658-.98.3317-.326 0-.653 0-.653-.4976zm-5.224-1.3266c.653 0 1.306.1658 1.959.3316-.326 0-.653 0-.979.3317 0-.3317-.98-.4975-.98-.6633zm-6.204-.1659c-.326 0-.326 0 0 0 .327-.1658.653-.3317.98-.3317.653 0 .979.1659 1.632.1659-.653.3316-1.632.1658-2.612.1658zm9.796 1.3267c-.327-.1658 0-.1658 0 0l-.327-.1658c-.326-.1659-.653-.3317-.653-.4975.653.1658 1.633.4975 2.286.6633-.653.1658-.98 0-1.306 0zm12.408-.6633c-.327 0-.653.1658-.653.3316 1.306.1659.326.3317.326.4975-.326 0-.326 0-.326-.1658l.653.4975c-.653 0-.98 0-1.633.1659-.653 0-.98 0-1.633-.1659-.653-.1658-1.306-.3317-1.959-.4975v-.3317c.653-.1658 1.306-.3316.98-.4975 1.632.4975 1.632 0 3.265.8292.327 0 .327-1.3267.98-.6633zm8.489 2.3217s0 .1658.327.1658h-1.306v-.1658h.979zm4.898.4975c0 .1658-.327.1658-.653.1658-.327 0-.327-.1658-.653-.1658v-.1658l1.306.1658zm21.55 2.3217c-1.306-.1658-2.612-.1658-3.918-.1658 0 0 0 .1658-.326.1658 0-.1658 0-.1658-.653-.3316l1.306-.3317 3.591.6633zm13.388.8292c-.327.4975-2.612-.3317-2.612.3317h-.98l.98-.3317h.326v-.1658l2.286.1658zm-11.102-.4975c-.327 0-.653-.1658-.98-.1658l.98.1658zm-.327.3317c.327 0 .653-.1659.653-.3317 0 0 .001.1658-.326.1658l-.327.1659zm-3.591-.1659h2.285-2.285zm-2.612-.3316c.326 0 .326-.1659 0 0zm14.366 8.9552l-1.959.3317c.653 0 .653-.3317.653-.4976l1.306.1659zM167.179 70.4809c-.98 0-2.286-.1658-3.265 0-.327-.1658-.327-.1658-.653-.3316.979-.1659 1.959-.1659 2.612-.3317h1.632c-.979.1658-.653.3317-.326.6633zm17.305-.1658h-.653.653zm2.286.1658l-.326.1659c-.327-.3317-.653-.3317-1.307-.3317.654 0 1.307 0 1.633.1658zm34.285 1.1609c.326.6633 2.285.3317 4.245.4975 0 .1658 0 .3317-.327.3317l-8.163-.6634 4.245-.1658zm4.245.1658c-.653 0-1.306-.1658-1.633-.1658.98-.1659 1.959-.3317 2.939 0-.98-.1659-1.306 0-1.306.1658zm10.122.8292h-.653v-.1658h-.98v-.3317c.327 0 .653.1658.98.3317l.653.1658zm4.571.3317c-.979 0-1.633-.1658-2.286-.3317.653-.3317.653-.6633 2.286-.3317v.6634zm9.469.3317h-.979c.326-.1659.653 0 .979 0zm13.388.3316c-.98-.1658-2.286-.1658-3.266-.3316.327 0 .327 0 .653-.1659h3.919c-.327.3317-.653.4975-1.306.4975zm10.122.6634c-1.306 0-2.612 0-4.245-.1659 1.633-.3316 2.939-.8291 4.245.1659zm18.611 1.1609c-2.612-.1659-5.224-.3317-7.51-.8292v-.1659l-.653.1659c-.326 0-.326 0-.653-.1659 1.633-.8292 2.286.4975 3.919-.4975l.326.8292 1.959-.3317-.326.4975c.326.4975 1.306 0 1.959-.1658l.979.6634zm14.367.8291c-2.938-.3316-6.204-.3316-9.795-.4975-.653-.3317-1.633-.4975-2.286-.995 4.571-.4975 8.163.6634 12.081 1.4925zm10.776-.1658c-1.306 1.8242-4.245 0-6.531.6634-.653.1658-1.632.1658-2.285 0l-.654-.4976v-.1658c0-.3317.327-.3317.654-.4975.326 0 .653-.1658.653-.1658.653.1658 1.306.4975 1.959.1658 1.632.3317 2.938 1.1609 4.897 1.1609l.327-.4976c.327-.3316.653-.3316.98-.1658zm6.204 1.1609c-.654 0-1.307-.1659-1.96-.3317.98 0 1.633 0 1.96.3317.326 0 .326-.1659 0 0zm14.366.995c-.326-.1658-.653 0-.979 0-.653 0-1.633.3317-1.959.6633-.327 0-.327-.1658-.653-.1658l-.653-.8292v.3317c-.327-.1658-.327-.3317-.653-.3317 1.306 0 3.265-.4975 4.897-.1658-.326.1658 0 .3317 0 .4975zm20.898 1.1608c-.327.1659-.327.3317-.327.3317-.653.3317-.979.8292-1.306 1.1609.98-.3317 1.959-.6634 2.939-.8292.326.1658.653.1658.653.6633-.653.3317-.98-.1658-1.633-.1658-1.306 1.6584-5.224.1659-6.53.3317-.327-.1658-.327-.3317-.327-.4975l-.979.6633c-2.939.1659-1.306-1.6583-1.633-1.4925-.979-.1658-1.959-.3317-2.612-.6634-.653 0-1.633 0-2.612-.1658v-.3317c3.592-.6633 6.204 0 9.469.4975.653.6634-1.959.8292-.98.9951 0-.3317.327-.3317.653-.4976l.327.3317v-.3317c.98 0 1.306.6634 2.286.9951.326-.1659 1.306-.3317.326-.4975l.653-.1659-1.632-.4975 3.265.1658zm21.55 0c-.326 0-.653-.1658-1.306-.1658v-.1658l1.959.1658v.3317l-.653-.1659zm19.918 0h2.939c0-.1658 0-.4975.653-.4975.653.3317 1.959.3317 1.632.8292.98 0 1.959.1659 2.286.3317.327 0 .327-.6634.653-.8292v.3317l1.306.1658c.98.3317 1.959.8292 2.612.1659l.653.6633.327-.1658c.653 0 1.306.1658 1.632.3316 0 .1659-.326.1659-.326.3317h.653c-.653.4975-2.286.1659-3.265.6634 2.612 1.1608 5.877-.4975 8.163.8292h-.327c-.979 0-1.959 0-2.612-.4975l.327.3316-.98.1659c-2.286 0-4.245-.1659-6.53-.3317l-.327-.1658c.653-.3317.98-.4976 1.633-.3317-.653 0-1.306-.1659-2.286-.4975v-.3317l-1.306.4975c-.98-.3317-2.286-.4975-3.592-.6634.327 0 .653-.1658 1.306-.4975l-.326.4975h-.98c-1.632-.1658-3.265-.4975-3.918-1.3267zm-1.959 0c.326 0 .979.1659 1.306.1659l.326.1658-1.959-.1658c.327-.1658.327-.1659.327-.1659zm-7.51-.4975c.326 0 .653-.1658.979-.1658l.327.3317s-.653 0-1.306-.1659zm-.653-.3316h0zm-9.796-1.3267h1.306c.327.1658.98.1658 1.306.4975l-.653.1658c.653 1.3267 2.612 0 3.919.3317l-.327.995c-1.959-1.1609-4.571-.4975-6.53-1.3267h-.327l-.326-.3317c.326.1659.326.1659.653.3317.326 0 .653-.3317.979-.6633zm-13.061-1.1609c.327 0 .327 0 .653.1658.327.1659.653.4975 1.306.6634.327-.1659.654-.4975.98-.4975.327.1658.653.3316 1.306.4975-.326.1658-.326.1658-.653.1658l-1.306-.1658-2.286-.1658v-.6634zm2.613-3.1509c-1.307 0-2.613-.3317-3.919-.4975.327 0 .653.1658 1.306.1658.98.3317 1.959.1659 2.613.3317zm9.795.1658l-1.632-.1658.326-.1658 1.306.3316zm4.245.4975l.326.4975s-.326.0001-.326.1659c-.98-.1658-2.612.3317-2.939-.4975-.326 0-.653 0-.979.1658-.327-.1658-.653-.1658-.98-.3317l1.306-.4975h-.326v-.1658c1.306.3317 2.612.4975 3.918.6633zm12.734 1.4926v.3317c-.326-.3317-1.306-.1659-1.959-.1659-.326 0-.653-.1658-.653-.1658-1.306-.4975-2.612-.4975-3.918-.4975v-.3317c.979.1658 2.285.3317 3.265.3317h.98c.653.3316 1.306.4975 2.285.4975zm28.081 7.9602c.653 0 1.306.1658 1.959.1658-.653 0-1.632 0-1.959-.1658zm-4.898 1.8242c-.326 0-.979-.1658-1.306-.1658.653-.1659.98-.4976 1.306-.8292.653.4975 1.306-.1659 1.959.4975l-1.959.4975zm1.306.1658c-.326 0-.653 0-1.306-.1658.327 0 .653-.1658.653-.1658l.653.3316zm-18.938-.8292c-.326-.1658-.326-.1658-.653-.3316l.327-.1659H402.274v.4975h-.653zm8.816.4976c-1.632 0-1.959.6633-3.592.3316-.326-.1658-.653-.1658-.326-.3316-.98-.1659-2.612 0-3.918-.1659 2.938-.3316 5.877.4975 7.836.1659zm3.918.3316c-.326 0-.979-.1658-1.306-.1658.653-.1658 1.306-.1659 1.306.1658.327 0 .327 0 0 0zm-41.468-1.3267l-.653-.1658h.653v.1658zm.653.9951c-1.632-.1659-4.244.3316-5.551-.6634 1.633-.4975 3.266-.1658 5.225.1658.326 0 .326.1659.326.4976zm17.306 1.3267h-.653c-2.612-1.9901-3.918-.1659-6.857-.8292.653.4975 2.286.8292 3.265.8292-.326.4975-1.959.1658-2.612.3316-.327-.995-5.224-.1658-6.53-1.3267v.3317c-1.633-.1658-3.266-.1658-4.572-.4975l1.306-.1658s-.326 0-.326-.1659v-.4975h.653l-.327-.1658c-.326-.1659-.326-.3317-.653-.4976h.98c-.653-.1658-1.633.0001-1.959-.3316l.979-.3317c.653.1658 1.959 0 2.286.3317-.327 0-.653.1658-.653.3316 2.612.3317 4.898 0 6.857.8292l-2.286.4976.327.1658 2.285-.4975c4.898-.4975 8.49.1658 12.082.8292-1.633.1658-3.266.3316-4.898-.1659-.327.6634 1.632.6634 1.306.9951zm58.774-5.141l-.653-.4975-.327.1658c.653.995 2.939 0 3.918.6634v.3316c-.326.1659-2.612-.4975-2.938.1659-.98 0-1.959-.3317-1.959-.6634-1.633.1659-4.898-.4975-4.572.6634-3.265.995-6.53-.1659-10.122-.4975l-.653.6633c1.306 2.1559 7.51.6634 10.775 1.9901 1.306-.8292 3.919 0 5.878 0v.1658l.653-.3317.653.4975c.979.1659 1.306.6634 1.959.8292.326-.6633-1.633-.995-2.286-1.4925l1.959-.4975-.979-.6634c1.306-.3316 1.632-.4975 2.939-.6633l-.654-.6634c-.979-.3316-3.265-.6633-3.591-.1658zm-75.1 36.3183c.653 1.658 0 3.317-1.959 4.809-1.959 1.493-4.572 2.488-8.163 2.82-3.266.331-6.204 0-9.143-.995-2.939-.995-4.571-2.322-5.224-3.981-.653-1.824 0-3.316 1.959-4.809 1.959-1.492 4.571-2.487 8.163-2.819.979 0 1.633-.166 2.286-.166-1.633-.166-3.266-.332-4.572-.497-3.918 1.16-10.448-.498-15.02-.332-4.898-.166-10.448-1.327-14.693-.663-1.306-.498-3.592-1.161-5.551-.83l-2.286.332c0 .332.98.166 1.633.332-.98.829-5.551 0-6.204-.166.98.332 1.959-.166 2.612-.332l-.979-.497-5.225-.166c-.326.166 0 .332.327.332h.979c-.326.331-1.306 0-1.632 0-.653-.498-1.306-.83-2.612-.83l-1.306.498c.653.995 2.285 0 3.265.663-1.959.498-4.898-.995-7.51-.331.326.331.653.165 1.306.331-.653.166-1.306-.331-2.286 0l-.979.332-2.613-1.327-2.285.664c0-.332.979-.332 1.632-.664-.326-.166-.653-.166-1.306-.331l-.979.331-.653-.663-.98.332c-.326-.166-.653-.166-1.306-.332l-.98.995v.166h-.979v-.166c.326.166.653 0 .979-.166.98-.663-1.632-.663-1.959-.663-2.285.497-5.224.497-7.836.331-.327-.829-2.286-.497-3.592-.497-.326-.166-.653 0-.979.166-.653-.829-2.286.166-3.266-.166-1.306-.166-2.612 0-3.918 0l-1.306-.663c-.98.497-1.633.165-2.612 0-.98-.996-2.286-.166-3.918.165 0-.331-.653-.663-1.96-.663-.653.332-2.285-.332-2.612.498-4.898-.83-8.816-.166-13.387-.664-1.959-.166-7.184-.829-10.449-.663-2.612.497-4.571-.498-7.183.166-3.918-.166-7.837-1.161-11.755-.498-.327-.166-.327-.332-.653-.332l-.327.166.653.498c-.653 0-2.612.331-2.938-.498-3.265-.331-7.184.332-9.796-.497-8.489 0-15.673-.664-23.836-.498l-.98.332c-.326-.498-1.959-.166-2.285 0-7.51-.332-12.081-.995-18.938 0-3.592-1.493-7.837.166-12.082-.663-1.959.331-3.918-.332-6.204.165-.653-.497-1.959-.165-2.938 0-1.633-.995-2.939.664-5.225-.165-.979 1.658-3.918.165-5.877 0-4.245-.664-7.51.497-11.428 0-1.633.497-3.919 0-5.551.331-3.918-.331-9.1427-.166-13.3875.332-6.5304-.332-12.0813-.166-17.6322.166-1.9591.166-7.1834 1.99-9.7956.166h-2.2856l.3265.497c-1.6326-.332-4.5713.498-6.5304 0-3.9183.166-7.51.664-11.1017.995-3.2652.166-7.1836-.663-9.4692.332-3.2652-.332-6.2039.166-9.1426.332-1.3061-1.493-5.5508-.332-7.1835-1.161.3266-.332 1.6327-.664.9796-.995-1.9591-.166.3266.497-1.6326.663l-1.9591-.829c2.2856 0 3.5917-2.654 6.8569-1.161.9796-.663 2.2857.497 3.5918 0-.3265-.166-.6531-.166-1.3061-.332 1.3061-.663 4.2448 1.161 4.5713-.497 3.9182 0 9.4691 0 12.7343-.664-.653-.497.3265-1.16 1.3061-1.326-1.9591-.498-4.5713 0-6.8569.166-4.5713-.332-11.7548.663-13.3874-1.161l1.3061-.8295c-.3266-.1658-2.6122.1658-2.2857-.4975l3.2652.1658v-.8292c2.6122-1.1609 7.51-.8292 9.1426-2.3217-1.9591-1.3267-6.8569.1658-7.8365-1.6584-2.9387-.6633-5.8774-1.4925-7.51-2.8192l1.6326.1658c2.6122-1.4925-3.9182-1.1608-2.6122-2.8192l1.3062.995c.653-.6633 1.306-.995.653-1.6584-2.6122-.3316-.9796-1.6583-1.3061-2.4875.653-.6634 0-1.3267-.6531-1.9901-.9795 0-2.2856 0-3.5917.1659-.9795 1.4925-3.5917 2.1558-6.2039 2.6534-.3265-1.3267-3.5917-2.3218-4.57127-3.6485 1.95913-.8291 4.57127-.995 6.85697-1.4925.9795 1.1609 3.9182 1.3267 6.2039 1.1609-.6531-.6634-.9796-1.3267.3265-1.8243-1.3061-.4975 0-1.3267 0-1.8242 2.6121-.4975 2.2857-2.4875 5.5509-2.6534-2.6122-1.1608-4.8979-2.4875-6.5305-3.6484.3266-.4975 1.3061-.6633 1.9591-1.1608-1.306.995.6531 1.6583 1.9592 2.4875.9795-.1658 1.306.1658 1.9591.4975.3265 0 .9796-.1658 1.3061-.3317-.9796-.3316-1.3061-.8291-2.6122-.8291l.6531-.1659-1.6326-1.1608c2.2856.1658 4.2448.8292 5.8774 1.4925 0-.3317-.3266-.8292-.3266-1.1609-2.6122-.6633-4.8978-1.3267-6.8569-2.3217l-.9796.4975-4.2447-.6633 3.5917-.8292-2.6122-.995c.9796-.4975.9796-1.1609.9796-1.8242-1.3061 0-2.2857 0-2.9387-.4976.3265-.4975 1.9591-.8292.9796-1.4925-1.9592-.1658.3264.6633-1.6327.8292l-1.9591-1.3267c2.6122 0 4.2448-3.6484 7.51-1.4925.9795-.8292 1.6326 0 2.6122.1658h.653s.3265 0 .3265-.1658c-.3265-.3317-.653-.3317-1.306-.3317 1.6326-.8292 4.5712 1.6584 4.8978-.6634h-1.3061c0-1.6583-3.9183-.3316-4.2448-1.99-1.9592.6633-.9796-1.1609-2.9387-.995.653-2.1559-5.2243-3.9801-2.6121-6.136-4.8979-1.1609.9795-2.4876-.3266-4.3118-1.3061-.6634-3.2652-.995-4.2448-2.1559 0-.4975 1.3061-1.4925-.3265-1.6584 1.9592-.8291 5.5509-.3316 8.8161-.4975-.9796-.6633-3.9183-.995-2.9387-2.4875l1.3061 1.4925c.9796-.8292 1.3061-1.3267.9795-2.3217-2.9386-.4975-.9795-2.3218-.9795-3.4826 1.9591-2.4876-4.5713-4.8093-.9796-6.9652-1.306-.6633 0-1.6584 0-2.6534h.3265-1.9591c2.2857-.8292.9796-1.4925 3.5917-2.1559l-.3265-.1658c-.9795.3317-1.9591.4975-2.2856.995V24.544c-.3266 0-.6531.1658-.9796.3316.3265-.1658.6531-.3317 1.3061-.4975.3265-.8292.9795-1.6584 2.9387-1.1609l.9795.1659c0 .3317.0001.6633-.3265.8292h1.6327c.653-.3317 1.306-.4975 2.2856-.4975.3265-.1659.653-.3317.9796-.4976h1.3061c2.2856-1.99.6529-4.3117 1.306-6.7993-.9796-.3317-1.9591-1.4925-3.2652-1.1609-.6531-.6633.3265-1.3267.3265-1.99 1.9592-.4975 4.2448-.1658 6.2039-.3317l11.1018 1.3267c.3265.6634.3265 1.1609 1.9591.995l.6531-.1658c-1.9592-.6633.653-.995.3265-1.8242l.9795-.3317-14.6934-1.8242c-.6531.1658-1.3061.4975-1.9592.3317-1.3061-.6634 1.9592-.995-.3265-1.3267-.653.995-1.3061 1.1608-3.2652 1.1608-.653 0-.653-.4975-.653-.8291 1.3061-.49755 1.306-1.1609 1.6326-2.15593h.3265c0-.82918 1.3061-1.82421 1.9591-2.6534l6.5305-1.16086-1.3062.66335c1.6327 0 4.8979 0 5.5509 1.3267 5.2244.66335 9.1426 0 14.0404 0l1.6326.99502c.9796-.49751 1.3061-.99502 2.6122-.99502.3265 1.3267 4.5713.49752 6.2039.66335l3.2652-.16583-1.306-1.16087 3.5917.16584c0 .33167-.653.82919 0 .99503 1.6326-.49752.9796-.82919 2.9387-1.32671 2.9387.49752 6.2039-.16583 7.8365.16584l-.6531.16584c3.5918 1.3267 7.8365-.82919 11.4283.49751 4.5713-1.82421 9.1426 1.49254 13.7136-.82919 1.959-.33167 2.612 1.3267 4.245.16584 1.959.33168 5.877.66335 5.877-.33167 2.286-.33168 3.592 1.3267 6.204.66335 1.633.16584 3.266 0 4.898-.49752 1.633 1.65838 3.918-.16583 6.204.49752l.98-.33168c-.327-.16584-.327-.33167-.327-.49751 1.633 1.65837 4.571-.33167 7.184.82919l.326-.49752c1.633.99503 4.245-.99502 5.551.33168 4.245.33167 9.469-.82919 12.734.82919 4.572-.33168 7.51.33167 12.082 0 .326.33167-.327.99502-1.307 1.16086-2.285.66335-5.55-.16584-8.163.33167l.654.82919c-.98-.49751-1.307.33167-1.96.49751.327 1.16083 1.633.33168 2.613.33168h.326c-.979.66335-2.612.33165-3.918.82915.653.9951 2.285 1.4926 3.918 1.4926 0 .3316-1.633.3316-1.306.8292l.327.3316-4.898-.3316c2.285.3316-.98.8291.326 1.3267 2.612.4975 4.572-.3317 6.857 0l-.653.1658c1.306.6633 3.592.4975 5.224.8292-.326-.8292 1.633-.8292 2.286-1.3267l-1.306-1.4926c.653.4976 2.612 1.1609 3.265 2.1559 1.306-.1658 1.633.4975 2.286.9951.653-.6634 3.592 0 5.877-.6634.98-.4975 0-.995-.653-1.3267 1.633.8292 3.265-.1658 5.551.6634 1.959-.1659 3.592-1.4926 4.245-2.1559 1.632.8292 1.306.8292.326 1.8242-2.285.1658-2.285.8292-2.938 1.8242.326.4975 1.632.3317 2.612.4975.653-.3317.326-.995.653-1.3267.326 1.1609 2.286.6634 3.918.6634.653-.1659.653-.3317.653-.6634.653.1658 1.959 0 1.959.4975l.653-.1658-.979-1.1609c1.632 0 4.571-.1658 6.53.1659-.326.1658-.653.1658-.653.4975 1.633.3316 1.306.8292 2.612 1.3267l6.857.1658c0 .3317-.326.3317-.653.4975 4.898.995 10.122.1659 15.347.995.326-.8291 1.306-.8291 2.612-.995-.327.4975 0 .8292.326 1.1609l.98-.3317c.327 1.1609 2.286.3317 3.592.3317 1.306.995 3.918-.1659 5.224.8292l1.633-.4975c-1.633-1.6584-6.857.1658-6.857-1.8243-2.612-.8291-6.204.4976-7.184-1.6583-.979-.6634 2.286.6633 2.286-.8292l4.571 1.3267-.653.1658.327.3317 1.959-.4975c-1.306.4975-.653.995-.98 1.4925 6.204.4975 10.775 1.6584 16.979 1.3267 2.939.995 8.816.8292 13.061 1.1609 1.959-1.3267.327-1.4926-.653-2.6534-.979-.1659-1.959-.3317-2.938.1658l.326.3317c-2.286.6633-4.571-.3317-6.857 0l-.979-.1658c-.327-1.8242-3.919-.1659-5.225-1.6584 1.633.6633 5.878-.3317 8.49 1.1608.653-.1658.653-.4975.653-.6633l1.306 1.1609c1.306-.4975 2.612-.8292 3.918-.8292.98-.1659.653-.6634.327-.9951.979 1.6584 3.918.4976 4.571 2.1559l3.592.1659-2.612.4975c6.203 1.4925 16.326 2.6534 23.183 2.6534 3.591-.3317 0-1.6584.979-2.8193.327-.995.653-1.8242.98-2.8192 0-.1658.326-.4975.326-.8292.327 0 .653.1659.653.3317l-.979.3317c0 .3316.653.3316 1.306.3316 0 .6634-1.306 1.4926 0 2.1559l6.53.8292c-.979.4975-2.939-.6633-3.265.3317l.653.3317c-.653-.3317-1.306.1658-1.959.3316.326.9951 2.612.6634 3.918.9951-.326.1658-.653.1658-.653.4975.327.1658.327.3317.653.3317l.653-.1659v.1659c8.163 1.99 18.938 1.1608 25.142 2.4875l.653-.1658c-.326.6633 1.633 1.3267 2.939.8292 2.286-.9951 5.551 1.6583 7.184-.8292l-.327-.3317.98-.3317c-.98-.6633-2.613-1.3267-3.592-1.1608-1.306-1.4926-4.245.1658-6.857-.4975l.653-.1659-1.959-.8292c5.551.3317 10.448 1.4926 15.999 1.9901 0-.1659.327-.1659.327-.1659l.653.3317c-.327 0-.653-.1658-1.306-.1658-.98.4975-1.959 1.4925-3.592 1.4925 1.959.8292 5.224 1.6584 6.857 1.3267 2.286.8292 6.204 1.1609 8.816 1.4926l.327-.4975.653 1.6583c2.938-2.4875 9.142 0 13.061-.1658.653.4975 1.959.6633 2.938.8292.327-.3317-1.632 2.3217 1.633 1.99l1.306-.8292c0 .3317-.327.4975 0 .8292 1.633-.3317 5.551 1.8242 7.183-.4975.653 0 .98.6634 1.633.1658.653-1.4925-3.592-.3316-1.633-1.99l-1.306-.3317h.327c.653-.6633 0-1.6584-1.633-1.8242-3.918.4975-7.51-1.6584-11.428-.8292-.653-.8292-3.265 0-5.224-.6633v-.3317h5.224l-.653.1658c2.286.6634 3.918-.1658 6.204.4976 1.306.1658.979-.6634 2.285-.3317 1.633.8292 5.225 1.4925 7.51 1.3267l8.163.3317c.654 1.1608 4.245.4975 5.878 1.4925 4.245-1.3267 8.163.995 12.081.8292 5.551 1.3267 11.428.995 16.653 2.6534l3.918-.6634c-1.633-.1658-2.286-1.4925-4.245-.995 2.286-1.3267 3.592 1.6584 5.878-.3317l-.327.8292c-.653 0-.979-.1658-1.306.1658.98 1.1609 2.286.3317 4.245 1.3268v.1658c4.245.995 8.816 1.1608 14.04.995-2.285-1.99-5.877.3317-8.816-1.3267.98-.6633 2.939-.1658 3.592-.8292-.327-.4975-.98-.6633-1.959-.8292l-.653.1659-.653-.8292c-.98.995-2.286-.3317-3.592-.3317l.653-.1658c-1.633-1.1609-1.306.995-1.633.8292-.653-.3317-1.632-.4976-2.612-.4976.327-.6633-1.306-.8291-1.959-1.3267-.653.1659-.653.3317-.653.6634-3.592-.1658-6.857-.1658-9.796-1.3267-2.285-.1658-3.918.6633-6.857.995l-1.306-.3317c.653-.8291 2.939-.1658 3.919-.8291-1.633.3316-2.286-1.1609-3.266-1.1609l-1.632.6634c.326-.1659 0-.3317-.327-.4976-.979.9951-2.285-.4975-3.265-.1658l-.653-.6633c-1.959.3316-3.918-.3317-6.204-.9951-.979.8292-2.286-.1658-3.265.3317.653.3317 1.632.6633 1.306 1.1609-1.633.1658-3.918-.9951-5.224-.8292.653 0 1.306 0 1.959-.3317-.98-.3317-.98-.6634-1.959-1.3267-.653.1658-.653.3317-.653.6633-3.266-.995-8.163-.8291-11.755-.4975-.653-.4975.653-.6633-.327-1.1608l-1.306-.1659c.653 0 1.306 0 2.286-.3316-1.959-1.6584-5.551-1.1609-8.163-1.6584-5.225-.1659-12.081-1.1609-17.959-1.8242l2.939-.1659c-.98-1.3267-3.265-.1658-5.225-.8292l-1.306.6634c0-1.3267-2.612.1658-3.265-.8292v-.3317c2.612.8292 6.204.1659 7.837.1659.653.995 3.265.4975 4.898.4975.653-.1659 1.306-.4975 1.959-.3317l-.327.4975c1.306.4975 3.592.6634 5.551.1659-1.633.1658-.98.995-1.959 1.3267.979-.3317 1.959 1.1608 3.265.1658l-.326-.3317c.326-.6633 1.632.8292 1.959-.3317 1.959 0 .979 1.6584 3.265.8292-.327-.3316-.653-.3316-1.306-.3316l1.632-.6634c.327.1658.327.3317.653.3317.327-.1659.654-.1659.654-.4975-3.592-.8292-8.817-1.1609-11.755-1.6584 3.591-1.4925 5.551 1.1609 9.142 0-.979-.4975-3.591-.4975-2.938-1.6584l4.897.4975c0 .3317-.326.3317-.653.4975 3.592.8292 5.878 1.9901 10.123 1.3267-1.307-.8291-3.592-1.3267-4.898-1.3267.653 0 1.959-.8291 2.285.1659l9.143 1.3267c-1.306 0-2.612-.6634-3.592.1658v.3317c2.612-.1658 5.225 1.4925 8.163.6633-.653-.3316-1.306-.6633-2.612-.8291 0-.4975 1.306 0 1.959 0 .98 1.8242 4.898.1658 6.857.995l2.612.3317-.979.3316c1.959.4975 3.265 1.9901 5.551.8292l-.653-.8292c.653-.1658 4.244.9951 6.53 1.3267-.653 1.4926 3.265.6634 3.918 1.4926.98 0 2.286-.6634 2.612 0l.327-.4975c2.939 1.6583 8.816.8291 12.408 1.6583l.326-.4975c.653.3317 1.959.995 2.939.6634l.653-.1659v.1659c2.612 0 5.551 1.1608 7.837 1.1608l-.653.1659c2.285 1.6583 6.203-.8292 9.142.4975l-1.959.4975c1.959 1.4925 4.898 1.4925 7.837 1.1609l1.306.6633c1.959.995 6.53 0 5.224 1.8242l1.306.4975c-3.918-.8292-7.183-.1658-11.428-.1658-.98.6633.653.6633.653.8292-1.633.995-2.612-.3317-3.918-.4975-.653.4975-1.633.4975-2.286 0-.98.1658-.653.8292-.98 1.1608 1.633.1659 3.592 1.4926 4.898.4976 1.306-.1659.98.6633 1.633.995l3.592.1658-2.613.8292c.653.995 2.286-.3317 2.613.8292-1.96 1.1608-5.878-1.1609-9.143-.4975 0 .1658 0 .1658 0 0 0-.1659 0-.8292-.98-.6634 0 1.3267-3.265.3317-4.897.8292-.653.3317-3.266-.8292-3.592.6634l2.939.6633c.979 1.3267 4.571.995 6.856 1.8242-4.244-.4975-9.469-1.1608-13.06-1.99l1.306-.6634c-1.306-.3317-2.612-1.1608-3.919-.4975 0 .4975.98.3317 1.633.4975-.653 0-3.265.3317-4.245 1.1609-.326-.3317-1.306-.4975-1.632-.995-.98.8291-2.286-.1659-3.266.3316.653 1.4926 3.592.8292 5.551 1.1609-.326.1658 0 .3317.327.4975 1.959.3317 2.285-.4975 4.245-.3317l-.98-.8292c2.939.4976 4.245 1.1609 6.857 1.3268 0 .3316-.653.4975-1.306.6633 2.286 1.1609 5.551-.995 7.51.8292-1.633.3317-2.612-1.3267-3.592-.1658l.653.6633.653-.1658c-.653 1.1608 2.612.3316 3.918.4975.654-.4975-1.959 1.8242 1.633 1.4925 0 .3317-.326.3317-.653.4975l2.939.6634c-1.306 0-2.612.995-3.592.1658l.98-.3317c0-.1658 0-.1658-.327-.3316-.653-.3317-1.633-.4976-2.286-.1659l-.653.1659 1.306.6633c-3.265.1658-5.877-1.8242-9.142-1.3267-1.959.3317-1.959-1.4925-3.918-.6633-1.633-.8292-3.919-.9951-6.531-.6634l-1.959.3317.98-.3317-.653-.6633c-9.143-.1659-13.388-3.3168-22.204-2.3218l-2.612.8292-.327-.3316 1.96-1.4926c-2.286-.995-4.572-.4975-7.51-1.1609 0-.3316.326-.3316.653-.4975-.327-.4975-1.633-.3316-2.613-.4975l-.979.3317c.326.4975 1.306.3317 2.286.4975h-2.286l1.306.6634c.326 0 .653-.1659.98 0l-.327.3316.327.1659h-.654l-.653.4975c.327 0 .653.1658.98.1658l-1.633.3317c.327.1658.653.1658 1.306.1658 0 0-.326 0-.326.1659 1.306.3316 2.612.3316 3.918.4975l.327-.4975c.979 1.4925 5.224.6633 6.53 1.4925.327-.1658.653 0 .98.3317.979 0 1.632.1658 1.959-.4975-.98 0-2.612-.4975-3.265-1.1609 3.265.8292 4.897-1.6584 7.51 1.1609l2.938-.4975c1.633-.3317-1.306.3316 0 .8292l.98-.3317c1.306.6633 4.571 1.3267 6.857.995l-.327.4975c5.551.4975 10.776 1.4925 15.347 2.4876h1.959l-.327.3316.98.1659c.653-.1659 1.306-.1659 1.959 0 0-.1659.327-.1659.653-.1659l1.306.1659c-.653.4975-.979.3317-1.306.1658.327.1659.653.3317.98.4975 0 .3317-.327.3317-.98.4975h1.306l.327.1659c.979 0 1.632-.3317 1.306-.8292.326.3317 1.632.8292 1.959.4975l1.633.995s-.327 0-.327.1659h.327c0 .1658-1.96.4975-.98.995h.327l-1.307.6633 5.878 1.3267c-2.286-.1658-4.571-.3316-7.184-.6633 0 0-.326.1658-.653.1658l-.326-.1658c-.653 0-1.633-.1658-2.286-.1658v.1658l-1.306-.1658v-.1659c-1.306-.1658-2.612-.3317-4.245-.4975-.326.1658-.653.3317-.979.6634l-.327-.8292h-.326c-.653.8292-3.592-.8292-3.592.6633.326-.4975-.653-.8292-.98-1.1608l-1.306.6633 2.286.995c-.98-.8292-2.612.3317-2.939-.8292l-1.959.4976c0-2.3218-3.592.6633-4.571-1.3267l-1.633.6633c.327.1658.98.8292 1.633.4975l-.327.4975c-.653 0-.979-.1658-1.306.1659.98.995 2.286.3316 3.918.995 2.939 1.1609 6.204-.3317 8.49 1.8242 2.286 0 3.918-.1658 5.551.8292-3.265.6633-6.857-1.3267-8.49-.6633h.327v.3316h-.653c0 .1659-.327.1659-.327.3317-.326-.1658-.653-.3317-1.306-.4975h-.653c-.653 0-.979 0-1.632.3317 0 .8291 2.612.8291 1.959.995-.98.3317-2.286-.1659-3.592-.1659.326-.3316-.327-.4975-.653-.8291.326.1658.653 0 .979-.1659-.653-.8292-1.959-.995-3.265-1.3267l-1.632.6634c.979.4975 2.612.6633 3.265 1.3267l-.98 1.1608c-1.632-.3316-2.938-.4975-3.591-1.4925-.653.1658-.653.3317-.653.6633-2.613.1659-5.225-.3316-7.837-.3316l.653.6633.653-.1658.327-.1659-3.919.3317c1.306.3317 2.286.8292 3.919.995-1.959 0-4.898-.995-6.857-.4975 1.632 1.1609 5.224.6634 7.183 1.6584l-2.612.3317c2.286.1658 4.898 0 5.224 1.4925.653-.1658.653-.4975.653-.6633l1.633.1658-.327-.3317 1.307.3317-.654.1658c-.979 1.6584 2.939-.3316 2.613 1.1609.653-.1658.653-.4975.653-.6633l1.959.3316s-.327-.1658-.327 0c.98-.1658 1.959-.3316 2.612.3317h-.326l.98.1658h-1.307c-.653.3317-1.306.6634-2.612.3317l.98-.3317h-1.959c0 .4976.326.8292.979 1.4926.653-.1659.653-.4975.653-.6634.327.1659.327.3317.653.4975h.653l-.326.1659c1.306.3317 2.612.4975 3.918.8292l.98-.4975c-.327-.3317-.653-.3317-1.306-.3317l1.306-.6634c0 .4975 1.306.3317 1.959.3317l-.653.1658c.326.3317.653.3317 1.306.3317.653-.3317 0-.995 1.632-.6633 0 .3316-.653.8292 0 .995-.326 0-.979-.1658-.653-.6634-.979.9951-3.265-.1658-3.918.9951 2.286.4975.653 1.99 3.918 1.6583-.326.9951 2.286.3317 2.613.9951.653.8292 3.918-.4975 4.244.8292l-1.959.1658c.653.1658.98.8292 2.286.6633-6.531 2.8193-9.469-2.4875-15.02-.6633.979.1658 1.959.3317 2.939.6633.979 0 1.632 0 2.285.4976-2.285.4975-5.877.1658-8.816.3316l1.633.3317-1.959-.1658v.1658c4.244.3317 3.265 1.3267 7.836 1.1609l.653.6633c1.306-.4975.327-.8292.327-1.3267l5.551.1659c-1.306.4975-2.286 0-3.919-.3317-2.285 1.4925 2.613 1.3267 2.613 2.6534-2.286.1658-3.266-1.9901-5.551-.6634l1.632.6634c0 .3317-1.306-.6634-2.612-.4975l-.326-.3317.979-.4975c0-.4975-1.306-.3317-1.632-.3317-.654 1.3267-1.633-.6633-2.939.3317l.326.3317c-.326.6633-2.612-.4976-2.612.6633h-.979c0-.3317.979-.4975 1.306-.6633-1.633-.6634-4.245-1.1609-6.531-.8292-1.632-1.8242-2.938 1.1608-4.898-.1659 0 .6634-2.285 1.6584-4.244 2.3217l.653.6634c-.327.1658-1.959-.3317-2.286-.995-.326.3317-.979.6633-1.633.8292l1.633-1.3267c-1.633-.1659-3.265 0-4.571.1658-.327.1658-.327.3317-.327.4975v.3317c1.306.4975 3.265-.4975 3.592.8292l-3.918-.3317c.653-.4975-.327-.8292-.653-1.1609l-1.959.3317v.1658c.653.1659-1.633-.3316-1.96.1659l.98.8292h-.653v-.1659c.326 0 .653.1659.653.3317h.98c.979 1.1609 2.938.4975 4.571 1.3267.326-.1658 1.306-.3317 1.306-.6633 0 .4975.98 1.1608 2.286.995l.326-.1658v-.3317.1658l.327.1659c0 .4975.326 1.3266 1.959.995.326.4975 1.632.3316 2.612.4975l.979-.3317c.654.1658 7.51.6634 11.429 1.4926 1.632.6633 4.245.6633 6.53.995-3.265.8292-5.224-.6634-8.816 0-1.959-.3317-3.918-.8292-6.204-.995l-1.306.6633c.327-1.6584-2.939-.4975-4.245-.995v.3317l-5.877-.3317v-.3317c-2.612-.3317-5.224-.8292-8.49-.6633-1.632-.4976-5.224-.9951-7.51-.8292-.326-.1659-.326-.3317-.979-.3317-.653.3317-1.633.8292-2.939.6633-.326-.1658-.326-.1658-.653-.1658l-1.633.4975c2.939 1.3267 6.531.6634 9.796 1.3267-.326.8292-3.592-.1658-2.286.995.98.1659 1.633.1659 2.286-.3316.327.3316.653.3316 1.306.3316l1.959-.4975c-.326-.1658-.653-.3316-.326-.4975.653-.3317 1.632 0 2.285 0-2.612-.1658-.653 1.1609-1.632 1.6584 2.939-.1658 3.592 1.6584 5.551.1658 2.612.8292 3.265-1.6583 5.551-.1658l-4.898.4975 2.285.995c-3.265 0-6.857-.3316-10.448-.6633 2.938.995 8.163.4975 11.428 1.1608v-.3316c.327.1658.653.1658.98.3316l1.306-.1658v.3317l-.98-.1659c.653.1659.98.1659 1.633 0l.326-.1658v.1658c2.286 0 5.225.8292 7.51.8292l-.326.1659c2.285 1.1608 5.551-.6634 8.489.3316l-1.959.3317c1.959.995 4.898 1.1609 7.51.8292v-.3317c1.959.8292 5.877 0 5.224 1.3267l1.307.3317c-3.919-.6633-6.531 0-10.776-.1658-.653.4975.653.4975.653.6633-1.306.6634-2.612-.1658-3.591-.3317-.653.3317-1.633.3317-2.286 0v.1659c3.592.6633 5.551.8292 8.49 1.1608-1.307-.3316-2.286 0-3.266.1659v.1658l1.633.1659h1.959l-.653.1658 1.633.1658c-.653 0-1.633 0-2.286-.1658l-1.306.3317c.653.6633 1.959-.3317 2.286.4975-.98.4975-2.613.1658-4.572-.1659l4.572 2.4876-3.266-.3317c.327-.1658 1.306-.3316 1.306-.6633-1.632-1.3267-4.897-1.6584-7.836-1.4926l1.306-.4975c0-.1658-.327-.3316-.98-.1658 0 .6633-1.306.4975-2.612.4975.98.6633 2.612.6634 3.918 1.1609l-1.632.3316c0 .1659 0 .3317.326.3317.327 0 .653.1659.98.1659.653-.1659 1.633-.4976 2.286-.4976-.327 0-.653 1.4926-3.266.8292l-.326-.3316c-1.306-.1659-2.612-.1659-3.918-.3317-.653.1658-1.306.1658-1.633.3317h.98c0 .3316-.653.3316-.98.4975 2.286.8292 5.224-.6634 7.183.6633-1.632.1658-2.612-.995-3.265-.1658l.653.4975v.1658c-.653.8292 2.612.1658 3.592.3317.653-.3317-1.633 1.3267 1.633 1.1609 0 .1658-.327.1658-.653.3316l2.612.4976c-.98 0-2.286.6633-3.592 0l.98-.3317c0-.1659-.327-.1659-.327-.1659-.653-.3316-1.633-.3316-1.959-.1658l-.653.1658 1.959.3317c-3.265.1659-5.551-1.3267-8.816-.995-1.633.1658-1.959-.995-3.592-.4975-1.306-.4975-2.938-.6634-4.898-.6634 0 .1659-.326.3317-.653.3317-.653.1658-1.306 0-1.306-.1658l-1.306.1658.98-.1658-.653-.4975c-3.265 0-5.878-.3317-8.163-.8292-.98 0-2.286.1658-3.592.3316v.3317l1.633-.1658c1.632-.1659-.98.3317.326.4975l.98-.3317c1.306.4975 4.244.8292 6.53.8292v.3317c6.204.4975 11.755 1.3267 16.653 2.1559.979-.3317 2.612.1658 3.265.4975 0 .3316-.653.3317-.98.4975.653.1658 3.592.3317 2.612-.4975.327.1658 1.633.4975 1.96.3316l1.306.6634c-.653.1658-1.306.1658-1.959.3317v-.1659c-3.919-.8292-6.857-.3316-9.796-1.3267h-2.939v.3317c-.653-.1658-.979.1659-1.306.3317 1.633.3317 1.633 1.6583 3.918 1.3267l2.939.1658c.98 0-1.632.3317-1.959.8292l-.327-.6633c-.326.8292-3.265-.4976-3.265.6633 0-.3317-.653-.4975-.979-.8292l-.98.4975 1.306.4976c-.979-.4976-2.285.3316-2.612-.6634l-1.959.3317c-.327-1.6584-3.265.4975-4.245-.9951l-1.306.4976c.327.1658.98.6633 1.633.3316v.3317c-.327 0-.98-.1658-1.306 0 .979.8292 1.959.3317 3.591.6634 2.612.8291 5.878-.1659 8.163 1.3267 2.286 0 3.592-.1659 5.225.6633-3.592.4975-7.51-1.4925-8.49 0-.653-.3317-2.286-.8292-3.265-.3317 0 .6634 2.612.6634 1.959.6634-.98.3317-2.286 0-3.265-.1658.326-.3317-.327-.3317-.653-.6634.326.1658.653 0 .979-.1658-.653-.4976-1.959-.6634-2.938-.9951l-1.306.4975c.979.3317 2.285.4976 2.938.9951l-.653.8292c-1.306-.1659-2.938-.3317-3.592-.9951-.653 0-.653.3317-.653.4976-1.959.1658-4.571-.1659-6.53-.1659 0 0-.327 0-.327.1659l-.979.4975.326-.1659.327.1659-3.592.3316c.98.3317 2.286.6634 3.592.6634-1.633 0-4.571-.8292-6.204-.3317 1.633.8292 4.898.4975 6.857 1.1609l-3.592.3317c1.633-.1659 1.306 1.3266 2.286.3316 1.306-.1658.653.6634 1.959.6634l1.306-.3317v.3317h-.979c-.327.3316-.327 1.161 1.306 1.161l1.306.166c-2.939 0-5.878.497-8.816.663 2.285.498 4.244.498 6.204.663.979-.165 0-.497 0-.829h-.327v-.166l1.306.166c0 .166-.326.332-.653.332.98.829 1.959-.332 3.592 0 1.306-.663 3.918-.332 5.551-.995h1.306l-1.959.663c1.306.498 3.265.498 4.897.995-3.591.498-5.877-1.658-9.142-.497l-.327.166c-.326.331-2.285 0-1.959.829l.653.497c3.592 1.161 7.51.664 11.102 1.659-2.939-.664-5.551-.332-8.49-.498.327.498 1.633.498 0 .829l3.592.498-12.408-.829c-.326.497-1.306.829-1.632 1.326-.98-.331.653-.663.979-.995v-.166c-3.918-1.16-10.448.166-15.02-1.492-.653 0-.326.497-.653.663.98.995 2.939 0 4.572.829l1.632.332c-.326-.166-.653 0-.979.166 1.306.829 3.591.332 5.55.497l.98-.331c0 .331.98.166 1.633.331-2.613-.331-4.898 1.161-7.837.166-1.632-.166-4.571-.331-6.53 0 3.265 1.327 9.469 2.156 13.714 1.327.326 0 .653-.166.653-.332 0 .332-.653 1.493-2.286 1.825l1.306-.995c-3.918-.332-7.183.995-10.775-.166l-2.286.166c.327 1.492 3.919-.166 4.572 1.326l1.306.166c.979.829 2.612.332 4.244.995.327-.166.98-.166.98-.497 0 .331.98.829 2.286.829v-1.161.166l.326.166c.327.331.653.829 1.959.663.327.332 1.633.332 2.286.332l.979-.332c.654.166 6.857.497 10.776 1.161 1.632.497 4.244.497 6.204.663-2.939.663-4.898-.497-8.163 0-1.96-.166-3.592-.497-5.878-.663l-.979.497c.326-1.161-2.939-.331-3.919-.663v.166l-5.551-.166v-.166c-2.612-.166-4.897-.497-7.836-.497-1.633-.332-4.898-.664-7.183-.664-.327-.331-1.633-.331-2.286-.331l-2.939.829c2.939.995 5.878.497 9.143.995 0 .497-3.265-.166-1.959.829.653.166 1.632.166 2.285-.166.327.332.653.166 1.306.332l1.306-.498c-.326-.166-.653-.166-.326-.331.653-.332 1.306 0 2.286 0-2.286 0-.653.829-1.306 1.16 2.612-.165 3.265 1.161 5.224 0 2.285.498 2.939-1.16 5.224-.165l-4.571.331 2.286.83c-5.225 0-11.102-.498-16.98-.996.653.166 1.307.332 1.633.498 2.612.829 4.245 2.156 4.898 3.98zm106.772-86.8987l-.653-.6634-.653.3317c.653 1.4925 3.265 0 4.245.995l-.326.4975c-.654.1659-2.939-.8292-3.266.1659-.979 0-1.632-.4976-1.632-.9951-1.959.1659-5.551-.6633-5.225.9951-3.591 1.3267-7.183-.1659-10.775-.6634l-.979.995c.979 2.9851 8.163.9951 11.428 2.8193 1.632-1.3267 4.245 0 6.53 0v.3316l1.306-.6633.653.6633c.98.1659 1.306.8292 1.96 1.3268.653-.9951-1.633-1.3268-2.286-2.1559l2.286-.8292-1.633-1.1609c1.306-.3317 1.633-.8292 3.265-.995l-.653-.8292c-.653-.3317-2.939-.995-3.592-.1658z" fill="#fff"/></svg>