<svg width="275" height="88" viewBox="0 0 275 88" xmlns="http://www.w3.org/2000/svg" fill="none"><path d="M22.192 10.06l1.849-.239-.925.478-.925-.239zm4.069-1.672l.925-.478c-.37-.358-1.11-.358-1.11-.955 2.774-.597 6.658-.358 8.692.119-.185.119-.37.119-.37.358.74.716 2.219.119 3.329.239l-1.11.358c.555.955 2.404-.358 2.589.716-.555.478-2.219-.716-2.774.358.555 0 1.479.478 2.219.478-.925.716-1.664-.358-2.404-.119-.925-1.075-2.404.716-2.959-.597-1.849.358-4.254 2.149-6.103.836-.555.478-1.295.119-1.849.119.185-.478 2.034-.716.925-1.433zm20.898-.119c.74-.119 1.479-.239 2.219-.119-.74.119-.925.597-1.664.478l-.555-.358c-.555.119-.555.597-.74.955 1.664.716 3.699-.119 5.178.239-.555.716-.925-.239-1.849.119-1.295.239-2.589.239-4.069.119l.74-.478-.925-.716 1.665-.239zm9.062.597h1.11c-1.479.358-3.514.478-5.178.597.74-.836 2.774-.119 4.069-.597zm164.594 23.881l-.925-.119.555-.239.37.358zm7.027.716c-.555.478-1.294-.358-2.034-.478l2.034.478zm-1.294-.955c.185.119.37 0 .555-.119.184-.239 0-.478-.37-.478-.74 0-.74-.239-.925-.716 1.479-.478 1.479 1.552 2.774.597-.185-.239-.37-.239-.74-.239 1.11.239 2.959-.716 4.069.597-.925-.358-2.404-.716-3.329-.239-.185.119 0 .239.185.358l.74.119c-1.295-.119-2.035.119-2.774.358l-.185-.239zm-171.066-24.239l1.664-.119-1.295.119h-.37zm167.737 23.164l-.925-.119v-.239c.925-.358 1.48.597 2.404.597h-1.294c.185-.119 0-.239-.185-.358v.119zm-176.059-25.552c.925-.358 2.404-.358 3.144-.119-.925.239-1.849-.239-2.404.239l-.74-.119zm8.692.358l.74.119c-.37.597-.37.478-1.48.358.185-.358 1.295.239.74-.478zm-.555-.716l-2.404.239c.37-.358 1.849-.358 2.404-.239zm5.178 1.194c-.925-.358-1.48.119-2.219.478-.185-.239-.37-.358-.74-.478l3.699-.478-.74.478zm-4.623-1.313l2.219-.239c0 .597-.925.358-1.479.358l-.74-.119zm4.993 0l-1.849.239.185-.358 1.664.119zm5.178.955c1.664-.478 2.959-.239 5.363-.239-3.329.597-6.103 0-9.617.358.185-.597.925 0 1.48-.358.74.836 1.849-.716 2.774.239zm-3.144-1.075l1.295-.597-.185-.119-.37-.119h.185v.119c.185.119.555.239.185.597l-1.11.358v-.239zm5.548-.716c.185.716 1.295.239 2.034.239.37.836.925-.358 1.48 0-.74.597-2.219.119-3.329.239l-.185-.478zm-2.589 0l-.37-.478c.185.119.185.239.37.239.74-.955 0 .358.925.119-.185.478-.555.119-.925.119zm7.397-.239c-.185.119-.37.119-.37.358.925.716 2.219 0 2.959-.119l-.185-.239c-.37-.358.925 0 1.295 0-.185.119-.37.119-.37.358.185.119.185.239.37.239.185-.119.74-.239.74-.478l-.185-.239.74.119-.555.239 4.253.597c-2.404.836-5.178-.716-7.582-.119-.185.358-1.11 0-1.48 0l-.555-.597c.185-.478.555-.239.925-.119zm10.171.358l.925.716c-.37.358-.74-.119-.925-.358v-.358zm-1.11 2.269c-.74 0-1.664-.358-2.404-.119 1.11-.239 1.849-.716 2.404.119zm2.959.597l-1.48-.239.185-.358 1.294.597zm142.771 21.015l-1.849-.239v-.119l1.849.239v.119zm1.11 0l.925.119v.119l-.925-.119v-.119zm6.473 1.075l.924.119v.119l-.924-.119v-.119zm-158.121-22.448c0 .239-.185.239-.37.358l-.555-.119.185-.358.74.119zm153.867 22.806l-.925-.478 1.85.239-.925.239zm8.322.239c1.295-.119.555.836.925 1.313-.555.478-1.48.478-1.665.119.185-.239-.184-.358-.369-.597-.37.358-.925.358-1.295 0l-.555-.597c.555-.955 1.665.119 2.219-.597 0 .119.37.358.74.358zm-170.696-21.612l-.925-.119 1.849.119h-.925zm3.884 0c-.555 0-.925.239-1.664.119.37-.239 1.11-.239 1.664-.119zm163.483 23.881l-.924-.119c-.37-.239.554-.119.924.119zm3.514.716l.185.239c-.37.239-1.294-.716-2.034-.119l.555.597-2.22-.358c1.11-.478 2.405-.716 3.514-.358zm-198.806-24.239c.37.119 1.479-.597 1.849-.119-.925 0-1.11.836-1.849.119zm-5.363 1.313h-1.295c.555-.478.555 0 1.295 0zm59.549-1.791l.925-.478.925.836-1.849-.358zm122.983 13.97c.554-.358 2.034.478 2.774-.119-.555.836-1.85 0-2.774.119zm-2.59-1.313v-.239l.925.119v.239l-.925-.119zm-5.178-.955c1.295-.119 2.959.239 4.809.478-1.665.716-2.959-.478-4.809-.478zm12.576 1.672l-4.254-.478c1.85.239 2.774-.358 4.254.478zm17.199 1.672c-.185-.119-.185-.358 0-.597l.555.239c-.74.119.37.597-.555.358zm-15.72-2.269l.185-.358c.37.597 1.295 0 1.85.119-.555.358-1.295.478-2.035.239zm-.369-.478l-1.11.239c.185-.358.74-.239 1.11-.239zm11.281 1.313c-.37-.358.37-.836-.37-1.194l.924-.239c1.11.239 3.144.478 4.069 1.194-.925.239-2.219.358-3.329.478.185-.119 0-.239-.185-.358-.37 0-.739.239-1.109.119zm-5.548-1.194l.369-.119-1.479-.358c.925.239 1.849.119 2.219-.478l-.185.358 2.035.478c-.74.239-1.85.358-2.959.119zm-11.836-2.388l.554-.239-.184-.239c-.185-.119 1.294-.478 1.849.119-.185.119-.37.119-.37.358l1.11.358c-.555.358-1.48.716-2.22.597.555-.716-.554-.716-.739-.955zm-.37-1.194l.924.119c-.369.239-.739.239-1.109.239l.185-.358zm6.657.716c.37.836 1.85-.478 2.22.716.37-.119.924.358 1.479.597h.74c-.185.119-.555.119-.74 0l-1.109.119v.119c-1.295.836-2.959 0-4.439-.119.37-.119 0-.597.555-.836-.185-.478-1.664 0-1.295-.716l2.589.119zm14.795 2.269v.239l-.924-.119v-.119h.924zm6.103 1.313v.119l-.924-.119v-.119l.924.119zm13.131.119c.185-.597-.555 0-.555-.478.37.119 1.294 0 1.11.597l-.555-.119zm-8.692-3.701l.185.239c-.185.478-.925.478-1.48.358l1.295-.597zm-19.419-2.388v-.119l2.035.239v.239l-2.035-.358zm-6.102-.836c0-.478 1.109-.358 1.664-.478l.185.239c-.37.119-.925.597-1.849.239zm10.356.597l-.185.358c-.37-.836-1.295.478-1.849-.239l2.034-.119zm-4.623-.955c.369-.478.739.239 1.294.358-.555-.119-1.109 0-1.294-.358zm-8.138-1.075l-.369-.478c.184-.119 0-.239-.185-.358-1.48.239-3.699-.597-5.549-.836-.184-.239-.369-.597-.924-.478.74-.597 2.404.239 3.514-.119l-.185.358c2.219-.239 3.513 1.433 5.363 1.552-.185.119-.925.716-1.665.358zm7.213-1.313c-.185.119-.37.119-.37.358.925.358-.37.358.37.836l2.774.358c-1.11.478-2.589-.597-3.884 0-.555.119-1.664-.478-2.404-.716-.37-.119 1.48-.239.925-.597.924.597 1.109 0 1.849.836.37-.358.555-1.672.74-1.075zm3.699 2.627l-.555-.478.74.119-.185.358zm4.068-.358c-.74-.239-1.294-.119-1.849.239.185-.239-.185-.358-.185-.478h-.555c-.185.239.185.478.185.716l-.74-.119c-.37-.358 0-.478.555-.597 0 0 .185-.119.37-.119v.119c.74 0 1.664 0 2.219.239zm.37.597c0 .239-.555.239-.925.239l.185-.358.74.119zm13.131 2.269c-.925-.239-1.85-.239-2.59-.239l-.184.239c0-.119 0-.239-.37-.239l.924-.239 2.22.478zm7.952.955c-.185.478-1.48-.358-1.665.358l-.554-.119.554-.239-.185-.239 1.85.239zm-7.028-.239c.185-.119.37-.119.37-.358-.185-.119-.37-.119-.74-.239l1.48.358-1.11.239zm-2.589-.119c-.185 0-.185 0-.37.119 0 0 0-.119-.185-.119h-.554c-.185-.119 0-.358.184-.478 0 .239.37.358.555.478h.37c.555-.119 1.11-.119 1.849 0h-1.849zm-41.241-6.448c-.37 0-.739 0-.185-.119l.185.119c.37 0 .925.119.925.358-.37.119-.74 0-.925-.358zm48.269 15.045l-1.11.358c.37-.119.37-.239.37-.478l.74.119zm-4.439 34.746v-.239l-1.109-.119v.239l1.109.119zm-239.862-49.314c-.185.836 1.479.955 1.849.955-.925-.239-.925-1.194-1.849-.955zm-6.103 27.582c.185.119.185.478.555.478l.185-.358-.74-.119zm.925 2.985l-.185.597.37-.478-.185-.119zm29.035-34.03l.925.119.37-.119h-1.295zm32.179-7.284l.925.119v-.119h-.925zm24.597 2.985h.74c0-.597 1.294 0 1.11-.239-.74-.597-.74.478-1.849.239zm5.363-2.507c-.555-.239-2.219.119-1.295 0 .185.478.925.119 1.295 0zm-.185 2.388c-.555.119-1.11.119-1.294-.119 0 .358.555.239.925.358 0-.119.185-.239.37-.239zm.37-.119c.74 0 1.294.358 2.219-.119-.37-.239-1.294 0-2.219.119zm2.774 0l.37.597.37-.119-.74-.478zm.74 1.791l.74.119c.185-.239-.555-.478-.185-.836l-.555.716zm-2.959-2.985c.74 0 2.589-.119 2.034.836 2.22.239-.739-1.075.37-1.433.37 1.194 2.219 0 2.219 1.433.74-.358 1.11-1.075 2.22-1.194-2.589-.119-3.699-.597-5.733-.955l.185.836c-.37.716-1.48-.239-1.665.478h.37zm7.582-.119c.555 0 1.48.597 2.035.119 0 .358.555.239.924.358l-.184 1.672 1.109-.597-.555-.119c.185-.239.37-1.075 1.11-1.313.37.358 1.11.119 1.479.597 0 .239-.184.239-.369.358.739.836 2.404-.239 2.589.716l.554-.239c.555 0 .74.239.925.478 2.959-.478 2.959 2.866 5.733 1.552l-.74.119c-1.109-1.194-3.883-1.194-4.253-2.627-.37-.119-.925 0-.925-.358l2.035-.119c-.37-.119-.925 0-.925-.358l1.294-.239-4.253-.478c-.555-.119-1.295-.955-1.849-.119-.925-.119-1.665-.597-2.22-1.075-.555 1.313-2.404.597-3.698.836l.184.836zm22.563 7.642c.185-.358.185-.597-.185-.836l-.185.597c0 .119.185.239.37.239zm.739-4.776l.74.119.555-.119h-1.295zm-7.952-2.627c-.925.239-3.144-.597-3.144.478l.37-.119-.185-.239c.185-.358.74 0 1.11 0 1.109.836 3.514.836 5.178.358.555 1.91 2.219 1.433 4.069 2.03l.185-.358c-.185-.119-.185-.239-.37-.239-.555.358-2.035-.358-2.959-.597.185-.716 1.479.119 1.664-.358-.185 0-.37-.119-.37-.239l.555-.239c1.664-.239 2.959.597 4.069.239l-3.699-.716.185-.478-1.11.836c-1.479-1.075-1.849-.239-3.514-1.075l.37.597c-.554.716-1.664 0-2.404.119zm9.987 5.134l.924-.478-.924-.119c.185.239.185.358 0 .597zm8.877-4.537l1.109.119v-.239l-1.109.119zm-5.179.239c-.554.716-2.034 1.313-2.589 1.313l.185.239c-.555.478-1.109 0-1.664.358 1.109.119 2.034.358 3.144.239.555-.716 2.034-.597 2.959-.478h-.185c-.185-.358-1.48-.239-1.11-.955 1.11 0 2.219-.239 3.329.119 1.11.836 1.849.119 3.144.239-1.48-.478-3.329-.716-4.623-1.433 0-.239.369-.358.739-.478.185 0 .37.119.37.239l.37-1.075c-.37.716-1.479.358-2.219.597-.555 1.194-2.589.358-3.884.597.925.239 1.665-.239 2.034.478zm7.213 1.313v.239l.74.119c.185.239.37.478.739.119l-.739-.119c-.185-.239-.37-.478-.74-.358zm4.069-.716c.185 0 .185 0 .369.119 0 0-.184-.119-.369-.119-.555-.119-1.11 0-1.295-.597.185-.716 1.48.119 1.664-.358-.554-.119-1.294 0-1.664-.478l-.185.358c-.37.119-.74.478-1.11.358 2.035-.119-.369 1.791.74 2.507.555.119 1.48 0 1.665-.478l-.185-.239h1.294c-.924 0-1.479-.119-2.219-.478 0-.597.925-.597 1.295-.597zm2.774 1.91c.185.597-.37 1.433-1.48 1.433l.37.119c1.295-1.313 1.849.836 3.329.119-.555-.239-1.85 0-2.219-.716.185-.478 1.109-.597 1.109-1.194-.37-.119-.555.119-.924.239-.925-.119-.185-.597-.555-.836.185-2.03 3.144 1.075 3.698-.597l-2.404-.597c.185-.119.37-.239.555-.119l-1.479-1.91c0 .358.739.955-.37 1.075l-.37-.478c-.185 1.313-1.11 2.746.74 3.463zm5.363-2.269l.924.119c0-.239-.739-.597-.924-.119zm3.883 2.507h-1.479c.37.478 1.294 0 1.479 0zm1.665-.716c-1.295-1.433-5.178 0-5.918-1.075 0 .239-.185.239-.37.358.555.597 2.589.239 3.884.358.554 1.194 1.109 0 2.404.358zm1.849.836l-.37.358.74-.119-.37-.239zm-.37 5.015l-.37-.478c-.184.119-.739.239-.739.478.555 0 1.109.358 1.109 0zm2.589-4.179c-.185 0-.369-.119-.369-.239l1.294-.716-.555.119c-.924-.836-2.219-.836-3.144-.955.37.119 1.11 0 1.11.358l-.37.119.555.358.185-.478c.37 0 .555 0 .74.239-.185.119-.37.119-.37.358.185.478.37.836-.37.955.74-.119.555.478 1.109.597l.185-.716zm3.884-.597c.555 0 1.295.119 1.48-.478-1.11-.597-1.295 0-1.48.478h-.37c.185.119.185.119.185.239-.185.358-.37.597-.925.478l.925.716c.37-.119 1.295-.358.925-.239-.555-.239-.37-.478-.74-.836v-.358zm1.665.119c.184-.239.554-.119.739-.119l-.185-.239-.554.358zm1.849.836l-1.11.358.555.119.555-.478zm4.623 5.254l-1.664-.478.37.478c.37.119.924.358 1.294 0zm1.85-.836v.119l1.109.239v-.239l-1.109-.119zm3.328-3.94l-6.287-.358c-.555.836-1.295-.478-1.85.119-.555.597-.739-.597-1.109.239.924-.239 1.109.836 1.849.119l.185.239.555-.239c1.664-.119 2.404.955 3.329.119.739.955.554.358 1.664.478-.185 0-.37-.119-.37-.239.74-.597 1.85.119 2.034-.478zm-2.034-1.313c.925.716 1.665-.119 2.404.119l-.185-.358c-1.294.119-2.589-1.075-4.068-.358-.185-.358-1.48-.239-1.11-.955l-.555-.119c-.369 1.433 2.59.716 3.514 1.672zm2.589 2.03l.74.119v-.239l-.74.119zm-1.664 3.582c.37.478 1.479 0 1.664.836.37-.716-.924-1.075-1.664-.836zm5.733-4.06l-1.665-.478.185.239 1.48.239zm-3.144-1.91c.555 1.433 3.514 1.075 4.808 1.313-.185-.716-1.479.358-1.109-.597-1.11.716-2.589-.358-3.144-.239 0-.239 0-.478-.555-.478zm3.699 2.866v.119l1.479.239v-.239l-1.479-.119zm2.034 4.896c-.74-.119-.185-.597-1.11-.597-.369.119-.369.239-.369.478.369-.119 1.109.716 1.479.119zm0-6.806l.74.119c.37.119 1.109.119.924.478 1.295.239 2.774.239 3.514 1.075.185-.716 1.48-.239 1.665-.478l-3.329-.836.185.239-.37.119c-1.11-.119-2.034-.597-2.404-1.313.37.597-.74.358-.925.597zm7.213 4.06l-.925-.358.185.239.74.119zm.739-1.433c-.739.955-1.479-.716-2.404.239.555-.119 2.219.836 2.404-.239zm.37-1.313l.555-.119h-1.295l.74.119zm1.665 6.687h-1.48l.925.119.555-.119zm1.109-6.806l3.514.358v-.119c-.925-.119-3.329-.836-3.514-.239zm4.254.478l1.109.358 1.11-.239-2.219-.119zm1.664 6.209l-.925-.119c0 .358.555.239.925.358v-.239zm2.959-5.97h-1.294c.369.119 1.109 0 1.294.358v-.358zm1.665 4.776l.184.239.37-.239h-.554zm3.883.358c-.74-.239-1.479-.119-1.849.239.555-.119 1.479-.119 1.849-.239zm.925-.597c-1.849-.836-4.993-.478-7.028-.955l-.185.358.555.119c2.774-.239 3.699.478 6.658.478zm-1.48 3.104c.37 0 .37.358.555.478l.185-.358-.74-.119zm2.22.716v-.119l-.74-.119c0 .239.37.239.74.239zm-.37 1.672c.185-.119.924-.239.185-.597l.554-.239-.924-.478c-.185.716-1.295-.119-1.48.358 1.11-.239 1.11.597 1.665.955zm2.219-7.642l.185.239.74-.119-.925-.119zm2.404 3.821l1.85.119c-.37-.478-1.48-.239-1.85-.119zm6.473 3.821v-.239l-.74-.119v.119l.74.239zm12.761-5.612l-.925-.478.37.358.555.119zm-4.439 19.224c.185.119.185 0 0 0l-.74-.478 1.665.239c-.185.358.555.478.924.478-1.109-.119-2.219.358-3.328.478l.184.239-4.068-.239c.185-.239-.185-.358-.37-.597.555.478.925.597 2.034.478l.37-.478c-.37-.358-1.109-.239-1.664-.478l2.219-.119-.37.119.37.478 1.479-.597-.184-.239.924.119c-.185 0-.185 0-.37.119-.185.836.555.478.925.478zm.185 15.522v-.119l-1.295-.119v.119l1.295.119zm3.699 3.343l.185-.358-.925.239.74.119zm5.733-16.478l.185-.239-1.295-.358 1.11.597zm2.219.119l-.925-.358-.185.358h1.11zm-.555 1.552l.185.239-1.479.597.185.239c0 .358-.37.358-.555.716l.739.119c-.184-.478 1.295-1.075 1.295-1.552l.555-.239c0-.597-.555-.239-.925-.119zm1.85-1.194v-.119l-.74-.119v.239h.74zm2.774 1.672c-.925-.239-2.035-.955-2.959-.597 1.109.597 2.034.478 2.959.597zm-.74 1.672l.555-.119h-1.48l.925.119zm1.849-3.94c-.555-.119-1.294.597-2.034.597.74.955 1.109-.716 2.034-.597zm.74-.239l.74-.358-.555-.478c-.555.358-.74.597-.185.836zm-101.9-26.269l-.555-.119c0 .119 0 .239.185.358.185 0 .37 0 .37-.239zm-47.529-.955l-.369-.358c0 .119.185.239.369.358zm155.902 21.731l.739.239c.185 0 .555 0 .74.119v-.119l-.74-.119v-.119c.185-.239.555-.119.925-.119-.37-.716-1.294.358-1.664.119zm-14.61 45.134l.924.478c.185 0 .37 0 .555-.119v-.239l-.555.358c-.185-.239-.369-.597-.924-.478zm9.801-31.761v-.239l-1.664-.119v.239l1.664.119zm-7.212 17.314l1.294.358v-.358c-.185-.239-1.109-.478-1.294 0zm-.185.597l-.185.358c1.11-.239 2.219.119 3.144-.478-1.295 0-1.849.478-2.959.119zm-3.884 13.97v-.239c-.185-.119-.37-.478-.74-.478l-.184.597.924.119zm7.028-27.343l-.74-.239.74.478v-.239zm-2.219 9.194l-.74-.119-.37.119h1.11zm-1.11 6.687v.358-.358c0-.119.185-.119.37-.239.185-.597-1.665-1.075-.37-1.552-.555 0-1.11-.358-1.48-.597l1.295-.478-.74-.597-.185.597h-1.849l1.11.358-.555.358h.555c.554.239 2.034.478 1.294 1.313.555-.119.74.478.555.836zm-9.432-1.552v.239l2.219.239v-.239l-2.219-.239zm-5.548 10.866v-.239l-1.664-.119v.239l1.664.119zm3.329-25.075l-.185-.239c-.185.239 0 .239.185.239.37 0 .925 0 1.11.119 0 .239.185.358.369.478 0-.239-.184-.358-.369-.478 0-.239.185-.478.554-.478-.185-.716-1.664.478-1.479-.597l-1.849-.239 2.034.716c0 .239 0 .478-.37.478zm-9.432 20.179l1.11-.239h.185c.185.119.555.358.37.597 1.109-.358 1.479.119 2.589-.12l-2.774-.478v-.119h-1.48v.358zm-3.514 3.343v-.239l-.739-.119v.239l.739.119zm8.692-45.134v.239c-.369-.119-.554-.239-.739-.358.185 0 .37.119.739.119zm-6.102 24c-.37-.478-1.11-.239-1.48-.119-.185-.119-.185-.119-.37-.119 0-.119-.185-.119-.185-.358l-.555.358c.37.119.555 0 .74 0 .185.119.185.119.37.119 0 0 .185.119.185.239.37 0 1.11.239 1.295-.119zm-7.768-1.194v-.119c.555-.119 1.295-.358 1.295.358l-1.295-.239zm28.111-20.537c.184 0 .184 0 .369.119l-.369.119v-.239zm-2.035-.239c.185.12.37.12.37.239 0-.119-.185-.239-.37-.239zm10.172 1.314l.924.836c-.369.119-1.294.478-2.034.119v-.358c-.37 0-.555-.119-.925-.239-.369 0-.739.119-.924-.119.37 0 .739 0 .924.119.37 0 .925-.119.925.239.37.239.74.119 1.11-.597zm2.219.716l-1.295-.119c.37-.836.555.358 1.11-.239-.185.119 0 .239.185.358zm-29.405-7.045l-1.11.478c-.739 0-1.294-.119-1.849-.597.925-.358 1.849-.119 2.959.119zm6.288 2.746l.555.597c-.555 0-1.295 0-1.85-.239v-.239c.37 0 .555-.119.925-.239.185.119.185.119.37.119zm2.034.836h-.37v-.239c-.185 0-.185-.119-.37-.239.555.119.925.119 1.665.478h-.925zm4.994.597c0 .119.184.239.184.239-.739-.119-1.664-.239-2.404-.597.74-.119 1.48.239 2.22.358zm2.774.119l-.555-.119c-.37.478.739.478.739.716-.369-.119-.924-.119-1.479-.239-.185-.119-.185-.239-.185-.358.185 0 .555-.119.74-.358.185.119.74.119.74.358zm5.548 1.552c-.37 0-.74-.119-1.295-.358h-.185l.185-.119c.555.119.925.119 1.295-.119l.554.119v.119h.555l-1.109.358zm3.698-.119h-.185l.185.239-.924.478-.37-.478-.185.358c-.185.239-.555.119-.925.119-.185-.119-.37-.239-.37-.478.185-.119.37-.239.555-.119l.185-.358 1.849.119s0 .119.185.119zm-240.047 33.91l-.74-.478c0 .239 0 .478-.37.478-.185-.119-.74-.597-1.11-.239l-.185.358 1.11-.119h1.295zm-4.623-16.597c0 .358.555.716.74 1.075l.37-.119c0-.478 0-1.194-1.11-.955zm230.985-8.119l-.185.478.185.119c-.185-.119-.37-.119-.555 0v-.119c0-.239 0-.478.185-.597l.37.119zm-.74-.119h.74l-.37.119-.37-.119zm9.062 2.388l-.185.597-.739-.119h.184c-.184-.119-.369-.239-.739-.239v-.119c.185-.119 0-.239-.185-.358h-.555c1.11-.836 1.11.955 2.219.239zm2.959 2.03v.239l-1.109-.119v-.239l1.109.119zm-7.397-2.388l-.925-.119c.37 0 .74.119.925.119zm-10.727 3.94c0 .358-1.479-.239-2.034-.358l2.034.358zm2.959.597l-1.849-.358c.37 0 .74-.119.925 0-.37-.119-.925 0-.925-.239 0 0 .185 0 .185-.119.185.239.925.239 1.664.358-.185.119-.185.239 0 .358zm1.295.239l-1.295-.239.185-.358c.37.119.925.239 1.11.597zm-2.959.597l-1.849-.358v-.239l1.849.597zm.555.119l1.479-.119c-.555.119-1.109.478-1.479.119zm-10.172-.955h.37c-.185.119-.37.119-.37 0zm1.665.716c-.37 0-.555 0-.925-.119.37 0 .555 0 .925.119zm2.219-.239v.239h-.74c-.185-.119-.37-.239-.74-.239.555-.119 1.11 0 1.48 0zm1.295.716l1.109.119-.185.119-.924-.239h-.37l.185-.239.185.239zm-218.595-14.925c-.555-1.194.925-1.313 2.219-1.313 0 .119-.185.358-.37.597l-.925-.119.37.478-1.295.358zm113.181 18.508c.185.119.185.239.555.239l-.925.239c.37 0 .37-.239.37-.478zm14.795.836c.185 0 .37 0 .37.119l.555.239c-.555.836-.37.119-.555-.239l-.37-.119zm108.003-6.806c-.925.119-2.035.597-2.775.119.185-.239.555-.358.74-.478.74 0 1.48.119 2.035.358zm-20.898 2.746c.739 0 1.294 0 2.034.119.37.119.74.239 1.295.239-.37 0-.555.239-.925.478-.925-.358-2.589.358-2.404-.836zm-207.684-4.299c2.034-.119 4.254-.597 6.473-.478-1.849.358-4.438.478-6.473.478zm232.835-1.91l-.37-.597c0 .239 0 .478-.37.478l.74.119zm-236.903 12.896h-.555c-1.664-.358-1.479.836-1.295 1.313.37-.478 2.219-.478 1.849-1.313zm-3.329 18.149c.185.119.185.358.555.358v-.239l-.555-.119zm1.11 2.149l-.185.358.37-.358h-.185zm2.774-7.761l-.555.119c-.37-.478-1.11-.716-1.664-.955.555-.478 1.664-.597 2.219-.597-1.295-.597-2.034.119-2.774.478l-.555-.358c-.185 0-.37.119-.37.239.37 0 .555 0 .74.12-.185.119-.37.119-.74.119-.185-1.313-3.144-.239-4.254-.836-.185-.478.74-.478.74-.836-1.295-.836-2.589.716-3.514.955-.185.716-1.479 1.194-1.664 1.791 3.144-.597 6.103-1.194 9.617-.716 0 0 0-.119.185-.119l.185.119c-.185 0-.37.119-.37.239.74 0 .925.239 1.295.597.74-.119 1.295-.239 1.48-.358zm10.911 6.448l.37-.119h-.925l.555.119zm36.248 5.493v-.119h-.74l.74.119zm19.048 5.015l1.294.358c-.37 0-.925-.478-1.294-.358zm2.589-.239l-1.11.239.185.119c.37-.119.925-.119.925-.358zm4.254.836h.925c-.37-.119-1.11-.358-.74-.597-.185.119-.37.478-.185.597zm10.541-4.418c.74-.239 1.849 0 2.774-.119l-2.589-.119-.185.239zm18.493.239c2.774 0 7.583.478 9.247-.119-1.109-.239-2.034.119-2.959-.239-1.849.716-4.808-.478-6.288.358zm9.802.239c.37-.358.925 0 1.295-.119l-1.11-.239-.185.358zm3.514-.119c-.37 0-1.11-.239-1.665 0 .185-.119 1.295.119 1.665 0zm6.103.239c-1.11-.119-1.85-.119-3.144-.119l3.699.358c.554-.119 1.479-.239 1.849.119.37-.119.74-.239.555-.478-.925 0-2.22.358-2.774-.358 0 .119 0 .358-.185.478zm14.795.597c-.185-.119-1.11-.119-1.295 0 .37 0 .925.239 1.295 0zm9.986.597c-1.479-.239-2.774-.239-3.329-.12.925.239 2.22.12 3.329.12zm42.351-24.955c0 .358-.555.119-.925.119v-.239l.925.119zm18.308 25.075v-.119h-.74l.74.119zm2.035-3.224v-.119l-1.11-.119v.119l1.11.119zm3.698-7.881l.185-.119-.74-.239.555.358zm0 10.269v-.239l-.74.239h.74zm4.069-11.821l.185-.119-1.11-.239.925.358zm-1.11 2.03l-.555.239c.925.239.925-.119 1.48-.239-.555-.358-.925-.239-1.48-.119.37-.119.37 0 .555.119zm2.959-.836l.185.119-1.294.358.185.119-.37.478.739.119c-.185-.358 1.11-.836 1.11-1.075l.555-.239c-.37-.239-.925 0-1.11.119zm.925-.955h.185-.185zm3.329 1.313c-.925-.119-1.85-.716-2.774-.478.554.239.924.239 1.479.358-.555.119-.185.597.185.716v-.716c.185 0 .555 0 1.11.119zm-.555 1.194l.555-.119h-1.48l.925.119zm1.294-2.866c-.554 0-1.109.478-1.849.478l.185.119c-.37 0-.74 0-1.11.12l-.739-.597c0 .119-.185.239-.185.239l-.555-.119v.119c-.555-.239-.925-.836-1.48-.478l.555.119-.37-.119v.239h.74l.37.119-.74.478c.74.119 1.295-.478 2.219-.12l5.364 1.552-1.11.239c1.664-.119.37.597 1.48.955l.369-.478c.37 0 .555.478.925.716.185-.119.74-.239.74-.478-.37 0-.555-.358-.74-.478 0 .239 0 .478-.37.478.185-.478-.74-.597-1.109-.836.554-.358 1.294.119 1.664-.239 1.11.955 4.254.358 4.623 1.672-.924.478-1.109-.358-2.219-.239.37.358 2.219.239 1.48.955l1.294.358c.925.716 1.11-.955 2.404-.358l-.924-.716.739-.119c.74-.119 1.48-.119 1.295-.597h-.555l.185.239-.37.119c-.739-1.313-2.959.716-3.698-.716-.37.119-.555.358-.925.239-.185-.119-.37-.239-.185-.358-.925-.119-2.219.358-2.589-.597-2.219.119-4.254-.836-6.288-1.075.555-.358.925-.836 1.479-.836zm.74-.119l.555-.239-.555-.358c-.37.239-.555.358 0 .597zm.74-2.627l.74.119v-.119l-.74-.119v.119zm2.589-.119l-.925-.119.555.478c.37-.119.185-.239.37-.358zm3.699-.955v-.119l-.925-.119c0 .239.555.119.925.239zm-72.125 12.776l-.185.119.37.119-.925-.239c.185-.119.555 0 .74 0zm32.364.716c.369 0 1.664-.478 1.664.119l-1.664-.119zm3.883-2.388c1.11 0 2.589-.478 3.699 0-.74.478-2.589.358-3.699 0zm-2.404-1.194c.74-.358 1.664-.119 2.774-.239.185.478 1.11.478 1.664.358.74-.119-.369-.836.925-.478-1.294.239.185.955-1.294.955v-.239c-1.665-.597-2.405-.239-4.069-.358zm2.034-7.761l-.924-.119.554-.239.37.358zm6.658.358c-.555.358-1.11-.239-1.849-.358-.37-.358.924.597 1.849.358zm2.404.119l.37-.358c0-.119-.185-.119-.37-.119 0-.119-.185-.119-.185-.119h.925l-.185.119.37.358 1.294-.358-.185-.119.74.119c-.185 0-.185 0-.37.119.185.478.925.239 1.295.239h.185-.185l-.74-.358 1.48.119c-.185.239.554.358.924.358h-1.109c-.185-.119-.37-.119-.74-.119-.185.119-.555.119-.555.358-.185 0-.37.119-.74.119l.185.119-3.883-.119c.185-.239-.185-.239-.37-.478.74.239.924.239 1.849.119zm-.74-1.433c.74 0 1.48 0 2.035.478-.37-.119-.925-.239-1.48-.358h.37l-.925-.119zm-2.959.716c.185.119.37 0 .555-.119.185-.119-.185-.358-.37-.358-.739 0-.739-.239-.739-.478 1.479-.358 1.479 1.075 2.589.358-.185-.119-.37-.119-.74-.239.37.119.925 0 1.479 0 0 0-.184 0-.184.119l-.555.119c-.185.119 0 .239.185.239l.739.119c-1.294 0-1.849.119-2.589.239h-.37zm-2.774-.597zm0-.358c.37.119.74.239 1.11.239h-.925l-.185-.239zm3.884-1.91l-1.664-.239v-.119l1.664.239v.119zm1.11 0l.924.119v.119l-.924-.119v-.119zm6.103.716l.924.119v.119l-.924-.119v-.119zm-4.069.239l-.925-.358 1.665.119-.74.239zm7.767.239c1.11-.119.555.597.925.955-.37.358-1.295.358-1.48.119.185-.239-.184-.239-.369-.478-.37.239-.925.239-1.295 0l-.185-.119h.74v-.239l-.925-.119-.185-.119c.37-.716 1.48.119 2.035-.478 0 .358.369.478.739.478zm-2.959 1.672l-.924-.119c-.185-.119.554-.119.924.119zm3.329.478l.185.119c-.37.119-1.294-.597-1.849-.119l.555.478-2.035-.239c.925-.358 2.219-.478 3.144-.239zm-4.253 4.418l-.74-.119h.925l-.185.119zm.739-8.955c1.295-.358 2.959.716 3.884 0 .37.119.74 0 .925.239-.185-.119-.37 0-.555.119 1.11.239 1.479.358 2.219.716-1.849-.716-4.253-.478-6.473-1.075zm-6.657-.836c.554.119 1.109.119 1.849-.119l3.144.597h-2.219v-.119c-.74.119-1.85 0-2.774-.358zm17.754 1.91c-.925.119-1.11.358-2.22.119l-.185-.119c-.369.239-.924.239-1.294 0-.37-1.075 1.664.478 2.589-.239l1.11.239zm-28.481-4.299c.555-.239 1.85.358 2.405-.119-.185.716-1.48.119-2.405.119zm-2.404-.836v-.119l.925.119v.119l-.925-.119zm-4.808-.716c1.294-.119 2.774.239 4.438.358-1.109.358-2.034 0-3.144-.239v-.119h-1.294zm11.836 1.194l-4.069-.358c1.665.119 2.404-.239 4.069.358zm15.904 1.194c-.185-.119-.185-.239-.185-.358l.74.239c-.74-.119.37.239-.555.119zm-14.61-1.672v-.239c.37.358 1.11 0 1.665 0-.37.358-.925.358-1.665.239zm-.37-.239l-.924.119c0-.358.555-.239.924-.119zm10.357.836c-.37-.239.185-.597-.37-.716l.925.239c.37 0 .555-.119.924-.239.925.119 2.035.239 2.589.597-.739.239-2.034.358-2.958.358.184-.239 0-.358 0-.358-.37 0-.555.239-1.11.119zm-2.589-.955l.37.119c-.185.119-.37.119-.555.119 0-.119 0-.239.185-.239zm-2.404.119l.185-.119-1.295-.239c.555.119 1.295.119 1.664-.119l.555.358c0 .119.185.119.185.119-.37.119-.925.119-1.294 0zm-8.323-1.552c-.554.239-1.294.478-2.034.358.185-.239 0-.358-.185-.358h2.219zm1.11-.239c-.37 0-.555 0-.555-.239l.185-.119c0 .119.185.239.37.358zm4.254.716c-1.11.716-2.589 0-4.069 0 .37-.119 0-.358.185-.597 1.295.716 2.589.716 3.884.597zm11.281.597v.119l-.925-.119v-.119l.925.119zm17.939 1.075c.184-.478-.555 0-.555-.358.37.119 1.294 0 1.109.358h-.554zm-8.692-2.149h-.555l.185-.119c.185 0 .185 0 .37.119zm-17.754-2.149v-.119h.185v.119h-.185zm-7.398-2.03c.37.119.555.119.925.119-.185 0-.37.119-.555.239-.185 0-.37 0-.37-.358zm-2.959-.955c.37 0 .74.119 1.11.239-.185 0-.37 0-.555.239 0-.239-.555-.358-.555-.478zm-3.514-.119c.185-.119.37-.239.555-.239l.925.119c-.37.239-.925.119-1.48.119zm5.549.955c-.185-.119 0-.119 0 0l-.185-.119c-.185-.119-.37-.239-.37-.358l1.294.478c-.37.119-.555 0-.739 0zm7.027-.478c-.185 0-.37.119-.37.239.74.119.185.239.185.358-.185 0-.185 0-.185-.119l.37.358c-.37 0-.555 0-.925.119-.369 0-.554 0-.924-.119l-1.11-.358v-.239c.37-.119.74-.239.555-.358.925.358.925 0 1.849.597.185 0 .185-.955.555-.478zm4.808 1.672s0 .119.185.119h-.739v-.119h.554zm2.775.358c0 .119-.185.119-.37.119l-.37-.119v-.119l.74.119zm12.205 1.672c-.739-.119-1.479-.119-2.219-.119 0 0 0 .119-.185.119 0-.119 0-.119-.37-.239l.74-.239 2.034.478zm7.583.597c-.185.358-1.48-.239-1.48.239h-.555l.555-.239h.185v-.119l1.295.119zm-6.288-.358l-.555-.119.555.119zm-.185.239c.185 0 .37-.119.37-.239 0 0 0 .119-.185.119l-.185.119zm-2.034-.119h1.294-1.294zm-1.48-.239c.185 0 .185-.119 0 0zm8.137 6.448l-1.109.239c.37 0 .37-.239.37-.358l.739.119zm-144.62-12.299c-.555 0-1.295-.119-1.849 0l-.37-.239c.555-.119 1.11-.119 1.48-.239h.925c-.555.119-.37.239-.185.478zm9.802-.119h-.37.37zm1.294.119l-.185.119c-.184-.239-.369-.239-.739-.239.37 0 .739 0 .924.119zm19.419.836c.185.478 1.294.239 2.404.358 0 .119 0 .239-.185.239l-4.623-.478 2.404-.119zm2.404.119c-.37 0-.74-.119-.925-.119.555-.119 1.11-.239 1.665 0-.555-.119-.74 0-.74.119zm5.733.597h-.37v-.119h-.555v-.239c.185 0 .37.119.555.239l.37.119zm2.589.239c-.555 0-.925-.119-1.295-.239.37-.239.37-.478 1.295-.239v.478zm5.363.239h-.555c.185-.119.37 0 .555 0zm7.583.239l-1.85-.239c.185 0 .185 0 .37-.119h2.219c-.185.239-.37.358-.739.358zm5.733.478c-.74 0-1.48 0-2.405-.119.925-.239 1.665-.597 2.405.119zm10.541.836c-1.48-.119-2.959-.239-4.254-.597v-.119l-.369.119c-.185 0-.185 0-.37-.119.924-.597 1.294.358 2.219-.358l.185.597 1.109-.239-.185.358c.185.358.74 0 1.11-.119l.555.478zm8.137.597c-1.664-.239-3.514-.239-5.548-.358-.37-.239-.925-.358-1.295-.716 2.59-.358 4.624.478 6.843 1.075zm6.103-.119c-.74 1.313-2.404 0-3.699.478-.37.119-.924.119-1.294 0l-.37-.358v-.119c0-.239.185-.239.37-.358.185 0 .37-.119.37-.119.369.119.739.358 1.109.119.925.239 1.665.836 2.774.836l.185-.358c.185-.239.37-.239.555-.119zm3.514.836c-.37 0-.74-.119-1.11-.239.555 0 .925 0 1.11.239.185-.119.185 0 0 0zm8.137.716c-.185-.119-.37 0-.555 0-.37 0-.924.239-1.109.478l-.37-.119-.37-.597v.239c-.185-.119-.185-.239-.37-.239.74 0 1.849-.358 2.774-.119-.185.119 0 .239 0 .358zm11.836.836c-.185.119-.185.239-.185.239-.37.239-.555.597-.74.836.555-.239 1.11-.478 1.665-.597.185.119.37.119.37.478-.37.239-.555-.119-.925-.119-.74 1.194-2.959.119-3.699.239-.185-.119-.185-.239-.185-.358l-.555.478c-1.664.119-.739-1.194-.924-1.075-.555-.119-1.11-.239-1.48-.478-.37 0-.924 0-1.479-.119v-.239c2.034-.478 3.513 0 5.363.358.37.478-1.11.597-.555.716 0-.239.185-.239.37-.358l.185.239v-.239c.555 0 .74.478 1.294.716.185-.119.74-.239.185-.358l.37-.119-.924-.358 1.849.119zm12.206 0c-.185 0-.37-.119-.74-.119v-.119l1.11.119v.239l-.37-.119zm11.281 0h1.664c0-.119 0-.358.37-.358.37.239 1.11.239.925.597.555 0 1.109.119 1.294.239.185 0 .185-.478.37-.597v.239l.74.119c.555.239 1.11.597 1.479.119l.37.478.185-.119c.37 0 .74.119.925.239l-.185.239h.37c-.37.358-1.295.119-1.85.478 1.48.836 3.329-.358 4.624.597h-.185c-.555 0-1.11 0-1.48-.358l.185.239-.554.119c-1.295 0-2.405-.119-3.699-.239l-.185-.119c.37-.239.555-.358.925-.239-.37 0-.74-.119-1.295-.358v-.239l-.74.358c-.554-.239-1.294-.358-2.034-.478.185 0 .37-.119.74-.358l-.185.358h-.555c-.925-.119-1.849-.358-2.219-.955zm-1.11 0l.74.119.185.119-1.11-.119.185-.119zm-4.253-.358l.554-.119.185.239s-.369 0-.739-.119zm-.37-.239h.185-.185zm-5.548-.955h.739c.185.119.555.119.74.358l-.37.119c.37.955 1.48 0 2.22.239l-.185.716c-1.11-.836-2.59-.358-3.699-.955h-.185l-.185-.239.37.239c.185 0 .37-.239.555-.478zm-7.398-.836c.185 0 .185 0 .37.119s.37.358.74.478c.185-.119.37-.358.555-.358.185.119.37.239.739.358-.185.119-.185.119-.369.119l-.74-.119-1.295-.119v-.478zm1.48-2.269c-.74 0-1.48-.239-2.22-.358.185 0 .37.119.74.119.555.239 1.11.119 1.48.239zm5.548.119l-.925-.119.185-.119.74.239zm2.404.358l.185.358s-.185 0-.185.119c-.555-.119-1.48.239-1.664-.358-.185 0-.37 0-.555.119l-.555-.239.74-.358h-.185v-.119c.739.239 1.479.358 2.219.478zm7.212 1.075v.239c-.184-.239-.739-.119-1.109-.119-.185 0-.37-.119-.37-.119-.74-.358-1.479-.358-2.219-.358v-.239c.555.119 1.294.239 1.849.239h.555c.37.239.74.358 1.294.358zm15.905 5.731l1.11.119c-.37 0-.925 0-1.11-.119zm-2.774 1.313l-.74-.119c.37-.119.555-.358.74-.597.37.358.74-.119 1.11.358l-1.11.358zm.74.119c-.185 0-.37 0-.74-.119.185 0 .37-.119.37-.119l.37.239zm-10.727-.597l-.369-.239.184-.119h.5549999999999999v.358h-.37zm4.994.358c-.925 0-1.11.478-2.035.239-.185-.119-.369-.119-.185-.239l-2.219-.119c1.665-.239 3.329.358 4.439.119zm2.219.239l-.74-.119c.37-.119.74-.119.74.119zm-23.487-.955l-.37-.119h.37v.119zm.37.716c-.925-.119-2.404.239-3.144-.478.925-.358 1.849-.119 2.959.119.185 0 .185.119.185.358zm9.802.955h-.37c-1.48-1.433-2.22-.119-3.884-.597.37.358 1.295.597 1.849.597-.185.358-1.109.119-1.479.239-.185-.717-2.959-.12-3.699-.955v.239c-.925-.119-1.849-.119-2.589-.358l.74-.119s-.185 0-.185-.119v-.358h.37l-.185-.119-.37-.358h.555c-.37-.119-.925 0-1.11-.239l.555-.239c.37.119 1.11 0 1.294.239-.184 0-.369.119-.369.239 1.479.239 2.774 0 3.883.597l-1.294.358.185.119 1.294-.358c2.774-.358 4.809.119 6.843.597-.925.119-1.85.239-2.774-.119-.185.478.924.478.74.716zm33.288-3.701l-.37-.358-.185.119c.37.716 1.665 0 2.219.478v.239c-.184.119-1.479-.358-1.664.119-.555 0-1.11-.239-1.11-.478-.924.119-2.774-.358-2.589.478-1.849.716-3.698-.119-5.733-.358l-.37.478c.74 1.552 4.254.478 6.103 1.433.74-.597 2.22 0 3.329 0v.119l.37-.239.37.358c.555.119.74.478 1.11.597.184-.478-.925-.716-1.295-1.075l1.11-.358-.555-.478c.74-.239.924-.358 1.664-.478l-.37-.478c-.554-.239-1.849-.478-2.034-.119zm-42.535 26.149c.37 1.194 0 2.388-1.11 3.463-1.11 1.075-2.589 1.791-4.623 2.03-1.85.239-3.514 0-5.179-.716-1.664-.716-2.589-1.672-2.959-2.866-.369-1.314 0-2.388 1.11-3.463 1.11-1.075 2.589-1.791 4.624-2.03.554 0 .924-.119 1.294-.119-.925-.119-1.849-.239-2.589-.358-2.219.836-5.918-.358-8.507-.239-2.774-.119-5.918-.955-8.322-.478-.74-.358-2.035-.836-3.144-.597l-1.295.239c0 .239.555.119.925.239-.555.597-3.144 0-3.514-.119.555.239 1.11-.119 1.48-.239l-.555-.358-2.959-.119c-.185.119 0 .239.185.239h.555c-.185.239-.74 0-.925 0-.37-.358-.74-.597-1.48-.597l-.739.358c.37.716 1.294 0 1.849.478-1.11.358-2.774-.716-4.253-.239.184.239.369.119.739.239-.37.119-.739-.239-1.294 0l-.555.239-1.48-.955-1.294.478c0-.239.555-.239.925-.478-.185-.119-.37-.119-.74-.239l-.555.239-.37-.478-.555.239c-.185-.119-.37-.12-.739-.239l-.555.716v.119h-.555v-.119c.185.119.37 0 .555-.119.555-.478-.925-.478-1.11-.478-1.294.358-2.959.358-4.438.239-.185-.597-1.295-.358-2.035-.358-.185-.119-.369 0-.554.12-.37-.597-1.295.119-1.85-.12-.739-.119-1.479 0-2.219 0l-.74-.478c-.555.358-.924.119-1.479 0-.555-.716-1.295-.119-2.219.119 0-.239-.37-.478-1.11-.478-.37.239-1.295-.239-1.48.358-2.774-.597-4.993-.119-7.582-.478-1.11-.119-4.069-.597-5.918-.478-1.479.358-2.589-.358-4.069.119-2.219-.119-4.438-.836-6.657-.358-.185-.119-.185-.239-.37-.239l-.185.119.37.358c-.37 0-1.48.239-1.665-.358-1.849-.239-4.068.239-5.548-.358-4.808 0-8.877-.478-13.5-.358l-.555.239c-.185-.358-1.109-.119-1.294 0-4.254-.239-6.843-.716-10.726 0-2.034-1.075-4.438.119-6.843-.478-1.11.239-2.219-.239-3.514.119-.37-.358-1.11-.119-1.664 0-.925-.716-1.664.478-2.959-.119-.555 1.194-2.219.119-3.329 0-2.404-.478-4.254.358-6.473 0-.925.358-2.219 0-3.144.239-2.219-.239-5.178-.119-7.582.239-3.699-.239-6.843-.119-9.986.119-1.11.119-4.069 1.433-5.548.119h-1.295l.185.358c-.925-.239-2.589.358-3.699 0-2.219.119-4.254.478-6.288.716-1.849.119-4.069-.478-5.363.239-1.849-.239-3.514.119-5.178.239-.74-1.075-3.144-.239-4.069-.836.185-.239.925-.478.555-.716-1.11-.119.185.358-.925.478l-1.11-.597c1.294 0 2.034-1.91 3.884-.836.555-.478 1.295.358 2.034 0-.185-.119-.37-.119-.74-.239.74-.478 2.404.836 2.589-.358 2.219 0 5.363 0 7.213-.478-.37-.358.185-.836.74-.955-1.11-.358-2.589 0-3.884.119-2.589-.239-6.658.478-7.582-.836l.74-.597c-.185-.119-1.479.119-1.295-.358l1.849.119v-.597c1.479-.836 4.254-.597 5.178-1.672-1.11-.955-3.884.119-4.438-1.194-1.664-.478-3.329-1.075-4.254-2.03l.925.119c1.479-1.075-2.219-.836-1.479-2.03l.74.716c.37-.478.74-.716.37-1.194-1.479-.239-.555-1.194-.74-1.791.37-.478 0-.955-.37-1.433-.555 0-1.295 0-2.034.119-.555 1.075-2.034 1.552-3.514 1.91-.185-.955-2.034-1.672-2.589-2.627 1.11-.597 2.589-.716 3.884-1.075.555.836 2.219.955 3.514.836-.37-.478-.555-.955.185-1.313-.74-.358 0-.955 0-1.313 1.479-.358 1.295-1.791 3.144-1.91-1.48-.836-2.774-1.791-3.699-2.627.185-.358.74-.478 1.11-.836-.74.716.37 1.194 1.11 1.791.555-.119.74.119 1.11.358.185 0 .555-.119.74-.239-.555-.239-.74-.597-1.479-.597l.37-.119-.925-.836c1.295.119 2.404.597 3.329 1.075l-.185-.836c-1.48-.478-2.774-.955-3.884-1.672l-.555.358-2.404-.478 2.034-.597-1.479-.716c.555-.358.555-.836.555-1.313-.74 0-1.295 0-1.664-.358.185-.358 1.11-.597.555-1.075-1.11-.119.185.478-.925.597l-1.11-.955c1.479 0 2.404-2.627 4.253-1.075.555-.597.925 0 1.479.119h.37s.185 0 .185-.119c-.185-.239-.37-.239-.74-.239.925-.597 2.589 1.194 2.774-.478h-.74c0-1.194-2.219-.239-2.404-1.433-1.11.478-.555-.836-1.664-.716.37-1.552-2.959-2.866-1.479-4.418-2.774-.836.555-1.791-.185-3.104-.74-.478-1.849-.716-2.404-1.552 0-.358.74-1.075-.185-1.194 1.11-.597 3.144-.239 4.993-.358-.555-.478-2.219-.716-1.664-1.791l.74 1.075c.555-.597.74-.955.555-1.672-1.664-.358-.555-1.672-.555-2.507 1.11-1.791-2.589-3.463-.555-5.015-.74-.478 0-1.194 0-1.91h.185-1.11c1.295-.597.555-1.075 2.034-1.552l-.185-.119c-.555.239-1.11.358-1.295.716v-.836c-.185 0-.37.119-.555.239.185-.119.37-.239.74-.358.185-.597.555-1.194 1.664-.836l.555.119c0 .239 0 .478-.185.597h.925c.37-.239.74-.358 1.295-.358l.555-.358h.74c1.295-1.433.37-3.104.74-4.896-.555-.239-1.11-1.075-1.849-.836-.37-.478.185-.955.185-1.433 1.11-.358 2.404-.119 3.514-.239l6.288.955c.185.478.185.836 1.11.716l.37-.119c-1.11-.478.37-.716.185-1.313l.555-.239-8.322-1.313c-.37.119-.74.358-1.11.239-.74-.478 1.11-.716-.185-.955-.37.716-.74.836-1.849.836-.37 0-.37-.358-.37-.597.74-.358.74-.836.925-1.552h.185c0-.597.74-1.313 1.11-1.91l3.699-.836-.74.478c.925 0 2.774 0 3.144.955 2.959.478 5.178 0 7.952 0l.925.716c.555-.358.74-.716 1.479-.716.185.955 2.589.358 3.514.478l1.849-.119-.74-.836 2.034.119c0 .239-.37.597 0 .716.925-.358.555-.597 1.664-.955 1.664.358 3.514-.119 4.438.119l-.37.119 6.473.358c2.589-1.313 5.178 1.075 7.767-.597 1.11-.239 1.48.955 2.404.119 1.11.239 3.329.478 3.329-.239 1.295-.239 2.034.955 3.514.478.925.119 1.849 0 2.774-.358.925 1.194 2.219-.119 3.514.358l.555-.239c-.185-.119-.185-.239-.185-.358.925 1.194 2.589-.239 4.069.597l.185-.358c.925.716 2.404-.716 3.144.239 2.404.239 5.363-.597 7.213.597h6.843c.185.239-.185.716-.74.836-1.295.478-3.144-.119-4.623.239l.37.597c-.555-.358-.74.239-1.11.358.185.836.925.239 1.48.239h.185c-.555.478-1.48.239-2.219.597.37.716 1.295 1.075 2.219 1.075 0 .239-.925.239-.74.597l.185.239-2.774-.239c1.295.239-.555.597.185.955 1.48.358 2.589-.239 3.884 0l-.37.119c.74.478 2.034.358 2.959.597-.185-.597.925-.597 1.295-.955l-.74-1.075c.37.358 1.479.836 1.849 1.552.74-.119.925.358 1.294.716l3.329-.478c.555-.358 0-.716-.37-.955.925.597 1.85-.119 3.144.478 1.11-.119 2.035-1.075 2.405-1.552.924.597.739.597.185 1.313-1.295.119-1.295.597-1.665 1.313.185.358.925.239 1.48.358.369-.239.185-.716.369-.955.185.836 1.295.478 2.22.478.37-.119.37-.239.37-.478.369.119 1.109 0 1.109.358l.37-.119-.555-.836c.925 0 2.589-.119 3.699.119-.185.119-.37.119-.37.358.925.239.74.597 1.48.955l3.883.119c0 .239-.185.239-.37.358 2.774.716 5.733.119 8.692.716.185-.597.74-.597 1.48-.716-.185.358 0 .597.185.836l.555-.239c.185.836 1.294.239 2.034.239l2.959.597.925-.358c-.925-1.194-3.884.119-3.884-1.313-1.48-.597-3.514.358-4.069-1.194-.555-.478 1.295.478 1.295-.597l2.589.955-.37.119.185.239 1.11-.358c-.74.358-.37.716-.555 1.075 3.514.358 6.103 1.194 9.617.955 1.664.716 4.993.597 7.397.836 1.11-.955.185-1.075-.37-1.91-.555-.119-1.11-.239-1.664.119l.185.239c-1.295.478-2.59-.239-3.884 0l-.555-.119c-.185-1.313-2.219-.119-2.959-1.194.925.478 3.329-.239 4.809.836.369-.119.369-.358.369-.478l.74.836c.74-.358 1.48-.597 2.219-.597.555-.119.37-.478.185-.716.555 1.194 2.22.358 2.589 1.552l2.035.119-1.48.358c3.514 1.075 9.247 1.91 13.131 1.91 2.034-.239 0-1.194.554-2.03l.555-2.03c0-.119.185-.358.185-.597.185 0 .37.119.37.239l-.555.239c0 .239.37.239.74.239 0 .478-.74 1.075 0 1.552l3.699.597c-.555.358-1.665-.478-1.85.239l.37.239c-.37-.239-.739.119-1.109.239.185.716 1.479.478 2.219.716-.185.119-.37.119-.37.358.185.119.185.239.37.239l.37-.119v.119c4.623 1.433 10.726.836 14.24 1.791l.37-.119c-.185.478.924.955 1.664.597 1.295-.716 3.144 1.194 4.069-.597l-.185-.239.555-.239c-.555-.478-1.48-.955-2.035-.836-.739-1.075-2.404.119-3.883-.358l.37-.119-1.11-.597c3.144.239 5.918 1.075 9.062 1.433 0-.119.185-.119.185-.119l.37.239c-.185 0-.37-.119-.74-.119-.555.358-1.11 1.075-2.034 1.075 1.109.597 2.959 1.194 3.883.955 1.295.597 3.514.836 4.993 1.075l.185-.358.37 1.194c1.665-1.791 5.178 0 7.398-.119.37.358 1.109.478 1.664.597.185-.239-.925 1.672.925 1.433l.74-.597c0 .239-.185.358 0 .597.924-.239 3.143 1.313 4.068-.358.37 0 .555.478.925.119.37-1.075-2.034-.239-.925-1.433l-.74-.239h.185c.37-.478 0-1.194-.924-1.313-2.22.358-4.254-1.194-6.473-.597-.37-.597-1.849 0-2.959-.478v-.239h2.959l-.37.119 3.514.358c.74.119.555-.478 1.294-.239.925.597 2.959 1.075 4.254.955l4.623.239c.37.836 2.404.358 3.329 1.075 2.404-.955 4.624.716 6.843.597 3.144.955 6.473.716 9.432 1.91l2.219-.478c-.925-.119-1.295-1.075-2.404-.716 1.294-.955 2.034 1.194 3.328-.239l-.184.597c-.37 0-.555-.119-.74.119.555.836 1.294.239 2.404.955v.119c2.404.716 4.993.836 7.952.716-1.294-1.433-3.329.239-4.993-.955.555-.478 1.664-.119 2.034-.597-.185-.358-.555-.478-1.109-.597l-.37.119-.37-.597c-.555.716-1.295-.239-2.034-.239l.369-.119c-.924-.836-.739.716-.924.597-.37-.239-.925-.358-1.48-.358.185-.478-.739-.597-1.109-.955-.37.119-.37.239-.37.478-2.035-.119-3.884-.119-5.548-.955-1.295-.119-2.22.478-3.884.716l-.74-.239c.37-.597 1.665-.119 2.22-.597-.925.239-1.295-.836-1.85-.836l-.925.478c.185-.119 0-.239-.184-.358-.555.716-1.295-.358-1.85-.119l-.37-.478c-1.109.239-2.219-.239-3.513-.716-.555.597-1.295-.119-1.85.239.37.239.925.478.74.836-.925.119-2.219-.717-2.959-.597.37 0 .74 0 1.11-.239-.555-.239-.555-.478-1.11-.955-.37.119-.37.239-.37.478-1.849-.716-4.623-.597-6.658-.358-.37-.358.37-.478-.185-.836l-.739-.119c.37 0 .739 0 1.294-.239-1.109-1.194-3.144-.836-4.623-1.194-2.959-.119-6.843-.836-10.172-1.313l1.665-.119c-.555-.955-1.85-.119-2.959-.597l-.74.478c0-.955-1.479.119-1.849-.597v-.239c1.479.597 3.513.119 4.438.119.37.716 1.85.358 2.774.358.37-.119.74-.358 1.11-.239l-.185.358c.74.358 2.034.478 3.144.119-.925.119-.555.716-1.11.955.555-.239 1.11.836 1.85.119l-.185-.239c.185-.478.924.597 1.109-.239 1.11 0 .555 1.194 1.85.597-.185-.239-.37-.239-.74-.239l.925-.478c.184.119.184.239.369.239.185-.119.37-.119.37-.358-2.034-.597-4.993-.836-6.657-1.194 2.034-1.075 3.143.836 5.178 0-.555-.358-2.035-.358-1.665-1.194l2.774.358c0 .239-.185.239-.369.358 2.034.597 3.328 1.433 5.733.955-.74-.597-2.035-.955-2.775-.955.37 0 1.11-.597 1.295.119l5.178.955c-.739 0-1.479-.478-2.034.119v.239c1.479-.119 2.959 1.075 4.623.478-.37-.239-.739-.478-1.479-.597 0-.358.74 0 1.109 0 .555 1.313 2.775.119 3.884.716l1.48.239-.555.239c1.109.358 1.849 1.433 3.144.597l-.37-.597c.37-.119 2.404.716 3.699.955-.37 1.075 1.849.478 2.219 1.075.555 0 1.294-.478 1.479 0l.185-.358c1.665 1.194 4.994.597 7.028 1.194l.185-.358c.37.239 1.109.716 1.664.478l.37-.119v.119c1.48 0 3.144.836 4.439.836l-.37.119c1.294 1.194 3.513-.597 5.178.358l-1.11.358c1.11 1.075 2.774 1.075 4.439.836l.739.478c1.11.716 3.699 0 2.959 1.313l.74.358c-2.219-.597-4.068-.119-6.473-.119-.554.478.37.478.37.597-.924.716-1.479-.239-2.219-.358-.37.358-.925.358-1.294 0-.555.119-.37.597-.555.836.924.119 2.034 1.075 2.774.358.739-.119.555.478.924.716l2.035.119-1.48.597c.37.716 1.295-.239 1.48.597-1.11.836-3.329-.836-5.178-.358 0-.119 0-.597-.555-.478 0 .955-1.85.239-2.774.597-.37.239-1.85-.597-2.035.478l1.665.478c.555.955 2.589.716 3.883 1.314-2.404-.358-5.363-.836-7.397-1.433l.74-.478c-.74-.239-1.48-.836-2.219-.358 0 .358.554.239.924.358-.37 0-1.849.239-2.404.836-.185-.239-.74-.358-.925-.716-.554.597-1.294-.119-1.849.239.37 1.075 2.034.597 3.144.836-.185.119 0 .239.185.358 1.109.239 1.294-.358 2.404-.239l-.555-.597c1.665.358 2.404.836 3.884.955 0 .239-.37.358-.74.478 1.295.836 3.144-.716 4.254.597-.925.239-1.48-.955-2.035-.119l.37.478.37-.119c-.37.836 1.48.239 2.219.358.37-.358-1.109 1.313.925 1.075 0 .239-.185.239-.37.358l1.665.478c-.74 0-1.48.716-2.035.119l.555-.239c0-.119 0-.119-.185-.239-.37-.239-.925-.358-1.294-.119l-.37.119.739.478c-1.849.12-3.328-1.313-5.178-.955-1.109.239-1.109-1.075-2.219-.478-.925-.597-2.219-.716-3.699-.478l-1.109.239.554-.239-.369-.478c-5.179-.119-7.583-2.388-12.576-1.672l-1.48.597-.184-.239 1.109-1.075c-1.294-.716-2.589-.358-4.253-.836 0-.239.185-.239.369-.358-.184-.358-.924-.239-1.479-.358l-.555.239c.185.358.74.239 1.295.358h-1.295l.74.478c.185 0 .37-.119.555 0l-.185.239.185.119h-.37l-.37.358.555.119-.925.239c.185.119.37.119.74.119 0 0-.185 0-.185.12.74.239 1.479.239 2.219.358l.185-.358c.555 1.075 2.959.478 3.699 1.075.185-.119.37 0 .555.239.554 0 .924.119 1.109-.358-.555 0-1.479-.358-1.849-.836 1.849.597 2.774-1.194 4.253.836l1.665-.358c.925-.239-.74.239 0 .597l.555-.239c.739.478 2.589.955 3.883.716l-.185.358c3.144.358 6.103 1.075 8.692 1.791h1.11l-.185.239.555.119c.37-.119.74-.119 1.109 0 0-.119.185-.119.37-.119l.74.119c-.37.358-.555.239-.74.119l.555.358c0 .239-.185.239-.555.358h.74l.185.119c.555 0 .925-.239.74-.597.185.239.924.597 1.109.358l.925.716s-.185 0-.185.119h.185c0 .119-1.11.358-.555.716h.185l-.74.478 3.329.955c-1.294-.119-2.589-.239-4.068-.478 0 0-.185.119-.37.119l-.185-.119-1.295-.119v.119l-.739-.119v-.119c-.74-.119-1.48-.239-2.405-.358-.185.119-.369.239-.554.478l-.185-.597h-.185c-.37.597-2.035-.597-2.035.478.185-.358-.369-.597-.554-.836l-.74.478 1.294.716c-.554-.597-1.479.239-1.664-.597l-1.11.358c0-1.672-2.034.478-2.589-.955l-.924.478c.185.119.554.597.924.358l-.185.358c-.37 0-.554-.119-.739.119.554.716 1.294.239 2.219.716 1.664.836 3.514-.239 4.808 1.313 1.295 0 2.219-.119 3.144.597-1.849.478-3.884-.955-4.808-.478h.185v.239h-.37l-.185.239c-.185-.119-.37-.239-.74-.358h-.37c-.37 0-.555 0-.924.239 0 .597 1.479.597 1.109.716-.555.239-1.294-.119-2.034-.119.185-.239-.185-.358-.37-.597.185.119.37 0 .555-.119-.37-.597-1.11-.716-1.85-.955l-.924.478c.555.358 1.479.478 1.849.955l-.555.836c-.924-.239-1.664-.358-2.034-1.075-.37.119-.37.239-.37.478-1.479.119-2.959-.239-4.438-.239l.37.478.369-.119.185-.119-2.219.239c.74.239 1.295.597 2.219.716-1.109 0-2.774-.716-3.883-.358.924.836 2.959.478 4.068 1.194l-1.479.239c1.294.119 2.774 0 2.959 1.075.37-.119.37-.358.37-.478l.924.119-.185-.239.74.239-.37.119c-.554 1.194 1.665-.239 1.48.836.37-.119.37-.358.37-.478l1.109.239s-.185-.119-.185 0c.555-.119 1.11-.239 1.48.239h-.185l.555.119h-.74c-.37.239-.74.478-1.48.239l.555-.239h-1.109c0 .358.185.597.554 1.075.37-.119.37-.358.37-.478l.37.358h.37l-.185.119 2.219.597.555-.358c-.185-.239-.37-.239-.74-.239l.74-.478c0 .358.74.239 1.11.239l-.37.119c.185.239.37.239.74.239.37-.239 0-.716.924-.478 0 .239-.369.597 0 .716-.185 0-.554-.119-.369-.478-.555.717-1.85-.119-2.22.717 1.295.358.37 1.433 2.22 1.194-.185.716 1.294.239 1.479.716.37.597 2.219-.358 2.404.597l-1.109.119c.369.119.554.597 1.294.478-3.699 2.03-5.363-1.791-8.507-.478.555.119 1.11.239 1.664.478.555 0 .925 0 1.295.358-1.295.358-3.329.119-4.993.239l.924.239-1.109-.119v.119c2.404.239 1.849.955 4.438.836l.37.478c.74-.358.185-.597.185-.955l3.144.119c-.74.358-1.295 0-2.219-.239-1.295 1.075 1.479.955 1.479 1.91-1.294.119-1.849-1.433-3.144-.478l.925.478c0 .239-.74-.478-1.479-.358l-.185-.239.554-.358c0-.358-.739-.239-.924-.239-.37.955-.925-.478-1.665.239l.185.239c-.185.478-1.479-.358-1.479.478h-.555c0-.239.555-.358.74-.478-.925-.478-2.404-.836-3.699-.597-.925-1.314-1.664.836-2.774-.119 0 .478-1.295 1.194-2.404 1.672l.37.478c-.185.119-1.11-.239-1.295-.716-.185.239-.555.478-.925.597l.925-.955c-.925-.119-1.849 0-2.589.119-.185.119-.185.239-.185.358v.239c.74.358 1.849-.358 2.034.597l-2.219-.239c.37-.358-.185-.597-.37-.836l-1.109.239v.119c.369.119-.925-.239-1.11.119l.555.597h-.37v-.119c.185 0 .37.119.37.239h.555c.554.836 1.664.358 2.589.955.185-.119.739-.239.739-.478 0 .358.555.836 1.295.716l.185-.119v-.238.119l.185.119c0 .358.185.955 1.109.716.185.358.925.239 1.48.358l.555-.239c.37.119 4.253.478 6.473 1.075.924.478 2.404.478 3.698.716-1.849.597-2.959-.478-4.993 0-1.11-.239-2.219-.597-3.514-.716l-.74.478c.185-1.194-1.664-.358-2.404-.716v.239l-3.329-.239v-.239c-1.479-.239-2.959-.597-4.808-.478-.925-.358-2.959-.716-4.253-.597-.185-.119-.185-.239-.555-.239-.37.239-.925.597-1.665.478-.185-.119-.185-.119-.37-.119l-.924.358c1.664.955 3.699.478 5.548.955-.185.597-2.034-.119-1.295.716.555.119.925.119 1.295-.239.185.239.37.239.74.239l1.109-.358c-.185-.119-.37-.239-.185-.358.37-.239.925 0 1.295 0-1.48-.119-.37.836-.925 1.194 1.665-.119 2.034 1.194 3.144.119 1.48.597 1.849-1.194 3.144-.119l-2.774.358 1.295.716c-1.85 0-3.884-.239-5.918-.478 1.664.716 4.623.358 6.472.836v-.239l.555.239.74-.119v.239l-.555-.119c.37.119.555.119.925 0l.185-.119v.119l4.253.597-.185.119c1.295.836 3.144-.478 4.809.239l-1.11.239c1.11.716 2.774.836 4.254.597v-.239c1.109.597 3.328 0 2.959.955l.739.239c-2.219-.478-3.698 0-6.103-.119-.37.358.37.358.37.478-.74.478-1.479-.119-2.034-.239-.37.239-.925.239-1.295 0v.119c2.035.478 3.144.597 4.809.836-.74-.239-1.295 0-1.85.119v.119l.925.119h1.11l-.37.119.924.119c-.369 0-.924 0-1.294-.119l-.74.239c.37.478 1.11-.239 1.295.358-.555.358-1.48.119-2.589-.119l2.589 1.791-1.85-.239c.185-.119.74-.239.74-.478-.925-.955-2.774-1.194-4.438-1.075l.739-.358c0-.119-.185-.239-.554-.119 0 .478-.74.358-1.48.358.555.478 1.48.478 2.219.836l-.924.239c0 .119 0 .239.185.239l.554.119c.37-.119.925-.358 1.295-.358-.185 0-.37 1.075-1.849.597l-.185-.239-2.22-.239c-.369.119-.739.119-.924.239h.555c0 .239-.37.239-.555.358 1.294.597 2.959-.478 4.068.478-.924.119-1.479-.716-1.849-.119l.37.358v.119c-.37.597 1.479.119 2.034.239.37-.239-.925.955.925.836 0 .119-.185.119-.37.239l1.479.358c-.554 0-1.294.478-2.034 0l.555-.239c0-.119-.185-.119-.185-.119-.37-.239-.925-.239-1.11-.119l-.369.119 1.109.239c-1.849.119-3.144-.955-4.993-.716-.925.119-1.11-.716-2.034-.358-.74-.358-1.665-.478-2.774-.478 0 .119-.185.239-.37.239-.37.119-.74 0-.74-.119l-.74.119.555-.119-.37-.358c-1.849 0-3.329-.239-4.623-.597-.555 0-1.295.119-2.035.239v.239l.925-.119c.925-.119-.555.239.185.358l.555-.239c.74.358 2.404.597 3.699.597v.239c3.513.358 6.657.955 9.431 1.552.555-.239 1.48.119 1.85.358 0 .239-.37.239-.555.358.37.119 2.034.239 1.479-.358.185.119.925.358 1.11.239l.74.478-1.11.239v-.119c-2.219-.597-3.884-.239-5.548-.955h-1.664v.239c-.37-.119-.555.119-.74.239.924.239.924 1.194 2.219.955l1.664.119c.555 0-.924.239-1.109.597l-.185-.478c-.185.597-1.849-.358-1.849.478 0-.239-.37-.358-.555-.597l-.555.358.74.358c-.555-.358-1.295.239-1.48-.478l-1.109.239c-.185-1.194-1.85.358-2.405-.716l-.739.358c.185.119.554.478.924.239v.239c-.185 0-.554-.119-.739 0 .554.597 1.109.239 2.034.478 1.479.597 3.329-.119 4.623.955 1.295 0 2.035-.119 2.959.478-2.034.358-4.253-1.075-4.808 0-.37-.239-1.295-.597-1.849-.239 0 .478 1.479.478 1.109.478-.555.239-1.294 0-1.849-.119.185-.239-.185-.239-.37-.478.185.119.37 0 .555-.119-.37-.358-1.11-.478-1.665-.716l-.739.358c.554.239 1.294.358 1.664.716l-.37.597c-.74-.119-1.664-.239-2.034-.716-.37 0-.37.239-.37.358-1.11.119-2.589-.119-3.699-.119 0 0-.185 0-.185.119l-.554.358.184-.119.185.119-2.034.239c.555.239 1.295.478 2.034.478-.924 0-2.589-.597-3.513-.239.924.597 2.774.358 3.883.836l-2.034.239c.925-.119.74.955 1.295.239.739-.119.369.478 1.109.478l.74-.239v.239h-.555c-.185.239-.185.836.74.836l.74.119c-1.665 0-3.329.358-4.994.478 1.295.358 2.404.358 3.514.478.555-.119 0-.358 0-.597h-.185v-.119l.74.119c0 .119-.185.239-.37.239.555.597 1.11-.239 2.034 0 .74-.478 2.22-.239 3.144-.716h.74l-1.11.478c.74.358 1.85.358 2.774.716-2.034.358-3.328-1.194-5.178-.358l-.185.119c-.185.239-1.294 0-1.109.597l.369.358c2.035.836 4.254.478 6.288 1.194-1.664-.478-3.144-.239-4.808-.358.185.358.925.358 0 .597l2.034.358-7.027-.597-.925.955c-.555-.239.37-.478.555-.716v-.119c-2.219-.836-5.918.119-8.507-1.075-.37 0-.185.358-.37.478.555.716 1.664 0 2.589.597l.925.239c-.185-.119-.37 0-.555.119.74.597 2.034.239 3.144.358l.555-.239c0 .239.554.119.924.239-1.479-.239-2.774.836-4.438.119-.925-.119-2.589-.239-3.699 0 1.849.955 5.363 1.552 7.767.955.185 0 .37-.119.37-.239 0 .239-.37 1.075-1.294 1.314l.739-.716c-2.219-.239-4.068.716-6.102-.119l-1.295.119c.185 1.075 2.219-.119 2.589.955l.74.119c.555.597 1.479.239 2.404.716.185-.119.555-.119.555-.358 0 .239.555.597 1.294.597v-.835.119l.185.119c.185.239.37.597 1.11.478.185.239.925.239 1.295.239l.554-.239c.37.119 3.884.358 6.103.836.925.358 2.404.358 3.514.478-1.664.478-2.774-.358-4.623 0-1.11-.119-2.035-.358-3.329-.478l-.555.358c.185-.836-1.664-.239-2.219-.478v.119l-3.144-.119v-.119c-1.48-.119-2.774-.358-4.439-.358-.924-.239-2.774-.478-4.068-.478-.185-.239-.925-.239-1.295-.239l-1.664.597c1.664.716 3.329.358 5.178.716 0 .358-1.849-.119-1.11.597.37.119.925.119 1.295-.119.185.239.37.119.74.239l.739-.358c-.185-.119-.369-.119-.185-.239.37-.239.74 0 1.295 0-1.295 0-.37.597-.74.836 1.48-.119 1.85.836 2.959 0 1.295.358 1.665-.836 2.959-.119l-2.589.239 1.295.597c-2.959 0-6.288-.358-9.617-.716.37.119.74.239.925.358 1.479.597 2.404 1.552 2.774 2.866zm60.474-62.567l-.37-.478-.37.239c.37 1.075 1.849 0 2.404.716l-.185.358c-.37.119-1.664-.597-1.849.119-.555 0-.925-.358-.925-.716-1.109.119-3.144-.478-2.959.716-2.034.955-4.068-.119-6.103-.478l-.554.716c.554 2.149 4.623.716 6.472 2.03.925-.955 2.405 0 3.699 0v.239l.74-.478.37.478c.555.119.739.597 1.109.955.37-.716-.924-.955-1.294-1.552l1.294-.597-.924-.836c.739-.239.924-.597 1.849-.716l-.37-.597c-.37-.239-1.664-.716-2.034-.119z" fill="#fff"/></svg>