<svg width="20" height="20" viewBox="0 0 20 20" xmlns="http://www.w3.org/2000/svg" fill="none"><path d="M10.833 5c0 .46-.373.833-.833.833-.46 0-.833-.373-.833-.833 0-.46.373-.833.833-.833.46 0 .833.373.833.833zM10 15.833c-.345 0-.625-.28-.625-.625v-6.458h-.833c-.345 0-.625-.28-.625-.625s.28-.625.625-.625h1.458c.345 0 .625.28.625.625v7.083c0 .345-.28.625-.625.625zM10 20c-5.514 0-10-4.486-10-10s4.486-10 10-10 10 4.486 10 10-4.486 10-10 10zm0-18.75c-4.825 0-8.75 3.925-8.75 8.75s3.925 8.75 8.75 8.75 8.75-3.925 8.75-8.75-3.925-8.75-8.75-8.75zM11.875 15.834h-3.75c-.345 0-.625-.28-.625-.625s.28-.625.625-.625h3.75c.345 0 .625.28.625.625s-.28.625-.625.625z" fill="#767676"/></svg>