<svg width="6" height="10" viewBox="0 0 6 10" fill="none" xmlns="http://www.w3.org/2000/svg">
<path d="M5.21191 2.83184C5.21191 3.24434 5.15332 3.60996 5.03613 3.92871C4.91895 4.24746 4.75488 4.51934 4.54395 4.74434C4.33301 4.96934 4.07988 5.14512 3.78457 5.27168C3.48926 5.39824 3.16113 5.47324 2.8002 5.49668L2.75098 7.19121C2.75098 7.26152 2.70879 7.31543 2.62441 7.35293C2.54473 7.38574 2.41348 7.40215 2.23066 7.40215C2.13223 7.40215 2.04785 7.3998 1.97754 7.39512C1.90723 7.38574 1.85098 7.37402 1.80879 7.35996C1.7666 7.34121 1.73613 7.31777 1.71738 7.28965C1.69863 7.26152 1.68926 7.22871 1.68926 7.19121L1.64707 5.24355C1.64238 5.13574 1.64941 5.04902 1.66816 4.9834C1.6916 4.91309 1.72441 4.85684 1.7666 4.81465C1.80879 4.76777 1.8627 4.7373 1.92832 4.72324C1.99395 4.70449 2.06895 4.69512 2.15332 4.69512H2.30801C2.6127 4.69512 2.87285 4.64824 3.08848 4.55449C3.3041 4.45605 3.47754 4.32715 3.60879 4.16777C3.74473 4.0084 3.84316 3.8209 3.9041 3.60527C3.96504 3.38965 3.99551 3.16465 3.99551 2.93027C3.99551 2.66309 3.95801 2.41934 3.88301 2.19902C3.80801 1.97402 3.69551 1.78184 3.54551 1.62246C3.39551 1.4584 3.20566 1.33184 2.97598 1.24277C2.75098 1.15371 2.48379 1.10918 2.17441 1.10918C1.90254 1.10918 1.66348 1.13965 1.45723 1.20059C1.25566 1.25684 1.07988 1.32012 0.929883 1.39043C0.779883 1.46074 0.655664 1.52402 0.557227 1.58027C0.463477 1.63652 0.393164 1.66465 0.346289 1.66465C0.313477 1.66465 0.283008 1.65762 0.254883 1.64355C0.231445 1.62949 0.210352 1.60371 0.191602 1.56621C0.172852 1.52402 0.158789 1.47012 0.149414 1.40449C0.140039 1.33418 0.135352 1.24746 0.135352 1.14434C0.135352 1.03184 0.142383 0.947461 0.156445 0.891211C0.170508 0.830273 0.200977 0.778711 0.247852 0.736523C0.294727 0.689648 0.383789 0.631054 0.515039 0.560742C0.650977 0.485742 0.812695 0.417773 1.0002 0.356836C1.19238 0.295898 1.40098 0.244336 1.62598 0.202148C1.85566 0.159961 2.09238 0.138867 2.33613 0.138867C2.8377 0.138867 3.26895 0.211523 3.62988 0.356836C3.99082 0.497461 4.28848 0.689648 4.52285 0.933398C4.75723 1.17715 4.93066 1.46309 5.04316 1.79121C5.15566 2.11934 5.21191 2.46621 5.21191 2.83184ZM2.99004 9.06855C2.99004 9.22324 2.97832 9.35215 2.95488 9.45527C2.93613 9.55371 2.89863 9.63574 2.84238 9.70137C2.78613 9.7623 2.70879 9.80449 2.61035 9.82793C2.5166 9.85605 2.39941 9.87012 2.25879 9.87012C2.10879 9.87012 1.98691 9.85605 1.89316 9.82793C1.79941 9.80449 1.72207 9.7623 1.66113 9.70137C1.60488 9.63574 1.56504 9.55371 1.5416 9.45527C1.52285 9.35215 1.51348 9.22324 1.51348 9.06855C1.51348 8.91387 1.52285 8.78496 1.5416 8.68184C1.56504 8.57402 1.60488 8.49199 1.66113 8.43574C1.72207 8.3748 1.79941 8.33262 1.89316 8.30918C1.98691 8.28105 2.10879 8.26699 2.25879 8.26699C2.39941 8.26699 2.5166 8.28105 2.61035 8.30918C2.70879 8.33262 2.78613 8.3748 2.84238 8.43574C2.89863 8.49199 2.93613 8.57402 2.95488 8.68184C2.97832 8.78496 2.99004 8.91387 2.99004 9.06855Z" fill="#767676"/>
</svg>
