<svg width="20" height="21" viewBox="0 0 20 21" fill="none" xmlns="http://www.w3.org/2000/svg">
<g clip-path="url(#clip0)">
<path d="M14.6847 11.7569L12.5225 13.8289C11.8919 13.4686 10.7207 12.7479 9.45946 11.4866C8.10811 10.1352 7.38739 8.96407 7.02703 8.33344L9.0991 6.17128L3.6036 0.765871L3.69369 0.675781L0.990991 3.28839C0.36036 4.00911 0 4.81992 0 5.72083C0 6.26137 0.0900901 6.71182 0.36036 7.16227C1.26126 9.05416 2.97297 11.937 5.85586 14.8199C8.73874 17.7028 11.6216 19.4145 13.5135 20.3154C13.964 20.5857 14.5045 20.6758 14.955 20.6758C15.8559 20.6758 16.6667 20.3154 17.2973 19.6848L19.9099 17.0722L20 16.9821L14.6847 11.7569ZM2.16216 4.54965L3.6036 3.10821L6.66667 6.17128L4.86486 7.97308L5.13513 8.51362C5.13513 8.51362 5.94595 10.4055 8.10811 12.5677C10.2703 14.7298 12.0721 15.5406 12.1622 15.5406L12.7027 15.8109L14.5045 14.0091L17.4775 16.9821L16.036 18.4235C15.5856 18.874 14.7748 19.0542 14.1441 18.7839C12.3423 17.883 9.63964 16.2614 6.93694 13.5587C4.23423 10.856 2.61261 8.15326 1.71171 6.35146C1.62162 5.81092 1.71171 5.00011 2.16216 4.54965Z" fill="#878787"/>
</g>
<defs>
<clipPath id="clip0">
<rect width="20" height="20" fill="white" transform="translate(0 0.675781)"/>
</clipPath>
</defs>
</svg>
