<svg width="17" height="18" viewBox="0 0 17 18" fill="none" xmlns="http://www.w3.org/2000/svg">
<path d="M14.4398 11.3264C13.6205 10.5071 12.6988 9.89265 11.6747 9.48301C12.8012 8.56132 13.4157 7.12759 13.4157 5.69385C13.4157 2.92879 11.1627 0.675781 8.39759 0.675781C5.73494 0.675781 3.48193 2.92879 3.48193 5.69385C3.48193 7.12759 4.09639 8.56132 5.22289 9.48301C4.19879 9.89265 3.27711 10.5071 2.45783 11.3264C0.921687 12.9649 0 15.0131 0 17.3686V17.6758H1.84337V17.3686C1.84337 13.6818 4.81325 10.7119 8.5 10.7119C12.1867 10.7119 15.1566 13.6818 15.1566 17.3686V17.6758H17V17.3686C16.8976 15.0131 15.9759 12.9649 14.4398 11.3264ZM8.5 2.51915C10.241 2.51915 11.6747 3.95289 11.6747 5.69385C11.6747 7.43482 10.241 8.86855 8.5 8.86855C6.65663 8.86855 5.22289 7.43482 5.22289 5.69385C5.22289 3.95289 6.65663 2.51915 8.5 2.51915Z" fill="#767676"/>
</svg>
