<svg width="20" height="20" fill="none" xmlns="http://www.w3.org/2000/svg"><path d="M.974 2.611L3.594 0l5.441 5.432-2.11 2.179c.354.627 1.121 1.83 2.429 3.137 1.307 1.307 2.518 2.083 3.151 2.442l2.136-2.109 5.356 5.325-2.605 2.623a3.3 3.3 0 01-3.772.642c-1.922-.933-4.823-2.656-7.728-5.56-2.904-2.905-4.627-5.806-5.56-7.729a3.269 3.269 0 01-.33-1.43c0-.857.336-1.705.972-2.341zm.762 3.09c.881 1.814 2.51 4.554 5.26 7.305 2.752 2.752 5.492 4.38 7.306 5.26.662.322 1.46.185 1.984-.34l1.504-1.513-3.153-3.134-1.82 1.796-.486-.216c-.08-.036-1.962-.888-4.082-3.007C6.13 9.73 5.294 7.864 5.26 7.785l-.21-.48L6.843 5.45 3.593 2.205l-1.516 1.51A1.738 1.738 0 001.736 5.7z" fill="#767676"/></svg>