<svg width="17" height="21" viewBox="0 0 17 21" fill="none" xmlns="http://www.w3.org/2000/svg">
<path d="M8.41233 4.51379C6.26262 4.51379 4.51367 6.26274 4.51367 8.41245C4.51367 10.5622 6.26262 12.3111 8.41233 12.3111C10.562 12.3111 12.311 10.5622 12.311 8.41245C12.311 6.26274 10.5621 4.51379 8.41233 4.51379ZM8.41233 10.6696C7.16775 10.6696 6.1552 9.65703 6.1552 8.41245C6.1552 7.16787 7.16775 6.15532 8.41233 6.15532C9.65691 6.15532 10.6695 7.16787 10.6695 8.41245C10.6695 9.65703 9.65691 10.6696 8.41233 10.6696Z" fill="#333333"/>
<path d="M8.41292 0C3.77401 0 0 3.77405 0 8.41292V8.64548C0 10.9916 1.34507 13.7255 3.99796 16.7712C5.9211 18.9792 7.81737 20.5187 7.89711 20.5832L8.41292 21L8.92873 20.5832C9.00851 20.5188 10.9048 18.9792 12.8279 16.7712C15.4807 13.7255 16.8258 10.9916 16.8258 8.64552V8.41296C16.8258 3.77405 13.0518 0 8.41292 0ZM15.1843 8.64552C15.1843 12.6103 10.0758 17.4097 8.41292 18.8667C6.74961 17.4093 1.64153 12.61 1.64153 8.64552V8.41296C1.64153 4.67923 4.67919 1.64157 8.41292 1.64157C12.1467 1.64157 15.1843 4.67923 15.1843 8.41296V8.64552Z" fill="#333333"/>
</svg>
