<svg width="20" height="16" viewBox="0 0 20 16" fill="none" xmlns="http://www.w3.org/2000/svg">
<path d="M18.2422 0.0585938H1.75781C0.789766 0.0585938 0 0.8475 0 1.81641V13.5352C0 14.5008 0.78625 15.293 1.75781 15.293H18.2422C19.2078 15.293 20 14.5067 20 13.5352V1.81641C20 0.850781 19.2138 0.0585938 18.2422 0.0585938ZM17.9995 1.23047L10.0373 9.1927L2.00621 1.23047H17.9995ZM1.17188 13.2925V2.05348L6.81559 7.64879L1.17188 13.2925ZM2.00051 14.1211L7.64777 8.47383L9.62656 10.4356C9.85563 10.6627 10.2253 10.662 10.4534 10.4338L12.3828 8.50441L17.9995 14.1211H2.00051ZM18.8281 13.2925L13.2114 7.67578L18.8281 2.05906V13.2925Z" fill="#878787"/>
</svg>
