<svg width="20" height="14" viewBox="0 0 20 14" fill="none" xmlns="http://www.w3.org/2000/svg">
<path d="M16.8298 0H2.23404C1.00219 0 0 1.00219 0 2.23404V11.766C0 12.9978 1.00219 14 2.23404 14H16.8298C18.0616 14 19.0638 12.9978 19.0638 11.766V2.23404C19.0638 1.00219 18.0616 0 16.8298 0ZM17.5745 11.766C17.5745 12.1766 17.2404 12.5106 16.8298 12.5106H2.23404C1.82343 12.5106 1.48936 12.1766 1.48936 11.766V2.23404C1.48936 1.82343 1.82343 1.48936 2.23404 1.48936H16.8298C17.2404 1.48936 17.5745 1.82343 17.5745 2.23404V11.766Z" fill="#EA3038"/>
<path d="M17.4477 0.928345L9.53159 6.81643L1.61549 0.928345L0.726562 2.12337L9.53159 8.67262L18.3366 2.12337L17.4477 0.928345Z" fill="#EA3038"/>
</svg>
