<svg width="170" height="170" fill="none" xmlns="http://www.w3.org/2000/svg"><circle cx="85" cy="85" r="82" stroke="#F4F4F4" stroke-width="6"/><path d="M84.5 76.7498c-7.1665 0-12.975 5.8111-12.975 12.975 0 7.1665 5.8085 12.9752 12.975 12.9752 7.1648 0 12.975-5.8087 12.975-12.9752 0-7.1639-5.8102-12.975-12.975-12.975zm34.6-12.975h-10.38c-1.427 0-2.965-1.1072-3.416-2.4618l-2.683-8.0523c-.453-1.3537-1.989-2.4609-3.416-2.4609h-29.41c-1.4272 0-2.9652 1.1072-3.4159 2.4618l-2.6832 8.0523c-.4524 1.3537-1.9886 2.4609-3.4159 2.4609H49.9c-4.7575 0-8.65 3.8925-8.65 8.65V111.35c0 4.757 3.8925 8.65 8.65 8.65h69.2c4.757 0 8.65-3.893 8.65-8.65V72.4248c0-4.7575-3.893-8.65-8.65-8.65zM84.5 111.35c-11.9431 0-21.625-9.682-21.625-21.6252 0-11.9422 9.6819-21.625 21.625-21.625 11.9413 0 21.625 9.6828 21.625 21.625 0 11.9432-9.6837 21.6252-21.625 21.6252zm31.573-32.8763c-1.672 0-3.028-1.3545-3.028-3.0275 0-1.6711 1.356-3.0275 3.028-3.0275s3.027 1.3564 3.027 3.0275c0 1.673-1.355 3.0275-3.027 3.0275z" fill="#F1F1F1"/></svg>