<svg width="100" height="28" fill="none" xmlns="http://www.w3.org/2000/svg"><path d="M95.7799 27.684v-1.3694h.7335v-2.0014h-2.6722v2.0014h.7336v1.3694h-3.7201v-1.3694h.8383v-5.0562h-.8383V19.889h3.7201v1.3694h-.7336v1.7907h2.6722v-1.7907h-.7335V19.889H99.5v1.3694h-.7859v5.0562H99.5v1.3694h-3.7201zM0 19.8363h3.72012v1.3694h-.73355v1.7908h2.6722v-1.7908h-.73355v-1.3694h3.72012v1.3694H7.807v5.0562h.83834v1.3694H4.92522v-1.3694h.73355v-2.0014h-2.6722v2.0014h.73355v1.3694H0v-1.3694h.838335v-5.0562H0v-1.3694zm10.8984 3.7395v-.2633c.0524-.5794.1572-1.1061.4191-1.6328.9432-1.7907 3.1962-2.4227 5.0824-1.738.5764.2106 1.048.5793 1.4671 1.0533.1572.2107.3144.4741.4192.7374v.0527c.1572.3686.262.7373.3144 1.0533.0524.1581.0524.3687.0524.5794.1048 2.2648-1.1527 4.2135-3.5106 4.3715-1.1527.1054-2.4102-.2107-3.3009-1.0534-.7335-.8427-.9955-2.054-.9431-3.1601zm5.4492.158c0-.2633 0-.5793-.0524-.8427 0-.158-.0524-.3687-.1048-.5267-.1048-.3687-.262-.7373-.5764-.948-.1048-.0527-.2096-.1054-.3144-.158-.3143-.1054-.6811-.1054-.9955 0-.0524 0-.1048.0526-.1572.0526h-.0524c-.3667.1581-.6287.5267-.7335.8954-.0524.158-.1048.316-.1048.4214-.1572.948-.2096 2.1067.262 2.9494.4191.6847 1.4147.8954 2.0434.4214.7336-.4214.786-1.4747.786-2.2648zm4.5584-3.8975h3.0914c.8907 0 1.8338-.1053 2.6722.158.6287.2107 1.1527.6847 1.3099 1.3167.1048.4741.1048 1.0008-.1048 1.4748-.1572.3687-.4716.474-.7336.79 1.3099.474 1.4671 2.3174.6288 3.2655-.6812.7373-1.6767.8427-2.6198.8427h-4.2965v-1.3694h.8383v-5.0562h-.7859v-1.4221zm2.9866 1.3694v1.7908h.9955c.3144 0 .524-.1054.6811-.2634.1572-.158.262-.3687.262-.632v-.0527c-.1572-.158-.3667-.2633-.6811-.2633h-1.2575v-.5794zm0 3.1075v1.9487h1.1003c.3144 0 .5763-.1053.7335-.2633.1572-.2107.262-.4214.262-.6847 0-.2634-.1048-.5267-.262-.6847-.1572-.2107-.4191-.316-.7859-.316h-1.0479zm12.1035-.7374c0-.6847-.1048-1.4747-.5764-2.0014-.1048-.158-.262-.2634-.4716-.316-.3143-.1054-.6811-.1054-.9955 0-.4716.1053-.7859.5267-.9431.948-.1572.3687-.2096.7374-.2096 1.1587-.0524.7901-.0524 1.8434.524 2.4755.5239.5793 1.5718.5793 2.0958 0 .5764-.5794.6287-1.5274.5764-2.2648zm2.3578.158c0 1.2641-.4192 2.5808-1.4671 3.3182-.9955.7373-2.3054.8427-3.4582.632-2.0958-.4214-2.9865-2.2648-2.8817-4.2662 0-.3687.0524-.7374.1572-1.106.5763-2.0015 2.3578-2.7915 4.2964-2.6335 1.2051.1053 2.3055.79 2.8818 1.8961.0524.0527.0524.158.1048.2107 0 .0526.0524.1053.0524.158.2096.5793.3144 1.1587.3144 1.7907zm6.9162-1.264V21.311h-.1047-.0524-.7336c-.0524 0-.1572 0-.2096.0527-.4191.1054-.7859.4214-.9431.79-.1572.3687-.262.7901-.262 1.1588 0 .5793-.0524 1.264.2096 1.7907.5764 1.3167 2.6198 1.0007 3.7201.6847l.3144 1.4747c-1.5195.5794-3.7201.7374-5.1348-.2106-1.2051-.7901-1.4671-2.3175-1.4147-3.6869 0-.2633.0524-.5267.1048-.79.2096-1.3694.9955-2.4228 2.3054-2.8441.8907-.316 1.9387-.2634 2.8294-.1054.0524 0 .1572 0 .2096.0527.1048 0 .2096.0527.3144.0527.0524 0 .1047 0 .1047.0526.3144.0527.3144.0527.3144.4214v2.2121h-1.5719v.0527zm4.0345-2.6335h7.0211v2.6861h-1.4671v-1.3167h-2.515v1.7908l2.4102-.1054v1.4221l-2.4102-.0527v2.0014h2.6722v-1.3694h1.5195v2.7915h-7.1259v-1.3694h.786v-5.0562h-.786v-1.4221h-.1048zm13.2038 1.3694v1.3167c0 .2634 0 .5267-.0524.8427-.0524.7374-.1048 1.4221-.3667 2.1068-.4716 1.3694-1.5195 2.2121-2.9342 2.5281l-.524-1.4747c1.3623-.5267 1.7815-1.5801 1.8863-2.9495v-.3687-1.9487h-1.0479V19.889h7.545v1.3694h-.786v5.0562h.786v1.3694h-3.7201v-1.3694h.7335v-5.0562h-1.5195v-.0527zm12.0511 2.3174c.4716.6321.8907 1.3168 1.3623 1.9488.1048.158.3144.632.524.7374.2619.158.7859.0526 1.1003.1053 0 .316.1048 1.0534-.1048 1.2114-.262.2633-1.1003.2633-1.4671.2633-.4192 0-.8383-.1053-1.1003-.4213-.6288-.6321-1.0479-1.5801-1.5195-2.3175-.3668-.5266-.8907-1.106-.6287-1.7907.1572-.3687.4715-.7374.6811-1.0534.3144-.474.6288-.948.8907-1.422.4192-.6847.786-1.1061 1.6243-1.0534.3144 0 .5764.0526.8907.158.1048.0527.3144.1053.3668.158.1572.2107 0 .948-.0524 1.2114-.262 0-.7335-.0527-.9431.0526-.1572.0527-.262.3687-.3668.4741-.4715.5793-.8383 1.1587-1.2575 1.738zm-5.2396-3.6868h3.7725v1.3694h-.7859v5.0562h.7859v1.3694h-3.7725v-1.3694h.8383v-5.0562h-.8383v-1.3694zm16.0856 3.5815l-.1572.158c-.3668.316-.7335.6847-1.1003 1.0007-.4716.474-.9955.8954-1.4671 1.3694v.3687h.7335v1.3694h-3.7725v-1.3694h.8384v-5.0562h-.8384V19.889h3.7201v1.3694h-.7335v3.0021l2.9342-2.6861v-.316h-.786V19.889h3.7201v1.3694h-.8383v5.0562h.8383v1.3694h-3.7201v-1.3694h.7336v-3.0548l-.1048.158zM37.4517 4.406c-.29 1.49382 0 2.93944.9181 4.28869.9182 1.34921 2.0779 2.16841 3.576 2.45761 1.4014.2891 2.7544 0 4.0108-.8674 1.2564-.8674 1.9813-2.0239 2.2712-3.51771.29-1.49381 0-2.93944-.8215-4.2405-.8698-1.30106-2.0296-2.072059-3.5759-2.409371-1.5464-.289125-2.8994-.0481879-4.1075.770999C38.4665 1.70751 37.7416 2.864 37.4517 4.406zM53.3985 6.18893c-.3866 1.97569.0483 3.85497 1.2081 5.63797 1.208 1.7829 2.8027 2.843 4.784 3.2285 1.8846.3855 3.6726 0 5.3156-1.1565 1.643-1.1565 2.6578-2.6985 3.0443-4.62597.3866-2.07206 0-3.95137-1.1114-5.68612C65.4793 1.85206 63.933.791938 61.9034.35825c-2.0779-.3854994-3.9142-.048187-5.5089 1.06012-1.5947 1.10832-2.6094 2.6985-2.996 4.77056z" fill="#fff"/></svg>