<svg width="274" height="125" fill="none" xmlns="http://www.w3.org/2000/svg"><path d="M22.0388 16.7496l1.8367-.3317-.9184.6634-.9183-.3317zm4.0407-2.3217l.9183-.6634c-.3673-.4975-1.102-.4975-1.102-1.3267 2.755-.8292 6.6121-.4975 8.6324.1658-.1836.1659-.3673.1659-.3673.4976.7347.995 2.204.1658 3.306.3316l-1.102.4975c.551 1.3267 2.3877-.4975 2.5714.9951-.551.6633-2.2041-.9951-2.7551.4975.551 0 1.4694.6633 2.2041.6633-.9184.9951-1.6531-.4975-2.3877-.1658-.9184-1.4925-2.3877.995-2.9387-.8292-1.8367.4975-4.2244 2.9851-6.0611 1.1609-.551.6633-1.2856.1658-1.8367.1658.1837-.6633 2.0204-.995.9184-1.99zm20.7545-.1659c.7347-.1658 1.4693-.3317 2.204-.1658-.7347.1658-.9183.8292-1.653.6633l-.551-.4975c-.551.1659-.551.8292-.7347 1.3267 1.653.995 3.6734-.1658 5.1427.3317-.551.995-.9183-.3317-1.8367.1658-1.2856.3317-2.5713.3317-4.0406.1659l.7346-.6634-.9183-.995c.551-.1658 1.102-.1658 1.653-.3317zm8.9997.8292h1.1021c-1.4694.4975-3.4898.6634-5.1428.8292.7347-1.1609 2.755-.1658 4.0407-.8292zM219.298 48.2587l-.918-.1658.551-.3317.367.4975zm6.98.995c-.551.6634-1.286-.4975-2.02-.6633-.184-.995 1.102.8292 2.02.6633zm-1.286-1.3267c.184.1659.368 0 .551-.1658.184-.3317 0-.6634-.367-.6634-.735 0-.735-.3316-.918-.995 1.469-.6633 1.469 2.1559 2.755.8292-.184-.3317-.368-.3317-.735-.3317 1.102.3317 2.939-.995 4.041.8292-.919-.4975-2.388-.995-3.306-.3317-.184.1659 0 .3317.183.4976l.735.1658c-1.286-.1658-2.02.1658-2.755.4975l-.184-.3317zM55.0991 14.262l1.653-.1658-1.2857.1658h-.3673zM221.686 46.4345l-.918-.1658v-.3317c.918-.4975 1.469.8292 2.388.8292h-1.286c.184-.1659 0-.3317-.184-.4975v.1658zM46.834 10.9453c.9183-.4975 2.3877-.4975 3.1224-.1659-.9184.3317-1.8367-.3316-2.3877.3317l-.7347-.1658zm8.6324.4975l.7347.1658c-.3673.8292-.3674.6634-1.4694.4975.1837-.4975 1.2857.3317.7347-.6633zm-.551-.995c-.7347.1658-1.653.1658-2.3877.3316.3674-.4975 1.8367-.4975 2.3877-.3316zm5.1427 1.6583c-.9183-.4975-1.4693.1659-2.204.6634-.1837-.3317-.3673-.4975-.7347-.6634l3.6734-.6633c-.1837.3317-.551.3317-.7347.6633zm-4.5917-1.8242l2.204-.33165c0 .82915-.9183.49755-1.4693.49755l-.7347-.1659zm4.959 0c-.5509.1659-1.2856.1659-1.8366.3317l.1836-.4975 1.653.1658zm5.1428 1.3267c1.653-.6633 2.9387-.3317 5.3263-.3317-3.306.8292-6.061 0-9.5507.4976.1837-.8292.9183 0 1.4693-.4976.7347 1.1609 1.8367-.995 2.7551.3317zm-3.1224-1.4925l1.2857-.8292-.1837-.16584c-.1837 0-.1836-.16584-.3673-.16584h.1837v.16584c.1836.16584.5509.33167.1836.82919l-1.102.49755v-.3317zm5.5101-.99504c.1836.99504 1.2856.33168 2.0203.33168.3673 1.16086.9183-.49752 1.4693 0-.7346.82916-2.204.16583-3.306.33167l-.1836-.66335zm-2.5714 0l-.3673-.66335c.1836.16584.1836.33168.3673.33168.7347-1.3267 0 .49751.9183.16583-.1836.66335-.551.16584-.9183.16584zm7.3467-.33167c-.1836.16583-.3673.16583-.3673.49751.9183.995 2.204 0 2.9387-.16584l-.1837-.33167c-.3673-.49752.9183 0 1.2857 0-.1837.16583-.3674.16583-.3674.49751.1837.16584.1837.33167.3674.33167.1837-.16584.7347-.33167.7347-.66335l-.1837-.33167.7347.16584-.551.33167c.9183 1.32674 3.306-.49751 4.2243.82919-2.3877 1.16085-5.1427-.99503-7.5304-.16584-.1836.49749-1.102 0-1.4693 0l-.551-.82919c.1837-.66335.551-.33167.9183-.16583zm10.1018.49751l.9183.995c-.3673.4975-.7347-.1658-.9183-.49749V9.2869zm-1.102 3.1509c-.7347 0-1.653-.4975-2.3877-.1658 1.102-.3317 1.8367-.9951 2.3877.1658zm2.9387.8292l-1.4694-.3317.1837-.4975 1.2857.8292zM226.462 42.4544l-1.837-.3317v-.1658l1.837.3317v.1658zm1.102 0l.918.1658v.1659l-.918-.1659v-.1658zm6.428 1.4925l.918.1659v.1658l-.918-.1658v-.1659zM76.9556 12.7695c0 .3317-.1837.3317-.3673.4975l-.5511-.1658.1837-.4976.7347.1659zM229.768 44.4444l-.919-.6633 1.837.3317-.918.3316zm8.265.3317c1.285-.1658.551 1.1609.918 1.8242-.551.6634-1.469.6634-1.653.1659.184-.3317-.184-.4975-.367-.8292-.368.4975-.919.4975-1.286 0l-.551-.8292c.551-1.3267 1.653.1658 2.204-.8292 0 .1658.367.4975.735.4975zM68.5069 14.7595l-.9184-.1658 1.8367.1658h-.9183zm3.857 0c-.551 0-.9183.3317-1.653.1659.3673-.3317 1.102-.3317 1.653-.1659zM234.727 47.927l-.919-.1658c-.367-.3317.551-.1658.919.1658zm3.489.9951l.184.3316c-.367.3317-1.286-.995-2.02-.1658l.551.8292-2.204-.4975c1.102-.6634 2.387-.9951 3.489-.4975zM40.7729 15.257c.3674.1659 1.4694-.8291 1.8367-.1658-.9183 0-1.102 1.1609-1.8367.1658zm-5.3263 1.8243h-1.2857c.551-.6634.551 0 1.2857 0zm59.1412-2.4876l.9183-.6634.9183 1.1609-1.8366-.4975zm122.1392 19.403c.551-.4975 2.02.6633 2.755-.1659-.551 1.1609-1.837 0-2.755.1659zm-2.571-1.8242v-.3317l.918.1658v.3317l-.918-.1658zm-5.143-1.3267c1.286-.1659 2.939.3317 4.775.6633-1.653.9951-2.938-.6633-4.775-.6633zm12.49 2.3217l-4.225-.6634c1.837.3317 2.755-.4975 4.225.6634zm17.081 2.3217c-.184-.1658-.184-.4975 0-.8292l.551.3317c-.735.1659.367.8292-.551.4975zm-15.612-3.1509l.184-.4975c.367.8292 1.285 0 1.836.1658-.551.4975-1.285.6634-2.02.3317zm-.367-.6633l-1.102.3316c.183-.4975.734-.3316 1.102-.3316zm11.203 1.8242c-.367-.4975.368-1.1609-.367-1.6584l.918-.3317c1.102.3317 3.123.6634 4.041 1.6584-.918.3317-2.204.4975-3.306.6633.184-.1658 0-.3316-.184-.4975-.367 0-.734.3317-1.102.1659zm-5.51-1.6584l.368-.1658-1.47-.4975c.919.3316 1.837.1658 2.204-.6634l-.183.4975 2.02.6634c-.735.3316-1.837.4975-2.939.1658zm-11.755-3.3168l.551-.3316-.183-.3317c-.184-.1658 1.285-.6634 1.836.1658-.183.1659-.367.1659-.367.4975l1.102.4976c-.551.4975-1.469.995-2.204.8291.551-.995-.551-.995-.735-1.3267zm-.367-1.6583l.918.1658c-.367.3317-.734.3317-1.102.3317l.184-.4975zm6.612.995c.368 1.1609 1.837-.6634 2.204.995.368-.1658.919.4975 1.47.8292h.734c-.183.1658-.551.1658-.734 0l-1.102.1658v.1659c-1.286 1.1608-2.939 0-4.409-.1659.368-.1658 0-.8291.552-1.1608-.184-.6634-1.654 0-1.286-.995l2.571.1658zm14.694 3.1509v.3317l-.919-.1658v-.1659h.919zm6.061 1.8242v.1659l-.919-.1659V32.67l.919.1658zm13.04.1659c.184-.8292-.551 0-.551-.6634.367.1658 1.286 0 1.102.8292l-.551-.1658zm-8.632-5.141l.183.3317c-.183.6633-.918.6633-1.469.4975l1.286-.8292zm-19.285-3.3167v-.1659l2.02.3317v.3317l-2.02-.4975zm-6.061-1.1609c0-.6634 1.102-.4975 1.653-.6634l.183.3317c-.367.1658-.918.8292-1.836.3317zm10.285.8292l-.184.4975c-.367-1.1609-1.285.6633-1.836-.3317l2.02-.1658zm-4.592-1.3267c.368-.6634.735.3316 1.286.4975-.551-.1659-1.102 0-1.286-.4975zm-8.081-1.4926l-.368-.6633c.184-.1659 0-.3317-.183-.4975-1.47.3316-3.674-.8292-5.51-1.1609-.184-.3317-.368-.8292-.919-.6633.735-.8292 2.388.3316 3.49-.1659l-.184.4975c2.204-.3316 3.49 1.9901 5.327 2.1559-.184.1659-.919.995-1.653.4975zm7.163-1.8242c-.184.1659-.367.1659-.367.4975.918.4975-.368.4975.367 1.1609l2.755.4975c-1.102.6634-2.571-.8292-3.857 0-.551.1658-1.653-.6633-2.388-.995-.367-.1659 1.47-.3317.919-.8292.918.8292 1.102 0 1.836 1.1609.368-.4976.551-2.3218.735-1.4926zm3.673 3.6484l-.551-.6633.735.1658-.184.4975zm4.041-.4975c-.735-.3316-1.286-.1658-1.837.3317.184-.3317-.183-.4975-.183-.6633h-.551c-.184.3316.183.6633.183.995l-.734-.1659c-.368-.4975 0-.6633.551-.8291 0 0 .183-.1659.367-.1659v.1659c.735 0 1.653 0 2.204.3316zm.367.8292c0 .3317-.551.3317-.918.3317l.184-.4975.734.1658zm13.041 3.1509c-.919-.3316-1.837-.3316-2.572-.3316 0 .1658-.183.1658-.183.3316 0-.1658 0-.3316-.368-.3316l.919-.3317 2.204.6633zm7.897 1.3267c-.183.6634-1.469-.4975-1.653.4975l-.551-.1658.551-.3317-.183-.3316 1.836.3316zm-6.979-.3316c.184-.1659.367-.1659.367-.4976-.183-.1658-.367-.1658-.734-.3316l1.469.4975-1.102.3317zm-2.571-.1659c-.184 0-.184 0-.368.1659 0 0 0-.1659-.183-.1659h-.551c-.184-.1658 0-.4975.183-.6633 0 .3316.368.4975.551.6633h.368c.551-.1658 1.102-.1658 1.836 0h-1.836zm-40.958-8.9552c-.368 0-.735 0-.184-.1658l.184.1658c.367 0 .918.1658.918.4975-.367.1658-.735 0-.918-.4975zm47.937 20.8955l-1.102.4975c.367-.1658.367-.3316.367-.6633l.735.1658zM249.42 87.728v-.3317l-1.102-.1658v.3317l1.102.1658zM11.2024 19.2371c-.1837 1.1609 1.4693 1.3267 1.8366 1.3267-.9183-.3316-.9183-1.6583-1.8366-1.3267zM5.14133 57.5456c.18365.1658.18362.6634.55096.6634l.18369-.4976-.73465-.1658zm.91833 4.1459l-.18368.8292.36734-.6633-.18366-.1659zM34.8956 14.4279l.9183.1658.3673-.1658h-1.2856zM66.8538 4.31177l.9184.16584v-.16584h-.9184zm24.4279 4.14594h.7347c0-.82919 1.2857 0 1.102-.33168-.7347-.82918-.7347.66336-1.8367.33168zm5.3264-3.48259c-.551-.33167-2.204.16584-1.2857 0 .1837.66335.9184.16584 1.2857 0zm-.1837 3.31675c-.551.16584-1.102.16584-1.2857-.16584 0 .49752.551.33168.9184.49752 0-.16584.1837-.33168.3673-.33168zm.3673-.16584c.7347 0 1.2857.49752 2.2041-.16583-.3674-.33167-1.2857 0-2.2041.16583zm2.7551 0l.3673.82919.3669-.16583-.7342-.66336zm.7342 2.48757l.735.1658c.184-.3316-.551-.6633-.184-1.16083l-.551.99503zm-2.9382-4.14594c.7347 0 2.5713-.16584 2.0203 1.16086 2.2039.33168-.7347-1.49254.3674-1.99005.3675 1.65838 2.2035 0 2.2035 1.99005.735-.49751 1.102-1.49253 2.205-1.65837-2.572-.16584-3.674-.82919-5.6942-1.3267l.1836 1.16086c-.3673.99503-1.4693-.33167-1.653.66335h.3674zm7.5302-.16583c.551 0 1.47.82918 2.021.16583 0 .49751.551.33168.918.49752l-.184 2.32172 1.102-.82919-.551-.16584c.184-.33167.368-1.49253 1.102-1.82421.368.49751 1.102.16584 1.47.82919 0 .33167-.184.33167-.368.49751.735 1.16086 2.388-.33167 2.572.99503l.551-.33168c.551 0 .734.33167.918.66335 2.939-.66335 2.939 3.98014 5.694 2.15584l-.735.1659c-1.102-1.65839-3.857-1.65839-4.224-3.64844-.368-.16584-.919 0-.919-.49751l2.021-.16584c-.368-.16583-.919 0-.919-.49751l1.286-.33167-4.224-.66336c-.551-.16584-1.286-1.3267-1.837-.16583-.918-.16584-1.653-.82919-2.204-1.49254-.551 1.82421-2.388.82919-3.674 1.16086l.184 1.16087zm22.408 10.61357c.183-.4975.183-.8292-.184-1.1608l-.184.8291c0 .1659.184.3317.368.3317zm.734-6.6335l.735.1659.551-.1659h-1.286zm-7.897-3.6484c-.919.33167-3.123-.82919-3.123.66335l.368-.16584-.184-.33167c.184-.49752.735 0 1.102 0 1.102 1.16086 3.49 1.16086 5.143.49751.551 2.6534 2.204 1.99005 4.04 2.81925l.184-.49753c-.184-.16584-.184-.33167-.367-.33167-.551.49751-2.021-.49751-2.939-.82919.184-.99502 1.469.16584 1.653-.49751-.184 0-.367-.16584-.367-.33168l.551-.33167c1.653-.33168 2.938.82919 4.04.33167l-3.673-.99502.184-.66335-1.102 1.16086c-1.47-1.49253-1.837-.33168-3.49-1.49254l.367.82919c-.551.99503-1.653 0-2.387.16584zm9.918 7.131l.918-.6633-.918-.1659c.183.3317.183.4975 0 .8292zm8.816-6.30182l1.102.16584v-.33167l-1.102.16583zm-5.143.33168c-.551.99503-2.02 1.82421-2.571 1.82421l.183.33168c-.551.66335-1.102 0-1.653.49755 1.102.1658 2.021.4975 3.123.3316.551-.99499 2.02-.82915 2.938-.6633h-.183c-.184-.49753-1.47-.33169-1.102-1.32671 1.102 0 2.204-.33168 3.306.16583 1.102 1.16088 1.836.16584 3.122.33168-1.469-.66335-3.306-.99503-4.592-1.99005 0-.33168.368-.49752.735-.66335.184 0 .367.16584.367.33168l.368-1.49254c-.368.99502-1.47.49751-2.204.82919-.551 1.65837-2.572.49751-3.857.82918.918.33168 1.653-.33167 2.02.66335zm7.163 1.82421v.33168l.735.16585c.183.3317.367.6633.734.1658l-.734-.1658c-.184-.33169-.368-.66337-.735-.49753zm4.041-.99502c.184 0 .184 0 .367.16584 0 0-.183-.16584-.367-.16584-.551-.16584-1.102 0-1.286-.82919.184-.99502 1.47.16584 1.653-.49751-.551-.16584-1.285 0-1.653-.66335l-.183.49751c-.368.16584-.735.66335-1.103.49751 2.021-.16583-.367 2.48758.735 3.48258.551.1658 1.47 0 1.653-.6633l-.183-.3317h1.285c-.918 0-1.469-.16585-2.204-.66336 0-.82919.919-.82919 1.286-.82919zm2.755 2.65335c.184.8292-.367 1.9901-1.469 1.9901l.367.1658c1.286-1.8242 1.837 1.1609 3.306.1659-.551-.3317-1.837 0-2.204-.9951.184-.6633 1.102-.8291 1.102-1.6583-.367-.1659-.551.1658-.918.3316-.919-.1658-.184-.8291-.551-1.1608.183-2.81925 3.122 1.4925 3.673-.8292l-2.388-.82919c.184-.16584.368-.33167.551-.16584l-1.469-2.6534c0 .49751.735 1.32671-.367 1.49254l-.368-.66335c-.183 1.82421-1.102 3.81424.735 4.80924zm5.326-3.15087l.919.16584c0-.33167-.735-.82919-.919-.16584zm3.857 3.48257h-1.469c.367.6634 1.286 0 1.469 0zm1.653-.995c-1.285-1.99005-5.142 0-5.877-1.49254 0 .33167-.184.33167-.367.49751.551.82923 2.571.33168 3.857.49753.551 1.6584 1.102 0 2.387.4975zm1.837 1.1609l-.367.4975.734-.1659-.367-.3316zm-.367 6.9651l-.368-.6633c-.183.1658-.734.3317-.734.6633.551 0 1.102.4975 1.102 0zm2.571-5.8043c-.184 0-.367-.1658-.367-.3317l1.285-.995-.551.1659c-.918-1.1609-2.204-1.1609-3.122-1.3267.367.1658 1.102 0 1.102.4975l-.367.1658.551.4975.183-.6633c.368 0 .551 0 .735.3316-.184.1659-.367.1659-.367.4976.183.6633.367 1.1608-.368 1.3267.735-.1659.551.6633 1.102.8291l.184-.995zm3.857-.8292c.551 0 1.286.1659 1.469-.6633-1.102-.8292-1.285 0-1.469.6633h-.367c.183.1659.183.1659.183.3317-.183.4975-.367.8292-.918.6634l.918.995c.368-.1659 1.286-.4975.919-.3317-.551-.3317-.368-.6633-.735-1.1609v-.4975zm1.653.1659c.184-.3317.551-.1659.735-.1659l-.184-.3316-.551.4975zm1.837 1.1608l-1.102.4975.551.1659c0-.3317.551-.3317.551-.6634zm4.591 7.2969l-1.653-.6634.368.6634c.367.1658.918.4975 1.285 0zm1.837-1.1609v.1659l1.102.3316v-.3316l-1.102-.1659zm3.306-5.4726l-6.245-.4975c-.551 1.1608-1.285-.6634-1.836.1658-.551.8292-.735-.8292-1.102.3317.918-.3317 1.102 1.1608 1.836.1658l.184.3317.551-.3317c1.653-.1658 2.388 1.3267 3.306.1659.735 1.3267.551.4975 1.653.6633-.184 0-.367-.1658-.367-.3317.734-.8292 1.836.1659 2.02-.6633zm-2.02-1.8242c.918.995 1.653-.1659 2.387.1658l-.183-.4975c-1.286.1658-2.572-1.4925-4.041-.4975-.184-.4975-1.469-.3317-1.102-1.3267l-.551-.16585c-.367 1.99005 2.571.99505 3.49 2.32175zm2.571 2.8192l.735.1658v-.3316l-.735.1658zm-1.653 4.9751c.367.6634 1.469 0 1.653 1.1609.367-.995-.918-1.4925-1.653-1.1609zm5.694-5.6384l-1.653-.6634.184.3317 1.469.3317zm-3.123-2.6534c.551 1.99 3.49 1.4925 4.776 1.8242-.184-.9951-1.469.4975-1.102-.8292-1.102.995-2.571-.4975-3.123-.3317 0-.3317 0-.6633-.551-.6633zm3.674 3.9801v.1658l1.469.3317v-.3317l-1.469-.1658zm2.02 6.7993c-.734-.1658-.183-.8292-1.102-.8292-.367.1658-.367.3317-.367.6634.367-.1659 1.102.995 1.469.1658zm0-9.4527l.735.1658c.367.1658 1.102.1658.918.6633 1.286.3317 2.755.3317 3.49 1.4926.184-.995 1.469-.3317 1.653-.6634l-3.306-1.1608.184.3316-.368.1659c-1.102-.1659-2.02-.8292-2.387-1.8242.367.8292-.735.4975-.919.8292zm7.163 5.6384l-.918-.4975.184.3317.734.1658zm.735-1.99c-.735 1.3267-1.469-.995-2.388.3317.551-.1659 2.204 1.1608 2.388-.3317zm.367-1.8242l.551-.1659h-1.285l.734.1659zm1.653 9.2869h-1.469l.918.1658.551-.1658zm1.102-9.4528l3.49.4975v-.1658c-.918-.1658-3.306-1.1609-3.49-.3317zm4.225.6634l1.102.4975 1.102-.3317-2.204-.1658zm1.653 8.6235l-.919-.1658c0 .4975.551.3317.919.4975v-.3317zm2.938-8.2918h-1.285c.367.1658 1.102 0 1.285.4975v-.4975zm1.653 6.6335l.184.3316.367-.3316c-.367.1658-.918-.8292-.551 0zm3.857.4975c-.734-.3317-1.469-.1659-1.836.3316.551-.1658 1.469-.1658 1.836-.3316zm.919-.8292c-1.837-1.1609-4.959-.6634-6.98-1.3267l-.183.4975.551.1658c2.755-.3316 3.673.6634 6.612.6634zm-1.47 4.3118c.368 0 .368.4975.551.6633l.184-.4975-.735-.1658zm2.204.995v-.1659l-.734-.1658c0 .3317.367.3317.734.3317zm-.367 2.3217c.184-.1658.918-.3317.184-.8292l.551-.3317-.919-.6633c-.183.995-1.285-.1658-1.469.4975 1.102-.3317 1.102.8292 1.653 1.3267zm2.204-10.6136l.184.3317.734-.1659-.918-.1658zm2.388 5.3068l1.836.1659c-.367-.6634-1.469-.3317-1.836-.1659zm6.428 5.3068v-.3317l-.734-.1658v.1658l.734.3317zm12.673-7.7944l-.918-.6633.367.4975.551.1658zm-4.408 26.6999c.184.1658.184 0 0 0 .184 0 .184 0 0 0-.183-.1659-.551-.4975-.734-.6634l1.653.3317c-.184.4975.551.6634.918.6634-1.102-.1659-2.204.4975-3.306.6633l.184.3317-4.041-.3317c.184-.3317-.184-.4975-.367-.8292.551.6634.918.8292 2.02.6634l.367-.6634c-.367-.4975-1.102-.3317-1.653-.6633l2.204-.1659-.367.1659.367.6633 1.47-.8292-.184-.3316.918.1658c-.183 0-.183 0-.367.1658-.184 1.1609.551.6634.918.6634zm.184 21.5589v-.1659l-1.286-.1658v.1658l1.286.1659zm3.673 4.6434l.184-.4975-.918.3317.734.1658zm5.694-22.8856l.184-.3316-1.286-.4976 1.102.8292zm2.204.1659l-.918-.4975-.184.4975h1.102zm-.551 2.1558l.184.3317-1.47.8292.184.3317c0 .4975-.367.4975-.551.995l.735.1659c-.184-.6634 1.285-1.4926 1.285-2.1559l.551-.3317c0-.8292-.551-.3317-.918-.1659zm1.837-1.6583v-.1659l-.735-.1658v.3317h.735zm2.755 2.3217c-.919-.3317-2.021-1.3267-2.939-.8292 1.102.8292 2.02.6634 2.939.8292zm-.735 2.3217l.551-.1658h-1.469l.918.1658zm1.837-5.4726c-.551-.1658-1.286.8292-2.021.8292.735 1.3267 1.102-.995 2.021-.8292zm.734-.3317l.735-.4975-.551-.6633c-.551.4975-.735.8291-.184 1.1608zM149.137 14.9254l-.551-.1659c0 .1659 0 .3317.184.4975.184 0 .367 0 .367-.3316zm-47.203-1.3267c-.183-.1659-.183-.3317-.367-.4975 0 .1658.184.3316.367.4975zm154.833 30.1824l.734.3317c.184 0 .551 0 .735.1658v-.1658l-.735-.1659v-.1658c.184-.3317.551-.1658.919-.1658-.368-.9951-1.286.4975-1.653.1658zm-14.51 62.6869c.367.165.551.497.918.663.184 0 .368 0 .551-.166v-.332l-.551.498c-.183-.332-.367-.829-.918-.663zm9.734-44.1131v-.3317l-1.653-.1658v.3317l1.653.1658zm-7.163 24.0464l1.286.4975v-.4975c-.184-.3316-1.102-.6633-1.286 0zm-.183.8292l-.184.4975c1.102-.3316 2.204.1659 3.122-.6633-1.285 0-1.836.6633-2.938.1658zm-3.857 19.4025v-.331c-.184-.166-.368-.664-.735-.664l-.184.83.919.165zm6.979-37.9763l-.735-.3317.735.6634v-.3317zm-2.204 12.7695l-.735-.1658-.367.1658h1.102zm-1.102 9.2869v0c0-.1658.184-.1658.367-.3317.184-.8292-1.653-1.4925-.367-2.1559-.551 0-1.102-.4975-1.469-.8292l1.285-.6633-.734-.8292-.184.8292c-.735.6633-1.102-.6634-1.837 0l1.102.4975-.551.4975h.551c.551.3317 2.021.6634 1.286 1.8242.551-.1658.735.6634.551 1.1609zm-9.367-2.1559v.3317l2.204.3317v-.3317l-2.204-.3317zm-5.51 15.0908v-.331l-1.653-.166v.332l1.653.165zm3.306-34.8254l-.184-.3317c-.183.3317 0 .3317.184.3317.367 0 .918 0 1.102.1658 0 .3317.184.4975.367.6633 0-.3316-.183-.4975-.367-.6633 0-.3317.184-.6634.551-.6634-.184-.995-1.653.6634-1.469-.8292l-1.837-.3316 2.02.995c0 .3317 0 .6634-.367.6634zm-9.367 28.0265l1.102-.3317h.184c.183.1659.551.4975.367.8292 1.102-.4975 1.469.1658 2.571-.1658l-2.755-.6634v-.1658h-1.469v.4975zm-3.49 4.6439v-.332l-.735-.166v.332l.735.166zm8.633-62.687v.3316c-.368-.1658-.551-.3316-.735-.4975.184 0 .367.1659.735.1659zm-6.061 33.3333c-.368-.6633-1.102-.3317-1.47-.1658-.184-.1659-.184-.1659-.367-.1659 0-.1658-.184-.1658-.184-.4975l-.551.4975c.367.1659.551 0 .735 0 .183.1659.183.1659.367.1659 0 0 .184.1658.184.3316.367 0 1.102.3317 1.286-.1658zm-7.715-1.6584v-.1658c.551-.1658 1.286-.4975 1.286.4975l-1.286-.3317zm27.918-28.524c.184 0 .184 0 .367.1658-.183 0-.183.1659-.367.1659v-.3317zm-2.02-.3317c.183 0 .183 0 0 0 .183.1658.367.1658.367.3317 0-.1659-.184-.3317-.367-.3317zm10.101 1.8242l.919 1.1609c-.368.1658-1.286.6633-2.021.1658v-.4975c-.367 0-.551-.1658-.918-.3317-.367 0-.735.1659-.918-.1658.367 0 .734 0 .918.1658.367 0 .918-.1658.918.3317.368.3317.735.1658 1.102-.8292zm2.204.995l-1.285-.1658c.367-1.1609.551.4975 1.102-.3317-.184.1659 0 .3317.183.4975zM223.89 34.66c-.367.1659-.734.4976-1.102.6634-.734 0-1.285-.1658-1.837-.8292.919-.4975 1.837-.1658 2.939.1658zm6.245 3.8143l.551.8292c-.551 0-1.286 0-1.837-.3317v-.3317c.368 0 .551-.1658.919-.3316.183.1658.183.1658.367.1658zm2.02 1.1609h-.367v-.3317c-.184 0-.184-.1658-.367-.3317.551.1659.918.1658 1.653.6634h-.919zm4.959.8291c0 .1659.184.3317.184.3317-.735-.1658-1.653-.3317-2.388-.8292.735-.1658 1.47.3317 2.204.4975zm2.755.1659c-.183 0-.367-.1659-.551-.1659-.367.6634.735.6634.735.9951-.367-.1659-.918-.1659-1.469-.3317-.184-.1658-.184-.3317-.184-.4975.184 0 .551-.1659.735-.4975.183.1658.734.1658.734.4975zm5.51 2.1559c-.367 0-.734-.1659-1.285-.4975h-.184l.184-.1659c.551.1659.918.1659 1.285-.1658l.551.1658v.1659h.551c-.367.1658-.734.3316-1.102.4975zm3.674-.1659h-.184l.184.3317-.919.6634-.367-.6634-.184.4975c-.183.3317-.551.1659-.918.1659-.184-.1659-.367-.3317-.367-.6634.183-.1658.367-.3317.551-.1658l.183-.4975 1.837.1658s0 .1658.184.1658zM10.6514 89.7181l-.73471-.6634c0 .3317 0 .6634-.36734.6634-.18366-.1659-.73468-.8292-1.10202-.3317l-.18366.4975 1.10199-.1658h1.28574zM6.05966 66.6667c0 .4975.551.995.73465 1.4925l.36734-.1658c0-.6634.00003-1.6584-1.10199-1.3267zM235.461 55.3897l-.183.6634.183.1658c-.183-.1658-.367-.1658-.551 0v-.1658c0-.3317 0-.6634.184-.8292l.367.1658zm-.734-.1658h.734l-.367.1658c-.184 0-.184-.1658-.367-.1658zm8.999 3.3167l-.183.8292-.735-.1658h.184c-.184-.1659-.368-.3317-.735-.3317v-.1658c.184-.1659 0-.3317-.184-.4975h-.551c1.102-1.1609 1.102 1.3267 2.204.3316zm2.939 2.8193v.3316l-1.102-.1658v-.3317l1.102.1659zm-7.347-3.3168l-.918-.1658c.367 0 .735.1658.918.1658zm-10.652 5.4727c0 .4975-1.47-.3317-2.021-.4976l2.021.4976zm2.938.8291l-1.836-.4975c.367 0 .734-.1658.918 0-.367-.1658-.918 0-.918-.3316 0 0 .183-.0001.183-.1659.184.3317.919.3317 1.653.4975-.183.1659-.183.3317 0 .4975zm1.286.3317l-1.286-.3317c0-.1658.184-.3316.184-.4975.367.1659.918.3317 1.102.8292zm-2.939.8292l-1.836-.4975v-.3317l1.836.8292zm.551.1658l1.47-.1658c-.551.1658-1.102.6634-1.47.1658zM220.4 64.3449h.368c-.184.1659-.368.1659-.368 0zm1.654.9951c-.368 0-.551 0-.919-.1659.368 0 .551 0 .919.1659zm2.204-.3317v.3317h-.735c-.184-.1659-.367-.3317-.735-.3317.551-.1659 1.102 0 1.47 0zm1.285.995l1.102.1659-.183.1658c-.368-.1658-.551-.1658-.919-.3317h-.367l.184-.3317.183.3317zM8.44733 45.2736c-.551-1.6583.91836-1.8242 2.20407-1.8242 0 .1659-.1837.4975-.3674.8292l-.91834-.1658c.18366.1658.18372.4975.36737.6633l-1.2857.4975zM120.852 70.9784c.184.1659.184.3317.551.3317l-.918.3317c.367 0 .367-.3317.367-.6634zm14.694 1.1609c.183 0 .367 0 .367.1658l.551.3317c-.551 1.1609-.367.1659-.551-.3317l-.367-.1658zm107.262-9.4527c-.918.1658-2.02.8292-2.755.1658.184-.3317.551-.4975.735-.6633.734 0 1.469.1658 2.02.4975zm-20.754 3.8142c.734 0 1.285 0 2.02.1659.367.1658.735.3316 1.286.3316-.368 0-.551.3317-.919.6634-.918-.4975-2.571.4975-2.387-1.1609zm-206.26-5.9701c2.0204-.1659 4.2244-.8292 6.4284-.6634-1.8366.4975-4.408.6634-6.4284.6634zm231.238-2.6534l-.367-.8292c0 .3317 0 .6633-.367.6633.367.1659.918 0 .734.1659zM11.7534 75.7877h-.551c-1.65305-.4975-1.4694 1.1609-1.28571 1.8242.36731-.6633 2.20401-.6633 1.83671-1.8242zM8.44733 100.995c.18365.166.18368.498.55102.498v-.332l-.55102-.166zm1.10202 2.985l-.18369.498.36737-.498h-.18368zm2.75505-10.7793l-.551.1658c-.3674-.6634-1.102-.995-1.653-1.3267.551-.6634 1.653-.8292 2.204-.8292-1.2857-.8292-2.0204.1659-2.75505.6634-.18366-.1659-.36734-.3317-.551-.4976-.18368 0-.36734.1659-.36734.3317.36734 0 .551 0 .73465.1659-.18365.1658-.36731.1658-.73465.1658-.18365-1.8242-3.12237-.3317-4.22439-1.1609-.18366-.6633.73471-.6633.73471-1.1608-1.28568-1.1609-2.57138.995-3.48972 1.3267-.18368.995-1.469359 1.6583-1.65301381 2.4875C3.12097 92.7031 6.05966 91.874 9.54935 92.5373c0 0 .00003-.1658.18368-.1658l.18366.1658c-.18369 0-.36734.1658-.36734.3317.73465 0 .91835.3317 1.28565.8292.7347-.1659 1.2857-.3317 1.4694-.4975zm10.8364 8.9553l.3673-.166h-.9183l.551.166zm35.999 7.628v-.165h-.7347l.7347.165zm18.9178 6.966l1.2857.497c-.3674 0-.9184-.663-1.2857-.497zm2.5714-.332l-1.1021.332.1837.165c.3674-.165.9184-.165.9184-.497zm4.2243 1.161h.9184c-.3674-.166-1.102-.498-.7347-.829-.1837.165-.3673.663-.1837.829zm10.4691-6.136c.7347-.332 1.8367 0 2.755-.166l-2.5713-.166-.1837.332zm18.3666.331c2.755 0 7.531.664 9.184-.165-1.102-.332-2.021.165-2.939-.332-1.837.995-4.775-.663-6.245.497zm9.735.332c.367-.497.918 0 1.285-.166l-1.102-.331-.183.497zm3.489-.166c-.367 0-1.102-.331-1.653 0 .184-.166 1.286.166 1.653 0zm6.061.332c-1.102-.166-1.836-.166-3.122-.166l3.673.498c.551-.166 1.47-.332 1.837.165.367-.165.735-.331.551-.663-.918 0-2.204.498-2.755-.497 0 .165 0 .497-.184.663zm14.694.829c-.184-.166-1.102-.166-1.286 0 .368 0 .919.332 1.286 0zm9.918.829c-1.469-.331-2.755-.331-3.306-.165.918.331 2.204.165 3.306.165zm42.06-34.6597c0 .4975-.551.1658-.918.1658v-.3316l.918.1658zm18.183 34.8257v-.166h-.735l.735.166zm2.02-4.477v-.166l-1.102-.166v.166l1.102.166zm3.674-10.9457l.184-.1658-.735-.3317.551.4975zm0 14.2617v-.331l-.735.331h.735zm4.041-16.4176l.183-.1658-1.102-.3317.919.4975zm-1.102 2.8193l-.551.3316c.918.3317.918-.1658 1.469-.3316-.551-.4976-.918-.3317-1.469-.1659.367-.1658.367 0 .551.1659zm2.938-1.1609l.184.1658-1.286.4975.184.1659c0 .3316-.367.3317-.367.6633l.734.1659c-.183-.4976 1.102-1.1609 1.102-1.4926l.551-.3316c-.367-.3317-.918 0-1.102.1658zm.919-1.3267h.183-.183zm3.306 1.8242c-.919-.1658-1.837-.995-2.755-.6633.551.3316.918.3316 1.469.4975-.551.1658-.184.8292.184.995v-.995c.183 0 .551 0 1.102.1658zm-.551 1.6587l.551-.166h-1.47l.919.166zm1.285-3.9804c-.551 0-1.102.6633-1.836.6633l.183.1659c-.367 0-.734 0-1.102.1658l-.734-.8292c0 .1659-.184.3317-.184.3317l-.551-.1659v.1659c-.551-.3317-.918-1.1609-1.469-.6634l.551.1659-.368-.1659v.3317h.735l.367.1658-.734.6634c.734.1658 1.285-.6633 2.204-.1658 1.836 1.1608 3.489.995 5.326 2.1559l-1.102.3316c1.653-.1658.367.8297 1.469 1.3267l.368-.663c.367 0 .551.663.918.995.184-.166.735-.332.735-.664-.368 0-.551-.497-.735-.663 0 .332 0 .663-.367.663.183-.663-.735-.8288-1.102-1.1605.551-.4975 1.285.1658 1.653-.3317 1.102 1.3272 4.224.4975 4.591 2.3222-.918.663-1.102-.498-2.204-.332.368.497 2.204.332 1.47 1.327.367.829.918-.332 1.285.497.919.995 1.102-1.327 2.388-.497l-.918-.995.734-.166c.735-.166 1.47-.166 1.286-.829h-.551l.184.331-.368.166c-.734-1.8242-2.938.995-3.673-.995-.367.166-.551.498-.918.332-.184-.166-.368-.332-.184-.4978-.918-.1659-2.204.4978-2.571-.8292-2.204.1658-4.225-1.1609-6.245-1.4926.551-.4975.918-1.1608 1.469-1.1608zm.735-.1659l.551-.3316-.551-.4975c-.367.3316-.551.4975 0 .8291zm.735-3.6484l.734.1659v-.1659l-.734-.1658v.1658zm2.571-.1658l-.918-.1659.551.6634c.367-.1659.183-.3317.367-.4975zm3.673-1.3267v-.1659l-.918-.1658c0 .3317.551.1658.918.3317zm-71.63 17.7442l-.184.166.367.166-.918-.332c.184-.165.551 0 .735 0zm32.142.995c.367 0 1.653-.663 1.653.166l-1.653-.166zm3.857-3.316c1.102 0 2.571-.664 3.673 0-.735.663-2.571.497-3.673 0zm-2.388-1.659c.735-.497 1.653-.166 2.755-.331.184.663 1.102.663 1.653.497.735-.166-.367-1.161.918-.663-1.285.331.184 1.326-1.285 1.326v-.331c-1.653-.829-2.388-.332-4.041-.498zm2.02-10.7792l-.918-.1658.551-.3317.367.4975zm6.612.4976c-.551.4975-1.102-.3317-1.836-.4976-.368-.4975.918.8292 1.836.4976zm2.388.1658l.367-.4975c0-.1658-.183-.1659-.367-.1659 0-.1658-.184-.1658-.184-.1658h.919l-.184.1658.367.4976 1.286-.4976-.184-.1658.735.1658c-.184 0-.184.0001-.367.1659.183.6633.918.3317 1.285.3317h0c-.183-.1659-.551-.3317-.734-.4976l1.469.1659c-.184.3317.551.4975.918.4975h-1.102c-.183-.1658-.367-.1658-.734-.1658-.184.1658-.551.1658-.551.4975-.184 0-.368.1658-.735.1658l.184.1659-3.857-.1659c.183-.3317-.184-.3317-.368-.6633.735.3316.919.3316 1.837.1658zm-.735-1.99c.735 0 1.47-.0001 2.021.6633-.368-.1658-.919-.3317-1.47-.4975h.368l-.919-.1658zm-2.938.995c.183.1658.367 0 .551-.1659.183-.1658-.184-.4975-.368-.4975-.734 0-.734-.3317-.734-.6633 1.469-.4975 1.469 1.4925 2.571.4975-.184-.1659-.367-.1659-.735-.3317.368.1658.919 0 1.47 0 0 0-.184 0-.184.1659-.184 0-.367.1658-.551.1658-.184.1658 0 .3317.184.3317l.734.1658c-1.285 0-1.836.1658-2.571.3317h-.367zm-2.755-.8292c-.184 0-.184 0 0 0zm0-.4975c.367.1658.734.3317 1.102.3317h-.919l-.183-.3317zm3.857-2.6534l-1.653-.3317v-.1658l1.653.3316v.1659zm1.102 0l.918.1658v.1658l-.918-.1658v-.1658zm6.061.995l.918.1658v.1659l-.918-.1659v-.1658zm-4.041.3317l-.918-.4975 1.653.1658-.735.3317zm7.714.3316c1.102-.1658.551.8292.919 1.3268-.368.4975-1.286.4975-1.47.1658.184-.3317-.183-.3317-.367-.6634-.367.3317-.918.3317-1.286 0l-.184-.1658h.735v-.3317l-.918-.1658-.184-.1659c.367-.995 1.47.1659 2.021-.6633 0 .4975.367.6633.734.6633zm-2.939 2.3218l-.918-.1659c-.184-.1658.551-.1658.918.1659zm3.307.6633l.183.1659c-.367.1658-1.285-.8292-1.836-.1659l.551.6634-2.021-.3317c.919-.4975 2.204-.6634 3.123-.3317zm-4.225 6.1365l-.735-.166h.919l-.184.166zm.735-12.4383c1.286-.4975 2.939.995 3.857 0 .367.1658.735 0 .918.3317-.183-.1659-.367 0-.551.1658 1.102.3317 1.47.4975 2.204.995-1.836-.995-4.224-.6633-6.428-1.4925zm-6.612-1.1609c.551.1659 1.102.1659 1.836-.1658 1.286.6633 1.837.1658 3.123.8292h-2.204v-.1659c-.735.1659-1.837.0001-2.755-.4975zm17.632 2.6534c-.918.1659-1.102.4975-2.204.1659l-.184-.1659c-.367.3317-.918.3317-1.285 0-.368-1.4925 1.653.6634 2.571-.3316l1.102.3316zm-28.285-5.9701c.551-.3317 1.837.4975 2.388-.1659-.184.9951-1.47.1659-2.388.1659zm-2.388-1.1609v-.1658l.919.1658v.1659l-.919-.1659zm-4.775-.995c1.286-.1658 2.755.3317 4.408.4975-1.102.4975-2.02 0-3.122-.3317v-.1658h-1.286zm11.755 1.6584l-4.041-.4975c1.653.1658 2.388-.3317 4.041.4975zm15.795 1.6584c-.183-.1659-.183-.3317-.183-.4976l.734.3317c-.734-.1658.368.3317-.551.1659zm-14.51-2.3218v-.3316c.368.4975 1.102 0 1.653 0-.367.4975-.918.4975-1.653.3316zm-.367-.3316l-.918.1658c0-.4975.551-.3317.918-.1658zm10.285 1.1608c-.367-.3317.184-.8292-.367-.995l.918.3317c.368 0 .551-.1659.919-.3317.918.1658 2.02.3317 2.571.8292-.734.3317-2.02.4975-2.939.4975.184-.3317 0-.4975 0-.4975-.367 0-.551.3317-1.102.1658zm-2.571-1.3267l.367.1659c-.183.1658-.367.1658-.551.1658 0-.1658 0-.3317.184-.3317zm-2.388.1659l.184-.1659-1.286-.3317c.551.1659 1.286.1659 1.653-.1658l.551.4975c0 .1658.184.1659.184.1659-.367.1658-.918.1658-1.286 0zm-8.265-2.1559c-.551.3316-1.285.6633-2.02.4975.184-.3317 0-.4975-.184-.4975h2.204zm1.102-.3317c-.367 0-.551 0-.551-.3317l.184-.1658c0 .1658.184.3316.367.4975zm4.225.995c-1.102.995-2.572 0-4.041 0 .367-.1658 0-.4975.184-.8292 1.285.995 2.571.995 3.857.8292zm11.204.8292v.1658l-.919-.1658v-.1658l.919.1658zm17.815 1.4925c.184-.6633-.551 0-.551-.4975.368.1659 1.286 0 1.102.4975h-.551zm-8.632-2.985h-.551l.184-.1659c.183 0 .183 0 .367.1659zm-17.632-2.9851v-.1658h.183v.1658h-.183zm-7.347-2.8193c.367.1659.551.1659.918.1659-.183 0-.367.1658-.551.3317-.183 0-.367 0-.367-.4976zm-2.939-1.3266c.368 0 .735.1658 1.102.3316-.183 0-.367 0-.551.3317 0-.3317-.551-.4975-.551-.6633zm-3.489-.1659c-.184 0-.184 0 0 0 .183-.1658.367-.3317.551-.3317.367 0 .551.1659.918.1659-.367.3316-.918.1658-1.469.1658zm5.51 1.3267c-.184-.1658 0-.1658 0 0l-.184-.1658c-.184-.1659-.367-.3317-.367-.4975.367.1658.918.4975 1.285.6633-.367.1658-.551 0-.734 0zm6.979-.6633c-.184 0-.367.1658-.367.3316.734.1659.183.3317.183.4975-.183 0-.183 0-.183-.1658l.367.4975c-.367 0-.551 0-.918.1659-.368 0-.551 0-.919-.1659-.367-.1658-.734-.3317-1.102-.4975v-.3317c.368-.1658.735-.3316.551-.4975.919.4975.919 0 1.837.8292.184 0 .184-1.3267.551-.6633zm4.775 2.3217s0 .1658.184.1658h-.735v-.1658h.551zm2.755.4975c0 .1658-.183.1658-.367.1658s-.184-.1658-.367-.1658v-.1658l.734.1658zm12.123 2.3217c-.735-.1658-1.47-.1658-2.204-.1658 0 0 0 .1658-.184.1658 0-.1658 0-.1658-.367-.3316l.734-.3317 2.021.6633zm7.53.8292c-.184.4975-1.469-.3317-1.469.3317h-.551l.551-.3317h.183v-.1658l1.286.1658zm-6.245-.4975c-.183 0-.367-.1658-.551-.1658l.551.1658zm-.183.3317c.183 0 .367-.1659.367-.3317 0 0 0 .1658-.184.1658l-.183.1659zm-2.021-.1659h1.286-1.286zm-1.469-.3316c.184 0 .184-.1659 0 0zm8.081 8.9552l-1.102.3317c.368 0 .368-.3317.368-.4976l.734.1659zM94.0367 70.4809c-.551 0-1.2856-.1658-1.8366 0l-.3674-.3316c.551-.1659 1.102-.1659 1.4694-.3317h.9183c-.551.1658-.3673.3317-.1837.6633zm9.7343-.1658h-.367.367zm1.286.1658l-.184.1659c-.184-.3317-.367-.3317-.734-.3317.367 0 .734 0 .918.1658zm19.285 1.1609c.184.6633 1.286.3317 2.388.4975 0 .1658 0 .3317-.184.3317l-4.592-.6634 2.388-.1658zm2.388.1658c-.368 0-.735-.1658-.919-.1658.551-.1659 1.102-.3317 1.653 0-.551-.1659-.734 0-.734.1658zm5.693.8292h-.367v-.1658h-.551v-.3317c.184 0 .367.1658.551.3317l.367.1658zm2.572.3317c-.551 0-.919-.1658-1.286-.3317.367-.3317.367-.6633 1.286-.3317v.6634zm5.326.3317h-.551c.184-.1659.367 0 .551 0zm7.531.3316c-.551-.1658-1.286-.1658-1.837-.3316.184 0 .184 0 .367-.1659h2.204c-.183.3317-.367.4975-.734.4975zm5.693.6634c-.734 0-1.469 0-2.387-.1659.918-.3316 1.653-.8291 2.387.1659zm10.469 1.1609c-1.469-.1659-2.938-.3317-4.224-.8292v-.1659l-.367.1659c-.184 0-.184 0-.368-.1659.919-.8292 1.286.4975 2.204-.4975l.184.8292 1.102-.3317-.184.4975c.184.4975.735 0 1.102-.1658l.551.6634zm8.082.8291c-1.653-.3316-3.49-.3316-5.51-.4975-.368-.3317-.919-.4975-1.286-.995 2.571-.4975 4.592.6633 6.796 1.4925zm6.061-.1658c-.735 1.8242-2.388 0-3.674.6634-.367.1658-.918.1658-1.285 0l-.368-.4976v-.1658c0-.3317.184-.3317.368-.4975.183 0 .367-.1658.367-.1658.367.1658.735.4975 1.102.1658.918.3317 1.653 1.1609 2.755 1.1609l.184-.4976c.183-.3316.367-.3316.551-.1658zm3.489 1.1609c-.367 0-.734-.1659-1.102-.3317.551 0 .919 0 1.102.3317.184-.1659.184 0 0 0zm8.082.995c-.184-.1658-.367 0-.551 0-.367 0-.918.3317-1.102.6633-.184 0-.184-.1658-.367-.1658l-.368-.8292v.3317c-.183-.1658-.183-.3317-.367-.3317.735 0 1.837-.4975 2.755-.1658-.184.1658 0 .3317 0 .4975zm11.755 1.1608c-.184.1659-.184.3317-.184.3317-.367.3317-.551.8292-.735 1.1609.551-.3317 1.102-.6634 1.653-.8292.184.1658.368.1658.368.6633-.368.3317-.551-.1658-.919-.1658-.734 1.6584-2.938.1659-3.673.3317-.184-.1658-.184-.3317-.184-.4975l-.551.6633c-1.653.1659-.734-1.6584-.918-1.4925-.551-.1659-1.102-.3317-1.469-.6634-.368 0-.919 0-1.47-.1658v-.3317c2.021-.6633 3.49 0 5.327.4975.367.6634-1.102.8292-.551.9951 0-.3317.183-.3317.367-.4976l.184.3317v-.3317c.551 0 .734.6634 1.285.9951.184-.1659.735-.3317.184-.4975l.367-.1659-.918-.4975 1.837.1658zm12.122 0c-.184 0-.368-.1658-.735-.1658v-.1658l1.102.1658v.3317l-.367-.1659zm11.204 0h1.653c0-.1658 0-.4975.367-.4975.367.3317 1.102.3317.918.8292.551 0 1.102.1659 1.286.3317.184 0 .184-.6634.367-.8292v.3317l.735.1658c.551.3317 1.102.8292 1.469.1659l.368.6633.183-.1658c.368 0 .735.1658.919.3316 0 .1659-.184.1659-.184.3317h.367c-.367.4975-1.285.1659-1.836.6634 1.469 1.1608 3.306-.4975 4.591.8292h-.183c-.551 0-1.102 0-1.47-.4975l.184.3316-.551.1659c-1.286 0-2.388-.1659-3.673-.3317l-.184-.1658c.367-.3317.551-.4976.918-.3317-.367 0-.734-.1659-1.285-.4975v-.3317l-.735.4975c-.551-.3317-1.286-.4975-2.02-.6634.183 0 .367-.1658.734-.4975l-.183.4975h-.551c-.919-.1658-1.837-.4975-2.204-1.3267zm-1.102 0c.183 0 .551.1659.734.1659l.184.1658-1.102-.1658.184-.1659zm-4.225-.4975c.184 0 .367-.1658.551-.1658l.184.3317s-.368 0-.735-.1659zm-.367-.3316h0zm-5.51-1.3267h.734c.184.1658.551.1658.735.4975l-.367.1658c.367 1.3267 1.469 0 2.204.3317l-.184.995c-1.102-1.1608-2.571-.4975-3.673-1.3267h-.184l-.184-.3317c.184.1659.184.1659.368.3317.183 0 .367-.3317.551-.6633zm-7.347-1.1609c.184 0 .184 0 .367.1658.184.1659.368.4976.735.6634.184-.1658.367-.4975.551-.4975.184.1658.367.3317.735.4975-.184.1658-.184.1658-.368.1658l-.734-.1658-1.286-.1658v-.6634zm1.469-3.1509c-.734 0-1.469-.3317-2.204-.4975.184 0 .368.1658.735.1658.551.3317 1.102.1659 1.469.3317zm5.51.1658l-.918-.1658.184-.1658.734.3316zm2.388.4975l.184.4975s-.184 0-.184.1659c-.551-.1659-1.469.3317-1.653-.4975-.184 0-.367 0-.551.1658-.184-.1658-.367-.1658-.551-.3317l.735-.4975h-.184v-.1658c.735.3317 1.469.4975 2.204.6633zm7.163 1.4926v.3317c-.183-.3317-.734-.1659-1.102-.1659-.183 0-.367-.1658-.367-.1658-.735-.4975-1.47-.4975-2.204-.4975v-.3317c.551.1658 1.285.3317 1.836.3317h.552c.367.3316.734.4975 1.285.4975zm15.796 7.9602c.367 0 .734.1658 1.102.1658-.368 0-.919 0-1.102-.1658zm-2.755 1.8242c-.184 0-.551-.1658-.735-.1658.367-.1659.551-.4976.735-.8292.367.4975.734-.1659 1.102.4975l-1.102.4975zm.734.1658c-.183 0-.367 0-.734-.1658.183 0 .367-.1658.367-.1658l.367.3316zm-10.652-.8292l-.368-.3316.184-.1659H226.278v.4975h-.367zm4.959.4976c-.919 0-1.102.6633-2.021.3316-.183-.1658-.367-.1658-.183-.3316-.551-.1659-1.47 0-2.204-.1659 1.653-.3317 3.306.4975 4.408.1659zm2.204.3316c-.184 0-.551-.1658-.735-.1658.367-.1658.735-.1659.735.1658.183 0 .183 0 0 0zm-23.326-1.3267l-.368-.1658h.368v.1658zm.367.9951c-.918-.1659-2.388.3316-3.122-.6634.918-.4975 1.836-.1658 2.938.1658.184 0 .184.1659.184.4976zm9.734 1.3267h-.367c-1.469-1.9901-2.204-.1659-3.857-.8292.367.4975 1.286.8292 1.837.8292-.184.4975-1.102.1658-1.47.3316-.183-.995-2.938-.1658-3.673-1.3267v.3317c-.918-.1658-1.837-.1658-2.571-.4975l.734-.1658s-.183 0-.183-.1659v-.4975h.367l-.184-.1658c-.183-.1659-.183-.3317-.367-.4976h.551c-.367-.1658-.918.0001-1.102-.3316l.551-.3317c.367.1658 1.102 0 1.286.3317-.184 0-.368.1658-.368.3316 1.47.3317 2.755 0 3.857.8292l-1.285.4976.183.1658 1.286-.4975c2.755-.4975 4.775.1658 6.796.8292-.919.1658-1.837.3316-2.755-.1659-.184.6634.918.6634.734.9951zm33.061-5.141l-.368-.4975-.183.1658c.367.995 1.653 0 2.204.6634v.3316c-.184.1659-1.47-.4975-1.653.1659-.551 0-1.102-.3317-1.102-.6634-.919.1659-2.755-.4975-2.572.6634-1.836.995-3.673-.1659-5.693-.4975l-.368.6633c.735 2.1559 4.225.6634 6.061 1.9901.735-.8292 2.204 0 3.306 0v.1658l.368-.3317.367.4975c.551.1659.735.6634 1.102.8292.184-.6633-.918-.995-1.286-1.4925l1.102-.4975-.551-.6634c.735-.3316.919-.4975 1.653-.6633l-.367-.6634c-.551-.3317-1.837-.6633-2.02-.1658zm-42.244 36.3183c.367 1.658 0 3.317-1.102 4.809-1.102 1.493-2.571 2.488-4.592 2.82-1.836.331-3.489 0-5.142-.995-1.653-.995-2.572-2.322-2.939-3.981-.367-1.824 0-3.316 1.102-4.809 1.102-1.492 2.571-2.487 4.592-2.819.551 0 .918-.166 1.285-.166-.918-.166-1.836-.332-2.571-.497-2.204 1.16-5.877-.498-8.449-.332-2.755-.166-5.877-1.327-8.265-.663-.734-.498-2.02-1.161-3.122-.83l-1.286.332c0 .332.551.166.918.332-.551.829-3.122 0-3.489-.166.551.332 1.102-.166 1.469-.332l-.551-.497-2.939-.166c-.183.166 0 .332.184.332h.551c-.184.331-.735 0-.918 0-.368-.498-.735-.83-1.47-.83l-.734.498c.367.995 1.285 0 1.836.663-1.102.498-2.755-.995-4.224-.331.184.331.367.165.735.331-.368.166-.735-.331-1.286 0l-.551.332-1.469-1.327-1.286.664c0-.332.551-.332.918-.664-.183-.166-.367-.166-.734-.331l-.551.331-.368-.663-.551.332c-.183-.166-.367-.166-.734-.332l-.551.995v.166h-.551v-.166c.183.166.367 0 .551-.166.551-.663-.919-.663-1.102-.663-1.286.497-2.939.497-4.408.331-.184-.829-1.286-.497-2.021-.497-.183-.166-.367 0-.551.166-.367-.829-1.285.166-1.836-.166-.735-.166-1.47 0-2.204 0l-.735-.663c-.551.497-.918.165-1.469 0-.551-.996-1.286-.166-2.204.165 0-.331-.368-.663-1.102-.663-.368.332-1.286-.332-1.47.498-2.755-.83-4.959-.166-7.53-.664-1.102-.166-4.041-.829-5.878-.663-1.469.497-2.571-.498-4.04.166-2.204-.166-4.408-1.161-6.612-.498-.184-.166-.184-.332-.368-.332l-.183.166.367.498c-.367 0-1.469.331-1.653-.498-1.837-.331-4.041.332-5.51-.497-4.775 0-8.816-.664-13.408-.498l-.5509.332c-.1836-.498-1.102-.166-1.2857 0-4.2243-.332-6.7957-.995-10.6527 0-2.0204-1.493-4.408.166-6.7957-.663-1.102.331-2.2041-.332-3.4897.165-.3674-.497-1.102-.165-1.6531 0-.9183-.995-1.653.664-2.9386-.165-.551 1.658-2.2041.165-3.3061 0-2.3877-.664-4.2243.497-6.4283 0-.9184.497-2.2041 0-3.1224.331-2.204-.331-5.1427-.166-7.5304.332-3.6734-.332-6.7958-.166-9.9181.166-1.102.166-4.0407 1.99-5.5101.166h-1.2856l.1836.497c-.9183-.332-2.5713.498-3.6733 0-2.2041.166-4.2244.664-6.2447.995-1.8367.166-4.0408-.663-5.3264.332-1.8367-.332-3.4897.166-5.1428.332-.7346-1.493-3.1223-.332-4.0406-1.161.1836-.332.9183-.664.551-.995-1.102-.166.1836.497-.9184.663l-1.102-.829c1.2857 0 2.0204-2.654 3.8571-1.161.5509-.663 1.2857.497 2.0203 0-.1836-.166-.3673-.166-.7347-.332.7347-.663 2.3877 1.161 2.5714-.497 2.204 0 5.3264 0 7.163-.664-.3673-.497.1837-1.16.7347-1.326-1.102-.498-2.5713 0-3.857.166-2.5714-.332-6.6121.663-7.5304-1.161l.7347-.8295c-.1837-.1658-1.4694.1658-1.2857-.4975l1.8366.1658v-.8292c1.4694-1.1609 4.2244-.8292 5.1428-2.3217-1.102-1.3267-3.857.1658-4.4081-1.6584-1.653-.6633-3.306-1.4925-4.2243-2.8192l.9183.1658c1.4693-1.4925-2.204-1.1608-1.4693-2.8192l.7347.995c.3673-.6633.7346-.995.3673-1.6584-1.4694-.3316-.551-1.6583-.7347-2.4875.3673-.6634 0-1.3267-.3673-1.9901-.551 0-1.2857 0-2.02037.1659-.55099 1.4925-2.02035 2.1558-3.48971 2.6534-.18366-1.3267-2.02033-2.3218-2.57135-3.6485 1.10202-.8291 2.57135-.995 3.85702-1.4925.551 1.1609 2.20404 1.3267 3.48971 1.1609-.3673-.6634-.551-1.3267.1837-1.8243-.7347-.4975 0-1.3267 0-1.8242 1.4693-.4975 1.2856-2.4875 3.1223-2.6534-1.4693-1.1608-2.755-2.4875-3.6733-3.6484.1836-.4975.7346-.6633 1.102-1.1608-.7347.995.3673 1.6583 1.102 2.4875.551-.1658.7346.1658 1.102.4975.1837 0 .551-.1658.7347-.3317-.551-.3316-.7347-.8291-1.4694-.8291l.3674-.1659-.9184-1.1608c1.2857.1658 2.3877.8292 3.306 1.4925 0-.3317-.1837-.8292-.1837-1.1609-1.4693-.6633-2.7549-1.3267-3.857-2.3217l-.551.4975-2.38765-.6633 2.02035-.8292-1.46935-.995c.55095-.4975.55105-1.1609.55105-1.8242-.73471 0-1.28573 0-1.65307-.4976.18365-.4975 1.10202-.8291.55102-1.4925-1.10202-.1658.18366.6633-.91836.8292L6.978 63.6816c1.46936 0 2.38766-3.6484 4.2244-1.4925.551-.8292.9183 0 1.4693.1658h.3673s.1837 0 .1837-.1658c-.1837-.3317-.3673-.3317-.7346-.3317.9183-.8292 2.5713 1.6584 2.755-.6634h-.7347c0-1.6583-2.204-.3316-2.3877-1.99-1.102.6633-.551-1.1609-1.653-.995.3673-2.1559-2.93871-3.9801-1.46935-6.136-2.75503-1.1609.551-2.4876-.18368-4.3118-.73465-.6634-1.83667-.995-2.3877-2.1559 0-.4975.73468-1.4925-.18365-1.6584 1.10202-.8292 3.12234-.3316 4.95908-.4975-.5511-.6633-2.20405-.995-1.65305-2.4875l.73465 1.4925c.551-.8292.7347-1.3267.551-2.3217-1.65299-.4975-.551-2.3218-.551-3.4826 1.102-2.4876-2.57132-4.8093-.55097-6.9652-.73468-.6633 0-1.6584 0-2.6534h.18366-1.10202c1.28563-.8292.55099-1.4925 2.02033-2.1559l-.1836-.1658c-.551.3317-1.10208.4975-1.28574.995V24.544c-.18365 0-.36731.1658-.55099.3316.18368-.1658.36734-.3317.73468-.4975.18365-.8292.55095-1.6584 1.65305-1.1609l.551.1659c0 .3317 0 .6633-.1837.8292h.9184c.3673-.3317.7346-.4975 1.2856-.4975.1837-.1659.3674-.3317.551-.4976h.7347c1.2857-1.99.3673-4.3117.7346-6.7993-.551-.3317-1.102-1.4925-1.8366-1.1609-.3674-.6633.1837-1.3267.1837-1.99 1.1019-.4975 2.3876-.1658 3.4896-.3317l6.2448 1.3267c.1836.6634.1836 1.1609 1.102.995l.3673-.1658c-1.102-.6633.3674-.995.1837-1.8242l.551-.3317-8.2651-1.8242c-.3673.1658-.7347.4975-1.102.3317-.7347-.6634 1.102-.995-.1837-1.3267-.3673.995-.7346 1.1608-1.8366 1.1608-.3674 0-.3674-.4975-.3674-.8291.7347-.49755.7347-1.1609.9184-2.15593h.1836c0-.82918.7347-1.82421 1.102-2.6534l3.6734-1.16086-.7347.66335c.9184 0 2.7551 0 3.1224 1.3267 2.9387.66335 5.1427 0 7.8977 0l.9184.99502c.551-.49751.7346-.99502 1.4693-.99502.1837 1.3267 2.5714.49752 3.4897.66335l1.8367-.16583-.7347-1.16087 2.0204.16584c0 .33167-.3674.82919 0 .99503.9183-.49752.551-.8292 1.653-1.32671 1.653.49751 3.4897-.16583 4.408.16584l-.3673.16584c2.0203 1.3267 4.408-.82919 6.4284.49751 2.5713-1.82421 5.1427 1.49254 7.714-.82919 1.1021-.33167 1.4694 1.3267 2.3877.16584 1.102.33168 3.3061.66335 3.3061-.33167 1.2856-.33168 2.0203 1.3267 3.4897.66335.9183.16584 1.8366-.00001 2.755-.49752.9183 1.65838 2.204-.16583 3.4897.49752l.551-.33168c-.1837-.16584-.1837-.33167-.1837-.49751.9183 1.65837 2.5714-.33167 4.0407.82919l.1837-.49752c.9183.99503 2.3877-.99502 3.1223.33168 2.3877.33167 5.3264-.82919 7.1631.82919 2.5714-.33168 4.2244.33167 6.7957 0 .1837.33167-.1836.99502-.7346 1.16086-1.2857.66335-3.1224-.16584-4.5917.33167l.3673.82919c-.551-.49751-.7347.33167-1.102.49751.1836 1.16083.9183.33168 1.4693.33168h.1837c-.551.66335-1.4694.33165-2.204.82915.3673.9951 1.2857 1.4926 2.204 1.4926 0 .3316-.9183.3316-.7347.8292l.1837.3316-2.755-.3316c1.2856.3316-.551.8291.1836 1.3267 1.4694.4975 2.5714-.3317 3.8571 0l-.3674.1658c.7347.6633 2.0204.4975 2.9387.8292-.1837-.8292.9184-.8292 1.2857-1.3267l-.7347-1.4926c.3674.4976 1.4694 1.1609 1.8367 2.1559.7347-.1658.9183.4975 1.2857.9951.3673-.6634 2.0202 0 3.3062-.6634.551-.4975 0-.995-.368-1.3267.919.8292 1.837-.1658 3.123.6634 1.102-.1659 2.02-1.4926 2.388-2.1559.918.8292.734.8292.183 1.8242-1.285.1658-1.286.8292-1.653 1.8242.184.4975.919.3317 1.47.4975.367-.3317.183-.995.367-1.3267.184 1.1609 1.286.6634 2.204.6634.367-.1659.367-.3317.367-.6634.368.1658 1.102 0 1.102.4975l.368-.1658-.551-1.1609c.918 0 2.571-.1658 3.673.1659-.184.1658-.367.1658-.367.4975.918.3316.734.8292 1.469 1.3267l3.857.1658c0 .3317-.184.3317-.367.4975 2.755.995 5.693.1659 8.632.995.184-.8291.735-.8291 1.469-.995-.183.4975 0 .8292.184 1.1609l.551-.3317c.184 1.1609 1.286.3317 2.02.3317.735.995 2.204-.1659 2.939.8292l.918-.4975c-.918-1.6584-3.857.1658-3.857-1.8243-1.469-.8291-3.489.4976-4.04-1.6583-.551-.6634 1.285.6633 1.285-.8292l2.572 1.3267-.368.1658.184.3317 1.102-.4975c-.735.4975-.367.995-.551 1.4925 3.49.4975 6.061 1.6584 9.551 1.3267 1.653.995 4.959.8292 7.347 1.1609 1.102-1.3267.183-1.4926-.368-2.6534-.551-.1659-1.102-.3317-1.653.1658l.184.3317c-1.286.6633-2.571-.3317-3.857 0l-.551-.1658c-.184-1.8243-2.204-.1659-2.939-1.6584.918.6633 3.306-.3317 4.776 1.1608.367-.1658.367-.4975.367-.6633l.735 1.1609c.734-.4976 1.469-.8292 2.204-.8292.551-.1659.367-.6634.183-.9951.551 1.6584 2.204.4976 2.572 2.1559l2.02.1659-1.469.4975c3.489 1.4925 9.183 2.6534 13.04 2.6534 2.02-.3317 0-1.6584.551-2.8193.184-.995.367-1.8242.551-2.8192 0-.1658.184-.4975.184-.8292.183 0 .367.1659.367.3317l-.551.3317c0 .3316.367.3316.735.3316 0 .6634-.735 1.4926 0 2.1559l3.673.8292c-.551.4975-1.653-.6633-1.837.3317l.368.3317c-.368-.3317-.735.1658-1.102.3316.183.9951 1.469.6634 2.204.9951-.184.1658-.368.1658-.368.4975.184.1658.184.3317.368.3317l.367-.1659v.1659c4.592 1.99 10.653 1.1608 14.143 2.4875l.367-.1658c-.184.6633.918 1.3267 1.653.8292 1.286-.995 3.122 1.6583 4.041-.8292l-.184-.3317.551-.3317c-.551-.6633-1.469-1.3267-2.02-1.1608-.735-1.4926-2.388.1658-3.857-.4975l.367-.1659-1.102-.8292c3.122.3317 5.877 1.4926 9 1.9901 0-.1659.183-.1659.183-.1659l.368.3317c-.184 0-.368-.1658-.735-.1658-.551.4975-1.102 1.4925-2.02 1.4925 1.102.8292 2.938 1.6584 3.857 1.3267 1.285.8292 3.489 1.1609 4.959 1.4926l.183-.4975.368 1.6583c1.653-2.4875 5.142 0 7.346-.1658.368.4975 1.102.6633 1.653.8292.184-.3317-.918 2.3217.919 1.99l.734-.8292c0 .3317-.183.4975 0 .8292.919-.3317 3.123 1.8242 4.041-.4975.367 0 .551.6634.918.1658.368-1.4925-2.02-.3316-.918-1.99l-.735-.3317h.184c.367-.6633 0-1.6584-.918-1.8242-2.204.4975-4.225-1.6584-6.429-.8292-.367-.8292-1.836 0-2.938-.6633v-.3317h2.938l-.367.1658c1.286.6634 2.204-.1658 3.49.4976.734.1658.551-.6634 1.285-.3317.919.8292 2.939 1.4925 4.225 1.3267l4.591.3317c.368 1.1608 2.388.4975 3.307 1.4925 2.387-1.3267 4.591.995 6.795.8292 3.123 1.3267 6.429.995 9.367 2.6534l2.204-.6634c-.918-.1658-1.285-1.4925-2.387-.995 1.285-1.3267 2.02 1.6584 3.306-.3317l-.184.8292c-.367 0-.551-.1658-.735.1658.551 1.1609 1.286.3317 2.388 1.3268v.1658c2.388.995 4.959 1.1608 7.898.995-1.286-1.99-3.306.3317-4.959-1.3267.551-.6633 1.653-.1658 2.02-.8292-.184-.4975-.551-.6633-1.102-.8292l-.367.1659-.368-.8292c-.551.995-1.285-.3317-2.02-.3317l.367-.1658c-.918-1.1609-.734.995-.918.8292-.367-.3317-.918-.4976-1.469-.4976.183-.6633-.735-.8291-1.102-1.3267-.368.1659-.368.3317-.368.6634-2.02-.1658-3.857-.1658-5.51-1.3267-1.285-.1658-2.204.6633-3.857.995l-.734-.3317c.367-.8291 1.653-.1658 2.204-.8291-.919.3316-1.286-1.1609-1.837-1.1609l-.918.6634c.183-.1659 0-.3317-.184-.4976-.551.9951-1.286-.4975-1.837-.1658l-.367-.6633c-1.102.3316-2.204-.3317-3.49-.9951-.551.8292-1.285-.1658-1.836.3317.367.3317.918.6633.734 1.1609-.918.1658-2.204-.9951-2.938-.8292.367 0 .734 0 1.102-.3317-.551-.3317-.551-.6634-1.102-1.3267-.368.1658-.368.3317-.368.6633-1.837-.995-4.592-.8291-6.612-.4975-.367-.4975.367-.6633-.184-1.1608l-.734-.1659c.367 0 .734 0 1.285-.3316-1.102-1.6584-3.122-1.1609-4.591-1.6584-2.939-.1659-6.796-1.1609-10.102-1.8242l1.653-.1659c-.551-1.3267-1.837-.1658-2.939-.8292l-.734.6634c0-1.3267-1.47.1658-1.837-.8292v-.3317c1.469.8292 3.49.1659 4.408.1659.367.995 1.837.4975 2.755.4975.367-.1659.735-.4975 1.102-.3317l-.184.4975c.735.4975 2.021.6634 3.123.1659-.919.1658-.551.995-1.102 1.3267.551-.3317 1.102 1.1608 1.836.1658l-.183-.3317c.183-.6633.918.8292 1.102-.3317 1.102 0 .551 1.6584 1.836.8292-.183-.3316-.367-.3316-.734-.3316l.918-.6634c.184.1658.184.3317.367.3317.184-.1659.368-.1659.368-.4975-2.021-.8292-4.959-1.1609-6.612-1.6584 2.02-1.4925 3.122 1.1609 5.142 0-.551-.4975-2.02-.4975-1.653-1.6584l2.755.4975c0 .3317-.183.3317-.367.4975 2.02.8292 3.306 1.9901 5.694 1.3267-.735-.8291-2.021-1.3267-2.755-1.3267.367 0 1.102-.8291 1.285.1659l5.143 1.3267c-.735 0-1.469-.6634-2.02.1658v.3317c1.469-.1658 2.939 1.4925 4.592.6633-.368-.3316-.735-.6633-1.47-.8291 0-.4976.735 0 1.102 0 .551 1.8242 2.755.1658 3.857.995l1.47.3317-.551.3316c1.102.4975 1.836 1.9901 3.122.8292l-.367-.8292c.367-.1658 2.387.9951 3.673 1.3267-.367 1.4926 1.837.6634 2.204 1.4926.551 0 1.286-.6634 1.469 0l.184-.4975c1.653 1.6583 4.959.8291 6.979 1.6583l.184-.4975c.367.3317 1.102.995 1.653.6634l.367-.1659v.1659c1.47 0 3.123 1.1608 4.408 1.1608l-.367.1659c1.286 1.6583 3.49-.8292 5.143.4975l-1.102.4975c1.102 1.4925 2.755 1.4925 4.408 1.1609l.735.6633c1.102.995 3.673 0 2.938 1.8242l.735.4975c-2.204-.8292-4.041-.1658-6.429-.1658-.551.6633.368.6633.368.8292-.919.995-1.47-.3317-2.204-.4975-.368.4975-.919.4975-1.286 0-.551.1658-.367.8292-.551 1.1608.918.1659 2.02 1.4926 2.755.4976.735-.1659.551.6633.918.995l2.021.1658-1.47.8292c.368.995 1.286-.3317 1.47.8292-1.102 1.1608-3.306-1.1609-5.143-.4975 0 .1658 0 .1658 0 0 0-.1659 0-.8292-.551-.6634 0 1.3267-1.837.3317-2.755.8292-.367.3317-1.837-.8292-2.02.6634l1.653.6633c.551 1.3267 2.571.995 3.857 1.8242-2.388-.4975-5.327-1.1608-7.347-1.99l.735-.6634c-.735-.3317-1.47-1.1608-2.204-.4975 0 .4975.551.3317.918.4975-.367 0-1.837.3317-2.388 1.1609-.183-.3317-.734-.4975-.918-.995-.551.8291-1.286-.1659-1.837.3316.368 1.4926 2.021.8292 3.123 1.1609-.184.1658 0 .3317.183.4975 1.102.3317 1.286-.4975 2.388-.3317l-.551-.8292c1.653.4976 2.388 1.1609 3.857 1.3268 0 .3316-.367.4975-.735.6633 1.286 1.1609 3.123-.995 4.225.8292-.919.3317-1.47-1.3267-2.021-.1658l.368.6633.367-.1658c-.367 1.1608 1.469.3316 2.204.4975.367-.4975-1.102 1.8242.918 1.4925 0 .3317-.183.3317-.367.4975l1.653.6634c-.735 0-1.469.995-2.02.1658l.551-.3317c0-.1658 0-.1658-.184-.3316-.367-.3317-.918-.4975-1.286-.1659l-.367.1659.735.6633c-1.837.1658-3.306-1.8242-5.143-1.3267-1.102.3317-1.102-1.4925-2.204-.6633-.918-.8292-2.204-.9951-3.673-.6634l-1.102.3317.551-.3317-.368-.6633c-5.142-.1659-7.53-3.3168-12.489-2.3218l-1.469.8292-.184-.3316 1.102-1.4926c-1.286-.995-2.571-.4975-4.224-1.1609 0-.3316.183-.3316.367-.4975-.184-.4975-.918-.3316-1.469-.4975l-.551.3317c.183.4975.734.3317 1.285.4975h-1.285l.734.6634c.184 0 .368-.1659.551 0l-.183.3316.183.1659h-.367l-.367.4975c.183 0 .367.1658.551.1658l-.919.3317c.184.1658.368.1658.735.1658 0 0-.184 0-.184.1659.735.3316 1.47.3316 2.204.4975l.184-.4975c.551 1.4925 2.939.6633 3.673 1.4925.184-.1658.368 0 .551.3317.551 0 .919.1658 1.102-.4975-.551 0-1.469-.4975-1.836-1.1609 1.836.8292 2.755-1.6584 4.224 1.1609l1.653-.4975c.918-.3317-.735.3316 0 .8292l.551-.3317c.735.6633 2.571 1.3267 3.857.995l-.184.4975c3.123.4975 6.061 1.4925 8.633 2.4876h1.102l-.184.3316.551.1659c.367-.1659.735-.1659 1.102 0 0-.1659.184-.1659.367-.1659l.735.1659c-.367.4975-.551.3317-.735.1658.184.1659.368.3317.551.4975 0 .3317-.183.3317-.551.4975h.735l.184.1659c.551 0 .918-.3317.734-.8292.184.3317.919.8292 1.102.4975l.919.995s-.184 0-.184.1659h.184c0 .1658-1.102.4975-.551.995h.183l-.734.6633 3.306 1.3267c-1.286-.1658-2.572-.3316-4.041-.6633 0 0-.184.1658-.367.1658l-.184-.1658c-.367 0-.918-.1658-1.286-.1658v.1658l-.734-.1658v-.1659c-.735-.1658-1.47-.3316-2.388-.4975-.184.1659-.367.3317-.551.6634l-.184-.8292h-.183c-.368.8292-2.021-.8292-2.021.6633.184-.4975-.367-.8292-.551-1.1608l-.734.6633 1.285.995c-.551-.8292-1.469.3317-1.653-.8292l-1.102.4976c0-2.3218-2.02.6633-2.571-1.3267l-.918.6633c.183.1659.551.8292.918.4975l-.184.4975c-.367 0-.551-.1658-.734.1659.551.995 1.285.3316 2.204.995 1.653 1.1609 3.489-.3317 4.775 1.8242 1.286 0 2.204-.1658 3.122.8292-1.836.6633-3.857-1.3267-4.775-.6633h.184v.3316h-.368c0 .1659-.183.1659-.183.3317-.184-.1658-.368-.3317-.735-.4975h-.367c-.368 0-.551 0-.919.3317 0 .8291 1.47.8291 1.102.995-.551.3317-1.285-.1659-2.02-.1659.184-.3316-.184-.4975-.367-.8291.183.1658.367 0 .551-.1659-.368-.8292-1.102-.995-1.837-1.3267l-.918.6634c.551.4975 1.469.6633 1.836 1.3267l-.551 1.1608c-.918-.3316-1.653-.4975-2.02-1.4925-.367.1658-.367.3317-.367.6633-1.47.1659-2.939-.3316-4.408-.3316l.367.6633.367-.1658.184-.1659-2.204.3317c.735.3317 1.286.8292 2.204.995-1.102 0-2.755-.995-3.857-.4975.918 1.1609 2.939.6634 4.041 1.6584l-1.47.3317c1.286.1658 2.755 0 2.939 1.4925.367-.1658.367-.4975.367-.6633l.919.1658-.184-.3317.735.3317-.368.1658c-.551 1.6584 1.653-.3316 1.47 1.1609.367-.1658.367-.4975.367-.6633l1.102.3316s-.184-.1658-.184 0c.551-.1658 1.102-.3316 1.47.3317h-.184l.551.1658h-.735c-.367.3317-.734.6634-1.469.3317l.551-.3317h-1.102c0 .4976.184.8292.551 1.4926.367-.1659.367-.4975.367-.6634.184.1659.184.3317.368.4975h.367l-.184.1659c.735.3317 1.47.4975 2.204.8292l.551-.4975c-.183-.3317-.367-.3317-.734-.3317l.734-.6634c0 .4975.735.3317 1.102.3317l-.367.1658c.184.3317.367.3317.735.3317.367-.3317 0-.995.918-.6633 0 .3316-.367.8292 0 .995-.184 0-.551-.1658-.367-.6634-.551.9951-1.837-.1658-2.204.9951 1.285.4975.367 1.99 2.204 1.6583-.184.9951 1.285.3317 1.469.9951.367.8292 2.204-.4975 2.388.8292l-1.102.1658c.367.1658.551.8292 1.285.6633-3.673 2.8193-5.326-2.4875-8.448-.6633.551.1658 1.102.3317 1.653.6633.551 0 .918 0 1.285.4976-1.285.4975-3.306.1658-4.959.3316l.919.3317-1.102-.1658v.1658c2.387.3317 1.836 1.3267 4.408 1.1609l.367.6633c.735-.4975.184-.8292.184-1.3267l3.122.1659c-.735.4975-1.286 0-2.204-.3317-1.286 1.4925 1.469 1.3267 1.469 2.6534-1.285.1658-1.836-1.9901-3.122-.6634l.918.6634c0 .3317-.734-.6634-1.469-.4975l-.184-.3317.551-.4975c0-.4975-.734-.3317-.918-.3317-.367 1.3267-.918-.6633-1.653.3317l.184.3317c-.184.6633-1.47-.4976-1.47.6633h-.551c0-.3317.551-.4975.735-.6633-.918-.6634-2.388-1.1609-3.673-.8292-.919-1.8242-1.653 1.1608-2.755-.1659 0 .6634-1.286 1.6584-2.388 2.3217l.367.6634c-.183.1658-1.102-.3317-1.285-.995-.184.3317-.551.6633-.919.8292l.919-1.3267c-.919-.1659-1.837 0-2.572.1658-.183.1658-.183.3317-.183.4975v.3317c.734.4975 1.836-.4975 2.02.8292l-2.204-.3317c.367-.4975-.184-.8292-.367-1.1609l-1.102.3317v.1658c.367.1659-.919-.3316-1.102.1659l.551.8292h-.368v-.1659c.184 0 .368.1659.368.3317h.551c.551 1.1609 1.653.4975 2.571 1.3267.184-.1658.735-.3317.735-.6633 0 .4975.551 1.1608 1.285.995l.184-.1658v-.3317.1658l.184.1659c0 .4975.183 1.3267 1.102.995.183.4975.918.3316 1.469.4975l.551-.3317c.367.1659 4.224.6634 6.428 1.4926.919.6633 2.388.6633 3.674.995-1.837.8292-2.939-.6634-4.959 0-1.102-.3317-2.204-.8292-3.49-.995l-.735.6633c.184-1.6584-1.653-.4975-2.387-.995v.3317l-3.306-.3317v-.3317c-1.47-.3317-2.939-.8292-4.776-.6633-.918-.4976-2.939-.9951-4.224-.8292-.184-.1659-.184-.3317-.551-.3317-.368.3317-.919.8292-1.653.6633-.184-.1658-.184-.1658-.368-.1658l-.918.4975c1.653 1.3267 3.673.6634 5.51 1.3267-.183.8292-2.02-.1658-1.286.995.551.1659.919.1659 1.286-.3316.184.3316.368.3316.735.3316l1.102-.4975c-.184-.1658-.367-.3316-.184-.4975.368-.3317.919 0 1.286 0-1.469-.1658-.367 1.1609-.918 1.6584 1.653-.1659 2.02 1.6584 3.122.1658 1.469.8292 1.837-1.6583 3.122-.1658l-2.755.4975 1.286.995c-1.837 0-3.857-.3316-5.877-.6633 1.653.995 4.591.4975 6.428 1.1608v-.3316c.184.1658.367.1658.551.3316l.735-.1658v.3317l-.551-.1659c.367.1659.551.1659.918 0l.184-.1658v.1658c1.285 0 2.938.8292 4.224.8292l-.184.1659c1.286 1.1608 3.123-.6634 4.776.3316l-1.102.3317c1.102.995 2.755 1.1609 4.224.8292v-.3317c1.102.8292 3.306 0 2.939 1.3267l.734.3317c-2.204-.6633-3.673 0-6.061-.1658-.367.4975.368.4975.368.6633-.735.6634-1.47-.1658-2.021-.3317-.367.3317-.918.3317-1.285 0v.1659c2.02.6633 3.122.8292 4.775 1.1608-.735-.3316-1.286 0-1.837.1659v.1658l.919.1659h1.102l-.368.1658.919.1658c-.368 0-.919 0-1.286-.1658l-.735.3317c.368.6633 1.102-.3317 1.286.4975-.551.4975-1.469.1658-2.571-.1659l2.571 2.4876-1.837-.3317c.184-.1658.735-.3316.735-.6633-.918-1.3267-2.755-1.6584-4.408-1.4926l.735-.4975c0-.1658-.184-.3316-.551-.1658 0 .6633-.735.4975-1.47.4975.551.6633 1.47.6634 2.204 1.1609l-.918.3316c0 .1659 0 .3317.184.3317.183 0 .367.1659.551.1659.367-.1659.918-.4976 1.285-.4976-.183 0-.367 1.4926-1.836.8292l-.184-.3316c-.735-.1659-1.469-.1659-2.204-.3317-.367.1658-.735.1658-.918.3317h.551c0 .3316-.368.3316-.551.4975 1.285.8291 2.938-.6634 4.04.6633-.918.1658-1.469-.995-1.836-.1658l.367.4975v.1658c-.367.8292 1.469.1659 2.02.3317.368-.3317-.918 1.3267.919 1.1609 0 .1658-.184.1658-.368.3316l1.47.4976c-.551 0-1.286.6633-2.021 0l.551-.3317c0-.1659-.183-.1659-.183-.1659-.368-.3316-.919-.3316-1.102-.1658l-.368.1658 1.102.3317c-1.836.1659-3.122-1.3267-4.959-.995-.918.1658-1.102-.995-2.02-.4975-.735-.4975-1.653-.6634-2.755-.6634 0 .1659-.184.3317-.367.3317-.368.1658-.735 0-.735-.1658l-.735.1658.551-.1658-.367-.4975c-1.837 0-3.306-.3317-4.592-.8292-.551 0-1.286.1658-2.02.3316v.3317l.918-.1658c.919-.1659-.551.3317.184.4975l.551-.3317c.735.4975 2.388.8292 3.673.8292v.3317c3.49.4975 6.612 1.3267 9.367 2.1559.551-.3317 1.47.1658 1.837.4975 0 .3316-.367.3317-.551.4975.367.1658 2.02.3317 1.469-.4975.184.1658.919.4975 1.102.3316l.735.6634c-.367.1658-.735.1658-1.102.3317v-.1659c-2.204-.8291-3.857-.3316-5.51-1.3267h-1.653v.3317c-.367-.1658-.551.1659-.735.3317.919.3317.919 1.6584 2.204 1.3267l1.653.1658c.551 0-.918.3317-1.102.8292l-.183-.6633c-.184.8292-1.837-.4976-1.837.6633 0-.3317-.367-.4975-.551-.8292l-.551.4975.735.4976c-.551-.4976-1.286.3316-1.47-.6634l-1.102.3317c-.183-1.6584-1.836.4975-2.387-.9951l-.735.4976c.184.1658.551.6633.918.3316v.3317c-.183 0-.551-.1658-.734 0 .551.8292 1.102.3317 2.02.6634 1.469.8291 3.306-.1659 4.592 1.3267 1.285 0 2.02-.1659 2.938.6633-2.02.4975-4.224-1.4925-4.775 0-.367-.3317-1.286-.8292-1.837-.3317 0 .6634 1.47.6634 1.102.6634-.551.3317-1.285 0-1.836-.1658.183-.3317-.184-.3317-.368-.6634.184.1658.368 0 .551-.1658-.367-.4976-1.102-.6634-1.653-.9951l-.734.4975c.551.3317 1.285.4976 1.653.9951l-.368.8292c-.734-.1659-1.653-.3317-2.02-.9951-.367 0-.367.3317-.367.4976-1.102.1658-2.572-.1659-3.674-.1659 0 0-.184 0-.184.1659l-.551.4975.184-.1659.184.1659-2.021.3316c.551.3317 1.286.6634 2.021.6634-.919 0-2.572-.8292-3.49-.3317.918.8292 2.755.4975 3.857 1.1609l-2.02.3317c.918-.1659.734 1.3266 1.285.3316.735-.1658.368.6634 1.102.6634l.735-.3317v.3317h-.551c-.184.3316-.184 1.161.735 1.161l.735.166c-1.654 0-3.307.497-4.96.663 1.286.498 2.388.498 3.49.663.551-.165 0-.497 0-.829h-.184v-.166l.735.166c0 .166-.184.332-.367.332.551.829 1.102-.332 2.02 0 .735-.663 2.204-.332 3.123-.995h.734l-1.102.663c.735.498 1.837.498 2.755.995-2.02.498-3.306-1.658-5.142-.497l-.184.166c-.184.331-1.286 0-1.102.829l.367.497c2.021 1.161 4.225.664 6.245 1.659-1.653-.664-3.122-.332-4.775-.498.183.498.918.498 0 .829l2.02.498-6.98-.829c-.183.497-.734.829-.918 1.326-.551-.331.367-.663.551-.995v-.166c-2.204-1.16-5.877.166-8.449-1.492-.367 0-.183.497-.367.663.551.995 1.653 0 2.571.829l.919.332c-.184-.166-.368 0-.551.166.734.829 2.02.332 3.122.497l.551-.331c0 .331.551.166.918.331-1.469-.331-2.755 1.161-4.408.166-.918-.166-2.571-.331-3.673 0 1.837 1.327 5.326 2.156 7.714 1.327.184 0 .367-.166.367-.332 0 .332-.367 1.493-1.285 1.825l.734-.995c-2.204-.332-4.04.995-6.061-.166l-1.285.166c.183 1.492 2.204-.166 2.571 1.326l.735.166c.551.829 1.469.332 2.387.995.184-.166.551-.166.551-.497 0 .331.551.829 1.286.829v-1.161.166l.184.166c.183.331.367.829 1.102.663.183.332.918.332 1.285.332l.551-.332c.368.166 3.858.497 6.062 1.161.918.497 2.387.497 3.489.663-1.653.663-2.755-.497-4.591 0-1.102-.166-2.021-.497-3.306-.663l-.551.497c.183-1.161-1.654-.331-2.205-.663v.166l-3.122-.166v-.166c-1.469-.166-2.755-.497-4.408-.497-.918-.332-2.755-.664-4.041-.664-.183-.331-.918-.331-1.285-.331l-1.653.829c1.653.995 3.306.497 5.142.995 0 .497-1.836-.166-1.102.829.368.166.919.166 1.286-.166.184.332.367.166.735.332l.734-.498c-.183-.166-.367-.166-.183-.331.367-.332.734 0 1.285 0-1.285 0-.367.829-.734 1.16 1.469-.165 1.836 1.161 2.938 0 1.286.498 1.653-1.16 2.939-.165l-2.571.331 1.285.83c-2.938 0-6.244-.498-9.55-.996.367.166.734.332.918.498 1.469.829 2.388 2.156 2.755 3.98zm60.06-86.8987l-.368-.6634-.367.3317c.367 1.4925 1.837 0 2.388.995l-.184.4975c-.367.1659-1.653-.8292-1.837.1659-.551 0-.918-.4976-.918-.9951-1.102.1659-3.122-.6633-2.939.9951-2.02 1.3267-4.04-.1659-6.061-.6634l-.551.995c.551 2.9851 4.592.9951 6.429 2.8193.918-1.3267 2.387 0 3.673 0v.3316l.735-.6633.367.6633c.551.1659.735.8292 1.102 1.3268.367-.9951-.918-1.3268-1.286-2.1559l1.286-.8292-.918-1.1609c.734-.3317.918-.8292 1.836-.995l-.367-.8292c-.367-.3317-1.653-.995-2.02-.1658z" fill="#fff"/></svg>