<svg width="165" height="59" fill="none" xmlns="http://www.w3.org/2000/svg"><path d="M13.2897 9.82967l1.1075-.14894-.5538.29787-.5537-.14893zm2.4364-1.04254l.5538-.29787c-.2215-.22341-.6645-.22341-.6645-.59574 1.6612-.37234 3.987-.2234 5.2052.07447-.1107.07446-.2215.07446-.2215.2234.443.4468 1.329.07446 1.9935.14893l-.6645.2234c.3322.59574 1.4397-.2234 1.5505.44681-.3323.29786-1.329-.44681-1.6613.2234.3323 0 .886.29787 1.329.29787-.5537.4468-.9967-.2234-1.4397-.07447-.5538-.6702-1.4397.4468-1.772-.37234-1.1075.22341-2.5472 1.34041-3.6547.52128-.3323.29786-.7752.07446-1.1075.07446.1108-.29787 1.2182-.4468.5537-.8936zm12.5147-.07447c.443-.07447.886-.14894 1.329-.07447-.443.07447-.5538.37234-.9968.29787l-.3322-.2234c-.3323.07446-.3323.37233-.443.59574.9967.4468 2.215-.07447 3.101.14893-.3323.4468-.5538-.14893-1.1075.07447-.7753.14893-1.5505.14893-2.4365.07447l.443-.29787-.5538-.44681c.3323-.07446.6645-.07447.9968-.14893zm5.4267.37233h.6645c-.886.22341-2.1042.29787-3.101.37234.443-.52127 1.6612-.07447 2.4365-.37234zM132.234 23.9784l-.554-.0744.333-.149.221.2234zm4.209.4468c-.333.2979-.776-.2234-1.219-.2978-.11-.4468.665.3723 1.219.2978zm-.776-.5957c.111.0745.222 0 .333-.0745.11-.1489 0-.2978-.222-.2978-.443 0-.443-.149-.554-.4468.886-.2979.886.968 1.662.3723-.111-.1489-.222-.1489-.443-.1489.664.1489 1.772-.4468 2.436.3723-.554-.2234-1.44-.4468-1.993-.1489-.111.0744 0 .1489.11.2234l.443.0744c-.775-.0744-1.218.0745-1.661.2234l-.111-.1489zM33.2245 8.71266l.9967-.07447-.7752.07447h-.2215zM133.674 23.1593l-.554-.0745v-.1489c.554-.2234.886.3723 1.44.3723h-.775c.11-.0744 0-.1489-.111-.2234v.0745zM28.2408 7.22331c.5537-.2234 1.4397-.2234 1.8827-.07446-.5537.14893-1.1075-.14894-1.4397.14893l-.443-.07447zm5.2052.22341l.443.07446c-.2215.37234-.2215.29787-.886.22341.1107-.22341.7752.14893.443-.29787zm-.3323-.44681c-.443.07447-.9967.07447-1.4397.14894.2215-.2234 1.1075-.2234 1.4397-.14894zm3.101.74468c-.5537-.22341-.886.07446-1.329.29786-.1107-.14893-.2215-.2234-.443-.29786l2.215-.29787c-.1107.14893-.3322.14893-.443.29787zm-2.7687-.81914l1.329-.14894c0 .37234-.5538.2234-.886.2234l-.443-.07446zm2.9902 0c-.3322.07446-.7752.07446-1.1075.14893l.1108-.2234.9967.07447zm3.101.59573c.9967-.29787 1.772-.14893 3.2117-.14893-1.9935.37234-3.6547 0-5.7589.2234.1107-.37234.5537 0 .886-.2234.4429.52127 1.1074-.4468 1.6612.14893zm-1.8827-.6702l.7752-.37234-.1108-.07446c-.1107 0-.1107-.07447-.2215-.07447h.1108v.07447c.1108.07446.3322.14893.1107.37233l-.6644.2234v-.14893zm3.3224-.4468c.1108.4468.7753.14893 1.2183.14893.2215.52127.5537-.2234.8859 0-.4429.37234-1.3289.07447-1.9934.14893l-.1108-.29786zm-1.5505 0l-.2215-.29787c.1108.07446.1108.14893.2215.14893.443-.59574 0 .2234.5538.07447-.1108.29787-.3323.07447-.5538.07447zm4.43-.14894c-.1107.07447-.2215.07447-.2215.2234.5537.44681 1.329 0 1.772-.07446l-.1108-.14894c-.2215-.2234.5538 0 .7753 0-.1108.07447-.2215.07447-.2215.2234.1107.07447.1107.14894.2215.14894.1107-.07447.443-.14894.443-.29787l-.1108-.14894.443.07447-.3322.14894c.5537.59573 1.9935-.22341 2.5472.37233-1.4397.52127-3.101-.4468-4.5407-.07447-.1108.22341-.6645 0-.886 0l-.3322-.37233c.1107-.29787.3322-.14894.5537-.07447zm6.0912.2234l.5537.44681c-.2215.2234-.443-.07447-.5537-.22341v-.2234zm-.6645 1.41488c-.443 0-.9967-.2234-1.4397-.07447.6645-.14893 1.1075-.4468 1.4397.07447zm1.772.37233l-.886-.14893.1107-.2234.7753.37233zM136.553 21.3721l-1.107-.149v-.0744l1.107.1489v.0745zm.665 0l.554.0744v.0745l-.554-.0745v-.0744zm3.876.6702l.554.0744v.0745l-.554-.0745v-.0744zM46.4036 8.04245c0 .14894-.1107.14894-.2215.2234l-.3322-.07446.1107-.2234.443.07446zM138.547 22.2657l-.554-.2979 1.108.1489-.554.149zm4.984.1489c.775-.0744.332.5213.553.8192-.332.2978-.886.2978-.996.0744.11-.1489-.111-.2234-.222-.3723-.221.2234-.554.2234-.775 0l-.332-.3723c.332-.5958.996.0744 1.329-.3724 0 .0745.221.2234.443.2234zM41.3092 8.93606l-.5538-.07447 1.1075.07447h-.5537zm2.3257 0c-.3323 0-.5537.14893-.9967.07447.2215-.14894.6644-.14894.9967-.07447zM141.537 23.8295l-.554-.0745c-.221-.1489.333-.0744.554.0745zm2.104.4468l.111.1489c-.221.149-.775-.4468-1.218-.0744l.332.3723-1.329-.2234c.665-.2979 1.44-.4468 2.104-.2234zM24.5861 9.15946c.2215.07447.886-.37233 1.1075-.07447-.5538 0-.6645.52127-1.1075.07447zm-3.2117.81914h-.7753c.3323-.29787.3323 0 .7753 0zm35.6611-1.11701l.5538-.29787.5537.52127-1.1075-.2234zm73.6485 8.71271c.332-.2234 1.218.2978 1.661-.0745-.332.5213-1.108 0-1.661.0745zm-1.551-.8192v-.1489l.554.0744v.149l-.554-.0745zm-3.101-.5957c.775-.0745 1.772.1489 2.88.2978-.997.4468-1.772-.2978-2.88-.2978zm7.531 1.0425l-2.547-.2979c1.107.149 1.661-.2234 2.547.2979zm10.3 1.0426c-.111-.0745-.111-.2234 0-.3724l.332.149c-.443.0744.222.3723-.332.2234zm-9.414-1.4149l.111-.2234c.221.3723.775 0 1.107.0744-.332.2234-.775.2979-1.218.149zm-.221-.2979l-.665.1489c.111-.2234.443-.1489.665-.1489zm6.755.8191c-.221-.2234.222-.5212-.221-.7446l.554-.149c.664.149 1.882.2979 2.436.7447-.554.149-1.329.2234-1.993.2979.11-.0745 0-.1489-.111-.2234-.222 0-.443.1489-.665.0744zm-3.322-.7446l.221-.0745-.886-.2234c.554.1489 1.108.0745 1.329-.2979l-.11.2234 1.218.2979c-.443.1489-1.108.2234-1.772.0745zm-7.088-1.4894l.332-.1489-.111-.1489c-.11-.0745.776-.2979 1.108.0744-.111.0745-.222.0745-.222.2234l.665.2234c-.332.2234-.886.4468-1.329.3724.332-.4468-.332-.4468-.443-.5958zm-.222-.7446l.554.0744c-.221.149-.443.149-.664.149l.11-.2234zm3.987.4468c.222.5212 1.108-.2979 1.329.4468.222-.0745.554.2234.886.3723h.443c-.11.0745-.332.0745-.443 0l-.664.0745v.0744c-.775.5213-1.772 0-2.658-.0744.221-.0745 0-.3724.332-.5213-.111-.2979-.997 0-.775-.4468l1.55.0745zm8.86 1.4148v.149l-.553-.0745v-.0745h.553zm3.655.8192v.0744l-.554-.0744v-.0745l.554.0745zm7.863.0744c.111-.3723-.332 0-.332-.2978.221.0744.775 0 .664.3723l-.332-.0745zm-5.205-2.3084l.111.1489c-.111.2979-.554.2979-.886.2234l.775-.3723zm-11.629-1.4894v-.0744l1.219.1489v.1489l-1.219-.2234zm-3.654-.5212c0-.2979.664-.2234.996-.2979l.111.1489c-.221.0745-.554.3724-1.107.149zm6.202.3723l-.111.2234c-.222-.5213-.775.2979-1.108-.1489l1.219-.0745zm-2.769-.5957c.221-.2979.443.1489.775.2234-.332-.0745-.664 0-.775-.2234zm-4.873-.6703l-.222-.2978c.111-.0745 0-.149-.11-.2234-.886.1489-2.215-.3724-3.323-.5213-.111-.1489-.221-.3723-.554-.2979.443-.3723 1.44.149 2.105-.0744l-.111.2234c1.329-.149 2.104.8936 3.212.968-.111.0745-.554.4468-.997.2234zm4.319-.8191c-.111.0745-.221.0745-.221.2234.553.2234-.222.2234.221.5213l1.661.2234c-.664.2978-1.55-.3724-2.325 0-.333.0744-.997-.2979-1.44-.4468-.222-.0745.886-.149.554-.3724.553.3724.664 0 1.107.5213.222-.2234.332-1.0425.443-.6702zm2.215 1.6383l-.332-.2979.443.0745-.111.2234zm2.437-.2234c-.443-.149-.776-.0745-1.108.1489.111-.1489-.111-.2234-.111-.2979h-.332c-.111.149.111.2979.111.4469l-.443-.0745c-.222-.2234 0-.2979.332-.3724 0 0 .111-.0744.222-.0744v.0744c.443 0 .996 0 1.329.149zm.221.3723c0 .149-.332.149-.554.149l.111-.2234.443.0744zm7.863 1.4149c-.554-.1489-1.107-.1489-1.55-.1489 0 .0744-.111.0744-.111.1489 0-.0745 0-.1489-.222-.1489l.554-.149 1.329.2979zm4.762.5957c-.11.2979-.886-.2234-.996.2234l-.333-.0744.333-.149-.111-.1489 1.107.1489zm-4.208-.1489c.111-.0745.221-.0745.221-.2234-.11-.0745-.221-.0745-.443-.1489l.886.2234-.664.1489zm-1.551-.0745c-.11 0-.11 0-.221.0745 0 0 0-.0745-.111-.0745h-.332c-.111-.0744 0-.2234.111-.2978 0 .1489.221.2234.332.2978h.221c.333-.0744.665-.0744 1.108 0h-1.108zm-24.697-4.0212c-.221 0-.443 0-.11-.0745l.11.0745c.222 0 .554.0745.554.2234-.221.0745-.443 0-.554-.2234zm28.906 9.3829l-.665.2234c.222-.0745.222-.149.222-.2979l.443.0745zm-2.658 21.6699v-.1489l-.665-.0745v.1489l.665.0745zM6.75546 10.9467c-.11075.5212.88599.5957 1.10749.5957-.55375-.1489-.55375-.7447-1.10749-.5957zM3.10075 28.1486c.11075.0745.11074.2979.33223.2979l.11077-.2234-.443-.0745zm.55376 1.8617l-.11076.3723.22149-.2979-.11073-.0744zM21.0421 8.78713l.5537.07446.2215-.07446h-.7752zm19.2703-4.5425l.5538.07447v-.07447h-.5538zm14.7297 1.86168h.4429c0-.37234.7753 0 .6645-.14894-.443-.37233-.443.29787-1.1074.14894zm3.2117-1.56381c-.3323-.14894-1.329.07446-.7753 0 .1108.29786.5538.07446.7753 0zm-.1108 1.48934c-.3322.07447-.6645.07447-.7752-.07447 0 .2234.3322.14894.5537.2234 0-.07446.1108-.14893.2215-.14893zm.2215-.07447c.443 0 .7753.2234 1.329-.07446-.2215-.14894-.7752 0-1.329.07446zm1.6613 0l.2214.37234.2216-.07447-.443-.29787zm.443 1.11701l.443.07447c.1107-.14894-.3323-.29787-.1108-.52127l-.3322.4468zm-1.772-1.86168c.443 0 1.5505-.07447 1.2182.52127 1.329.14894-.443-.6702.2215-.8936.2215.74467 1.329-.00001 1.329.8936.443-.2234.6645-.6702 1.329-.74467-1.5505-.07447-2.215-.37234-3.4332-.59574l.1107.52127c-.2215.4468-.886-.14893-.9967.29787h.2215zm4.5407-.07447c.3322 0 .886.37234 1.2182.07447 0 .2234.3323.14894.5538.2234l-.1108 1.04254.6645-.37233-.3322-.07447c.1107-.14894.2215-.67021.6645-.81914.2215.2234.6645.07447.8859.37234 0 .14893-.1107.14893-.2215.2234.443.52127 1.4398-.14894 1.5505.4468l.3323-.14893c.3322 0 .443.14893.5537.29787 1.772-.29787 1.772 1.78721 3.4332.96807l-.443.07447c-.6644-.74468-2.3257-.74467-2.5472-1.63828-.2215-.07447-.5537 0-.5537-.2234l1.2182-.07447c-.2215-.07447-.5537 0-.5537-.2234l.7752-.14894-2.5472-.29786c-.3323-.07447-.7753-.59574-1.1075-.07447-.5537-.07447-.9967-.37234-1.329-.67021-.3322.81914-1.4397.37234-2.215.52127l.1108.52127zm13.5114 4.7659c.1107-.2234.1107-.37233-.1108-.52127l-.1107.37234c0 .07447.1107.14893.2215.14893zm.443-2.97868l.443.07446.3322-.07446h-.7752zm-4.7623-1.63828c-.5537.14893-1.8827-.37234-1.8827.29787l.2215-.07447-.1107-.14894c.1107-.2234.443 0 .6645 0 .6644.52128 2.1042.52128 3.1009.22341.3323 1.19147 1.329.8936 2.4365 1.26594l.1108-.2234c-.1108-.07447-.1108-.14894-.2215-.14894-.3323.2234-1.2183-.2234-1.772-.37233.1107-.44681.886.07446.9967-.2234-.1107 0-.2215-.07447-.2215-.14894l.3323-.14893c.9967-.14894 1.7719.37233 2.4364.14893l-2.2149-.4468.1107-.29787-.6645.52127c-.886-.67021-1.1075-.14893-2.1042-.6702l.2215.37233c-.3323.4468-.9968 0-1.4398.07447zm5.9805 3.20209l.5537-.29787-.5537-.07447c.1107.14894.1107.2234 0 .37234zm5.316-2.82976l.6644.07447v-.14893l-.6644.07446zm-3.101.14894c-.3323.4468-1.2183.81914-1.5505.81914l.1107.14893c-.3322.29787-.6644 0-.9967.2234.6645.07447 1.2182.2234 1.8827.14894.3323-.44681 1.2183-.37234 1.772-.29787h-.1107c-.1108-.2234-.886-.14894-.6645-.59574.6645 0 1.329-.14893 1.9935.07447.6645.52127 1.1074.07447 1.8827.14893-.886-.29787-1.9935-.4468-2.7687-.8936 0-.14894.2215-.2234.443-.29787.1107 0 .2214.07447.2214.14893l.2216-.6702c-.2215.4468-.886.2234-1.329.37233-.3323.74468-1.5505.22341-2.3258.37234.5538.14893.9968-.14893 1.2183.29787zm4.3192.81914v.14893l.443.07447c.1107.14893.2215.29787.443.07447l-.443-.07447c-.1108-.14894-.2215-.29787-.443-.2234zm2.4365-.44681c.1107 0 .1107 0 .2215.07447 0 0-.1108-.07447-.2215-.07447-.3323-.07446-.6645.00001-.7753-.37233.1108-.4468.886.07447.9968-.2234-.3323-.07447-.7753 0-.9968-.29787l-.1107.2234c-.2215.07447-.443.29787-.6645.2234 1.2182-.07447-.2215 1.11701.443 1.56381.3322.07447.886 0 .9967-.29787l-.1107-.14893h.7752c-.5537 0-.886-.07447-1.329-.29787 0-.37234.5538-.37234.7753-.37234zm1.6612 1.19148c.1107.37234-.2215.8936-.886.8936l.2215.07447c.7752-.81914 1.1075.52127 1.9935.07447-.3323-.14893-1.1075 0-1.329-.4468.1107-.29787.6645-.37234.6645-.74468-.2215-.07446-.3322.07447-.5537.14894-.5538-.07447-.1108-.37234-.3323-.52127.1108-1.26594 1.8827.6702 2.215-.37234l-1.4398-.37233c.1108-.07447.2215-.14894.3323-.07447l-.886-1.19147c0 .2234.443.59573-.2215.6702l-.2215-.29787c-.1107.81914-.6645 1.71275.443 2.15955zm3.2117-1.41488l.5538.07447c0-.14894-.443-.37234-.5538-.07447zm2.3258 1.56381h-.886c.2215.29787.7752 0 .886 0zm.9967-.4468c-.7753-.89361-3.101 0-3.544-.6702 0 .14893-.1107.14893-.2215.2234.3323.37233 1.5505.14893 2.3258.2234.3322.74467.6644 0 1.4397.2234zm1.1075.52127l-.2215.2234.443-.07446-.2215-.14894zm-.2215 3.12765l-.2215-.2979c-.1108.0745-.443.1489-.443.2979.3322 0 .6645.2234.6645 0zm1.5505-2.60638c-.1108 0-.2215-.07447-.2215-.14893l.7752-.44681-.3322.07447c-.5538-.52127-1.329-.52127-1.8828-.59574.2215.07447.6645 0 .6645.2234l-.2215.07447.3323.2234.1107-.29787c.2215 0 .3323 0 .443.14894-.1107.07447-.2215.07447-.2215.2234.1108.29787.2215.52127-.2215.59574.443-.07447.3323.29787.6645.37233l.1108-.4468zm2.3253-.37233c.333 0 .776.07446.886-.29787-.664-.37234-.775 0-.886.29787h-.221c.111.07446.111.07446.111.14893-.111.2234-.222.37233-.5541.29787l.5541.4468c.221-.07447.775-.2234.553-.14893-.332-.14894-.221-.29787-.443-.52127v-.2234zm.997.07446c.111-.14893.332-.07446.443-.07446l-.111-.14894-.332.2234zm1.108.52127l-.665.2234.332.07447c0-.14893.333-.14893.333-.29787zm2.768 3.27658l-.996-.2979.221.2979c.222.0744.554.2234.775 0zm1.108-.5213v.0745l.664.1489v-.1489l-.664-.0745zm1.993-2.45741l-3.765-.2234c-.332.52127-.775-.29787-1.108.07447-.332.37233-.443-.37234-.664.14893.554-.14893.664.52127 1.107.07447l.111.14893.332-.14893c.997-.07447 1.44.59574 1.994.07447.443.59573.332.2234.997.29786-.111 0-.222-.07446-.222-.14893.443-.37234 1.108.07447 1.218-.29787zm-1.218-.81914c.554.4468.997-.07447 1.44.07447l-.111-.2234c-.775.07446-1.55-.67021-2.436-.2234-.111-.22341-.886-.14894-.665-.59574l-.332-.07447c-.222.89361 1.55.4468 2.104 1.04254zm1.551 1.26594l.443.07447v-.14893l-.443.07446zm-.997 2.23401c.221.2979.886 0 .997.5213.221-.4468-.554-.6702-.997-.5213zm3.433-2.53187l-.997-.29787.111.14893.886.14894zm-1.883-1.19148c.333.89361 2.105.67021 2.88.81914-.111-.4468-.886.2234-.665-.37234-.664.44681-1.55-.2234-1.882-.14893 0-.14894 0-.29787-.333-.29787zm2.215 1.78721v.07447l.886.14894v-.14894l-.886-.07447zm1.219 3.05314c-.443-.0744-.111-.3723-.665-.3723-.221.0744-.221.1489-.221.2978.221-.0744.664.4469.886.0745zm0-4.24461l.443.07446c.221.07447.664.07447.553.29787.776.14894 1.662.14894 2.105.67021.11-.4468.886-.14894.996-.29787l-1.993-.52127.111.14893-.222.07447c-.664-.07447-1.218-.37234-1.44-.81914.222.37234-.443.2234-.553.37234zm4.319 2.53191l-.554-.2234.111.1489.443.0745zm.443-.89363c-.443.59573-.886-.44681-1.44.14893.332-.07447 1.329.5213 1.44-.14893zm.221-.81914l.332-.07447h-.775l.443.07447zm.997 4.17017h-.886l.554.0745.332-.0745zm.664-4.24464l2.105.2234v-.07447c-.554-.07446-1.994-.52127-2.105-.14893zm2.548.29787l.664.2234.665-.14893-1.329-.07447zm.996 3.87227l-.553-.0744c0 .2234.332.1489.553.2234v-.149zm1.772-3.72334h-.775c.222.07447.665 0 .775.22341v-.22341zm.997 2.97864l.111.149.221-.149c-.221.0745-.553-.3723-.332 0zm2.326.2235c-.443-.149-.886-.0745-1.108.1489.333-.0745.886-.0745 1.108-.1489zm.554-.3724c-1.108-.5213-2.991-.2979-4.209-.5957l-.111.2234.333.0744c1.661-.1489 2.215.2979 3.987.2979zm-.886 1.9362c.221 0 .221.2234.332.2978l.111-.2234-.443-.0744zm1.329.4468v-.0745l-.443-.0745c0 .149.221.149.443.149zm-.222 1.0425c.111-.0745.554-.1489.111-.3723l.332-.149-.554-.2978c-.11.4468-.775-.0745-.886.2234.665-.149.665.3723.997.5957zm1.329-4.7659l.111.1489.443-.0744-.554-.0745zm1.44 2.383l1.107.0744c-.221-.2978-.886-.1489-1.107-.0744zm3.876 2.3829v-.1489l-.443-.0745v.0745l.443.1489zm7.642-3.5l-.554-.2978.222.2234.332.0744zm-2.658 11.9893c.111.0744.111 0 0 0 .111 0 .111 0 0 0-.111-.0745-.332-.2234-.443-.2979l.997.1489c-.111.2234.332.2979.553.2979-.664-.0745-1.329.2234-1.993.2979l.111.1489-2.437-.1489c.111-.149-.111-.2234-.221-.3724.332.2979.553.3724 1.218.2979l.221-.2979c-.221-.2234-.664-.1489-.996-.2978l1.329-.0745-.222.0745.222.2978.886-.3723-.111-.1489.554.0744c-.111 0-.111 0-.222.0745-.111.5213.332.2979.554.2979zm.111 9.6807v-.0745l-.776-.0744v.0744l.776.0745zm2.215 2.0851l.11-.2234-.553.1489.443.0745zm3.433-10.2765l.111-.1489-.776-.2234.665.3723zm1.329.0745l-.554-.2234-.111.2234h.665zm-.333.968l.111.149-.886.3723.111.1489c0 .2235-.221.2235-.332.4469l.443.0744c-.111-.2978.775-.6702.775-.9681l.332-.1489c0-.3723-.332-.1489-.554-.0745zm1.108-.7446v-.0745l-.443-.0745v.149h.443zm1.661 1.0425c-.554-.1489-1.218-.5957-1.772-.3723.665.3723 1.218.2978 1.772.3723zm-.443 1.0426l.332-.0745h-.886l.554.0745zm1.108-2.4575c-.333-.0744-.776.3724-1.219.3724.443.5957.665-.4468 1.219-.3724zm.443-.1489l.443-.2234-.333-.2979c-.332.2234-.443.3724-.11.5213zM89.928 9.01053l-.3323-.07447c0 .07447 0 .14893.1108.2234.1107 0 .2215 0 .2215-.14893zm-28.4625-.59574c-.1108-.07447-.1108-.14894-.2215-.2234 0 .07446.1107.14893.2215.2234zM154.827 21.9678l.443.1489c.111 0 .332 0 .443.0745v-.0745l-.443-.0744v-.0745c.111-.1489.332-.0745.554-.0745-.222-.4468-.776.2235-.997.0745zm-8.749 28.1486c.221.0745.332.2234.554.2979.11 0 .221 0 .332-.0745v-.1489l-.332.2234c-.111-.149-.222-.3724-.554-.2979zm5.869-19.8083v-.1489l-.996-.0745v.149l.996.0744zm-4.319 10.7978l.775.2234v-.2234c-.11-.149-.664-.2979-.775 0zm-.111.3723l-.11.2234c.664-.1489 1.329.0745 1.882-.2978-.775 0-1.107.2978-1.772.0744zm-2.325 8.7127v-.149c-.111-.0744-.222-.2978-.443-.2978l-.111.3723.554.0745zm4.208-17.053l-.443-.1489.443.2978v-.1489zm-1.329 5.734l-.443-.0745-.221.0745h.664zm-.664 4.1701v0c0-.0744.11-.0744.221-.1489.111-.3723-.996-.6702-.221-.9681-.333 0-.665-.2234-.886-.3723l.775-.2979-.443-.3723-.111.3723c-.443.2979-.664-.2979-1.107 0l.664.2234-.332.2234h.332c.333.149 1.218.2979.775.8192.333-.0745.443.2978.333.5212zm-5.648-.968v.1489l1.329.1489v-.1489l-1.329-.1489zm-3.323 6.7765v-.149l-.997-.0744v.1489l.997.0745zm1.994-15.6381l-.111-.149c-.111.149 0 .149.111.149.221 0 .553 0 .664.0744 0 .149.111.2234.222.2979 0-.1489-.111-.2234-.222-.2979 0-.1489.111-.2978.332-.2978-.11-.4468-.996.2978-.886-.3724l-1.107-.1489 1.218.4468c0 .1489 0 .2979-.221.2979zm-5.649 12.5849l.665-.1489h.111c.11.0744.332.2234.221.3723.665-.2234.886.0745 1.551-.0745l-1.662-.2978v-.0745h-.886v.2234zm-2.104 2.0851v-.1489l-.443-.0745v.1489l.443.0745zm5.205-28.1486v.1489c-.221-.0744-.332-.1489-.443-.2234.111 0 .222.0745.443.0745zm-3.654 14.9679c-.222-.2979-.665-.1489-.886-.0745-.111-.0744-.111-.0744-.222-.0744 0-.0745-.111-.0745-.111-.2234l-.332.2234c.222.0744.332 0 .443 0 .111.0744.111.0744.222.0744 0 0 .11.0745.11.149.222 0 .665.1489.776-.0745zm-4.652-.7447v-.0744c.332-.0745.775-.2234.775.2234l-.775-.149zm16.834-12.8083c.111 0 .111 0 .222.0744-.111 0-.111.0745-.222.0745v-.1489zm-1.218-.149c.111 0 .111 0 0 0 .111.0745.221.0745.221.149 0-.0745-.11-.149-.221-.149zm6.091.8192l.554.5212c-.222.0745-.776.2979-1.219.0745v-.2234c-.221 0-.332-.0745-.553-.1489-.222 0-.443.0745-.554-.0745.221 0 .443 0 .554.0745.221 0 .553-.0745.553.1489.222.149.443.0745.665-.3723zm1.329.4468l-.775-.0745c.221-.5213.332.2234.664-.1489-.111.0744 0 .1489.111.2234zm-17.609-4.3936c-.222.0745-.443.2234-.665.2979-.443 0-.775-.0745-1.107-.3723.554-.2234 1.107-.0745 1.772.0744zm3.765 1.7128l.333.3723c-.333 0-.776 0-1.108-.1489v-.149c.222 0 .332-.0744.554-.1489.111.0745.111.0745.221.0745zm1.219.5212h-.222v-.1489c-.111 0-.111-.0745-.221-.1489.332.0744.553.0744.996.2978h-.553zm2.99.3724c0 .0744.111.1489.111.1489-.443-.0745-.997-.1489-1.44-.3723.443-.0745.886.1489 1.329.2234zm1.661.0744c-.111 0-.221-.0744-.332-.0744-.222.2978.443.2978.443.4468-.222-.0745-.554-.0745-.886-.149-.111-.0744-.111-.1489-.111-.2234.111 0 .332-.0744.443-.2234.111.0745.443.0745.443.2234zm3.322.9681c-.221 0-.443-.0745-.775-.2234h-.111l.111-.0745c.332.0745.554.0745.775-.0744l.333.0744v.0745h.332c-.222.0745-.443.1489-.665.2234zm2.215-.0745h-.11l.11.149-.553.2978-.222-.2978-.111.2234c-.11.1489-.332.0744-.553.0744-.111-.0744-.222-.1489-.222-.2978.111-.0745.222-.149.332-.0745l.111-.2234 1.108.0745s0 .0744.11.0744zM6.42322 42.5952l-.443-.2978c0 .1489.00002.2978-.22149.2978-.11075-.0744-.443-.3723-.66449-.1489l-.11077.2234.66449-.0745h.77526zM3.65451 32.2443c0 .2234.33223.4468.44298.6702L4.319 32.84c0-.2978 0-.7447-.66449-.5957zM141.98 27.1805l-.111.2979.111.0745c-.111-.0745-.221-.0745-.332 0v-.0745c0-.1489 0-.2979.111-.3723l.221.0744zm-.443-.0744h.443l-.221.0744c-.111 0-.111-.0744-.222-.0744zm5.427 1.4893l-.111.3723-.443-.0744h.111c-.111-.0745-.222-.149-.443-.149v-.0744c.111-.0745 0-.149-.111-.2234h-.332c.664-.5213.664.5957 1.329.1489zm1.772 1.2659v.149l-.665-.0745v-.1489l.665.0744zm-4.43-1.4893l-.554-.0745c.222 0 .443.0745.554.0745zm-6.424 2.4574c0 .2234-.886-.1489-1.218-.2234l1.218.2234zm1.772.3723l-1.107-.2234c.221 0 .443-.0744.554 0-.222-.0744-.554 0-.554-.1489 0 0 .111 0 .111-.0745.11.149.553.149.996.2234-.11.0745-.11.149 0 .2234zm.776.149l-.776-.149c0-.0744.111-.1489.111-.2234.222.0745.554.149.665.3724zm-1.772.3723l-1.108-.2234v-.1489l1.108.3723zm.332.0745l.886-.0745c-.332.0745-.665.2979-.886.0745zm-6.091-.5958h.221c-.111.0745-.221.0745-.221 0zm.996.4468c-.221 0-.332 0-.553-.0744.221 0 .332 0 .553.0744zm1.329-.1489v.1489h-.443c-.11-.0744-.221-.1489-.443-.1489.333-.0745.665 0 .886 0zm.776.4468l.664.0745-.111.0745c-.221-.0745-.332-.0745-.553-.149h-.222l.111-.1489.111.1489zM5.09424 22.638c-.33226-.7447.55374-.8191 1.32898-.8191 0 .0744-.11075.2234-.2215.3723l-.55376-.0745c.11075.0745.11078.2235.22153.2979l-.77525.2234zM72.8726 34.1804c.1108.0745.1108.149.3323.149l-.5538.1489c.2215 0 .2215-.1489.2215-.2979zm8.86.5213c.1107 0 .2215 0 .2215.0745l.3322.1489c-.3322.5213-.2215.0745-.3322-.1489l-.2215-.0745zm64.6774-4.2446c-.554.0744-1.218.3723-1.661.0744.111-.1489.332-.2234.443-.2978.443 0 .886.0744 1.218.2234zm-12.515 1.7127c.443 0 .776 0 1.219.0745.221.0745.443.1489.775.1489-.222 0-.332.149-.554.2979-.554-.2234-1.55.2234-1.44-.5213zM9.52419 29.489c1.21821-.0745 2.54721-.3723 3.87621-.2979-1.1075.2234-2.658.2979-3.87621.2979zM148.957 28.2975l-.221-.3723c0 .1489 0 .2979-.222.2979.222.0744.554 0 .443.0744zM7.08771 36.34h-.33225c-.99675-.2234-.88598.5212-.77524.8191.2215-.2979 1.32898-.2979 1.10749-.8191zM5.09424 47.659c.11075.0745.11075.2234.33224.2234v-.1489l-.33224-.0745zm.66449 1.3404l-.11077.2234.22153-.2234h-.11076zm1.66124-4.8404l-.33226.0745c-.2215-.2979-.66449-.4468-.99674-.5957.33225-.2979.99674-.3724 1.329-.3724-.77526-.3723-1.21823.0745-1.66124.2979-.11075-.0745-.2215-.1489-.33225-.2234-.11075 0-.22149.0745-.22149.1489.22149 0 .33223 0 .44297.0745-.11074.0745-.22148.0745-.44297.0745-.11075-.8192-1.88274-.149-2.54724-.5213-.11075-.2979.443-.2979.443-.5213-.77523-.5212-1.55049.4468-2.104244.5958-.110749.4468-.885971.7446-.99671962 1.117C1.88252 43.9356 3.65451 43.5633 5.75873 43.8612c0 0 .00001-.0745.11076-.0745l.11073.0745c-.11074 0-.22149.0744-.22149.1489.44301 0 .55374.1489.77524.3723.443-.0744.77525-.1489.886-.2234zm6.53413 4.0213l.2216-.0745h-.5538l.3322.0745zm21.7069 3.4255v-.0745h-.443l.443.0745zm11.4071 3.1276l.7753.2234c-.2215 0-.5538-.2979-.7753-.2234zm1.5505-.149l-.6645.149.1108.0744c.2215-.0744.5537-.0744.5537-.2234zm2.5472.5213h.5538c-.2215-.0745-.6645-.2234-.443-.3723-.1108.0744-.2215.2978-.1108.3723zm6.3127-2.7553c.443-.1489 1.1075 0 1.6613-.0744l-1.5505-.0745-.1108.1489zm11.0749.149c1.6613 0 4.5407.2978 5.5375-.0745-.6645-.1489-1.2183.0745-1.772-.1489-1.1075.4468-2.8795-.2979-3.7655.2234zm5.8697.1489c.2215-.2234.5538 0 .7753-.0745l-.6645-.1489-.1108.2234zm2.1043-.0745c-.2215 0-.6645-.1489-.9968 0 .1108-.0744.7753.0745.9968 0zm3.6547.149c-.6645-.0745-1.1075-.0745-1.8828-.0745l2.215.2234c.3323-.0745.886-.1489 1.1075.0745.2215-.0745.443-.149.3323-.2979-.5538 0-1.329.2234-1.6613-.2234 0 .0745 0 .2234-.1107.2979zm8.8599.3723c-.1107-.0745-.6645-.0745-.7752 0 .2215 0 .5537.1489.7752 0zm5.9805.3723c-.886-.1489-1.6613-.1489-1.9935-.0744.5537.1489 1.329.0744 1.9935.0744zm25.3615-15.5636c0 .2234-.332.0745-.554.0745v-.149l.554.0745zm10.964 15.6381v-.0745h-.443l.443.0745zm1.218-2.0106v-.0745l-.664-.0744v.0744l.664.0745zm2.215-4.9148l.111-.0745-.443-.149.332.2235zm0 6.4041v-.1489l-.443.1489h.443zm2.437-7.3722l.111-.0745-.665-.1489.554.2234zm-.665 1.2659l-.332.149c.554.1489.554-.0745.886-.149-.332-.2234-.554-.1489-.886-.0745.222-.0744.222.0001.332.0745zm1.772-.5213l.111.0745-.775.2234.111.0745c0 .1489-.222.1489-.222.2979l.443.0744c-.111-.2234.665-.5213.665-.6702l.332-.1489c-.222-.149-.554 0-.665.0744zm.554-.5957h.111-.111zm1.994.8192c-.554-.0745-1.108-.4469-1.662-.2979.333.1489.554.1489.886.2234-.332.0745-.11.3723.111.4468v-.4468c.111 0 .332 0 .665.0745zm-.333.7446l.333-.0744h-.886l.553.0744zm.776-1.7872c-.333 0-.665.2979-1.108.2979l.111.0744c-.222 0-.443 0-.665.0745l-.443-.3723c0 .0744-.11.1489-.11.1489l-.333-.0745v.0745c-.332-.1489-.553-.5213-.886-.2979l.333.0745-.222-.0745v.149h.443l.222.0744-.443.2979c.443.0745.775-.2979 1.329-.0745 1.107.5213 2.104.4469 3.211.9681l-.664.149c.997-.0745.221.3723.886.5957l.221-.2979c.222 0 .333.2979.554.4468.111-.0744.443-.1489.443-.2978-.221 0-.332-.2234-.443-.2979 0 .1489 0 .2979-.221.2979.11-.2979-.443-.3724-.665-.5213.332-.2234.775.0745.997-.149.664.5958 2.547.2235 2.769 1.0426-.554.2979-.665-.2234-1.329-.1489.221.2234 1.329.1489.886.5957.221.3723.553-.1489.775.2234.553.4468.664-.5957 1.439-.2234l-.553-.4468.443-.0745c.443-.0744.886-.0744.775-.3723h-.332l.11.1489-.221.0745c-.443-.8191-1.772.4468-2.215-.4468-.221.0745-.332.2234-.554.1489-.11-.0744-.221-.1489-.11-.2234-.554-.0744-1.329.2234-1.551-.3723-1.329.0745-2.547-.5213-3.765-.6702.332-.2234.553-.5213.886-.5213zm.443-.0745l.332-.1489-.332-.2234c-.222.1489-.333.2234 0 .3723zm.443-1.6382l.443.0744v-.0744l-.443-.0745v.0745zm1.55-.0745l-.554-.0745.333.2979c.221-.0745.11-.1489.221-.2234zm2.215-.5957v-.0745l-.554-.0745c0 .149.333.0745.554.149zm-43.192 7.968l-.111.0744.222.0745-.554-.1489c.111-.0745.332 0 .443 0zm19.381.4468c.221 0 .997-.2979.997.0744l-.997-.0744zm2.326-1.4894c.664 0 1.55-.2979 2.215 0-.443.2979-1.551.2234-2.215 0zm-1.44-.7447c.443-.2234.997-.0744 1.661-.1489.111.2979.665.2979.997.2234.443-.0745-.222-.5213.554-.2979-.776.149.11.5958-.776.5958v-.149c-.996-.3723-1.439-.1489-2.436-.2234zm1.218-4.8403l-.554-.0745.333-.1489.221.2234zm3.987.2234c-.332.2234-.664-.149-1.107-.2234-.222-.2234.553.3723 1.107.2234zm1.44.0744l.221-.2234c0-.0744-.11-.0744-.221-.0744 0-.0745-.111-.0745-.111-.0745h.554l-.111.0745.222.2234.775-.2234-.111-.0745.443.0745c-.111 0-.111 0-.221.0744.11.2979.553.149.775.149h0c-.111-.0745-.332-.149-.443-.2234l.886.0744c-.111.149.332.2234.554.2234h-.665c-.111-.0744-.221-.0744-.443-.0744-.111.0744-.332.0744-.332.2234-.111 0-.222.0744-.443.0744l.111.0745-2.326-.0745c.111-.1489-.111-.1489-.222-.2978.443.1489.554.1489 1.108.0744zm-.443-.8936c.443 0 .886 0 1.218.2979-.221-.0745-.554-.1489-.886-.2234h.222l-.554-.0745zm-1.772.4468c.111.0745.221 0 .332-.0744.111-.0745-.111-.2234-.221-.2234-.443 0-.443-.149-.443-.2979.886-.2234.886.6702 1.55.2234-.111-.0745-.221-.0745-.443-.1489.222.0744.554 0 .886 0 0 0-.111 0-.111.0744-.11 0-.221.0745-.332.0745-.111.0745 0 .1489.111.1489l.443.0745c-.775 0-1.108.0745-1.551.1489h-.221zm-1.661-.3723c-.111 0-.111 0 0 0zm0-.2234c.221.0745.443.1489.664.1489h-.554l-.11-.1489zm2.325-1.1915l-.996-.1489v-.0745l.996.149v.0744zm.665 0l.554.0745v.0745l-.554-.0745v-.0745zm3.655.4468l.553.0745v.0745l-.553-.0745v-.0745zm-2.437.149l-.554-.2234.997.0744-.443.149zm4.652.1489c.664-.0745.332.3723.553.5957-.221.2234-.775.2234-.886.0745.111-.1489-.11-.1489-.221-.2979-.222.149-.554.149-.775 0l-.111-.0744h.443v-.149l-.554-.0744-.111-.0745c.222-.4468.886.0745 1.219-.2979 0 .2234.221.2979.443.2979zm-1.772 1.0425l-.554-.0744c-.111-.0745.332-.0745.554.0744zm1.993.2979l.111.0745c-.222.0744-.775-.3724-1.108-.0745l.333.2979-1.219-.149c.554-.2234 1.329-.2978 1.883-.1489zm-2.547 2.7553l-.443-.0745h.554l-.111.0745zm.443-5.585c.775-.2235 1.772.4468 2.326 0 .221.0744.443-.0001.553.1489-.11-.0745-.221 0-.332.0745.665.1489.886.2234 1.329.4468-1.107-.4468-2.547-.2979-3.876-.6702zm-3.987-.5213c.332.0744.664.0744 1.107-.0745.776.2979 1.108.0745 1.883.3723h-1.329v-.0744c-.443.0745-1.107 0-1.661-.2234zm10.632 1.1915c-.554.0744-.665.2234-1.329.0744l-.111-.0744c-.221.1489-.554.1489-.775 0-.222-.6702.997.2978 1.55-.149l.665.149zm-17.056-2.6809c.333-.1489 1.108.2234 1.44-.0744-.111.4468-.886.0744-1.44.0744zm-1.439-.5212v-.0745l.553.0745v.0744l-.553-.0744zm-2.88-.4468c.775-.0745 1.661.1489 2.658.2234-.664.2234-1.218 0-1.883-.149v-.0744h-.775zm7.088.7446l-2.436-.2234c.996.0745 1.439-.1489 2.436.2234zm9.525.7447c-.111-.0745-.111-.1489-.111-.2234l.443.1489c-.443-.0744.221.149-.332.0745zm-8.75-1.0425v-.149c.222.2234.665 0 .997 0-.221.2234-.554.2234-.997.149zm-.221-.149l-.554.0745c0-.2234.332-.1489.554-.0745zm6.202.5213c-.222-.1489.111-.3723-.222-.4468l.554.1489c.222 0 .332-.0744.554-.1489.554.0745 1.218.1489 1.55.3723-.443.149-1.218.2234-1.772.2234.111-.1489 0-.2234 0-.2234-.221 0-.332.149-.664.0745zm-1.551-.5957l.222.0744c-.111.0745-.222.0745-.332.0745 0-.0745 0-.1489.11-.1489zm-1.439.0744l.11-.0744-.775-.149c.332.0745.775.0745.997-.0744l.332.2234c0 .0744.111.0744.111.0744-.222.0745-.554.0745-.775 0zm-4.984-.968c-.332.1489-.775.2978-1.218.2234.11-.149 0-.2234-.111-.2234h1.329zm.664-.149c-.221 0-.332 0-.332-.1489l.111-.0745c0 .0745.111.149.221.2234zm2.548.4468c-.665.4468-1.551 0-2.437 0 .222-.0744 0-.2234.111-.3723.775.4468 1.55.4468 2.326.3723zm6.755.3724v.0744l-.553-.0744v-.0745l.553.0745zm10.743.6702c.111-.2979-.332 0-.332-.2234.221.0744.775 0 .664.2234h-.332zm-5.205-1.3404h-.332l.11-.0745c.111 0 .111 0 .222.0745zm-10.632-1.3404v-.0745h.111v.0745h-.111zm-4.43-1.266c.221.0745.332.0745.554.0745-.111 0-.222.0744-.333.1489-.11 0-.221 0-.221-.2234zm-1.772-.5957c.221 0 .443.0744.664.1489-.11 0-.221 0-.332.1489 0-.1489-.332-.2234-.332-.2978zm-2.104-.0745c-.111 0-.111 0 0 0 .11-.0745.221-.1489.332-.1489.221 0 .332.0744.554.0744-.222.149-.554.0745-.886.0745zm3.322.5957c-.111-.0744 0-.0744 0 0l-.111-.0744c-.11-.0745-.221-.149-.221-.2234.221.0744.554.2234.775.2978-.221.0745-.332 0-.443 0zm4.209-.2978c-.111 0-.222.0744-.222.1489.443.0745.111.1489.111.2234-.111 0-.111 0-.111-.0745l.222.2234c-.222 0-.333 0-.554.0745-.222 0-.332 0-.554-.0745-.221-.0744-.443-.1489-.664-.2234v-.1489c.221-.0745.443-.1489.332-.2234.554.2234.554 0 1.107.3723.111 0 .111-.5957.333-.2978zm2.879 1.0425s0 .0745.111.0745h-.443v-.0745h.332zm1.661.2234c0 .0745-.11.0745-.221.0745s-.111-.0745-.222-.0745v-.0745l.443.0745zm7.31 1.0426c-.443-.0745-.886-.0745-1.329-.0745 0 0 0 .0745-.111.0745 0-.0745 0-.0745-.221-.149l.443-.1489 1.218.2979zm4.541.3723c-.111.2234-.886-.1489-.886.1489h-.333l.333-.1489h.11v-.0745l.776.0745zm-3.766-.2234c-.111 0-.221-.0745-.332-.0745l.332.0745zm-.111.1489c.111 0 .222-.0744.222-.1489 0 0 0 .0745-.111.0745l-.111.0744zm-1.218-.0744h.775-.775zm-.886-.149c.111 0 .111-.0744 0 0zm4.873 4.0212l-.664.149c.221 0 .221-.1489.221-.2234l.443.0744zM56.7033 33.957c-.3323 0-.7753-.0744-1.1075 0-.1108-.0744-.1107-.0744-.2215-.1489.3323-.0745.6645-.0745.886-.1489h.5537c-.3322.0744-.2215.1489-.1107.2978zm5.8697-.0744h-.2215.2215zm.7752.0744l-.1107.0745c-.1108-.1489-.2215-.1489-.443-.1489.2215 0 .443 0 .5537.0744zm11.6287.5213c.1107.2979.7752.1489 1.4397.2234 0 .0745 0 .1489-.1107.1489l-2.7688-.2978 1.4398-.0745zm1.4397.0745c-.2215 0-.443-.0745-.5537-.0745.3322-.0745.6645-.1489.9967 0-.3322-.0745-.443 0-.443.0745zm3.4332.3723h-.2215v-.0745h-.3322v-.1489c.1107 0 .2215.0745.3322.1489l.2215.0745zm1.5505.1489c-.3322 0-.5537-.0744-.7752-.1489.2215-.1489.2215-.2979.7752-.1489v.2978zm3.2117.149h-.3322c.1107-.0745.2215 0 .3322 0zm4.5408.1489c-.3323-.0745-.7753-.0745-1.1075-.1489.1107 0 .1107 0 .2215-.0745h1.3289c-.1107.1489-.2214.2234-.4429.2234zm3.4332.2979c-.443 0-.886 0-1.4398-.0745.5538-.1489.9968-.3723 1.4398.0745zm6.3127.5212c-.886-.0744-1.772-.1489-2.5473-.3723v-.0745l-.2215.0745c-.1107 0-.1107 0-.2215-.0745.5538-.3723.7753.2234 1.329-.2234l.1108.3724.6645-.149-.1108.2234c.1108.2234.443 0 .6645-.0744l.3323.2978zm4.8733.3724c-.997-.149-2.105-.149-3.323-.2234-.221-.149-.5536-.2234-.7751-.4468 1.5501-.2234 2.7691.2978 4.0981.6702zm3.654-.0745c-.443.8192-1.439 0-2.215.2979-.221.0744-.553.0744-.775 0l-.221-.2234v-.0745c0-.1489.11-.1489.221-.2234.111 0 .222-.0745.222-.0745.221.0745.443.2234.664.0745.554.1489.997.5213 1.661.5213l.111-.2234c.111-.149.222-.149.332-.0745zm2.105.5213c-.222 0-.443-.0745-.665-.1489.332 0 .554 0 .665.1489.11-.0745.11 0 0 0zm4.873.4468c-.111-.0745-.222 0-.333 0-.221 0-.553.1489-.664.2979-.111 0-.111-.0745-.222-.0745l-.221-.3723v.1489c-.111-.0745-.111-.1489-.222-.1489.443 0 1.108-.2235 1.662-.0745-.111.0744 0 .1489 0 .2234zm7.087.5213c-.11.0744-.11.1489-.11.1489-.222.1489-.333.3723-.443.5213.332-.149.664-.2979.996-.3724.111.0745.222.0745.222.2979-.222.1489-.332-.0745-.554-.0745-.443.7447-1.772.0745-2.215.149-.111-.0745-.111-.149-.111-.2234l-.332.2978c-.996.0745-.443-.7446-.554-.6702-.332-.0744-.664-.1489-.885-.2978-.222 0-.554 0-.886-.0745v-.1489c1.218-.2979 2.104 0 3.211.2234.222.2978-.664.3723-.332.4468 0-.149.111-.149.221-.2234l.111.1489v-.1489c.332 0 .443.2978.775.4468.111-.0745.443-.149.111-.2234l.222-.0745-.554-.2234 1.107.0745zm7.31 0c-.111 0-.222-.0745-.443-.0745v-.0745l.664.0745v.1489l-.221-.0744zm6.756 0h.996c0-.0745 0-.2234.222-.2234.221.1489.664.1489.554.3723.332 0 .664.0745.775.1489.111 0 .111-.2978.221-.3723v.1489l.443.0745c.333.1489.665.3723.886.0745l.222.2978.111-.0744c.221 0 .443.0744.553.1489 0 .0745-.11.0745-.11.1489h.221c-.221.2234-.775.0745-1.107.2979.886.5213 1.993-.2234 2.768.3723h-.11c-.333 0-.665 0-.886-.2234l.11.149-.332.0744c-.775 0-1.44-.0744-2.215-.1489l-.111-.0745c.222-.1489.333-.2234.554-.1489-.221 0-.443-.0745-.775-.2234v-.1489l-.443.2234c-.332-.149-.775-.2234-1.218-.2979.11 0 .221-.0745.443-.2234l-.111.2234h-.332c-.554-.0745-1.108-.2234-1.329-.5957zm-.665 0c.111 0 .332.0744.443.0744l.111.0745-.665-.0745.111-.0744zm-2.547-.2234c.111 0 .221-.0745.332-.0745l.111.1489s-.222 0-.443-.0744zm-.222-.149h0zm-3.322-.5957h.443c.111.0745.332.0744.443.2234l-.222.0745c.222.5957.886 0 1.329.1489l-.11.4468c-.665-.5213-1.551-.2234-2.215-.5957h-.111l-.111-.149.222.149c.11 0 .221-.149.332-.2979zm-4.43-.5213c.111 0 .111 0 .221.0745.111.0744.222.2234.443.2979.111-.0745.222-.2235.333-.2235.11.0745.221.149.443.2235-.111.0744-.111.0744-.222.0744l-.443-.0744-.775-.0745v-.2979zm.886-1.4149c-.443 0-.886-.1489-1.329-.2234.111 0 .221.0745.443.0745.332.1489.664.0745.886.1489zm3.322.0745l-.553-.0745.11-.0744.443.1489zm1.44.2234l.111.2234s-.111 0-.111.0745c-.332-.0745-.886.1489-.997-.2234-.11 0-.221 0-.332.0744-.111-.0744-.221-.0744-.332-.1489l.443-.2234h-.111v-.0745c.443.149.886.2234 1.329.2979zm4.319.6702v.1489c-.11-.1489-.443-.0744-.664-.0744-.111 0-.222-.0745-.222-.0745-.443-.2234-.886-.2234-1.329-.2234v-.1489c.333.0744.776.1489 1.108.1489h.332c.222.1489.443.2234.775.2234zm9.525 3.5744c.221 0 .443.0745.664.0745-.221 0-.553 0-.664-.0745zm-1.661.8192c-.111 0-.333-.0745-.443-.0745.221-.0745.332-.2234.443-.3723.221.2234.443-.0745.664.2234l-.664.2234zm.443.0744c-.111 0-.222 0-.443-.0744.11 0 .221-.0745.221-.0745l.222.1489zm-6.424-.3723c-.111-.0745-.111-.0745-.221-.1489l.11-.0745h.333v.2234h-.222zm2.99.2234c-.553 0-.664.2979-1.218.1489-.111-.0744-.221-.0744-.111-.1489-.332-.0745-.886 0-1.329-.0745.997-.1489 1.994.2234 2.658.0745zm1.329.1489c-.11 0-.332-.0744-.443-.0744.222-.0745.443-.0745.443.0744.111 0 .111 0 0 0zm-14.065-.5957l-.221-.0745h.221v.0745zm.222.4468c-.554-.0745-1.44.1489-1.883-.2979.554-.2234 1.107-.0744 1.772.0745.111 0 .111.0745.111.2234zm5.869.5958h-.221c-.886-.8937-1.329-.0745-2.326-.3724.222.2234.775.3724 1.108.3724-.111.2234-.665.0744-.886.1489-.111-.4468-1.772-.0745-2.215-.5958v.149c-.554-.0745-1.108-.0745-1.551-.2234l.443-.0745s-.111 0-.111-.0745v-.2234h.222l-.111-.0744c-.111-.0745-.111-.149-.221-.2234h.332c-.222-.0745-.554 0-.665-.149l.333-.1489c.221.0745.664 0 .775.1489-.111 0-.222.0745-.222.149.886.1489 1.662 0 2.326.3723l-.775.2234.111.0745.775-.2234c1.661-.2234 2.879.0744 4.098.3723-.554.0745-1.108.1489-1.662-.0745-.11.2979.554.2979.443.4469zm19.935-2.3085l-.221-.2234-.111.0744c.221.4468.997 0 1.329.2979v.1489c-.111.0745-.886-.2234-.997.0745-.332 0-.664-.1489-.664-.2979-.554.0745-1.662-.2234-1.551.2979-1.107.4468-2.215-.0745-3.433-.2234l-.221.2979c.442.968 2.547.2978 3.654.8936.443-.3724 1.329 0 1.994 0v.0744l.221-.1489.222.2234c.332.0745.443.2979.664.3723.111-.2978-.554-.4468-.775-.6702l.664-.2234-.332-.2978c.443-.149.554-.2234.997-.2979l-.222-.2979c-.332-.1489-1.107-.2978-1.218-.0744zm-45.518 17.8721c.111.2979 0 .5957-.221.8191-.222.2234-.554.4468-.997.4468-.443.0745-.775 0-1.107-.1489-.333-.1489-.554-.3723-.665-.6702-.111-.2979 0-.5957.222-.8191.221-.2235.553-.3724.996-.4469.443-.0744.886 0 1.219.149.332.1489.553.3723.553.6702zm20.046-1.5638c.221.7446 0 1.4893-.665 2.1595-.664.6702-1.55 1.117-2.768 1.266-1.108.1489-2.105 0-3.101-.4468-.997-.4468-1.551-1.0426-1.772-1.7872-.222-.8192 0-1.4894.664-2.1596.665-.6702 1.551-1.117 2.769-1.2659.332 0 .554-.0745.775-.0745-.554-.0745-1.107-.1489-1.55-.2234-1.329.5213-3.544-.2234-5.095-.1489-1.661-.0745-3.544-.5958-4.983-.2979-.443-.2234-1.219-.5213-1.883-.3723l-.775.1489c0 .1489.332.0745.553.1489-.332.3724-1.882 0-2.104-.0744.332.1489.665-.0745.886-.149l-.332-.2234-1.772-.0744c-.111.0744 0 .1489.111.1489h.332c-.111.1489-.443 0-.554 0-.221-.2234-.443-.3723-.886-.3723l-.443.2234c.222.4468.775-.0001 1.108.2978-.665.2234-1.662-.4468-2.548-.1489.111.1489.222.0744.443.1489-.221.0745-.443-.1489-.775 0l-.332.149-.886-.5958-.775.2979c0-.1489.332-.149.553-.2979-.11-.0745-.221-.0745-.443-.1489l-.332.1489-.221-.2979-.3326.149c-.1107-.0745-.2215-.0745-.443-.149l-.3322.4469v.0744h-.3323v-.0744c.1108.0744.2215-.0001.3323-.0745.3322-.2979-.5538-.2979-.6645-.2979-.7753.2234-1.772.2234-2.658.149-.1107-.3724-.7752-.2235-1.2182-.2235-.1108-.0744-.2215.0001-.3323.0745-.2215-.3723-.7752.0745-1.1075-.0745-.443-.0744-.886 0-1.329 0l-.443-.2978c-.3322.2234-.5537.0744-.886 0-.3322-.4468-.7752-.0745-1.3289.0744 0-.1489-.2215-.2978-.6645-.2978-.2215.1489-.7753-.149-.886.2234-1.6613-.3724-2.9903-.0745-4.5407-.2979-.6645-.0745-2.4365-.3723-3.544-.2979-.886.2234-1.5505-.2234-2.4365.0745-1.329-.0745-2.658-.5213-3.987-.2234-.1107-.0745-.1107-.1489-.2215-.1489l-.1107.0744.2215.2234c-.2215 0-.886.149-.9968-.2234-1.1074-.1489-2.4364.149-3.3224-.2234-2.8795 0-5.316-.2978-8.0847-.2234l-.3323.149c-.1107-.2234-.6644-.0745-.7752 0-2.5472-.149-4.0977-.4468-6.4234 0-1.2183-.6702-2.658.0744-4.0977-.2979-.6645.1489-1.329-.1489-2.1043.0745-.2215-.2234-.6645-.0745-.9967 0-.5538-.4468-.9968.2978-1.772-.0745-.3323.7447-1.329.0745-1.9935 0-1.4397-.2979-2.5472.2234-3.8762 0-.5537.2234-1.329 0-1.8827.1489-1.329-.1489-3.101-.0744-4.5408.149-2.2149-.149-4.0977-.0745-5.9804.0744-.6645.0745-2.4365.8936-3.3225.0745h-.7752l.1107.2234c-.5537-.1489-1.5504.2234-2.2149 0-1.329.0745-2.5473.2979-3.7655.4468-1.1075.0745-2.4365-.2979-3.2117.1489-1.1075-.1489-2.1043.0745-3.10101.149-.443-.6702-1.88274-.149-2.43648-.5213.11075-.1489.55375-.2979.33226-.4468-.66451-.0745.11075.2234-.55374.2979l-.66451-.3724c.77524 0 1.21825-1.1914 2.32573-.5212.33225-.2979.77525.2234 1.21826 0-.11075-.0745-.22152-.0745-.44302-.149.44299-.2978 1.43971.5213 1.55051-.2234 1.329 0 3.2117 0 4.3192-.2978-.2215-.2234.1107-.5213.443-.5958-.6645-.2234-1.5505 0-2.3257.0745-1.5505-.1489-3.987.2979-4.54075-.5213l.44301-.3723c-.11075-.0745-.88601.0745-.77526-.2234l1.10749.0744v-.3723c.88601-.5213 2.54721-.3723 3.10101-1.0425-.6645-.5958-2.3258.0744-2.65801-.7447-.99675-.2979-1.99348-.6702-2.54722-1.2659l.55374.0744c.886-.6702-1.329-.5212-.886-1.2659l.44301.4468c.22149-.2979.44299-.4468.22149-.7447-.88598-.1489-.33224-.7447-.44301-1.117.22152-.2979 0-.5957-.22149-.8936-.33225 0-.77523 0-1.21822.0745-.33226.6702-1.21826.968-2.10425 1.1914-.11074-.5957-1.21823-1.0425-1.55047-1.6382.66449-.3724 1.55047-.4468 2.32571-.6702.33225.5212 1.329.5957 2.10425.5212-.2215-.2978-.33226-.5957.11073-.8191-.44299-.2234 0-.5957 0-.8191.88599-.2234.77527-1.1171 1.88275-1.1915-.88598-.5213-1.66124-1.117-2.21499-1.6383.11075-.2234.44299-.2979.66449-.5213-.443.4468.22151.7447.6645 1.117.33225-.0744.443.0745.66449.2234.11075 0 .33225-.0744.443-.1489-.33225-.1489-.44298-.3723-.88599-.3723l.2215-.0745-.55375-.5213c.77524.0745 1.43973.3724 1.99347.6702 0-.1489-.11074-.3723-.11074-.5212-.88599-.2979-1.66121-.5958-2.32572-1.0426l-.33224.2234-1.43975-.2978 1.21825-.3724-.886-.4468c.33226-.2234.33224-.5213.33224-.8191-.44299 0-.77524 0-.99673-.2234.11075-.2234.66449-.3724.33224-.6702-.66449-.0745.11075.2978-.55375.3723l-.66449-.5957c.886 0 1.43972-1.6383 2.54722-.6702.33225-.3724.55376 0 .886.0744h.22149s.11076 0 .11076-.0744c-.11075-.149-.2215-.149-.44299-.149.55374-.3723 1.55049.7447 1.66124-.2978h-.44301c0-.7447-1.32898-.149-1.43975-.8936-.66449.2978-.33224-.5213-.99673-.4468.2215-.9681-1.77197-1.7873-.88599-2.7553-1.66124-.5213.33225-1.117-.11075-1.9362-.44299-.2978-1.10749-.4468-1.43974-.968 0-.2234.44299-.6703-.11075-.7447.66449-.3724 1.88272-.149 2.99022-.2234-.33224-.2979-1.32898-.4468-.99673-1.117l.44299.6702c.33225-.3724.44301-.5958.33225-1.0426-.99674-.2234-.33225-1.0425-.33225-1.5638.66449-1.117-1.55047-2.1595-.33223-3.1276-.44301-.2979 0-.7447 0-1.1915h.11073-.66449c.77524-.3723.33225-.6702 1.21824-.968l-.11075-.0745c-.33225.1489-.66451.2234-.77526.4468v-.5213c-.11074 0-.22148.0745-.33223.149.11075-.0745.2215-.149.443-.2234.11076-.3724.33223-.7447.99673-.5213l.33225.0745c0 .1489.00001.2978-.11074.3723h.55375c.22149-.1489.443-.2234.77525-.2234.11075-.0745.2215-.1489.33224-.2234h.443c.77524-.8936.22148-1.9362.44298-3.05317-.33225-.14893-.66449-.6702-1.10749-.52127-.22149-.29787.11075-.59574.11075-.89361.66449-.2234 1.43973-.07446 2.10425-.14893l3.7655.59574c.1107.29787.1107.52127.6644.4468l.2216-.07447c-.6645-.29786.2214-.4468.1107-.81914l.3322-.14893-4.9837-.81914c-.2215.07447-.443.2234-.6645.14894-.44297-.29787.6645-.44681-.11071-.59574-.22149.4468-.44299.52127-1.10749.52127-.2215 0-.22149-.2234-.22149-.37234.443-.2234.443-.52127.55375-.96807h.11073c0-.37234.44301-.81914.6645-1.19147l2.21501-.52127-.443.29786c.5537 0 1.6612 0 1.8827.59574 1.772.29787 3.101 0 4.7622 0l.5538.4468c.3322-.2234.4429-.4468.886-.4468.1107.59574 1.5504.2234 2.1042.29787l1.1075-.07447-.443-.52127 1.2182.07447c0 .14893-.2215.37234 0 .4468.5538-.2234.3323-.37233.9968-.59573.9967.2234 2.1042-.07447 2.6579.07446l-.2215.07447c1.2183.59574 2.658-.37234 3.8763.2234 1.5504-.81914 3.1009.67021 4.6514-.37233.6645-.14894.886.59573 1.4398.07446.6644.14894 1.9934.29787 1.9934-.14893.7753-.14894 1.2183.59574 2.1043.29787.5537.07446 1.1075 0 1.6612-.2234.5537.74467 1.329-.07447 2.1042.2234l.3323-.14894c-.1108-.07447-.1108-.14893-.1108-.2234.5538.74467 1.5505-.14893 2.4365.37234l.1108-.2234c.5537.4468 1.4397-.44681 1.8827.14893 1.4397.14893 3.2117-.37234 4.3192.37233 1.5505-.14893 2.5472.14894 4.0977 0 .1108.14894-.1107.44681-.443.52128-.7752.29786-1.8827-.07447-2.7687.14893l.2215.37234c-.3323-.22341-.443.14893-.6645.2234.1108.52127.5538.14893.886.14893h.1107c-.3322.29787-.8859.14894-1.3289.37234.2215.4468.7752.6702 1.3289.6702 0 .14894-.5537.14894-.4429.37234l.1107.14893-1.6612-.14893c.7752.14893-.3323.37233.1107.59574.886.2234 1.5505-.14894 2.3257 0l-.2215.07446c.443.29787 1.2183.2234 1.772.37234-.1107-.37234.5538-.37234.7753-.59574l-.443-.6702c.2215.2234.886.52127 1.1075.96807.443-.07447.5537.2234.7752.4468.2215-.29787 1.2182 0 1.9935-.29787.3322-.2234 0-.4468-.2215-.59573.5537.37233 1.1075-.07447 1.8827.29787.6645-.07447 1.2183-.67021 1.4398-.96808.5537.37234.443.37234.1107.81914-.7752.07447-.7752.37234-.9967.81914.1107.2234.5537.14893.886.2234.2215-.14893.1107-.4468.2215-.59574.1107.52127.7752.29787 1.3289.29787.2215-.07446.2215-.14893.2215-.29787.2215.07447.6645 0 .6645.22341l.2215-.07447-.3322-.52127c.5537 0 1.5505-.07447 2.215.07447-.1108.07446-.2215.07446-.2215.2234.5537.14893.443.37233.886.59574l2.3257.07446c0 .14894-.1107.14894-.2215.2234 1.6612.44677 3.4332.07447 5.2052.44677.1108-.3723.443-.3723.886-.44677-.1107.22337 0 .37237.1107.52127l.3323-.1489c.1107.5212.7752.1489 1.2182.1489.443.4468 1.329-.0745 1.772.3723l.5538-.2234c-.5538-.74463-2.3258.0745-2.3258-.8191-.886-.37234-2.1042.2234-2.4365-.74467-.3322-.29787.7753.29787.7753-.37234l1.5505.59574-.2215.07447.1107.14893.6645-.2234c-.443.2234-.2215.4468-.3322.6702 2.1042.22337 3.6547.74467 5.7589.59577.9968.4468 2.9903.3723 4.43.5212.6645-.5957.1107-.6702-.2215-1.19143-.3323-.07447-.6645-.14894-.9967.07446l.1107.14897c-.7752.2978-1.5505-.14897-2.3257 0l-.3323-.0745c-.1107-.81914-1.329-.07447-1.772-.74467.5538.29787 1.9935-.14894 2.8795.52127.2215-.07447.2215-.2234.2215-.29787l.443.52127c.443-.2234.886-.37233 1.329-.37233.3322-.07447.2215-.29787.1107-.44681.3323.74467 1.329.2234 1.5505.96804l1.2183.0745-.886.2234c2.1042.6702 5.5374 1.1915 7.8632 1.1915 1.2183-.149 0-.7447.3322-1.266.1108-.44677.2215-.8191.3321-1.26591 0-.07446.111-.2234.111-.37233.111 0 .221.07447.221.14893l-.332.14894c0 .14893.222.14893.443.14893 0 .29787-.443.67021 0 .96804l2.215.3724c-.332.2234-.997-.2979-1.107.1489l.221.1489c-.221-.1489-.443.0745-.664.149.11.4468.886.2978 1.329.4468-.111.0744-.222.0744-.222.2234.111.0744.111.1489.222.1489l.221-.0745v.0745c2.769.8936 6.424.5213 8.528 1.117l.221-.0744c-.11.2978.554.5957.997.3723.775-.4468 1.883.7447 2.437-.3723l-.111-.149.332-.1489c-.332-.2979-.886-.5958-1.218-.5213-.443-.6702-1.44.0745-2.326-.2234l.222-.0745-.665-.3723c1.883.1489 3.544.6702 5.427.8936 0-.0745.111-.0745.111-.0745l.221.149c-.111 0-.221-.0745-.443-.0745-.332.2234-.664.6702-1.218.6702.664.3724 1.772.7447 2.326.5958.775.3723 2.104.5212 2.99.6702l.11-.2234.222.7446c.997-1.117 3.101 0 4.43-.0744.221.2234.664.2978.997.3723.11-.1489-.554 1.0425.553.8936l.443-.3723c0 .1489-.11.2234 0 .3723.554-.1489 1.883.8191 2.437-.2234.221 0 .332.2979.554.0745.221-.6702-1.219-.149-.554-.8936l-.443-.149h.111c.221-.2978 0-.7446-.554-.8191-1.329.2234-2.547-.7447-3.876-.3723-.222-.3724-1.108 0-1.772-.2979v-.1489h1.772l-.222.0744c.775.2979 1.329-.0744 2.104.2234.443.0745.333-.2978.776-.1489.553.3723 1.772.6702 2.547.5957l2.769.149c.221.5212 1.439.2234 1.993.6702 1.44-.5958 2.769.4468 4.098.3723 1.883.5957 3.876.4468 5.648 1.1915l1.329-.2979c-.554-.0745-.775-.6702-1.44-.4468.776-.5957 1.219.7447 1.994-.1489l-.111.3723c-.221 0-.332-.0745-.443.0745.332.5212.775.1489 1.44.5957v.0745c1.439.4468 2.99.5212 4.762.4468-.775-.8936-1.994.1489-2.99-.5958.332-.2978.996-.0744 1.218-.3723-.111-.2234-.332-.2979-.665-.3723l-.221.0744-.222-.3723c-.332.4468-.775-.1489-1.218-.1489l.222-.0745c-.554-.5213-.443.4468-.554.3723-.222-.1489-.554-.2234-.886-.2234.111-.2978-.443-.3723-.664-.5957-.222.0745-.222.1489-.222.2979-1.218-.0745-2.326-.0745-3.322-.5958-.776-.0744-1.329.2979-2.326.4468l-.443-.1489c.221-.3723.997-.0745 1.329-.3723-.554.1489-.775-.5213-1.108-.5213l-.553.2979c.11-.0745 0-.149-.111-.2234-.332.4468-.775-.2234-1.108-.0745l-.221-.2979c-.665.149-1.329-.1489-2.104-.4468-.333.3724-.776-.0744-1.108.149.222.1489.554.2978.443.5212-.554.0745-1.329-.4468-1.772-.3723.222 0 .443 0 .665-.1489-.333-.149-.333-.2979-.665-.5958-.221.0745-.221.149-.221.2979-1.108-.4468-2.769-.3724-3.987-.2234-.222-.2234.221-.2979-.111-.5213l-.443-.0745c.221 0 .443 0 .775-.1489-.664-.7447-1.883-.5213-2.769-.7447-1.772-.0744-4.097-.5212-6.091-.8191l.997-.0745c-.332-.5957-1.108-.0744-1.772-.3723l-.443.2979c0-.59577-.886.0744-1.108-.37237V9.5318c.886.37233 2.105.07447 2.658.07447.222.44683 1.108.2234 1.662.2234.221-.07447.443-.22341.664-.14894l-.111.2234c.443.22337 1.219.29787 1.883.07447-.554.0745-.332.4468-.664.5957.332-.1489.664.5213 1.107.0745l-.111-.1489c.111-.2979.554.3723.665-.149.664 0 .332.7447 1.107.3724-.11-.149-.221-.149-.443-.149l.554-.2978c.111.0744.111.1489.222.1489.11-.0745.221-.0745.221-.2234-1.218-.37233-2.99-.52127-3.987-.74467 1.218-.6702 1.883.52127 3.101 0-.332-.2234-1.218-.2234-.997-.74467l1.662.2234c0 .14893-.111.14893-.222.2234 1.218.37234 1.994.89364 3.433.59574-.443-.37234-1.218-.59574-1.661-.59574.222 0 .665-.37233.775.07447l3.101.59574c-.443 0-.886-.29787-1.218.07446v.14897c.886-.0745 1.772.6702 2.769.2978-.222-.1489-.443-.2978-.886-.3723 0-.2234.443 0 .664 0 .333.8191 1.662.0745 2.326.4468l.886.1489-.332.149c.664.2234 1.107.8936 1.883.3723l-.222-.3723c.222-.0745 1.44.4468 2.215.5957-.221.6702 1.108.2979 1.329.6702.332 0 .775-.2979.886 0l.111-.2234c.997.7447 2.99.3723 4.208.7447l.111-.2234c.221.1489.664.4468.997.2979l.221-.0745v.0745c.886 0 1.883.5212 2.658.5212l-.221.0745c.775.7447 2.104-.3723 3.101.2234l-.665.2234c.665.6702 1.661.6702 2.658.5213l.443.2978c.665.4468 2.215 0 1.772.8192l.443.2234c-1.329-.3724-2.436-.0745-3.876-.0745-.332.2979.221.2979.221.3723-.553.4468-.886-.1489-1.329-.2234-.221.2234-.553.2234-.775 0-.332.0745-.221.3724-.332.5213.554.0745 1.218.6702 1.661.2234.443-.0745.332.2979.554.4468l1.218.0745-.886.3723c.222.4468.775-.1489.886.3724-.664.5212-1.993-.5213-3.101-.2235 0 .0745 0 .0745 0 0 0-.0744 0-.3723-.332-.2978 0 .5957-1.108.1489-1.661.3723-.222.149-1.108-.3723-1.219.2979l.997.2979c.332.5957 1.551.4468 2.326.8191-1.44-.2234-3.212-.5213-4.43-.8936l.443-.2979c-.443-.1489-.886-.5213-1.329-.2234 0 .2234.332.149.554.2234-.222 0-1.108.149-1.44.5213-.111-.1489-.443-.2234-.554-.4468-.332.3723-.775-.0745-1.107.1489.221.6702 1.218.3724 1.882.5213-.11.0745 0 .1489.111.2234.665.1489.775-.2234 1.44-.1489l-.332-.3724c.996.2234 1.439.5213 2.325.5958 0 .1489-.221.2234-.443.2978.776.5213 1.883-.4468 2.548.3724-.554.1489-.886-.5958-1.219-.0745l.222.2979.221-.0745c-.221.5213.886.1489 1.329.2234.222-.2234-.664.8191.554.6702 0 .1489-.111.1489-.221.2234l.996.2979c-.443 0-.886.4468-1.218.0744l.332-.1489c0-.0745 0-.0745-.11-.1489-.222-.149-.554-.2234-.776-.0745l-.221.0745.443.2978c-1.108.0745-1.994-.8191-3.101-.5957-.665.1489-.665-.6702-1.329-.2979-.554-.3723-1.329-.4468-2.215-.2978l-.664.1489.332-.1489-.222-.2979c-3.101-.0745-4.54-1.4893-7.531-1.0425l-.886.3723-.11-.1489.664-.6702c-.775-.4468-1.55-.2234-2.547-.5213 0-.149.111-.1489.221-.2234-.11-.2234-.553-.149-.886-.2234l-.332.1489c.111.2234.443.1489.775.2234h-.775l.443.2979c.111 0 .222-.0745.332 0l-.11.1489.11.0745h-.221l-.222.2234c.111 0 .222.0745.333.0745l-.554.1489c.111.0745.221.0745.443.0745 0 0-.111 0-.111.0744.443.149.886.149 1.329.2234l.111-.2234c.332.6702 1.772.2979 2.215.6702.111-.0744.221 0 .332.149.332 0 .554.0744.665-.2234-.333 0-.886-.2234-1.108-.5213 1.108.3723 1.661-.7447 2.547.5213l.997-.2234c.554-.149-.443.1489 0 .3723l.332-.1489c.443.2978 1.551.5957 2.326.4468l-.111.2234c1.883.2234 3.655.6702 5.205 1.117h.665l-.111.1489.332.0745c.222-.0745.443-.0745.665 0 0-.0745.111-.0745.221-.0745l.443.0745c-.221.2234-.332.1489-.443.0744.111.0745.222.149.333.2234 0 .149-.111.149-.333.2234h.443l.111.0745c.332 0 .554-.1489.443-.3723.111.1489.554.3723.665.2234l.553.4468s-.11 0-.11.0744h.11c0 .0745-.664.2235-.332.4469h.111l-.443.2978 1.993.5958c-.775-.0745-1.55-.149-2.436-.2979 0 0-.111.0745-.222.0745l-.11-.0745c-.222 0-.554-.0745-.776-.0745v.0745l-.443-.0745v-.0744c-.443-.0745-.886-.149-1.439-.2234-.111.0744-.222.1489-.333.2978l-.11-.3723h-.111c-.222.3723-1.218-.3723-1.218.2979.11-.2234-.222-.3724-.333-.5213l-.443.2979.776.4468c-.333-.3724-.886.1489-.997-.3724l-.664.2234c0-1.0425-1.219.2979-1.551-.5957l-.554.2979c.111.0744.333.3723.554.2234l-.111.2234c-.221 0-.332-.0745-.443.0744.333.4468.776.149 1.329.4468.997.5213 2.104-.1489 2.88.8192.775 0 1.329-.0745 1.882.3723-1.107.2979-2.325-.5957-2.879-.2979h.111v.149h-.222c0 .0744-.111.0744-.111.1489-.11-.0745-.221-.1489-.443-.2234h-.221c-.221 0-.332 0-.554.1489 0 .3724.886.3724.665.4468-.332.149-.775-.0744-1.218-.0744.11-.149-.111-.2234-.222-.3724.111.0745.222 0 .332-.0744-.221-.3724-.664-.4468-1.107-.5958l-.554.2979c.332.2234.886.2979 1.108.5957l-.333.5213c-.553-.1489-.996-.2234-1.218-.6702-.221.0745-.221.1489-.221.2979-.886.0744-1.772-.149-2.658-.149l.221.2979.222-.0745.11-.0744-1.329.1489c.443.1489.776.3723 1.329.4468-.664 0-1.661-.4468-2.325-.2234.553.5213 1.772.2979 2.436.7447l-.886.1489c.775.0745 1.661 0 1.772.6702.222-.0745.222-.2234.222-.2979l.553.0745-.11-.1489.443.1489-.222.0745c-.332.7447.997-.149.886.5213.222-.0745.222-.2234.222-.2979l.664.1489s-.111-.0744-.111 0c.333-.0744.665-.1489.886.149h-.11l.332.0744h-.443c-.222.149-.443.2979-.886.149l.332-.149h-.664c0 .2234.11.3724.332.6702.221-.0744.221-.2234.221-.2978.111.0744.111.1489.222.2234h.221l-.11.0744c.443.149.886.2234 1.329.3724l.332-.2234c-.111-.149-.222-.149-.443-.149l.443-.2978c0 .2234.443.1489.664.1489l-.221.0745c.11.1489.221.1489.443.1489.221-.1489 0-.4468.553-.2979 0 .149-.221.3724 0 .4468-.11 0-.332-.0744-.221-.2978-.332.4468-1.108-.0745-1.329.4468.775.2234.221.8936 1.329.7446-.111.4468.775.149.886.4468.221.3724 1.329-.2234 1.44.3724l-.665.0744c.222.0745.332.3724.775.2979-2.215 1.2659-3.211-1.117-5.094-.2979.332.0745.665.149.997.2979.332 0 .553 0 .775.2234-.775.2234-1.993.0745-2.99.1489l.554.149-.665-.0745v.0745c1.44.1489 1.108.5957 2.658.5212l.221.2979c.443-.2234.111-.3723.111-.5957l1.883.0744c-.443.2235-.775 0-1.329-.1489-.775.6702.886.5958.886 1.1915-.775.0745-1.108-.8936-1.883-.2979l.554.2979c0 .1489-.443-.2979-.886-.2234l-.111-.1489.333-.2235c0-.2234-.443-.1489-.554-.1489-.222.5958-.554-.2979-.997.1489l.111.149c-.111.2978-.886-.2234-.886.2979h-.332c0-.149.332-.2235.443-.2979-.554-.2979-1.44-.5213-2.215-.3724-.554-.8191-.997.5213-1.662-.0744 0 .2979-.775.7447-1.439 1.0425l.221.2979c-.111.0745-.664-.1489-.775-.4468-.111.1489-.332.2979-.554.3723l.554-.5957c-.554-.0745-1.108 0-1.551.0745-.11.0744-.11.1489-.11.2234v.1489c.443.2234 1.107-.2234 1.218.3723l-1.329-.1489c.221-.2234-.111-.3723-.222-.5213l-.664.149v.0744c.221.0745-.554-.1489-.665.0745l.333.3723h-.222v-.0744c.111 0 .222.0744.222.1489h.332c.332.5213.997.2234 1.55.5957.111-.0744.443-.1489.443-.2978 0 .2234.333.5212.776.4468l.11-.0745V33.6592v.0744l.111.0745c0 .2234.111.5957.665.4468.11.2234.553.1489.886.2234l.332-.1489c.221.0744 2.547.2978 3.876.6702.554.2978 1.44.2978 2.215.4468-1.107.3723-1.772-.2979-2.99 0-.665-.149-1.329-.3724-2.104-.4468l-.443.2978c.11-.7446-.997-.2234-1.44-.4468v.149l-1.994-.149v-.1489c-.886-.1489-1.772-.3723-2.879-.2979-.554-.2234-1.772-.4468-2.547-.3723-.111-.0745-.111-.1489-.333-.1489-.221.1489-.553.3723-.996.2978-.111-.0744-.111-.0744-.222-.0744l-.554.2234c.997.5957 2.215.2978 3.323.5957-.111.3723-1.218-.0745-.775.4468.332.0745.553.0745.775-.1489.111.1489.221.1489.443.1489l.664-.2234c-.11-.0745-.221-.1489-.11-.2234.221-.1489.553 0 .775 0-.886-.0745-.222.5213-.554.7447.997-.0745 1.218.7446 1.883.0744.886.3724 1.107-.7446 1.883-.0744l-1.662.2234.776.4468c-1.108 0-2.326-.149-3.544-.2979.996.4468 2.768.2234 3.876.5213v-.149c.111.0745.221.0745.332.149l.443-.0745v.1489l-.332-.0744c.221.0744.332.0744.554 0l.11-.0745v.0745c.776 0 1.772.3723 2.548.3723l-.111.0745c.775.5213 1.883-.2979 2.879.1489l-.664.149c.664.4468 1.661.5212 2.547.3723v-.1489c.664.3723 1.993 0 1.772.5957l.443.1489c-1.329-.2978-2.215 0-3.655-.0744-.221.2234.222.2234.222.2978-.443.2979-.886-.0744-1.218-.1489-.222.1489-.554.1489-.776 0v.0745c1.219.2978 1.883.3723 2.88.5212-.443-.1489-.775 0-1.108.0745v.0745l.554.0744h.665l-.222.0745.554.0745c-.222 0-.554 0-.775-.0745l-.443.1489c.221.2979.664-.1489.775.2234-.332.2234-.886.0745-1.551-.0744l1.551 1.117-1.108-.149c.111-.0744.443-.1489.443-.2978-.553-.5958-1.661-.7447-2.658-.6702l.443-.2234c0-.0745-.11-.149-.332-.0745 0 .2979-.443.2234-.886.2234.332.2979.886.2979 1.329.5213l-.554.1489c0 .0745 0 .1489.111.1489s.222.0745.332.0745c.222-.0745.554-.2234.776-.2234-.111 0-.222.6702-1.108.3723l-.111-.1489c-.443-.0745-.886-.0745-1.329-.1489-.221.0744-.443.0744-.553.1489h.332c0 .1489-.222.1489-.332.2234.775.3724 1.772-.2979 2.436.2979-.554.0744-.886-.4468-1.107-.0745l.221.2234v.0745c-.221.3723.886.0744 1.218.1489.222-.1489-.553.5958.554.5213 0 .0745-.111.0745-.221.1489l.886.2234c-.333 0-.776.2979-1.219 0l.333-.1489c0-.0745-.111-.0745-.111-.0745-.222-.1489-.554-.1489-.665-.0744l-.221.0744.664.149c-1.107.0744-1.882-.5958-2.99-.4469-.554.0745-.664-.4468-1.218-.2233-.443-.2235-.997-.2979-1.661-.2979 0 .0744-.111.1489-.222.1489-.221.0745-.443 0-.443-.0745l-.443.0745.332-.0745-.221-.2233c-1.108 0-1.994-.149-2.769-.3724-.332 0-.775.0745-1.218.1489v.149l.554-.0745c.553-.0745-.333.1489.11.2234l.333-.1489c.443.2234 1.439.3723 2.215.3723v.149c2.104.2234 3.987.5957 5.648.968.332-.1489.886.0745 1.107.2234 0 .149-.221.149-.332.2234.222.0745 1.218.149.886-.2234.111.0745.554.2234.665.149l.443.2978c-.222.0745-.443.0745-.665.149v-.0745c-1.329-.3723-2.326-.1489-3.322-.5957h-.997v.1489c-.222-.0745-.332.0745-.443.1489.554.149.554.7447 1.329.5958l.997.0744c.332 0-.554.149-.665.3724l-.111-.2979c-.11.3723-1.107-.2234-1.107.2979 0-.149-.222-.2234-.332-.3724l-.333.2234.443.2234c-.332-.2234-.775.149-.886-.2978l-.664.1489c-.111-.7447-1.108.2234-1.44-.4468l-.443.2234c.111.0745.332.2979.554.1489v.149c-.111 0-.332-.0745-.443 0 .332.3723.664.1489 1.218.2978.886.3724 1.994-.0744 2.769.5958.775 0 1.218-.0745 1.772.2978-1.218.2234-2.547-.6702-2.88 0-.221-.1489-.775-.3723-1.107-.1489 0 .2979.886.2979.664.2979-.332.1489-.775 0-1.107-.0745.111-.1489-.111-.1489-.222-.2979.111.0745.222 0 .333-.0744-.222-.2234-.665-.2979-.997-.4468l-.443.2234c.332.1489.775.2234.997.4468l-.222.3723c-.443-.0745-.997-.1489-1.218-.4468-.222 0-.222.1489-.222.2234-.664.0745-1.55-.0745-2.215-.0745 0 0-.11 0-.11.0745l-.333.2234.111-.0745.111.0745-1.218.1489c.332.149.775.2979 1.218.2979-.554 0-1.551-.3723-2.104-.1489.553.3723 1.661.2234 2.325.5213l-1.218.1489c.554-.0745.443.5957.775.1489.443-.0745.222.2979.665.2979l.443-.1489v.1489h-.332c-.111.1489-.111.5213.443.5213l.443.0744c-.997 0-1.994.2234-2.991.2979.776.2234 1.44.2234 2.105.2979.332-.0745 0-.2234 0-.3724h-.111v-.0744l.443.0744c0 .0745-.111.149-.222.149.333.3723.665-.149 1.219 0 .443-.2979 1.329-.149 1.882-.4468h.443l-.664.2978c.443.2234 1.107.2234 1.661.4468-1.218.2234-1.993-.7446-3.101-.2234l-.111.0745c-.11.1489-.775 0-.664.3723l.221.2234c1.219.5213 2.548.2979 3.766.7447-.997-.2979-1.883-.1489-2.88-.2234.111.2234.554.2234 0 .3723l1.219.2234-4.209-.3723c-.111.2234-.443.3723-.554.5957-.332-.1489.222-.2978.333-.4468v-.0744c-1.329-.5213-3.544.0744-5.095-.6702-.221 0-.111.2234-.221.2978.332.4468.996 0 1.55.3724l.554.1489c-.111-.0745-.222 0-.332.0745.443.3723 1.218.1489 1.882.2234l.333-.149c0 .149.332.0745.553.149-.886-.149-1.661.5212-2.658.0744-.553-.0744-1.55-.1489-2.215 0 1.108.5958 3.212.9681 4.652.5958.111 0 .221-.0745.221-.149 0 .149-.221.6702-.775.8192l.443-.4468c-1.329-.149-2.436.4468-3.655-.0745l-.775.0745c.111.6702 1.329-.0745 1.551.5957l.443.0745c.332.3723.886.1489 1.439.4468.111-.0745.333-.0745.333-.2234 0 .1489.332.3723.775.3723v-.5212.0744l.111.0745c.11.1489.221.3723.664.2979.111.1489.554.1489.775.1489l.333-.1489c.221.0744 2.325.2234 3.654.5212.554.2234 1.44.2234 2.105.2979-.997.2979-1.662-.2234-2.769 0-.665-.0745-1.218-.2234-1.994-.2979l-.332.2234c.111-.5212-.997-.1489-1.329-.2978v.0744l-1.883-.0744v-.0745c-.886-.0745-1.661-.2234-2.658-.2234-.553-.1489-1.661-.2979-2.436-.2979-.111-.1489-.554-.1489-.775-.1489l-.997.3723c.997.4468 1.993.2234 3.101.4468 0 .2234-1.108-.0744-.665.3724.222.0744.554.0744.776-.0745.11.1489.221.0745.443.1489l.443-.2234c-.111-.0744-.222-.0744-.111-.1489.221-.1489.443 0 .775 0-.775 0-.221.3723-.443.5213.886-.0745 1.108.5212 1.772 0 .775.2234.997-.5213 1.772-.0745l-1.55.1489.775.3724c-1.772 0-3.766-.2234-5.759-.4468.221.0744.443.1489.554.2234.886.3723 1.439.968 1.661 1.7872zm36.215-39.0208l-.222-.2979-.221.1489c.221.6702 1.107 0 1.44.4468l-.111.2234c-.222.0745-.997-.3723-1.108.0745-.332 0-.553-.2234-.553-.4468-.665.0745-1.883-.2979-1.772.4468-1.219.5957-2.437-.0745-3.655-.2979l-.332.4468c.332 1.3405 2.768.4469 3.876 1.266.554-.5957 1.44 0 2.215 0v.1489l.443-.2978.221.2978c.333.0745.443.3724.665.5958.221-.4468-.554-.5958-.775-.9681l.775-.3724-.554-.5212c.443-.149.554-.3724 1.108-.4468l-.222-.3724c-.221-.1489-.997-.4468-1.218-.0744z" fill="#fff"/></svg>