<svg width="72" height="151" fill="none" xmlns="http://www.w3.org/2000/svg"><path d="M11.9973 12.1857l-.1818 1.0155.3636-.5077-.1818-.5078zm-1.2724 2.234l-.3636.5078c-.2727-.2031-.2727-.6093-.7271-.6093-.45445 1.5232-.27267 3.6557.09089 4.7727.09089-.1016.09088-.2031.27266-.2031.54535.4062.09085 1.2186.18175 1.8278l.2727-.6092c.7271.3046-.2727 1.3201.5453 1.4216.3636-.3046-.5453-1.2186.2727-1.5232 0 .3046.3635.8124.3635 1.2186.5454-.5078-.2726-.914-.0908-1.3201-.818-.5078.5453-1.3201-.4545-1.6248.2727-1.0155 1.636-2.3356.6362-3.351.3636-.3047.0909-.7109.0909-1.0155-.3635.1015-.5453 1.117-1.0906.5077zm-.0909 11.4748c-.0909.4062-.1818.8124-.0909 1.2186.0909-.4062.4544-.5078.3635-.914l-.2726-.3046c.0909-.3046.4544-.3046.7271-.4062.5453.9139-.0909 2.031.1818 2.8433.5453-.3046-.1818-.5077.0908-1.0154.1818-.7109.1818-1.4217.0909-2.2341l-.3635.4062-.5453-.5077c-.0909.3046-.0909.6093-.1818.9139zm.4544 4.9758v.6093c.2727-.8124.3636-1.9294.4545-2.8433-.6363.4062-.0909 1.5232-.4545 2.234zm18.1778 90.3767l-.0909-.508-.1818.305.2727.203zm.5453 3.859c.3635-.305-.2727-.711-.3636-1.117-.5453-.102.4545.609.3636 1.117zm-.7271-.711c.0909.101 0 .203-.0909.304-.1818.102-.3636 0-.3636-.203 0-.406-.1817-.406-.5453-.507-.3635.812 1.1816.812.4545 1.523-.1818-.102-.1818-.203-.1818-.406.1818.609-.5454 1.624.4544 2.234-.2726-.508-.5453-1.32-.1818-1.828.0909-.102.1818 0 .2727.101l.0909.407c-.0909-.711.0909-1.117.2727-1.524l-.1818-.101zM10.634 30.4641l-.0909.9139.0909-.7108v-.2031zm17.6324 92.1029l-.0909-.508h-.1818c-.2726.508.4545.813.4545 1.32v-.711c-.0909.102-.1818 0-.2727-.101h.0909zM8.8162 25.8945c-.27267.5078-.27267 1.3201-.09089 1.7263.18178-.5077-.18178-1.0155.18178-1.3201l-.09089-.4062zm.27266 4.7727l.09089.4062c.45445-.2031.36356-.2031.27267-.8124-.27267.1016.18178.7108-.36356.4062zm-.54533-.3046c.09089-.4062.09089-.914.18178-1.3201-.27267.2031-.27267 1.0154-.18178 1.3201zm.90889 2.8433c-.27267-.5078.09089-.8124.36356-1.2186-.18178-.1015-.27267-.2031-.36356-.4062l-.36356 2.031c.18178-.1016.18178-.3047.36356-.4062zm-.99978-2.5387l-.18177 1.2186c.45444 0 .27266-.5078.27266-.8124l-.09089-.4062zm0 2.7418c.09089-.3047.09089-.7109.18178-1.0155l-.27267.1015.09089.914zm.72711 2.8433c-.36355.9139-.18177 1.6247-.18177 2.9448.45444-1.8278 0-3.351.27266-5.2804-.45444.1015 0 .5077-.27266.8124.63622.4062-.54534 1.0154.18177 1.5232zm-.81799-1.7263l-.45445.7108-.09089-.1015c0-.1016-.09088-.1016-.09088-.2031v.1015h.09088c.09089.1016.18178.3046.45445.1016l.27266-.6093h-.18177zm-.54534 3.0464c.54534.1015.18178.7108.18178 1.117.63622.2031-.27267.5077 0 .8124.45445-.4062.09089-1.2186.18178-1.8279l-.36356-.1015zm0-1.4217l-.36355-.2031c.09089.1016.18178.1016.18178.2031-.72711.4062.27266 0 .09089.5078.36355-.1016.09088-.3047.09088-.5078zm-.18177 4.0619c.09089-.1016.09089-.2031.27266-.2031.54534.5077 0 1.2186-.09089 1.6247l-.18177-.1015c-.27267-.2031 0 .5077 0 .7108.09089-.1015.09089-.2031.27266-.2031.09089.1016.18178.1016.18178.2031-.09089.1016-.18178.4062-.36355.4062l-.18178-.1015.09089.4061.18177-.3046c.72711.5077-.27266 1.8279.45445 2.3356.63622-1.3201-.54534-2.8433-.09089-4.1634.27266-.1016 0-.6093 0-.8124l-.45444-.3046c-.36356.1015-.18178.3046-.09089.5077zm.27266 5.5851l.54534.5077c.27266-.2031-.09089-.4062-.27267-.5077h-.27267zm1.72689-.6093c0-.4062-.27267-.9139-.09089-1.3201-.18178.6093-.54533 1.0154.09089 1.3201zm.4544 1.6247l-.18173-.8124-.27267.1016.4544.7108zm15.9965 78.3939l-.1818-1.015h-.0909l.1818 1.015h.0909zm0 .609l.0908.508h.0909l-.0909-.508h-.0908zm.818 3.555l.0908.507h.0909l-.0909-.507h-.0908zM9.81598 42.5482c.18177 0 .18177-.1016.27262-.2031l-.09085-.3047-.27266.1016.09089.4062zM27.1757 127.035l-.3635-.508.1817 1.016.1818-.508zm.1818 4.57c-.0909.71.6362.304.9998.507.3635-.304.3635-.812.0909-.914-.1818.102-.2727-.101-.4545-.203.2727-.203.2727-.507 0-.711l-.4544-.304c-.7271.304.0909.914-.4545 1.218.0909 0 .2727.203.2727.407zM10.9066 37.877l-.0908-.5077.0908 1.0154v-.5077zm0 2.1325c0-.3047.1818-.5077.0909-.9139-.1817.2031-.1817.6092-.0909.9139zm18.1778 89.7675l-.0909-.508c-.1818-.203-.0909.305.0909.508zm.5453 1.929l.1818.102c.1818-.203-.5453-.711-.0909-1.117l.4545.304-.2727-1.218c-.3636.609-.5453 1.32-.2727 1.929zM11.1793 22.5435c.0909.2031-.4544.8123-.0909 1.0154 0-.5077.6362-.6092.0909-1.0154zm.9998-2.9449v-.7108c-.3636.3046 0 .3046 0 .7108zm-1.3633 32.698l-.3636.5078.6362.5077-.2726-1.0155zm10.6339 67.5284c-.2726.305.3636 1.117-.0909 1.523.6363-.304 0-1.015.0909-1.523zm-.9997-1.421h-.1818l.0909.507h.1818l-.0909-.507zm-.7272-2.844c-.0908.711.1818 1.625.3636 2.64.5453-.913-.3636-1.624-.3636-2.64zm1.2725 6.905l-.3636-2.335c.1818 1.015-.2726 1.523.3636 2.335zm1.2724 9.444c-.0909-.101-.2726-.101-.4544 0l.1818.305c.0909-.406.4544.203.2726-.305zm-1.7268-8.631l-.2727.101c.4544.203 0 .711.0909 1.016.2726-.305.3635-.711.1818-1.117zm-.3636-.203l.1818-.61c-.2727.102-.1818.407-.1818.61zm.9998 6.194c-.2727-.203-.6363.203-.9089-.203l-.1818.508c.1818.609.3636 1.726.9089 2.234.1818-.508.2727-1.219.3635-1.828-.0908.101-.1817 0-.2726-.102 0-.203.1818-.406.0909-.609zm-.9089-3.046l-.0909.203-.2727-.813c.1818.508.0909 1.016-.3635 1.219l.2726-.102.3636 1.117c.1818-.406.2727-1.015.0909-1.624zm-1.8178-6.499l-.1818.304-.1817-.101c-.0909-.102-.3636.711.0908 1.015.0909-.101.0909-.203.2727-.203l.2727.609c.2726-.304.5453-.812.4544-1.218-.5453.304-.5453-.305-.7271-.406zm-.9089-.203l.0909.507c.1818-.203.1818-.406.1818-.609l-.2727.102zm.5454 3.655c.6362.203-.3636 1.016.5453 1.219-.0909.203.2727.508.4544.812v.406c.0909-.101.0909-.304 0-.406l.0909-.609h.0909c.6362-.711 0-1.625-.0909-2.437-.0909.203-.4544 0-.6362.304-.3636-.101 0-.914-.5453-.71l.0909 1.421zm1.7268 8.124h.1818l-.0909-.508h-.0909v.508zm.9998 3.351h.0909l-.0909-.508h-.0909l.0909.508zm.0909 7.21c-.4544.101 0-.305-.3635-.305.0908.203 0 .711.4544.609l-.0909-.304zm-2.8175-4.773l.1817.102c.3636-.102.3636-.508.2727-.813l-.4544.711zm-1.8178-10.662h-.0909l.1818 1.117h.1817l-.2726-1.117zm-.6362-3.351c-.3636 0-.2727.609-.3636.914l.1818.101c.0909-.203.4544-.508.1818-1.015zm.4544 5.686l.2727-.101c-.6363-.203.3635-.711-.1818-1.016l-.0909 1.117zm-.7271-2.538c-.3636.203.1818.406.2727.71-.0909-.304 0-.609-.2727-.71zm-.818-4.468l-.3636-.204c-.0909.102-.1817 0-.2726-.101.1817-.812-.4545-2.031-.6362-3.046-.1818-.102-.4545-.204-.3636-.508-.4544.406.1818 1.32-.0909 1.929l.2727-.101c-.1818 1.218 1.0906 1.929 1.1815 2.944.0909-.101.5454-.507.2727-.913zm-.9998 3.96c.0909-.102.0909-.203.2727-.203.2726.508.2726-.203.6362.203l.2727 1.523c.3635-.609-.4545-1.422 0-2.132.0909-.305-.3636-.914-.5454-1.321-.0909-.203-.1817.813-.4544.508.4544.508 0 .61.6362 1.016-.2726.203-1.2724.304-.818.406zm1.9996 2.031l-.3636-.305.0909.406.2727-.101zm-.2727 2.234c-.1818-.406-.0909-.711.1818-1.016-.1818.102-.2727-.101-.3636-.101v-.305c.1818-.101.3636.102.5454.102l-.0909-.406c-.2727-.204-.3636 0-.4545.304 0 0-.0909.102-.0909.203h.0909c0 .406 0 .914.1818 1.219zm.4544.203c.1818 0 .1818-.305.1818-.508l-.2726.102.0908.406zm1.7269 7.21c-.1817-.508-.1817-1.016-.1817-1.422.0908 0 .0908-.101.1817-.101-.0909 0-.1817 0-.1817-.204l-.1818.508.3635 1.219zm.7271 4.366c.3636-.101-.2726-.812.2727-.914l-.0909-.304-.1818.304-.1817-.101.1817 1.015zm-.1817-3.859c-.0909.102-.0909.204-.2727.204-.0909-.102-.0909-.204-.1818-.407l.2727.813.1818-.61zm-.0909-1.421c0-.102 0-.102.0909-.203 0 0-.0909 0-.0909-.102v-.304c-.0909-.102-.2727 0-.3636.101.1818 0 .2727.203.3636.305v.203c-.0909.304-.0909.609 0 1.015v-1.015zm-4.908-22.645c0-.203 0-.406-.0909-.102l.0909.102c0 .203.0909.508.2726.508.0909-.203 0-.407-.2726-.508zm11.452 26.504l.2726-.61c-.0909.203-.1817.203-.3635.203l.0909.407zm26.4486-2.438h-.1818l-.0909-.609h.1818l.0909.609zM13.3606 6.19444c.6363-.10155.7271.81238.7271 1.01547-.1817-.50773-.9088-.50773-.7271-1.01547zm20.9953-3.35103c.0909.10155.3636.10155.3636.30464l-.2727.10155-.0909-.40619zm2.2722.50775l.4545-.10156-.3636.2031-.0909-.10154zM10.7249 19.294l.0909.5077-.0909.2031v-.7108zM5.18065 36.9631l.09089.5077h-.09089v-.5077zm2.27222 13.5057v.4062c-.45444 0 0 .7108-.18178.6093-.45444-.4062.36356-.4062.18178-1.0155zm-1.90866 2.9449c-.18178-.3047.09088-1.2186 0-.7109.36355.1016.09088.5078 0 .7109zm1.81777-.1016c.09089-.3046.09089-.6093-.09089-.7108.27267 0 .18178.3046.27267.5077-.09089 0-.18178.1016-.18178.2031zm-.09089.2031c0 .4062.27267.7108-.09089 1.2186-.18177-.2031 0-.7109.09089-1.2186zm0 1.5232l.45445.2031-.09089.2031-.36356-.4062zm1.36333.4062l.09089.4062c-.18178.1015-.36355-.3047-.63622-.1016l.54533-.3046zM6.3622 53.8198c0 .4062-.09088 1.4217.63623 1.1171.18177 1.2185-.818-.4062-1.09067.203.90889.2031 0 1.2186 1.09067 1.2186-.27267.4062-.818.6093-.90889 1.2186-.09089-1.4217-.45444-2.031-.72711-3.148l.63622.1016c.54533-.2031-.18178-.8124.36355-.9139v.203zm-.09088 4.1635c0 .3046.45444.8123.09088 1.117.27267 0 .18178.3046.27267.5077l1.27244-.1015-.45444.6092-.09089-.3046c-.18178.1015-.818.2031-.99978.6093.27267.2031.09089.6093.45445.8123.18178 0 .18178-.1015.27267-.203.63622.4061-.18178 1.3201.54533 1.4216l-.18178.3047c0 .3046.18178.4061.36355.5077-.36355 1.6247 2.18133 1.6247 1.18156 3.1479l.09089-.4062c-.90889-.6092-.90889-2.1324-1.99955-2.3355-.09089-.2031-.00001-.5078-.27267-.5078l-.09089 1.1171c-.09089-.2031 0-.5078-.27267-.5078l-.18177.7108-.36356-2.3355c-.09089-.3047-.72711-.7109-.09089-1.0155-.09089-.5077-.45444-.9139-.818-1.2185.99978-.3047.45445-1.3202.63623-2.031l.63622.1016zm5.81688 12.3886c-.2727.1016-.4544.1016-.6362-.1015l.4544-.1015c.0909 0 .1818.1015.1818.203zm-3.63555.4062l.09088.4062-.09088.3047v-.7109zm-1.99956-4.3665c.18178-.5077-.45444-1.7263.36356-1.7263l-.09089.2031-.18178-.1015c-.27266.1015 0 .4062 0 .6093.63622.6092.63622 1.9294.27267 2.8433 1.45422.3046 1.09066 1.2185 1.54511 2.234l-.27267.1015c-.09089-.1015-.18178-.1015-.18178-.2031.27267-.3046-.27266-1.117-.45444-1.6247-.54533.1015.09089.8124-.27267.9139 0-.1015-.09088-.2031-.18177-.2031l-.18178.3047c-.18178.9139.45444 1.6247.18178 2.234l-.54534-2.0309-.36355.1015.63622-.6093c-.818-.8123-.18178-1.0154-.818-1.9294l.45444.2031c.54534-.3046.00001-.9139.09089-1.3201zm3.90821 5.4835l-.36355.5078-.09088-.5078c.18173.1016.27263.1016.45443 0zm-3.45376 4.8743l.09089.6093h-.18178l.09089-.6093zm.18178-2.8433c.54533-.3047.99977-1.117.99977-1.4217l.18178.1016c.36355-.3047 0-.6093.27266-.9139.09089.6092.27267 1.117.18178 1.7262-.54533.3047-.45444 1.1171-.36355 1.6248v-.1016c-.27267-.1015-.18178-.8123-.72711-.6092 0 .6093-.18178 1.2185.09089 1.8278.63622.6093.09089 1.0155.18177 1.7263-.36355-.8124-.54533-1.8278-1.09066-2.5387-.18178 0-.27267.2031-.36356.4062 0 .1016.09089.2031.18178.2031l-.818.2031c.54534-.2031.27267-.8124.45445-1.2186.90889-.3046.27266-1.4216.45444-2.1324.18178.5077-.18178.9139.36356 1.117zm.99977 3.9603h.18178l.09089.4062c.18177.1015.36355.2031.09089.4062l-.09089-.4062c-.18178-.1016-.36356-.2031-.27267-.4062zm-.54533 2.234c0 .1016 0 .1016.09089.2031 0 0-.09089-.1015-.09089-.2031-.09089-.3046 0-.6093-.45444-.7108-.54534.1015.09088.8124-.27267.9139-.09089-.3046 0-.7108-.36356-.9139l.27267-.1015c.09089-.2031.36356-.4062.27267-.6093-.09089 1.117 1.36333-.2031 1.90866.4062.09089.3046 0 .8123-.36356.9139l-.18177-.1016v.7109c0-.5078-.09089-.8124-.36356-1.2186-.45444 0-.45444.5077-.45444.7108zm1.45422 1.5232c.45444.1016 1.09062-.2031 1.09062-.8123l.0909.203c-.99974.7109.6363 1.0155.0909 1.8279-.1818-.3047 0-1.0155-.54531-1.2186-.36356.1016-.45445.6093-.90889.6093-.09089-.2031.09089-.3046.18178-.5077-.09089-.5078-.45444-.1016-.63622-.3047-1.54511.1016.818 1.7263-.45444 2.031l-.45445-1.3201c-.09089.1015-.18178.2031-.09089.3046l-1.45422-.8124c.27267 0 .72711.4062.818-.2031l-.36356-.2031c.99978-.1015 2.09045-.6092 2.63578.4062zm-1.72689 2.9449l.09089.5077c-.18178 0-.45444-.4062-.09089-.5077zm1.90867 2.1325v-.8124c.36355.2031 0 .7108 0 .8124zm-.54534.9139c-1.09066-.7108 0-2.8433-.81799-3.2495.18177 0 .18177-.1016.27266-.2031.45445.3046.18178 1.4216.27267 2.1325.90888.3046 0 .6093.27266 1.3201zm.63623 1.0154l.27266-.203-.09089.4061-.18177-.2031zm3.81735-.203l-.3636-.2031c.0909-.1016.1818-.4062.3636-.4062 0 .3046.2726.6093 0 .6093zm-3.18113 1.4216c0-.1015-.09089-.2031-.18178-.2031l-.54533.7108.09089-.3046c-.63623-.5077-.63623-1.2186-.72711-1.7263.09088.2031 0 .6093.27266.6093l.09089-.2031.27267.3046-.36356.1016c0 .2031 0 .3046.18178.4062.09089-.1016.09089-.2031.27267-.2031.36355.1015.63622.2031.7271-.2031-.09088.4062.36355.3046.45445.6093l-.54533.1015zm-.45445 2.1325c0 .3046.09089.7108-.36355.8124-.45445-.6093 0-.7109.36355-.8124v-.2031c.09089.1015.09089.1015.18178.1015.27267-.1015.4544-.2031.36355-.5077l.54535.5077c-.0909.2031-.2727.7109-.1818.5078-.1818-.3047-.36354-.2031-.63621-.4062h-.27267zm.09089.9139c-.18178.1016-.09089.3046-.09089.4062l-.18177-.1016.27266-.3046zm.63619 1.0155l.2727-.6093.0909.3046c-.1818 0-.1818.3047-.3636.3047zm3.9991 2.5386l-.3635-.9139.3635.2031c.0909.2031.2727.5077 0 .7108zm-.6362 1.0155h.0909l.1818.6093h-.1818l-.0909-.6093zm-2.9993 1.8278l-.2727-3.4525c.6362-.3047-.36353-.7109.0909-1.0155.4545-.3046-.45443-.4062.1818-.6093-.1818.5077.6362.6093.0909 1.0155l.1818.1015-.1818.3047c-.0909.9139.7271 1.3201.0909 1.8278.7271.4062.2726.3046.3635.9139 0-.1015-.0909-.2031-.1818-.2031-.4544.4062.0909 1.0155-.3635 1.117zm-.99979-1.117c.54529.5078-.09089.914.09089 1.3201l-.27267-.1015c.09089-.7108-.81799-1.4217-.27266-2.234-.27267-.1016-.18178-.8124-.72711-.6093l-.09089-.3047c1.09066-.203.54533 1.4217 1.27244 1.9294zm1.54509 1.4217l.0909.4066h-.1818l.0909-.4066zm2.7267-.9139c.3635.2031 0 .8123.6362.9139-.5453.2031-.818-.5077-.6362-.9139zm-3.0902 3.1475l-.3636-.914.1818.102.1818.812zm-1.45425-1.726c1.09065.305.81795 1.93.99975 2.64-.54531-.101.2727-.812-.45442-.609.54532-.609-.27267-1.422-.18178-1.726-.18178 0-.36355 0-.36355-.305zm2.18135 2.031h.0909l.1817.812h-.1817l-.0909-.812zm3.7264 1.117c-.0909-.406-.4544-.101-.4544-.609.0909-.203.1817-.203.3635-.203-.0909.203.5454.609.0909.812zm-5.18065 0l.09085.406c.0909.203.0909.61.3636.508.1818.711.1818 1.523.818 1.929-.5453.102-.1818.813-.3636.914l-.6362-1.828.1818.102.0909-.203c-.0909-.609-.4545-1.117-.99979-1.32.45445.203.27267-.406.45444-.508zm3.09025 3.96l-.2727-.507.1818.101.0909.406zm-1.0907.407c.7271-.407-.5453-.813.1818-1.321-.0909.305.6362 1.219-.1818 1.321zm-.9998.203l-.0909.304v-.711l.0909.407zm5.0898.914v-.813l.0909.508-.0909.305zm-5.1807.609l.2727 1.929h-.0909c-.0909-.507-.6362-1.828-.1818-1.929zm.3636 2.335l.2727.61-.1818.609-.0909-1.219zm4.7262.914l-.0909-.507c.2727 0 .1818.304.2727.507h-.1818zm-4.5444 1.625v-.711c.0909.203 0 .61.2726.711h-.2726zm3.6355.914l.1818.102-.1818.203c.0909-.203-.4544-.508 0-.305zm.2727 2.133c-.1818-.407-.0909-.813.1818-1.016-.0909.305-.0909.812-.1818 1.016zm-.4545.507c-.6362-1.015-.3635-2.742-.7271-3.859l.2727-.101.0909.305c-.1818 1.523.3635 2.03.3635 3.655zm2.3632-.812c0 .203.2726.203.3635.305l-.2727.101-.0908-.406zm.5453 1.218h-.0909l-.0909-.406c.1818 0 .1818.203.1818.406zm1.2724-.203c-.0909.102-.1817.508-.4544.102l-.1818.305-.3635-.508c.5453-.102-.0909-.711.2726-.813-.1818.61.4545.61.7271.914zm-5.8168 1.219l.1817.101-.0909.407-.0908-.508zm2.9084 1.32l.0909 1.015c-.3636-.203-.1818-.812-.0909-1.015zm2.9084 3.554h-.1817l-.0909-.406h.0909l.1817.406zm-4.2717 7.007l-.3636-.508.2727.203.0909.305zm14.633-2.437c.0909.101 0 .101 0 0 0 .101 0 .101 0 0-.0908-.102-.2726-.305-.3635-.406l.1818.913c.2726-.101.3635.305.3635.508-.0909-.609.2727-1.218.3636-1.828l.1818.102-.1818-2.234c-.1818.101-.2727-.102-.4545-.203.3636.304.4545.508.3636 1.117l-.3636.203c-.2726-.203-.1817-.609-.3635-.914l-.0909 1.219.0909-.204.3635.204-.4544.812-.1818-.102.0909.508c0-.101 0-.101.0909-.203.6362-.102.3635.305.3635.508zm11.8156.101h-.0909l-.0909-.711h.0909l.0909.711zm2.5449 2.031l-.2727.102.1818-.508.0909.406zm-12.5427 3.148l-.1818.102-.2726-.711.4544.609zm.0909 1.219l-.2727-.508.2727-.102v.61zm1.1816-.305l.1817.102.4545-.813.1818.102c.2726 0 .2726-.203.5453-.305l.0909.406c-.3636-.101-.818.711-1.1816.711l-.1817.305c-.4545 0-.1818-.305-.0909-.508zm-.9089 1.016h-.0909l-.0909-.407h.1818v.407zm1.2724 1.523c-.1818-.508-.7271-1.117-.4544-1.625.4544.609.3635 1.117.4544 1.625zm1.2725-.406l-.0909.304v-.812l.0909.508zm-2.9994 1.015c-.0909-.305.4545-.711.4545-1.117.7271.406-.5454.609-.4545 1.117zm-.1817.406l-.2727.406-.3636-.304c.2727-.305.4545-.406.6363-.102zM10.9975 82.456l-.0909-.3046c.0909 0 .1818 0 .2727.1015 0 .1016 0 .2031-.1818.2031zm-.7271-26.0975c-.0909-.1015-.1818-.1015-.27265-.2031.09085 0 .18175.1016.27265.2031zm16.5418 85.6035l.1817.407c0 .101 0 .304.0909.406h-.0909l-.0908-.406h-.0909c-.1818.101-.0909.304-.0909.507-.5453-.203.2726-.711.0909-.914zm34.3559-8.022c.0909.203.2727.305.3636.508 0 .101 0 .203-.0909.305h-.1818l.2727-.305c-.1818-.102-.4545-.203-.3636-.508zm-24.1764 5.382h-.1818l-.0909-.914h.1818l.0909.914zm13.1789-3.96l.2726.711h-.2726c-.1818-.102-.3636-.61 0-.711zm.4544-.102l.2727-.101c-.1818.609.0909 1.218-.3636 1.726 0-.711.3636-1.015.0909-1.625zm10.634-2.132h-.1818c-.0909-.102-.3635-.203-.3635-.406l.4544-.102.0909.508zm-20.8135 3.859l-.1818-.407.3636.407h-.1818zm6.9984-1.219l-.0909-.406.0909-.203v.609zm5.0898-.609h0c-.0909 0-.0909.101-.1818.203-.4544.101-.818-.914-1.1815-.203 0-.305-.2727-.61-.4545-.813l-.3636.711-.4544-.406.4544-.102c.3636-.406-.3635-.609 0-1.015l.2727.609.2727-.304v.304c.1818.305.3635 1.117.9998.711-.0909.305.3635.406.6362.305zm-1.1816-5.179h.1818l.1818 1.218h-.1818l-.1818-1.218zm8.2709-3.047h-.1818l-.0909-.913h.1818l.0909.913zm-19.0866 1.828l-.1818-.101c.1818-.102.1818 0 .1818.101 0 .203 0 .508.0909.61.1817 0 .2726.101.3635.203-.1818 0-.2727-.102-.3635-.203-.1818 0-.3636.101-.3636.304-.5453-.101.3636-.914-.4544-.812l-.1818-1.016.5453 1.117c.1818 0 .3636 0 .3636-.203zm15.3602-5.179l-.1818.61v.101c.0909.102.2726.305.4544.203-.2726.61.0909.813-.0909 1.422l-.3635-1.523h-.0909v-.813h.2727zm2.5448-1.929h-.1817l-.0909-.406h.1818l.0908.406zm-34.3559 4.773h.1818c-.0909-.203-.1818-.305-.2727-.406 0 .101.0909.203.0909.406zm18.2686-3.351c-.3635-.203-.1817-.61-.0908-.813-.0909-.101-.0909-.101-.0909-.203-.0909 0-.0909-.101-.2727-.101l.2727-.305c.0909.203 0 .305 0 .406.0909.102.0909.102.0909.203 0 0 .0908.102.1817.102 0 .203.1818.609-.0909.711zm-.9088-4.265h-.0909c-.0909.304-.2727.711.2726.711l-.1817-.711zm-15.6329 15.435c0 .101 0 .101.0909.203 0-.102.0909-.102.0909-.203h-.1818zm-.1818-1.117c0 .101 0 .101 0 0 .0909.101.0909.203.1818.203-.0909 0-.1818-.102-.1818-.203zm.9998 5.585l.6362.508c.0909-.204.3636-.711.0909-1.117h-.2727c0-.204-.0909-.305-.1817-.508 0-.203.0908-.406-.0909-.508 0 .203 0 .406.0909.508 0 .203-.0909.508.1817.508.1818.203.0909.406-.4544.609zm.5453 1.218l-.0909-.71c-.6362.203.2727.304-.1817.609.0908-.102.1817 0 .2726.101zm-5.3624-16.146c.0909-.203.2727-.406.3635-.609 0-.406-.0908-.711-.4544-1.015-.2727.507-.0909 1.015.0909 1.624zm2.0904 3.453l.4545.305c0-.305 0-.711-.1818-1.016h-.1818c0 .203-.0909.305-.1818.508.0909.102.0909.102.0909.203zm.6363 1.117v-.203h-.1818c0-.102-.0909-.102-.1818-.203.0909.305.0909.508.3636.914v-.508zm.4544 2.742c.0909 0 .1818.101.1818.101-.0909-.406-.1818-.914-.4545-1.32-.0909.406.1818.813.2727 1.219zm.0909 1.523c0-.101-.0909-.203-.0909-.305.3635-.203.3636.407.5453.407-.0909-.203-.0909-.508-.1817-.813-.0909-.101-.1818-.101-.2727-.101 0 .101-.0909.304-.2727.406.0909.101.0909.406.2727.406zm1.1815 3.046c0-.203-.0908-.406-.2726-.71v-.102l-.0909.102c.0909.304.0909.507-.0909.71l.0909.305h.0909v.305c.0909-.203.1818-.406.2726-.61zm-.0909 2.031v-.101l.1818.101.3636-.507-.3636-.203.2727-.102c.1818-.102.0909-.305.0909-.508-.0909-.101-.1818-.203-.3636-.203-.0909.102-.1817.203-.0909.305l-.2726.101.0909 1.016s.0908 0 .0908.101zM51.9883 5.88981l-.3635-.40618c.1818 0 .3635.00001.3635-.20308-.0908-.10155-.4544-.40621-.1817-.6093l.2726-.10155-.0909.60928v.71083zM39.3548 3.35116c.2727 0 .5453.30463.818.40618l-.0909.20309c-.3635 0-.9089 0-.7271-.60927zM33.1744 130.183l.3635-.102.0909.102c-.0909-.102-.0909-.203 0-.305h-.0909c-.1817 0-.3635 0-.4544.102l.0909.203zm-.0909-.406v.406l.0909-.203c0-.102-.0909-.102-.0909-.203zm1.8178 4.976l.4544-.102-.0909-.406v.101c-.0909-.101-.1818-.203-.1818-.406h-.0908c-.0909.102-.1818 0-.2727-.101v-.305c-.6362.609.7271.609.1818 1.219zm1.5451 1.624h.1818l-.0909-.609h-.1818l.0909.609zm-1.8178-4.062l-.0909-.507c0 .203.0909.406.0909.507zm2.9993-5.889c.2727 0-.1818-.813-.2726-1.117l.2726 1.117zm.4545 1.624l-.2727-1.015c0 .203-.0909.406 0 .508-.0909-.203 0-.508-.1818-.508 0 0 0 .102-.0909.102.1818.101.1818.507.2727.913.0909-.101.1818-.101.2727 0zm.1817.711l-.1817-.711c-.0909 0-.1818.102-.2727.102.0909.203.1818.508.4544.609zm.4545-1.624l-.2727-1.016h-.1818l.4545 1.016zm.0909.304l-.0909.813c.0909-.305.3635-.61.0909-.813zm-.7271-5.585v.203c.0909-.101.0909-.203 0-.203zm.5453.914c0-.203 0-.305-.0909-.508 0 .203 0 .305.0909.508zm-.1818 1.219h.1818v-.407c-.0909-.101-.1818-.203-.1818-.406-.0909.305 0 .609 0 .813zm.5454.71l.0908.61.0909-.102c-.0909-.203-.0909-.304-.1817-.508v-.203l-.1818.102.1818.101zM27.6302 4.67125c-.9089-.30463-.9998.50773-.9998 1.21857.0909 0 .2727-.10155.4544-.2031l-.0909-.50774c.0909.10155.2727.10157.3636.20311l.2727-.71084zM41.7179 66.8178c.0909.1016.1818.1016.1818.3047l.1818-.5078c0 .2031-.1818.2031-.3636.2031zm.6362 8.1237c0 .1016 0 .2031.0909.2031l.1818.3047c.6362-.3047.0909-.2031-.1818-.3047l-.0909-.2031zm-5.1806 59.3035c.0909-.508.4544-1.117.0909-1.523-.1818.101-.2727.304-.3636.406 0 .406.0909.812.2727 1.117zm2.0904-11.475c0 .406 0 .711.0909 1.117.0909.203.1818.406.1818.711 0-.203.1818-.305.3635-.508-.2726-.508.2727-1.422-.6362-1.32zM35.9919 8.73312c-.0909 1.11701-.4544 2.33558-.3635 3.55418.2726-1.0155.3635-2.43717.3635-3.55418zM34.5377 136.58l-.4544-.203c.1817 0 .3635 0 .3635-.203.0909.203 0 .508.0909.406zm9.816-130.08092v-.30464c-.2727-.91391.6362-.81236.9998-.71081-.3636.20309-.3636 1.21855-.9998 1.01545zm13.8151-1.82783c.0909.10154.2726.10156.2726.30465h-.1817l-.0909-.30465zm1.636.6093l.2726-.10157-.2726.20311v-.10154zM53.897 6.80374l.0909-.30466c-.3636-.20308-.5453-.60927-.7271-.91391-.3636.30464-.4545.91393-.4545 1.21857-.4544-.71083.0909-1.11701.3636-1.52319l-.2727-.30465c0-.10154.0909-.20309.1818-.20309 0 .20308 0 .30463.0909.40617.0909-.10154.0909-.20309.0909-.40617-.9998-.10155-.1818-1.7263-.6362-2.33559-.3636-.10154-.3636.40619-.6363.40619-.6362-.71081.5454-1.42166.7272-1.929396.5453-.101547.9088-.812347 1.3633-.9138943-.4545 1.7262903-.9089 3.3510303-.5454 5.2804303 0 0-.0908 0-.0908.10154l.0908.10153c0-.10154.0909-.20307.1818-.20307 0 .40618.1818.50772.4545.71081-.0909.40619-.1818.71083-.2727.81238zm4.908 5.99126l-.0909.2031v-.5077l.0909.3046zm4.1809 19.9031h-.0909v-.4062l.0909.4062zm3.8173 10.4593l.2727.7109c0-.2031-.3636-.5078-.2727-.7109zm-.1818 1.4217l.1818-.6093.0909.1016c-.0909.203-.0909.5077-.2727.5077zm.6362 2.3356v.5077c-.0908-.2031-.2726-.6093-.4544-.4062.0909-.1015.3636-.2031.4544-.1015zm-3.3628 5.7881c-.1818.4062 0 1.0155-.0909 1.5232l-.0909-1.4216.1818-.1016zm.1817 10.1547c0 1.5232.3636 4.1634-.0908 5.0773-.1818-.6093.0908-1.117-.1818-1.6247.5453-1.0155-.3636-2.6402.2726-3.4526zm.1818 5.382c-.2726.2031 0 .5077-.0909.7108l-.1817-.6093.2726-.1015zm-.0909 1.9294c0-.2031-.1817-.6093 0-.914-.0909.1016.0909.7109 0 .914zm.1818 3.351c-.0909-.6093-.0909-1.0155-.0909-1.7263l.2727 2.0309c-.0909.3047-.1818.8124.0909 1.0155-.0909.2031-.1818.4062-.3636.3046 0-.5077.2727-1.2185-.2726-1.5232.0908 0 .2726 0 .3635-.1015zm.4545 8.1237c-.0909-.1015-.0909-.6093 0-.7108 0 .2031.1817.5077 0 .7108zm.4544 5.4835c-.1818-.8123-.1818-1.5232-.0909-1.8278.1818.5077.0909 1.2186.0909 1.8278zM46.2624 110.381c.2726 0 .0908-.304.0908-.507h-.1817l.0909.507zm19.0866 10.053h-.0909v-.406l.0909.406zm-2.454 1.117h-.0909l-.0909-.609h.0909l.0909.609zm-5.9987 2.031l-.0908.102-.1818-.406.2726.304zm7.8165 0h-.1818l.1818-.406v.406zm-8.998 2.234l-.0909.102-.1818-.609.2727.507zm1.5451-.609l.1818-.304c.1817.507-.0909.507-.1818.812-.2727-.305-.1818-.508-.0909-.812-.0909.203 0 .203.0909.304zm-.6362 1.625l.0909.101.2726-.71.0909.101c.1818 0 .1818-.203.3636-.203l.0909.406c-.2727-.101-.6363.61-.818.61l-.1818.304c-.1818-.203 0-.508.0909-.609zm-.7271.508v0zm.9997 1.827c-.0909-.507-.5453-1.015-.3635-1.523.1818.305.1818.508.2727.813.0908-.305.4544-.102.5453.101h-.5453c0 .102-.0001.305.0908.609zm.9089-.304l-.0909.304v-.812l.0909.508zm-2.1813.711c0-.305.3636-.61.3636-1.016l.0908.102c0-.203 0-.406.0909-.61l-.4544-.406c.0909 0 .1818-.101.1818-.101l-.0909-.305h.0909c-.1818-.305-.6363-.508-.3636-.812l.0909.304-.0909-.203h.1818v.406l.0909.204.3635-.407c.0909.407-.3635.711-.0909 1.219.6363 1.015.5454 1.929 1.1816 2.945l.1818-.61c-.0909.914.4544.204.7271.813l-.3636.203c0 .203.3636.305.5454.508-.0909.101-.1818.406-.3636.406 0-.203-.2727-.305-.3636-.406.1818 0 .3636 0 .3636-.203-.3635.101-.4544-.407-.6362-.61-.2727.305.0909.711-.1818.914.7271.61.2727 2.336 1.2724 2.539.3636-.508-.2726-.609-.1817-1.219.2726.203.1817 1.219.7271.813.4544.203-.1818.507.2726.711.5454.507-.7271.609-.2726 1.32l-.5454-.508-.0908.406c-.0909.406-.0909.812-.4545.711v-.305l.1818.102.0909-.203c-.9998-.406.5453-1.625-.5454-2.031.0909-.203.2727-.305.1818-.508-.0909-.101-.1817-.203-.2726-.101-.0909-.508.2726-1.219-.4545-1.422.0909-1.219-.6362-2.336-.818-3.453-.2727.305-.6362.508-.6362.813zm-.0909.406l-.1818.304-.2726-.304c.1817-.203.2726-.305.4544 0zm-1.9995.406l.0908.406h-.0908l-.0909-.406h.0909zm-.0909 1.422l-.0909-.508.3635.305c-.0909.203-.1817.101-.2726.203zm-.7271 2.031h-.0909l-.0909-.508c.1818 0 .0909.305.1818.508zm9.7251-39.6036l.0908-.1015.0909.2031-.1817-.5078c-.0909.1016 0 .3047 0 .4062zm.5453 17.7706c0 .203-.3636.914.0909.914l-.0909-.914zm-1.8178 2.133c0 .609-.3636 1.421 0 2.03.3636-.406.2727-1.421 0-2.03zm-.9089-1.321c-.2726.407-.0909.914-.1818 1.524.3636.101.3636.609.2727.914-.0909.406-.6362-.204-.3635.507.1817-.711.7271.102.7271-.711h-.1818c-.4545-.913-.1818-1.32-.2727-2.234zm-5.9077 1.117l-.0909-.507-.1818.304.2727.203zm.2726 3.656c.2727-.304-.1818-.609-.2726-1.015-.2727-.203.4544.507.2726 1.015zm.0909 1.32l-.2727.203c-.0908 0-.0908-.101-.0908-.203-.0909 0-.0909-.101-.0909-.101v.507l.0909-.101.2726.203-.2726.711-.0909-.102.0909.406c0-.101 0-.101.0908-.203.3636.102.1818.508.1818.711v0c-.0909-.101-.1818-.304-.2726-.406l.0908.812c.1818-.101.2727.305.2727.508v-.609c-.0909-.102-.0909-.203-.0909-.406.0909-.102.0909-.305.2727-.305 0-.102.0909-.203.0909-.406l.0909.101-.0909-2.132c-.1818.101-.1818-.102-.3636-.203.1818.406.1818.508.0909 1.015zm-1.0907-.406c0 .406 0 .812.3636 1.117-.0909-.203-.1818-.508-.2727-.812v.203l-.0909-.508zm.5454-1.625c.0909.102 0 .203-.0909.305-.0909.102-.2727-.102-.2727-.203 0-.406-.1818-.406-.3635-.406-.2727.812.818.812.2726 1.421-.0909-.101-.0909-.203-.1817-.406.0908.203 0 .508 0 .813 0 0 0-.102.0908-.102 0-.102.0909-.203.0909-.305.0909-.101.1818 0 .1818.102l.0909.406c0-.711.0909-1.015.1818-1.422v-.203zm-.4545-1.523c0-.101 0-.101 0 0zm-.2726 0c.0909.203.1817.406.1817.609v-.507l-.1817-.102zm-1.4543 2.133l-.1817-.914h-.0909l.1818.914h.0908zm0 .609l.0909.508h.0909l-.0909-.508h-.0909zm.5454 3.351l.0909.508h.0909l-.0909-.508h-.0909zm.1818-2.234l-.2727-.508.0909.914.1818-.406zm.1817 4.265c-.0909.609.4545.304.7271.508.2727-.204.2727-.711.0909-.813-.1817.102-.1817-.101-.3635-.203.1818-.203.1818-.508 0-.711l-.0909-.101v.406h-.1818l-.0909-.508-.0909-.101c-.5453.203.0909.812-.3635 1.117.2726 0 .3635.203.3635.406zm1.2725-1.625l-.0909-.508c-.0909-.101-.0909.305.0909.508zm.3635 1.828l.0909.101c.0909-.203-.4544-.71-.0909-1.015l.3636.305-.1818-1.117c-.2727.507-.3635 1.218-.1818 1.726zm3.3629-2.336l-.0909-.406v.508l.0909-.102zm-6.8166.407c-.2727.71.5453 1.624 0 2.132.0908.203 0 .406.1817.508-.0909-.102 0-.203.0909-.305.1818.609.2727.813.5454 1.219-.5454-1.016-.3636-2.336-.818-3.554zm-.6363-3.656c.0909.305.0909.609-.0909 1.015.3636.711.0909 1.016.4545 1.727v-1.219h-.0909c.0909-.406 0-1.015-.2727-1.523zm1.4543 9.748c.0909-.507.2726-.609.0908-1.218l-.0908-.102c.1817-.203.1817-.507 0-.711-.818-.203.3635.914-.1818 1.422l.1818.609zm-3.272-15.638c-.1818.305.2726 1.016-.0909 1.32.5453-.101.0909-.812.0909-1.32zm-.6363-1.32h-.0909l.0909.508h.0909l-.0909-.508zm-.5453-2.64c-.0909.711.1818 1.523.2727 2.437.2726-.609 0-1.117-.1818-1.726h-.0909v-.711zm.9089 6.499l-.2727-2.234c.0909.914-.1817 1.32.2727 2.234zm.9089 8.733c-.0909-.102-.1818-.102-.2727-.102l.1818.406c-.0909-.406.1818.204.0909-.304zm-1.2725-8.022h-.1817c.2726.203 0 .609 0 .914.2726-.204.2726-.508.1817-.914zm-.1817-.203l.0908-.508c-.2726 0-.1817.304-.0908.508zm.6362 5.686c-.1818-.203-.4545.102-.5454-.203l.1818.508c0 .203-.0909.304-.1818.508.0909.507.1818 1.117.4545 1.421.1818-.406.2727-1.117.2727-1.625-.1818.102-.2727 0-.2727 0 0-.203.1818-.304.0909-.609zm-.7271-1.421l.0909.203c.0909-.102.0908-.203.0908-.305-.0908 0-.1817 0-.1817.102zm.0909-1.321l-.0909.102-.1818-.711c.0909.305.0909.711-.0909.914l.2727.305c.0909 0 .0909.101.0909.101.0909-.203.0909-.507 0-.711zm-1.1816-4.569c.1818-.305.3636-.711.2727-1.117-.1818.101-.2727 0-.2727-.102v1.219zm-.1818.609c0-.203 0-.305-.1817-.305l-.0909.102c.0909 0 .1817.102.2726.203zm.5454 2.336c.5453-.61 0-1.422 0-2.234-.0909.203-.2727 0-.4545.101.5454.711.5454 1.422.4545 2.133zm.4544 6.194h.0909l-.0909-.508h-.0909l.0909.508zm.818 9.85c-.3635.102 0-.305-.2727-.305.0909.204 0 .711.2727.61v-.305zm-1.636-4.773v-.304l-.0909.101c0 .102 0 .102.0909.203zm-1.636-9.748h-.0909v.101h.0909v-.101zm-1.5451-4.062c.0909.203.0909.305.0909.508 0-.102.0909-.203.1818-.305 0-.101 0-.203-.2727-.203zm-.7271-1.625c0 .203.0909.406.1818.61 0-.102 0-.204.1817-.305-.1817 0-.2726-.305-.3635-.305zm-.0909-1.929c0-.102 0-.102 0 0-.0909.101-.1818.203-.1818.305 0 .203.0909.304.0909.507.1818-.203.0909-.507.0909-.812zm.7271 3.046c-.0909-.101-.0909 0 0 0l-.0909-.101c-.0909-.102-.1818-.203-.2726-.203.0908.203.2726.507.3635.71.0909-.203 0-.304 0-.406zm-.3635 3.859c0-.101.0909-.203.1817-.203.0909.406.1818.102.2727.102 0-.102 0-.102-.0909-.102l.2727.203c0-.203 0-.305.0909-.508 0-.203 0-.304-.0909-.507-.0909-.204-.1818-.407-.2727-.61h-.1818c-.0908.203-.1817.406-.2726.305.2726.508 0 .508.4544 1.015 0 .102-.7271.102-.3635.305zm1.2724 2.64s.0909 0 .0909.102v-.406h-.0909v.304zm.2727 1.523c.0909 0 .0909-.101.0909-.203 0-.101-.0909-.101-.0909-.203h-.0909l.0909.406zm1.2724 6.703c-.0909-.407-.0909-.813-.0909-1.219 0 0 .0909 0 .0909-.102-.0909 0-.0909 0-.1818-.203l-.1817.407.3635 1.117zm.4545 4.163c.2726-.102-.1818-.812.1817-.812v-.305l-.1817.305v.101h-.0909l.0909.711zm-.2727-3.453c0-.101-.0909-.203-.0909-.304l.0909.304zm.1818-.101c0 .101-.0909.203-.1818.203 0 0 .0909 0 .0909-.102l.0909-.101zm-.0909-1.117v.711-.711zm-.1818-.813c0 .102-.0909.102 0 0zm4.908 4.468l.1818-.609c0 .203-.1818.203-.2727.203l.0909.406zm-9.3615-79.409c0-.3046-.0909-.7108 0-1.0155l-.1818-.203c-.0909.3046-.0909.6092-.1818.8123v.5077c.0909-.3046.1818-.203.3636-.1015zm-.0909 5.382v-.2031.2031zm.0909.7108l.0908-.1015c-.1817-.1016-.1817-.2031-.1817-.4062 0 .2031 0 .4062.0909.5077zm.6362 10.6624c.3635.1015.1818.7108.2726 1.3201.0909 0 .1818 0 .1818-.1015l-.3635-2.5387-.0909 1.3201zm.0909 1.3201c0-.2031-.0909-.4062-.0909-.5077-.0909.3046-.1818.6093 0 .9139-.0909-.3046 0-.4062.0909-.4062zm.4544 3.148v-.2031h-.0909v-.3047h-.1818c0 .1016.0909.2031.1818.3047l.0909.2031zm.1818 1.4216c0-.3046-.0909-.5077-.1818-.7108-.1818.2031-.3636.2031-.1818.7108h.3636zm.1818 2.9449v-.3047c-.0909.1016 0 .2031 0 .3047zm.1817 4.1634c-.0908-.3047-.0909-.7109-.1817-1.0155 0 .1016 0 .1016-.0909.2031v1.2186c.1818-.1016.2726-.2031.2726-.4062zm.3636 3.1479c0-.4062 0-.8124-.0909-1.3201-.1818.5077-.4544.9139.0909 1.3201zm.6362 5.7882c-.0909-.8124-.1818-1.6248-.4544-2.3356h-.0909l.0909-.2031c0-.1015 0-.1015-.0909-.2031-.4545.5078.2726.7108-.2727 1.2186l.4545.1015-.1818.6093.2726-.1015c.2727.1015 0 .4061-.0908.6092l.3635.3047zm.4545 4.468c-.1818-.9139-.1818-1.9294-.2727-3.0464-.1818-.2031-.2727-.5077-.5453-.7108-.2727 1.4217.3635 2.5387.818 3.7572zm-.0909 3.3511c.9997-.4062 0-1.3201.3635-2.031.0909-.2031.0909-.5077 0-.7108l-.2726-.2031h-.0909c-.1818 0-.1818.1016-.2727.2031 0 .1016-.0909.2031-.0909.2031.0909.2031.2727.4062.0909.6093.1818.5077.6362.9139.6362 1.5232l-.2726.1015c-.1818.1016-.1818.2031-.0909.3047zm.6362 1.9296c0-.203-.0909-.406-.1818-.6095 0 .3045 0 .5075.1818.6095 0 .101-.0909.101 0 0zm.5453 4.468c-.0909-.102 0-.203 0-.305 0-.203.1818-.508.3636-.609 0-.102-.0909-.102-.0909-.203l-.4545-.203h.1818c-.0909-.102-.1818-.102-.1818-.203 0 .406-.2726 1.015-.0908 1.523.0908-.102.1817 0 .2726 0zm.6362 6.499c.0909-.102.1818-.102.1818-.102.1818-.203.4545-.304.6362-.406-.1817.305-.3635.609-.4544.914.0909.102.0909.203.3636.203.1817-.203-.0909-.305-.0909-.508.9089-.406.0909-1.624.1817-2.031-.0908-.101-.1817-.101-.2726-.101l.3635-.305c.0909-.914-.9089-.406-.818-.508-.0909-.304-.1817-.609-.3635-.812 0-.203 0-.508-.0909-.812h-.1818c-.3635 1.117 0 1.929.2727 2.945.3635.203.4544-.61.5453-.305-.1818 0-.1818.102-.2727.203l.1818.102h-.1818c0 .304.3636.406.5454.71-.0909.102-.1818.407-.2727.102l-.0909.203-.2726-.508.0908 1.016zm0 6.702c0-.102-.0908-.203-.0908-.406h-.0909l.0909.609h.1817l-.0909-.203zm0 6.194v.914c-.0908 0-.2726 0-.2726.203.1818.203.1818.61.4544.508 0 .305.0909.609.1818.711 0 .101-.3636.101-.4544.203h.1817l.0909.406c.1818.305.4545.609.0909.812l.3636.204-.0909.101c0 .203.0909.406.1818.508.0908 0 .0908-.102.1817-.102v.203c.2727-.203.0909-.71.3636-1.015.6362.812-.2727 1.828.4544 2.539v-.102c0-.305 0-.609-.2726-.812l.1817.101.0909-.304c0-.711-.0909-1.321-.1818-2.031l-.0908-.102c-.1818.203-.2727.305-.1818.508 0-.203-.0909-.406-.2727-.711h-.1818l.2727-.406c-.1818-.305-.2727-.711-.3635-1.117 0 .101-.0909.203-.2727.406l.2727-.102v-.304c-.0909-.508-.2727-1.016-.7272-1.219zm0-.609c0 .101.0909.305.0909.406l.0909.102-.0909-.61-.0909.102zm-.2726-2.336c0 .102-.0909.203-.0909.305l.1818.102s0-.204-.0909-.407zm-.1818-.203v0zm-.7271-3.046v.406c.0909.102.0909.305.2727.406l.0908-.203c.7272.203 0 .813.1818 1.219l.5454-.102c-.6363-.609-.2727-1.421-.7272-2.031v-.101l-.1817-.102c.0909.102.0909.102.1817.203 0 .102-.1817.203-.3635.305zm-.6362-4.062c0 .102 0 .102.0909.203.0908.102.2726.203.3635.406-.0909.102-.2727.203-.2727.305.0909.101.1818.203.2727.406.0909-.101.0909-.101.0909-.203l-.0909-.406-.0909-.711h-.3635zm-1.7269.812c0-.406-.1818-.812-.2727-1.218 0 .101.0909.203.0909.406.1818.305.0909.609.1818.812zm.0909 3.047l-.0909-.508-.0909.102.1818.406zm.2726 1.32l.2727.101s0-.101.0909-.101c-.0909-.305.1818-.812-.2727-.914 0-.102 0-.203.0909-.305-.0909-.101-.0909-.203-.1818-.304l-.2726.406v-.102h-.0909c.1818.407.2727.813.3635 1.219zm.818 3.96h.1818c-.1818-.101-.0909-.406-.0909-.609 0-.102-.0909-.203-.0909-.203-.2726-.406-.2726-.813-.2726-1.219h-.1818c.0909.305.1818.711.1818 1.016v.304c.1818.203.2726.407.2726.711zm4.3627 8.733c0 .203.0909.406.0909.61 0-.204 0-.508-.0909-.61zm.9998-1.523c0-.102-.0909-.305-.0909-.406-.0909.203-.2727.304-.4545.406.2727.203-.0908.406.2727.609l.2727-.609zm.0909.406c0-.101 0-.203-.0909-.406 0 .102-.0909.203-.0909.203l.1818.203zm-.4545-5.889l-.1818-.204-.0908.102v.305h.2726v-.203zm.2727 2.741c0-.507.3635-.609.1818-1.117-.0909-.101-.0909-.203-.1818-.101-.0909-.305 0-.813-.0909-1.219-.1818.914.2727 1.828.0909 2.437zm.1818 1.219c0-.102-.0909-.305-.0909-.406-.0909.203-.0909.406.0909.406 0 .101 0 .101 0 0zm-.7271-12.897l-.0909-.203v.203h.0909zm.5453.203c-.0909-.507.1818-1.32-.3636-1.726-.2726.508-.0909 1.016.0909 1.625 0 .101.0909.101.2727.101zm.7271 5.382v-.203c-1.0907-.812-.0909-1.218-.4544-2.132.2726.203.4544.711.4544 1.015.2727-.101.0909-.609.1818-.812-.5454-.102-.0909-1.625-.7271-2.031h.1817c-.0908-.508-.0909-1.015-.2726-1.422l-.0909.407s0-.102-.0909-.102h-.2727v.203l-.0909-.101c-.0909-.102-.1817-.102-.2726-.204v.305c-.0909-.203 0-.508-.1818-.609l-.1818.304c.0909.204 0 .61.1818.711 0-.101.0909-.203.1818-.203.1817.813 0 1.523.4544 2.133l.2727-.711.0909.101-.2727.711c-.2727 1.523.0909 2.64.4545 3.757.0908-.507.1817-1.015-.0909-1.523.3635-.101.3635.508.5453.406zm-2.8176 18.279l-.2726-.203.0909-.102c.5453.203 0 .914.3635 1.219h.1818c.0909-.102-.2727-.813.0909-.914 0-.305-.1818-.609-.3636-.609.0909-.508-.2726-1.524.3636-1.422.5453-1.016-.0909-2.031-.2727-3.148l.3636-.203c1.1815.406.3635 2.335 1.0906 3.351-.4544.406 0 1.218 0 1.828h.0909l-.1817.203.2726.203c.0909.305.3636.406.4545.609-.3636.102-.5454-.507-.818-.711l-.2727.61-.3636-.305c-.1817.406-.2726.508-.3635.914l-.3636-.203c-.1817-.305-.3635-1.016-.0909-1.117zm21.8133-41.7358c.3636.1015.7272 0 .9998-.2031.2727-.2031.5453-.5077.5453-.9139.0909-.4062 0-.7109-.1817-1.0155-.1818-.3046-.4545-.5077-.818-.6093-.3636-.1015-.7271 0-.9998.2031-.2727.2031-.4545.5078-.5453.9139-.0909.4062 0 .8124.1817 1.1171.1818.3046.4545.5077.818.5077zm-1.9086 18.3798c.9089.203 1.8178 0 2.6358-.609.8179-.609 1.3633-1.422 1.5451-2.539.1817-1.015 0-1.929-.5454-2.843-.5453-.914-1.2724-1.422-2.1813-1.625-.9998-.203-1.8178 0-2.6358.609-.818.61-1.3633 1.422-1.5451 2.539 0 .305-.0909.508-.0909.711-.0909-.508-.1818-1.016-.2726-1.422.6362-1.218-.2727-3.249-.1818-4.671-.0909-1.523-.7271-3.249-.3636-4.569-.2726-.407-.6362-1.118-.4544-1.727l.1818-.7106c.1817 0 .0909.3046.1817.5076.4545-.3045 0-1.7262-.0909-1.9293.1818.3047-.0908.6093-.1817.8124l-.2727-.3046-.0909-1.6248c.0909-.1015.1818 0 .1818.1016v.3046c.1818-.1015 0-.4062 0-.5077-.2727-.2031-.4544-.4062-.4544-.8124l.2726-.4062c.5454.2031 0 .7108.3636 1.0155.2726-.6093-.5454-1.5232-.1818-2.3356.1818.1016.0909.2031.1818.4062.0909-.2031-.1818-.4062 0-.7108l.1817-.3047-.7271-.8123.3636-.7109c-.1818 0-.1818.3047-.3636.5078-.0909-.1016-.0909-.2031-.1817-.4062l.1817-.3047-.3635-.2031.1818-.3046c-.0909-.1015-.0909-.2031-.1818-.4062l.5453-.3046h.0909v-.3047h-.0909c.0909.1016 0 .2031-.0909.3047-.3635.3046-.3635-.5078-.3635-.6093.2726-.7108.2726-1.6248.1818-2.4371-.4545-.1016-.2727-.7109-.2727-1.117-.0909-.1016 0-.2031.0909-.3047-.4545-.2031.0909-.7108-.0909-1.0154-.0909-.4062 0-.8124 0-1.2186l-.3636-.4062c.2727-.3046.0909-.5077 0-.8124-.5453-.3046-.0909-.7108.0909-1.2185-.1818 0-.3635-.2031-.3635-.6093.1817-.2031-.1818-.7108.2726-.8124-.4544-1.5232-.0909-2.7417-.3635-4.1634-.0909-.6093-.4545-2.234-.3636-3.2495.2727-.8124-.2727-1.4216.0909-2.234-.0909-1.2186-.6362-2.4371-.2727-3.6557-.0908-.1015-.1817-.1015-.1817-.2031l.0909-.1015.2726.2031c0-.2031.1818-.8124-.2726-.914-.1818-1.0154.1817-2.234-.2727-3.0464 0-2.6402-.3636-4.8742-.2727-7.4129l.1818-.3046c-.2727-.1016-.0909-.6093 0-.7108-.1818-2.3356-.5453-3.7573 0-5.8897-.818-1.1171.0909-2.4372-.3636-3.7573.1818-.6092-.1817-1.2185.0909-1.9294-.2726-.2031-.0909-.6092 0-.9139-.5453-.5077.3636-.9139-.0909-1.6247.9089-.3047.0909-1.2186 0-1.8279-.3635-1.3201.2727-2.3355 0-3.5541.2727-.5077 0-1.2186.1818-1.7263-.1818-1.2186-.0909-2.8433.1818-4.1634-.1818-2.0309-.0909-3.7572.0909-5.4835.0909-.6093 1.0906-2.234.0909-3.0464v-.7108l.2726.1015c-.1817-.5077.2727-1.4216 0-2.0309.0909-1.2186.3636-2.3356.5454-3.4526.0909-1.0155-.3636-2.2341.1817-2.9449-.1817-1.0154.0909-1.92937.1818-2.84328-.818-.40619-.1818-1.7263-.6362-2.23404-.1818.10155-.3636.50775-.5453.30466-.0909-.60928.2726.10155.3635-.50774l-.4544-.60928c0 .71083-1.4542 1.11702-.6362 2.13248-.3636.30464.2726.71084 0 1.11703-.0909-.10155-.0909-.20311-.1818-.4062-.3636.40617.6362 1.32011-.2727 1.42166 0 1.21861 0 2.94481-.3635 3.96031-.2727-.2031-.6363.1015-.7271.4062-.2727-.6093 0-1.4217.0908-2.1325-.1817-1.4216.3636-3.65567-.6362-4.16341l-.4544.40619c-.0909-.10153.0909-.81238-.2727-.71083l.0909 1.01547h-.4544c-.6363.81236-.4545 2.33558-1.2725 2.84328-.7271-.6093.0909-2.13245-.9089-2.43709-.3635-.91392-.818-1.82785-1.5451-2.33557l.0909.50774c-.818.81237-.6362-1.21857-1.5451-.8124l.5453.40621c-.3635.20309-.5453.40619-.9089.20309-.1817-.81238-.9088-.30464-1.3633-.40619-.3635.2031-.7271-.00001-1.0907-.20311 0-.30462 0-.7108.0909-1.11699.818-.30464 1.1816-1.11703 1.4543-1.92939-.7272-.10155-1.2725-1.11701-1.9996-1.42165-.4544.60928-.5453 1.42163-.818 2.13246.6362.30464.7271 1.21857.6362 1.9294-.3635-.2031-.7271-.30466-.9997.10153-.2727-.40619-.7272 0-.9998 0-.2727.81238-1.3634.71086-1.4542 1.72632-.6363-.81238-1.3634-1.52321-1.9996-2.03095-.2727.10155-.3636.40619-.6362.60927.5453-.40617.9089.20311 1.3633.6093-.0909.30464.0909.40617.2727.60927 0 .10155-.0909.30464-.1818.40619-.1818-.30464-.4544-.40618-.4544-.81236l-.0909.20308-.6363-.50773c.0909.71082.4545 1.3201.818 1.82784-.1817 0-.4544-.10155-.6362-.10155-.3635-.81238-.7271-1.52319-1.2724-2.13247l.2727-.30465-.3636-1.3201-.4545 1.11701-.5453-.81236c-.2726.30464-.6362.30462-.9998.30462 0-.40619 0-.71083-.2726-.91392-.2727.10154-.4545.60928-.818.30465-.0909-.60928.3635.10154.4544-.50775l-.7271-.60926c0 .81237-1.9995 1.32009-.818 2.33555-.4544.30464 0 .50775.0909.81239v.20308s0 .10157-.0909.10157c-.1818-.10155-.1818-.2031-.1818-.40619-.4544.50772.9089 1.42166-.3635 1.52319v-.40619c-.9089 0-.1818-1.21855-1.0907-1.3201.3636-.60928-.6362-.30464-.5453-.91392-1.1816.20309-2.1813-1.62474-3.3629-.81236-.6362-1.52321-1.3633.30462-2.3631-.10155-.3636-.40619-.5453-1.01547-1.1816-1.32012-.2726 0-.818.40619-.9088-.10154-.4545.60928-.1818 1.72628-.2727 2.74174-.3636-.30464-.5453-1.21853-1.3633-.91389l.818.40617c-.4545.30464-.7272.40619-1.2725.30464-.2727-.91391-1.2724-.30464-1.9087-.30464-1.3633.60928-2.6357-1.42165-3.8173-.30463-.3635-.40618-.9089 0-1.4542 0v-.50773c-.4544.71081-.818.30462-1.1816 1.117l-.0908-.10154c.1817-.30465.2726-.60929.5453-.71084h-.6362c0-.10154.0909-.20307.1817-.30462-.0908.10155-.1817.20309-.2726.40619-.4545.10154-.9089.30462-.6362.91389l.0909.30464c.1817 0 .3635.00002.4544-.10153v.50774c-.1818.20309-.2727.40619-.2727.71083-.0909.10155-.1817.20309-.2726.30464v.40617c-1.0907.71083-2.3631.2031-3.7265.40619-.1818-.30464-.818-.60928-.6362-1.01547-.3636-.20309-.7271.10155-1.0907.10155-.27263.60928-.09085 1.32011-.18174 1.92938l.72714 3.45262c.3635.1015.6362.1015.5453.6093l-.0909.2031c-.3635-.6093-.5453.203-.9998.1015l-.18174.3046-.99977-4.56957c.09089-.2031.27266-.40619.18177-.60929-.36355-.40618-.54533.6093-.72711-.10153.54534-.20309.63623-.40619.63623-1.01547 0-.20309-.27267-.20308-.45445-.20308-.27266.40619-.63622.40619-1.18155.50772v.10155c-.45445 0-.99978.40619-1.45422.60928l-.63622 2.03089.36355-.4061c0 .5077 0 1.5232.72711 1.7263.36356 1.6247 0 2.8432 0 4.3664l.54534.5078c-.27267.3046-.54534.4062-.54534.8124.72711.1015.27267 1.4216.36356 1.9294l-.09089 1.0154-.63622-.4062.09089 1.117c.18178 0 .45444-.2031.54533 0-.27267.5078-.45444.3047-.72711.914.27267.9139-.09089 1.9293.09089 2.4371l.09089-.2031c.72711 1.117-.45445 2.4371.27266 3.5541-.99977 1.4217.818 2.8433-.45444 4.265-.18178.6093.72711.8124.09089 1.3201.18178.6093.36355 1.8278-.18178 1.8278-.18178.7109.72711 1.117.36356 1.9294.09089.5078 0 1.0155-.27267 1.5232.90889.5078-.09089 1.2186.27267 1.9294l-.18178.3046c-.09089-.1015-.18178-.1015-.27267-.1015.90889.5077-.18177 1.4217.45445 2.234l-.27267.1016c.54533.5077-.54533 1.3201.18178 1.7263.18178 1.3201-.45445 2.9448.45444 3.9603-.18178 1.4216.18178 2.3356 0 3.7572.18178.1016.54533-.1015.63622-.4062.36356-.7108-.09089-1.7263.18178-2.5386l.45444.203c-.27266-.3046.18178-.4061.27267-.6092.63622.1015.18178.5077.18178.8124v.1015c.36355-.3046.18178-.8124.45444-1.2186.54533.2031.818.7109.818 1.2186.18178 0 .18178-.5077.45444-.4062l.18175.1015-.18175-1.5232c.18175.7109.45445-.3046.72715.1016.2726.8124-.1818 1.4217 0 2.1325l.0909-.2031c.3635.4062.2726 1.117.4544 1.6247-.4544-.1015-.4544.5078-.7271.7109l-.81801-.4062c.27266.2031.63621.8123 1.18151 1.0154-.0908.4062.2727.5078.5454.7109-.3636.2031 0 1.117-.3636 1.8278-.2726.3046-.5453 0-.7271-.2031.4545.5077-.0909 1.0155.3636 1.7263-.0909.6093-.81804 1.117-1.18159 1.3201.45444.5078.45444.4062.99979.1016.0909-.7109.4544-.7109.9998-.914.2726.1016.1817.5078.2726.8124-.1818.2031-.5453.1016-.7271.2031.6362.1015.3636.7108.3636 1.2186-.0909.2031-.1818.2031-.3636.2031.0909.203 0 .6092.2727.6092l-.0909.2031-.6362-.3046c0 .5077-.0909 1.4216.0909 2.0309.0909-.1015.0909-.2031.2726-.2031.1818.5078.4545.4062.7271.8124l.0909 2.1325c.1818 0 .1818-.1016.2727-.2031.5453 1.5232.0909 3.1479.5453 4.7727-.4544.1015-.4544.4062-.5453.8124.2727-.1016.4544 0 .6362.1015l-.1818.3046c.6363.1016.1818.7109.1818 1.1171.5453.4061-.0909 1.2185.4545 1.6247l-.2727.5077c-.9089-.5077.0909-2.1324-.9998-2.1324-.4544-.8124.2727-1.9294-.9089-2.2341-.3635-.3046.3636.7109-.4544.7109l.7271 1.4216.0909-.2031.1818.1016-.2727.6092c.2727-.4061.5453-.2031.818-.3046.2727 1.9294.9089 3.351.7271 5.2804.5453.9139.4544 2.7418.6362 4.0619-.7271.6093-.818.1015-1.4542-.2031-.0909-.3046-.1818-.6093.0909-.9139l.1818.1015c.3635-.7108-.1818-1.4216 0-2.1325l-.0909-.3046c-.9998-.1015-.0909-1.2186-.9089-1.6247.3636.5077-.1818 1.8278.6362 2.6402-.0909.2031-.2726.2031-.3635.2031l.6362.4062c-.2727.4061-.4545.8123-.4545 1.2185-.0908.3047-.3635.2031-.5453.1016.9089.3046.2727 1.2185 1.1816 1.4216l.0908 1.117.2727-.8123c.818 1.9293 1.4542 5.0773 1.4542 7.2098-.1817 1.117-.9089 0-1.5451.3046-.5453.1016-.9997.2031-1.5451.3046-.0909 0-.2726.1016-.4544.1016 0 .1015.0909.2031.1818.2031l.1817-.3047c.1818 0 .1818.2031.1818.4062.3636 0 .818-.4061 1.1816 0l.4544 2.031c.2727-.3047-.3635-.914.1818-1.0155l.1818.2031c-.1818-.2031.0908-.4062.1817-.6093.5454.1016.3636.8124.5454 1.2186.0909-.1016.0909-.2031.2726-.2031.0909.1015.1818.1015.1818.2031l-.0909.2031h.0909c1.0907 2.5386.6362 5.8901 1.3633 7.8191l-.0908.203c.3635-.101.7271.508.4544.914-.5453.711.9089 1.726-.4544 2.234l-.1818-.102-.1818.305c-.3636-.305-.7271-.812-.6362-1.117-.818-.406.0909-1.32-.2727-2.132l-.0909.203-.4544-.61c.1818 1.727.818 3.25 1.0906 4.976-.0908 0-.0908.102-.0908.102l.1817.203c0-.102-.0909-.203-.0909-.406.2727-.305.818-.61.818-1.117.4545.609.9089 1.624.7272 2.132.4544.711.6362 1.93.818 2.742l-.2727.101.9089.204c-1.3634.913 0 2.843-.0909 4.061.2727.203.3635.61.4544.914-.1817.102 1.2725-.507 1.0907.508l-.4544.406c.1817 0 .2726-.101.4544 0-.1818.508.9998 1.727-.2727 2.234 0 .203.3636.305.0909.508-.818.203-.1818-1.117-1.0906-.508l-.1818-.406v.102c-.3636.203-.9089 0-.9998-.508.2727-1.219-.9089-2.336-.4544-3.554-.4545-.203 0-1.016-.3636-1.625h-.1818v1.625l.0909-.203c.3636.71-.0909 1.218.2727 1.929.0909.406-.3636.305-.1818.711.4544.508.818 1.625.7271 2.335l.1818 2.539c.6362.203.2727 1.32.818 1.828-.7271 1.32.5453 2.539.4544 3.757.7271 1.726.5454 3.554 1.4542 5.179l-.3635 1.219c-.0909-.508-.818-.711-.5453-1.32-.7271.71.9089 1.117-.1818 1.827l.4544-.101c0-.203-.0909-.305.0909-.406.6362.304.1818.71.7271 1.32h.0909c.5453 1.32.6362 2.741.5454 4.366-1.0907-.711.1817-1.828-.7272-2.742-.3635.305-.0909.914-.4544 1.117-.2727-.101-.3636-.304-.4544-.609l.0908-.203-.4544-.203c.5453-.305-.1818-.711-.1818-1.117l-.0909.203c-.6362-.508.5454-.406.4545-.508-.1818-.203-.2727-.507-.2727-.812-.3635.102-.4544-.406-.7271-.609.0909-.203.1818-.203.3636-.203-.0909-1.117-.0909-2.133-.7272-3.047-.0908-.711.3636-1.218.5454-2.132l-.1818-.406c-.4544.203-.0909.913-.4544 1.218.1817-.508-.6363-.711-.6363-1.015l.3636-.508c-.0909.101-.1818 0-.2727-.102.5454-.304-.2726-.71-.0909-1.015l-.3635-.203c.1818-.609-.1818-1.219-.5454-1.93.4545-.304-.0908-.71.1818-1.015.1818.203.3636.508.6362.406.0909-.508-.5453-1.218-.4544-1.625 0 .203 0 .407-.1818.61-.1818-.305-.3635-.305-.7271-.61.0909-.203.1818-.203.3636-.203-.5454-1.015-.4545-2.538-.2727-3.655-.2727-.203-.3636.203-.6362-.102l-.0909-.406c0 .203 0 .406-.1818.711-.9089-.61-.6362-1.727-.9089-2.539-.0909-1.625-.6362-3.757-.9997-5.585l-.0909.914c-.7271-.305-.0909-1.016-.4545-1.625l.3636-.406c-.7271 0 .0909-.812-.4545-1.016h-.1817c.4544.813.0908 1.93.0908 2.438.5454.203.2727 1.015.2727 1.523-.0909.203-.2727.406-.1818.609l.2727-.101c.2727.406.3636 1.117.0909 1.726.0909-.508.5453-.305.7271-.609-.1818.304.6362.609.0909 1.015l-.1818-.102c-.3635.102.4545.508-.1818.61 0 .609.9089.304.4545 1.015-.1818-.101-.1818-.203-.1818-.406l-.3636.508c.0909.101.1818.101.1818.203-.0909.101-.0909.203-.2726.203-.4545-1.117-.6363-2.742-.9089-3.656-.818 1.117.6362 1.727 0 2.844-.2727-.305-.2727-1.117-.9089-.914l.2726 1.523c.1818 0 .1818-.102.2727-.203.4545 1.117 1.0907 1.828.7271 3.148-.4544-.406-.7271-1.117-.7271-1.523 0 .203-.4544.609.0909.71l.7271 2.844c0-.407-.3635-.813.0909-1.117h.1818c-.0909.812.818 1.624.3635 2.538-.1817-.203-.3635-.406-.4544-.812-.2727 0 0 .406 0 .609.9998.305.0909 1.523.5453 2.133l.1818.812.1818-.305c.2726.61 1.0906 1.016.4544 1.727l-.4544-.203c-.0909.203.5453 1.32.7271 2.031.818-.204.3635 1.015.818 1.218 0 .305-.3636.711 0 .812l-.2727.102c.9089.914.4545 2.742.9089 3.859l-.2727.101c.1818.203.5454.61.3636.914l-.0909.203h.0909c0 .813.6362 1.727.6362 2.437l.0909-.203c.9089.711-.4544 1.93.2727 2.844l.2726-.61c.818.61.818 1.524.6363 2.438l.3635.406c.5453.609 0 2.031.9998 1.624l.2727.407c-.4545-1.219-.0909-2.234-.0909-3.554.3635-.305.3635.203.4544.203.5453-.508-.1818-.813-.2727-1.219.2727-.203.2727-.508 0-.711.0909-.304.4545-.203.6363-.304.0909.507.818 1.117.2726 1.523-.0909.406.3636.304.5454.508l.0909 1.117.4544-.813c.5453.203-.1818.711.4544.813.6363-.61-.6362-1.828-.2726-2.844.0909 0 .0909 0 0 0s-.4545 0-.3636-.304c.7271 0 .1818-1.016.4545-1.524.1817-.203-.4545-1.015.3635-1.117l.3636.914c.7271.305.5453 1.422.9997 2.133-.2726-1.32-.6362-2.945-1.0906-4.062l-.3636.406c-.1818-.406-.6362-.812-.2726-1.218.2726 0 .1817.304.2726.507 0-.203.1818-1.015.6362-1.32-.1817-.101-.2726-.406-.5453-.508.4545-.304-.0909-.71.1818-1.015.818.203.4544 1.117.6362 1.726.0909-.101.1818 0 .2727.102.1818.609-.2727.711-.1818 1.32l-.4544-.305c.2726.914.6362 1.32.7271 2.133.1817 0 .2726-.203.3635-.406.6362.71-.5453 1.726.4545 2.335.1817-.508-.7271-.812-.0909-1.117l.3635.203-.0909.203c.6363-.203.1818.813.2727 1.219-.2727.203.9998-.609.818.508.1818 0 .1818-.102.2727-.203l.3635.913c0-.406.5454-.812.0909-1.117l-.1818.305c-.0908 0-.0909 0-.1817-.101-.1818-.204-.2727-.508-.0909-.711l.0909-.203.3635.406c.0909-1.016-.9998-1.828-.7271-2.844.1818-.609-.818-.609-.3635-1.218-.4545-.508-.5454-1.219-.3636-2.031l.1818-.609-.1818.304-.3636-.203c-.0908-2.843-1.8177-4.163-1.2724-6.905l.4544-.812-.1817-.102-.818.609c-.5454-.71-.2727-1.421-.6363-2.335-.1817 0-.1817.101-.2726.203-.2727-.102-.1818-.508-.2727-.812l.1818-.305c.2727.101.1818.406.2727.711v-.711l.3635.406c0 .102-.0909.203 0 .305l.1818-.102.0909.102v-.203l.2726-.203c0 .101.0909.203.0909.304l.1818-.508c.0909.102.0909.204.0909.407 0 0 0-.102.0909-.102.1818.406.1818.813.2727 1.219l-.2727.101c.818.305.3635 1.625.818 2.031-.0909.102 0 .203.1818.305 0 .304.0909.508-.2727.609 0-.305-.2727-.812-.6362-1.015.4544 1.015-.9089 1.523.6362 2.335l-.2727.914c-.1817.508.1818-.406.4545 0l-.1818.305c.3636.406.7271 1.421.5453 2.132l.2727-.101c.2727 1.726.818 3.351 1.3633 4.772v.61l.1818-.102.0909.305c-.0909.203-.0909.406 0 .609-.0909 0-.0909.102-.0909.203l.0909.406c.2727-.203.1818-.304.0909-.406.0909.102.1818.203.2726.305.1818 0 .1818-.102.2727-.305v.406l.0909.102c0 .305-.1818.508-.4544.406.1817.102.4544.508.2726.609l.5454.508s0-.101.0908-.101v.101c.0909 0 .2727-.609.5454-.305v.102l.3635-.406.7271 1.828c-.0908-.711-.1817-1.422-.3635-2.234 0 0 .0909-.102.0909-.203l-.0909-.102c0-.203-.0909-.508-.0909-.711h.0909l-.0909-.406h-.0909c-.0909-.406-.1818-.812-.2727-1.32.0909-.102.1818-.203.3636-.305l-.4544-.101v-.102c.4544-.203-.4545-1.117.3635-1.117-.2727.102-.4544-.203-.6362-.305l.3635-.406.5454.711c-.4545-.305.1818-.812-.4545-.914l.2727-.609c-1.2724 0 .3636-1.117-.7271-1.422l.3635-.507c.0909.101.4545.304.2727.507l.2727-.101c0-.203-.0909-.305.0909-.406.5453.304.1817.71.5453 1.218.6362.914-.1818 1.929.9998 2.64 0 .711-.0909 1.219.4544 1.727.3636-1.016-.7271-2.133-.3635-2.641v.102h.1817v-.203c.0909 0 .0909-.102.1818-.102-.0909-.101-.1818-.203-.2726-.406v-.203c0-.203 0-.305.1817-.508.4545 0 .4545.813.5454.61.1817-.305-.0909-.711-.0909-1.117-.1818.101-.2727-.102-.4545-.204.0909.102 0 .204-.0909.305-.4544-.203-.5453-.609-.7271-1.015l.3636-.508c.2727.305.3635.812.7271 1.015l.6362-.304c-.1818-.508-.2726-.914-.818-1.117.0909-.203.1818-.203.3636-.203.0909-.813-.1818-1.625-.1818-2.438l.3636.204-.0909.203-.0909.101.1818-1.218c.1817.406.4544.71.5453 1.218 0-.609-.5453-1.523-.2727-2.132.6362.507.3636 1.624.9089 2.234l.1818-.813c.0909.711 0 1.524.818 1.625-.0909.203-.2727.203-.3636.203l.0909.508-.1818-.102.1818.407.0909-.204c.9089-.304-.1818.914.6362.813-.0909.203-.2726.203-.3635.203l.1817.609s-.0908-.101 0-.101c-.0908.304-.1817.609.1818.812v-.101l.0909.304v-.406c.1818-.203.3636-.406.1818-.812l-.1818.304v-.609c.2727 0 .4545.102.818.305-.0909.203-.2727.203-.3635.203.0908.101.1817.101.2726.203v.203l.0909-.102c.1818.407.2727.813.4545 1.219l-.2727.305c-.1818-.102-.1818-.204-.1818-.407l-.3635.407c.2726 0 .1817.406.1817.609l.0909-.203c.1818.101.1818.203.1818.406-.1818.203-.5453 0-.3636.508.1818 0 .4545-.203.5454 0 0-.102-.0909-.305-.3636-.203.5454-.305-.0909-1.016.5454-1.219.2726.711 1.0906.203.9088 1.219.5454-.102.1818.71.5454.812.4544.203-.2727 1.218.4544 1.32l.0909-.609c.0909.203.4544.304.3636.711 1.5451-2.031-1.3634-2.945-.3636-4.672.0909.305.1818.61.3636.914 0 .305 0 .508.2726.711.2727-.711.0909-1.828.1818-2.742l.1818.508-.0909-.609h.0909c.1818 1.32.7271 1.015.6362 2.437l.3636.203c-.2727.406-.4545.102-.7272.102l.0909 1.726c.2727-.406 0-.711-.1817-1.219.818-.71.7271.813 1.4542.813.0909-.711-1.0907-1.016-.3636-1.727l.3636.508c.1818 0-.3636-.406-.2727-.812l-.1818-.102-.2726.305c-.2727 0-.1818-.406-.1818-.508.7271-.203-.3636-.508.1818-.914l.1817.102c.3636-.102-.2726-.813.3636-.813v-.304c-.1818 0-.2727.304-.3636.406-.3635-.508-.6362-1.32-.4544-2.031-.9998-.508.6362-.914-.0909-1.523.3636 0 .9089-.711 1.2725-1.32l.3635.203c.0909-.102-.1818-.609-.5453-.711.1818-.102.3635-.305.4544-.508l-.7271.508c-.0909-.508 0-1.015.0909-1.422.0909-.101.1818-.101.2727-.101h.1817c.2727.406-.2726 1.015.4545 1.117l-.1818-1.219c-.2727.203-.4544-.101-.6362-.203l.1818-.609h.0909c.0908.203-.1818-.508.0908-.609l.4545.304v-.203h-.0909c0 .102.0909.203.1818.203v.305c.6362.305.2726.914.7271 1.422-.0909.101-.1818.406-.3636.406.2727 0 .6363.304.5454.711l-.0909.101h-.1818.0909l.0909.102c.2726 0 .7271.101.5453.609.2727.101.1818.508.2727.812l-.1818.305c.0909.203.3636 2.335.818 3.554.3636.508.3636 1.32.5453 2.031.4545-1.015-.3635-1.625 0-2.742-.1817-.609-.4544-1.218-.5453-1.929l.3635-.406c-.9088.101-.2726-.914-.5453-1.32h.1818l-.1818-1.828h-.1818c-.1817-.813-.4544-1.625-.3635-2.641-.2727-.507-.5453-1.624-.4545-2.335-.0908-.102-.1817-.102-.1817-.305.1817-.203.4544-.507.3635-.914-.0909-.101-.0909-.101-.0909-.203l.2727-.507c.7271.913.3636 2.03.7271 3.046.4544-.102-.0909-1.117.5453-.711.0909.305.0909.508-.1817.711.1817.101.1817.203.1817.406l-.2726.609c-.0909-.101-.1818-.203-.2727-.101-.1818.203 0 .508 0 .711-.0909-.813.6362-.203.9089-.508-.0909.914.9089 1.117.0909 1.726.4544.813-.9089 1.016-.0909 1.727l.2727-1.524.5453.711c0-1.015-.1818-2.132-.3636-3.249.5454.914.2727 2.538.6363 3.554h-.1818c.0909.101.0909.203.1818.304l-.0909.407h.1817l-.0908-.305c.0908.203.0908.305 0 .508l-.0909.101h.0909c0 .711.4544 1.625.4544 2.336l.0909-.102c.6362.711-.3636 1.727.1818 2.641l.1817-.61c.5454.61.6363 1.523.4545 2.336h-.1818c.4545.609 0 1.828.7271 1.625l.1818.406c-.3636-1.219 0-2.031-.0909-3.351.2727-.203.2727.203.3636.203.3635-.406-.0909-.813-.1818-1.117.1818-.203.1818-.508 0-.711h.0909c.3635 1.117.4544 1.726.6362 2.64-.1818-.406 0-.711.0909-1.015h.0909l.0909.507v.61l.0908-.203.0909.507c0-.203 0-.507-.0909-.71l.1818-.407c.3636.203-.1817.61.2727.711.2727-.304.0909-.812-.0909-1.421l1.3633 1.421-.1817-1.015c-.0909.101-.1818.406-.3636.406-.7271-.508-.9089-1.523-.818-2.437l-.2727.406c-.0908 0-.1817-.102-.0909-.305.3636 0 .2727-.406.2727-.812.3636.305.3636.812.6362 1.218l.1818-.507c.0909 0 .1818 0 .1818.101 0 .102.0909.203.0909.305-.0909.203-.2727.508-.2727.711 0-.102.818-.203.4545-1.016l-.1818-.101c-.0909-.406-.0909-.813-.1818-1.219.0909-.203.0909-.406.1818-.508v.305c.1818 0 .1818-.203.2727-.305.4544.711-.3636 1.625.3635 2.234.0909-.507-.5453-.812-.0909-1.015l.2727.203h.0909c.4544-.203.0909.812.1817 1.117-.1817.203.7272-.508.6363.508.0909 0 .0909-.102.1818-.203l.2726.812c0-.304.3636-.711 0-1.117l-.1818.305c-.0909 0-.0908-.102-.0908-.102-.1818-.203-.1818-.508-.0909-.609l.0909-.203.1817.609c.0909-1.015-.7271-1.726-.5453-2.742.0909-.507-.5453-.609-.2727-1.117-.2726-.406-.3635-.914-.3635-1.523.0909 0 .1817-.101.1817-.203.0909-.203.0001-.406-.0908-.406l.0908-.406-.0908.304-.2727-.203c0-1.015-.1818-1.828-.4544-2.538 0-.305.0908-.711.1817-1.117h.1818l-.0909.507c-.0909.508.1818-.304.2727.102l-.1818.304c.2727.407.4544 1.321.4544 2.031h.1818c.2727 1.93.7271 3.656 1.1816 5.179-.1818.305.0909.813.2726 1.016.1818 0 .1818-.203.2727-.305.0909.203.1818 1.117-.2727.812.0909.102.2727.508.1818.61l.3636.406c.0909-.203.0909-.406.1818-.609h-.0909c-.4545-1.219-.1818-2.133-.7271-3.047v-.914h.1817c-.0909-.203.0909-.304.1818-.406.1818.508.9089.508.7271 1.219l.0909.914c0 .304.1818-.508.4545-.61l-.3636-.101c.4544-.102-.2727-1.016.3636-1.016-.1818 0-.2727-.203-.4545-.304l.2727-.305.2726.406c-.2726-.304.1818-.711-.3635-.812l.1818-.609c-.9089-.102.2726-1.016-.5454-1.32l.2727-.407c.0909.102.3636.305.1818.508h.1818c0-.101-.0909-.305 0-.406.4544.305.1817.609.3635 1.117.4545.812-.0909 1.828.7271 2.539 0 .71-.0909 1.117.3636 1.624.2726-1.117-.818-2.335 0-2.64-.1818-.203-.4545-.711-.1818-1.015.3636 0 .3636.812.3636.609.1817-.305 0-.711-.0909-1.016-.1818.102-.1818-.101-.3636-.203.0909.102 0 .203-.0909.305-.2726-.203-.3635-.609-.5453-.914l.2727-.406c.1817.305.2726.711.5453.914l.4544-.203c-.0909-.406-.1817-.914-.5453-1.117 0-.203.1818-.203.2727-.203.0909-.61-.0909-1.422-.0909-2.031 0 0 0-.102.0909-.102l.2726-.305-.0909.102.0909.102.1818-1.117c.1818.304.3636.71.3636 1.117 0-.508-.4545-1.422-.1818-1.93.4544.508.2727 1.523.6362 2.133l.1818-1.117c-.0909.507.7271.406.1818.71-.0909.407.3635.204.3635.61l-.1818.406h.1818v-.305c.1818-.101.6362-.101.6362.406l.0909.407c0-.914.2727-1.828.3636-2.742.2726.711.2726 1.32.3635 1.929-.0909.305-.2726 0-.4544 0v-.101h-.0909l.0909.406c.0909 0 .1818-.102.1818-.203.4544.304-.1818.609 0 1.117-.3636.406-.1818 1.218-.5454 1.726v.406l.3636-.609c.2727.406.2727 1.016.5453 1.523.2727-1.117-.9089-1.828-.2726-2.843l.0908-.102c.1818-.101 0-.71.4545-.609l.2727.203c.6362 1.117.3635 2.336.9088 3.453-.3635-.914-.1817-1.726-.2726-2.64.2726.101.2726.507.4544 0l.2727 1.117-.4545-3.859c.2727-.102.4545-.406.7272-.508-.1818-.305-.3636.203-.5454.305h-.0909c-.6362-1.219.0909-3.25-.818-4.671 0-.204.2727-.102.3636-.204.5453.305 0 .914.4544 1.422l.1818.508c-.0909-.102 0-.203.0909-.305.4544.406.1818 1.117.2727 1.727l-.1818.304c.1818 0 .0909.305.1818.508-.1818-.812.6362-1.523.0909-2.437-.0909-.508-.1818-1.422 0-2.031.7271 1.015 1.1815 2.945.7271 4.265 0 .101-.0909.203-.1818.203.1818 0 .818-.203.9998-.711l-.5454.406c-.1817-1.218.5454-2.234-.0909-3.351l.0909-.711c.818.102-.0909 1.219.7271 1.422l.0909.406c.4545.305.1818.813.5454 1.32-.0909.102-.0909.305-.2727.305.1818 0 .4544.305.4544.711h-.6362.0909l.0909.101c.1818.102.4544.203.3635.61.1818.101.1818.507.1818.71l-.1818.305c.0909.203.2727 2.133.6363 3.351.2726.508.2726 1.32.3635 1.93.3636-.914-.2726-1.524 0-2.539-.0909-.609-.2726-1.117-.3635-1.828l.2726-.305c-.6362.102-.1817-.914-.3635-1.218h.0909l-.0909-1.726h-.0909c-.0909-.813-.2727-1.524-.2727-2.438-.1818-.507-.3635-1.523-.3635-2.234-.1818-.101-.1818-.507-.1818-.71l.4544-.914c.5454.914.2727 1.827.5454 2.843.2726 0-.0909-1.016.4544-.609.0909.203.0909.507-.0909.71.1818.102.0909.204.1818.407l-.2727.406c-.0908-.102-.0909-.203-.1817-.102-.1818.203 0 .407 0 .711 0-.711.4544-.203.6362-.406-.0909.812.6362 1.015 0 1.625.2726.711-.6362.914-.0909 1.624l.1818-1.421.4544.711c0-1.625-.2727-3.453-.5453-5.281.0909.203.1818.406.2726.508.4545.812 1.1816 1.32 2.1814 1.523zM19.4502 149.68l-.3636-.203.1818-.203c.818.203 0 1.015.5453 1.32l.2727-.102c.0909-.203-.4544-.914.0909-1.015 0-.305-.2727-.508-.5453-.508.0909-.609-.3636-1.726.5453-1.625.7271-1.117-.0909-2.234-.3636-3.351l.5454-.304c1.636.304.5453 2.538 1.5451 3.554-.7271.508 0 1.32 0 2.031h.1818l-.3636.406.3636.203c.0908.305.4544.406.7271.609-.5454.203-.7271-.507-1.1816-.711l-.4544.711-.6362-.507c-.1818.406-.4545.507-.5454 1.015l-.4544-.203c-.1818-.203-.5454-.914-.0909-1.117z" fill="#F1F1F1"/></svg>