<svg width="94" height="36" fill="none" xmlns="http://www.w3.org/2000/svg"><path d="M7.58574 6.42093l.63215-.08983-.31607.17966-.31608-.08983zm1.39072-.62881l.31607-.17966c-.12642-.13474-.37928-.13474-.37928-.35932.94822-.22457 2.27575-.13474 2.97105.04492-.0632.04491-.1264.04491-.1264.13474.2529.26949.7586.04492 1.1379.08983l-.3793.13475c.1896.35931.8218-.13475.885.26949-.1897.17965-.7586-.26949-.9482.13474.1896 0 .5057.17966.7585.17966-.316.26949-.5689-.13475-.8218-.04492-.316-.40423-.8217.26949-1.0114-.22457-.6321.13474-1.45392.80847-2.08607.3144-.18964.17966-.44249.04492-.63214.04492.06322-.17966.69536-.26949.31607-.53898zm7.14324-.04491c.2529-.04492.5057-.08983.7586-.04492-.2529.04492-.3161.22458-.569.17966l-.1896-.13474c-.1896.04491-.1896.22457-.2529.35931.569.26949 1.2643-.04491 1.77.08983-.1896.26949-.316-.08983-.6321.04492-.4425.08983-.885.08983-1.3907.04491l.2528-.17966-.316-.26948c.1896-.04492.3793-.04492.5689-.08983zm3.0975.22457h.3793c-.5057.13474-1.2011.17966-1.77.22457.2529-.3144.9482-.04491 1.3907-.22457zm56.2609 8.98292l-.316-.0449.1896-.0898.1264.1347zm2.4022.2695c-.1896.1797-.4425-.1347-.6954-.1797-.0632-.2694.3793.2246.6954.1797zm-.4425-.3593c.0632.0449.1264 0 .1896-.0449.0633-.0899 0-.1797-.1264-.1797-.2529 0-.2529-.0898-.3161-.2695.5058-.1796.5058.5839.9483.2246-.0633-.0898-.1265-.0898-.2529-.0898.3793.0898 1.0114-.2695 1.3907.2245-.3161-.1347-.8218-.2694-1.1378-.0898-.0633.0449 0 .0898.0632.1348l.2528.0449c-.4425-.0449-.6953.0449-.9482.1347l-.0632-.0898zM18.9644 5.74721l.5689-.04492-.4425.04492h-.1264zm57.3355 8.71349l-.316-.045v-.0898c.316-.1347.5057.2246.8217.2246h-.4425c.0633-.0449 0-.0898-.0632-.1348v.045zM16.1197 4.84891c.3161-.13474.8218-.13474 1.0747-.04491-.3161.08983-.6322-.08983-.8218.08983l-.2529-.04492zm2.9711.13475l.2528.04491c-.1264.22457-.1264.17966-.5057.13475.0632-.13475.4425.08982.2529-.17966zm-.1897-.26949c-.2528.04491-.5689.04491-.8217.08983.1264-.13475.6321-.13475.8217-.08983zm1.7701.44915c-.3161-.13475-.5058.04491-.7586.17965-.0632-.08983-.1265-.13474-.2529-.17965l1.2643-.17966c-.0632.08983-.1896.08983-.2528.17966zm-1.5804-.49407l.7586-.08983c0 .22458-.3161.13475-.5058.13475l-.2528-.04492zm1.7068 0c-.1897.04492-.4425.04492-.6322.08983l.0633-.13474.5689.04491zm1.77.35932c.5689-.17966 1.0114-.08983 1.8332-.08983-1.1379.22458-2.0861 0-3.2872.13475.0633-.22458.3161 0 .5058-.13475.2528.31441.6321-.26949.9482.08983zm-1.0747-.40423l.4425-.22457-.0632-.04492c-.0632 0-.0632-.04491-.1264-.04491h.0632v.04491c.0632.04492.1897.08983.0632.22457l-.3793.13475v-.08983zm1.8965-.26949c.0632.26949.4425.08983.6953.08983.1265.3144.3161-.13474.5057 0-.2528.22457-.7585.04491-1.1378.08983l-.0632-.17966zm-.885 0l-.1265-.17966c.0633.04492.0633.08983.1265.08983.2528-.35932 0 .13475.316.04492-.0632.17965-.1896.04491-.316.04491zm2.5286-.08983c-.0633.04492-.1265.04492-.1265.13475.3161.26948.7586 0 1.0115-.04492l-.0633-.08983c-.1264-.13474.3161 0 .4425 0-.0632.04492-.1264.04492-.1264.13475.0632.04491.0632.08983.1264.08983.0633-.04492.2529-.08983.2529-.17966l-.0632-.08983.2528.04491-.1896.08983c.3161.35932 1.1379-.13474 1.4539.22457-.8218.31441-1.77-.26948-2.5918-.04491-.0632.13474-.3793 0-.5057 0l-.1896-.22457c.0632-.17966.1896-.08983.3161-.04492zm3.4768.13475l.316.26948c-.1264.13475-.2528-.04491-.316-.13474v-.13474zm-.3793.85337c-.2529 0-.569-.13474-.8218-.04491.3793-.08983.6321-.26949.8218.04491zm1.0114.22458l-.5057-.08983.0632-.13475.4425.22458zm48.8016 7.90498l-.6321-.0898v-.0449l.6321.0898v.0449zm.3793 0l.3161.0449v.0449l-.3161-.0449v-.0449zm2.2125.4042l.3161.045v.0449l-.3161-.0449v-.045zM26.4869 5.34297c0 .08983-.0632.08983-.1264.13475l-.1897-.04492.0632-.13474.2529.04491zm52.5945 8.57873l-.3161-.1797.6321.0899-.316.0898zm2.8446.0898c.4425-.0449.1897.3144.3161.4941-.1896.1796-.5057.1796-.5689.0449.0632-.0898-.0632-.1348-.1265-.2246-.1264.1348-.316.1348-.4425 0l-.1896-.2246c.1896-.3593.5689.045.7586-.2245 0 .0449.1264.1347.2528.1347zM23.579 5.88195l-.3161-.04491.6322.04491h-.3161zm1.3275 0c-.1896 0-.316.08983-.5689.04492.1264-.08983.3793-.08983.5689-.04492zm55.8817 8.98295l-.3161-.0449c-.1264-.0899.1896-.0449.3161.0449zm1.201.2695l.0633.0898c-.1265.0898-.4425-.2695-.6954-.0449l.1896.2246-.7585-.1348c.3793-.1796.8218-.2695 1.201-.1347zM14.0336 6.01669c.1265.04492.5057-.22457.6322-.04491-.3161 0-.3793.3144-.6322.04491zm-1.8332.49407h-.4425c.1896-.17966.1896 0 .4425 0zm20.3551-.67372l.3161-.17966.316.3144-.6321-.13474zm42.0376 5.25506c.1897-.1348.6954.1796.9483-.045-.1897.3144-.6322 0-.9483.045zm-.885-.4941v-.0898l.3161.0449v.0898l-.3161-.0449zm-1.77-.3593c.4425-.0449 1.0115.0898 1.6436.1796-.5689.2695-1.0114-.1796-1.6436-.1796zm4.2986.6288l-1.4539-.1797c.6321.0899.9482-.1347 1.4539.1797zm5.879.6288c-.0632-.0449-.0632-.1348 0-.2246l.1896.0898c-.2528.045.1264.2246-.1896.1348zm-5.3733-.8534l.0632-.1347c.1265.2245.4425 0 .6322.0449-.1897.1347-.4425.1796-.6954.0898zm-.1264-.1796l-.3793.0898c.0632-.1348.2529-.0898.3793-.0898zm3.8561.494c-.1264-.1347.1264-.3144-.1264-.4491l.316-.0899c.3793.0899 1.0747.1797 1.3908.4492-.3161.0898-.7586.1347-1.1379.1796.0632-.0449 0-.0898-.0632-.1347-.1265 0-.2529.0898-.3793.0449zm-1.8964-.4491l.1264-.0449-.5057-.1348c.316.0898.6321.0449.7585-.1797l-.0632.1348.6954.1797c-.2529.0898-.6322.1347-1.0114.0449zm-4.0458-.89833l.1897-.08983-.0632-.08983c-.0633-.04491.4425-.17966.6321.04492-.0632.04491-.1264.04491-.1264.13474l.3793.13474c-.1897.13475-.5058.26949-.7586.22458.1896-.26949-.1897-.26949-.2529-.35932zm-.1264-.44915l.3161.04492c-.1265.08983-.2529.08983-.3793.08983l.0632-.13475zm2.2757.26949c.1264.3144.6322-.17966.7586.26949.1264-.04491.3161.13474.5057.22457h.2529c-.0632.04492-.1897.04492-.2529 0l-.3793.04492v.04491c-.4425.3144-1.0114 0-1.5171-.04491.1264-.04492 0-.22457.1896-.3144-.0632-.17966-.5689 0-.4425-.26949l.885.04491zm5.0572.85339v.0898l-.3161-.0449v-.0449h.3161zm2.0861.4941v.0449l-.3161-.0449v-.045l.3161.045zm4.4882.0449c.0632-.2246-.1897 0-.1897-.1797.1265.0449.4426 0 .3793.2246l-.1896-.0449zm-2.9711-1.39239l.0632.08983c-.0632.17966-.316.17966-.5057.13475l.4425-.22458zm-6.6375-.89829V8.487l.6953.08983v.08983l-.6953-.13474zm-2.0861-.31441c0-.17965.3793-.13474.5689-.17965l.0632.08983c-.1264.04491-.316.22457-.6321.08982zm3.54.22458l-.0632.13474c-.1264-.3144-.4425.17966-.6321-.08983l.6953-.04491zm-1.5803-.35932c.1264-.17966.2528.08983.4425.13474-.1897-.04491-.3793.00001-.4425-.13474zm-2.7815-.40423l-.1264-.17966c.0632-.04491 0-.08983-.0632-.13474-.5057.08983-1.2643-.22458-1.8965-.31441-.0632-.08983-.1264-.22457-.316-.17966.2528-.22457.8218.08983 1.201-.04491l-.0632.13474c.7586-.08983 1.2011.53898 1.8332.58389-.0632.04492-.316.26949-.5689.13475zm2.4654-.49406c-.0632.04491-.1264.04491-.1264.13474.316.13474-.1265.13475.1264.3144l.9482.13475c-.3793.17966-.885-.22458-1.3275 0-.1896.04491-.5689-.17966-.8218-.26949-.1264-.04491.5057-.08983.3161-.22457.3161.22457.3793 0 .6321.3144.1265-.13474.1897-.62881.2529-.40423zm1.2643.98812l-.1897-.17966.2529.04492-.0632.13474zm1.3907-.13474c-.2529-.08983-.4425-.04492-.6322.08983.0633-.08983-.0632-.13475-.0632-.17966h-.1896c-.0632.08983.0632.17966.0632.26948l-.2529-.04491c-.1264-.13474 0-.17966.1897-.22457 0 0 .0632-.04492.1264-.04492v.04492c.2529 0 .5689 0 .7586.08983zm.1264.22457c0 .08983-.1896.08983-.3161.08983l.0633-.13475.2528.04492zm4.4883.85338c-.3161-.08983-.6322-.08983-.8851-.08983 0 .04491-.0632.04491-.0632.08983 0-.04492 0-.08983-.1264-.08983l.3161-.08983.7586.17966zm2.7182.35932c-.0632.17966-.5057-.13475-.569.13474l-.1896-.04491.1896-.08983-.0632-.08983.6322.08983zm-2.4022-.08983c.0632-.04492.1265-.04492.1265-.13475-.0633-.04491-.1265-.04491-.2529-.08983l.5057.13475-.3793.08983zm-.885-.04492c-.0632 0-.0632 0-.1264.04492 0 0 0-.04492-.0632-.04492h-.1897c-.0632-.04491 0-.13474.0632-.17966 0 .08983.1265.13475.1897.17966h.1264c.1897-.04491.3793-.04491.6322 0h-.6322zM70.8635 6.91499c-.1264 0-.2529 0-.0632-.04492l.0632.04492c.1264 0 .3161.04491.3161.13474-.1265.04492-.2529 0-.3161-.13474zm16.499 5.65921l-.3793.1348c.1264-.0449.1264-.0898.1264-.1797l.2529.0449zm-1.5172 13.0702v-.0898l-.3793-.0449v.0898l.3793.0449zM3.85608 7.09465c-.06322.3144.50571.35931.63214.35931-.31607-.08982-.31607-.44914-.63214-.35931zM1.77 17.4699c.06322.045.06321.1797.18964.1797l.06322-.1347-.25286-.045zm.31608 1.1229l-.06322.2246.12643-.1797-.06321-.0449zM12.0108 5.79212l.316.04492.1265-.04492h-.4425zm10.9993-2.7398l.3161.04492v-.04492h-.3161zm8.4075 1.12287h.2529c0-.22457.4425 0 .3793-.08983-.2529-.22457-.2529.17966-.6322.08983zm1.8332-.94321c-.1896-.08983-.7585.04492-.4425 0 .0633.17966.3161.04492.4425 0zm-.0632.8983c-.1896.04491-.3793.04491-.4425-.04492 0 .13475.1897.08983.3161.13475 0-.04492.0632-.08983.1264-.08983zm.1265-.04492c.2528 0 .4425.13475.7585-.04491-.1264-.08983-.4425 0-.7585.04491zm.9482 0l.1264.22458.1264-.04492-.2528-.17966zm.2528.67372l.2529.04492c.0632-.08983-.1897-.17966-.0632-.3144l-.1897.26948zm-1.0114-1.12286c.2529 0 .885-.04492.6954.3144.7585.08983-.2529-.40423.1264-.53898.1264.44915.7586 0 .7586.53898.2528-.13475.3792-.40423.7585-.44915-.885-.04491-1.2643-.22457-1.9596-.35932l.0632.31441c-.1264.26948-.5057-.08983-.5689.17966h.1264zm2.5918-.04492c.1896 0 .5057.22457.6954.04492 0 .13474.1896.08983.316.13474l-.0632.62881.3793-.22458-.1896-.04491c.0632-.08983.1264-.40424.3792-.49406.1265.13474.3793.04491.5058.22457 0 .08983-.0633.08983-.1265.13474.2529.31441.8218-.08983.885.26949l.1897-.08983c.1896 0 .2528.08983.316.17966 1.0115-.17966 1.0115 1.07795 1.9597.58389l-.2529.04492c-.3792-.44915-1.3275-.44915-1.4539-.98813-.1264-.04491-.3161 0-.3161-.13474l.6954-.04492c-.1264-.04491-.3161 0-.3161-.13474l.4425-.08983-1.4539-.17966c-.1897-.04491-.4425-.35931-.6322-.04491-.316-.04492-.5689-.22458-.7585-.40424-.1897.49407-.8218.22458-1.2643.31441l.0632.3144zm7.7122 2.87454c.0632-.13474.0632-.22457-.0633-.3144l-.0632.22457c0 .04492.0632.08983.1265.08983zm.2528-1.79659l.2529.04492.1896-.04492h-.4425zm-2.7182-.98812c-.3161.08983-1.0746-.22457-1.0746.17966l.1264-.04492-.0632-.08983c.0632-.13474.2528 0 .3793 0 .3792.31441 1.201.31441 1.77.13475.1896.71863.7585.53898 1.3907.76355l.0632-.13474c-.0632-.04492-.0632-.08983-.1264-.08983-.1897.13474-.6954-.13475-1.0115-.22458.0632-.26949.5057.04492.569-.13474-.0633 0-.1265-.04492-.1265-.08983l.1897-.08983c.5689-.08983 1.0114.22457 1.3907.08983l-1.2643-.26949.0632-.17966-.3793.3144c-.5057-.40423-.6321-.08982-1.201-.40423l.1264.22458c-.1897.26948-.5689 0-.8218.04491zm3.4136 1.93133l.3161-.17966-.3161-.04491c.0632.08983.0632.13474 0 .22457zm3.0343-1.70676l.3793.04492v-.08983l-.3793.04491zm-1.77.08983c-.1897.26949-.6954.49407-.885.49407l.0632.08982c-.1897.17966-.3793 0-.5689.13475.3792.04491.6953.13474 1.0746.08983.1896-.26949.6954-.22458 1.0114-.17966h-.0632c-.0632-.13475-.5057-.08983-.3793-.35932.3793 0 .7586-.08983 1.1379.04492.3793.3144.6321.04491 1.0746.08983-.5057-.17966-1.1378-.26949-1.5803-.53898 0-.08983.1264-.13474.2528-.17966.0632 0 .1265.04492.1265.08983l.1264-.40423c-.1264.26949-.5057.13474-.7586.22457-.1896.44915-.885.13475-1.3275.22457.3161.08983.5689-.08982.6954.17966zm2.4653.49407v.08982l.2529.04492c.0632.08983.1264.17966.2529.04491l-.2529-.04491c-.0632-.08983-.1264-.17966-.2529-.13474zm1.3908-.26949c.0632 0 .0632 0 .1264.04491 0 0-.0632-.04491-.1264-.04491-.1897-.04492-.3793 0-.4425-.22458.0632-.26948.5057.04492.5689-.13474-.1897-.04492-.4425 0-.5689-.17966l-.0633.13474c-.1264.04492-.2528.17966-.3792.13475.6953-.04492-.1265.67372.2528.94321.1897.04491.5057 0 .5689-.17966l-.0632-.08983h.4425c-.316 0-.5057-.04492-.7585-.17966 0-.22457.316-.22457.4425-.22457zm.9482.71863c.0632.22458-.1264.53898-.5057.53898l.1264.04491c.4425-.49406.6321.31441 1.1379.04492-.1897-.08983-.6322 0-.7586-.26949.0632-.17966.3793-.22457.3793-.44915-.1265-.04491-.1897.04492-.3161.08983-.3161-.04491-.0632-.22457-.1897-.3144.0633-.76355 1.0747.40423 1.2643-.22457l-.8218-.22458c.0633-.04491.1265-.08983.1897-.04491l-.5057-.71864c0 .13475.2528.35932-.1265.40423l-.1264-.17965c-.0632.49406-.3793 1.03303.2529 1.30252zm1.8332-.85338l.3161.04492c0-.08983-.2529-.22458-.3161-.04492zm1.3275.94321h-.5057c.1264.17966.4425 0 .5057 0zm.5689-.26949c-.4425-.53897-1.77 0-2.0228-.40423 0 .08983-.0632.08983-.1265.13475.1897.22457.885.08982 1.3275.13474.1897.44915.3793 0 .8218.13474zm.6322.31441l-.1264.13474.2528-.04491-.1264-.08983zm-.1264 1.88641l-.1265-.17966c-.0632.04492-.2528.08983-.2528.17966.1896 0 .3793.13475.3793 0zm.885-1.57201c-.0633 0-.1265-.04492-.1265-.08983l.4425-.26949-.1896.04492c-.3161-.31441-.7586-.31441-1.0747-.35932.1265.04491.3793 0 .3793.13474l-.1264.04492.1896.13474.0633-.17966c.1264 0 .1896 0 .2528.08983-.0632.04492-.1264.04492-.1264.13475.0632.17965.1264.3144-.1264.35931.2528-.04491.1896.17966.3792.22458l.0633-.26949zm1.3275-.22457c.1896 0 .4425.04491.5057-.17966-.3793-.22458-.4425 0-.5057.17966h-.1265c.0632.04491.0632.04491.0632.08982-.0632.13475-.1264.22458-.316.17966l.316.26949c.1265-.04491.4425-.13474.3161-.08983-.1896-.08983-.1264-.17966-.2528-.3144v-.13474zm.5689.04491c.0632-.08983.1896-.04491.2528-.04491l-.0632-.08983-.1896.13474zm.6321.3144l-.3793.13475.1897.04491c0-.08983.1896-.08983.1896-.17966zm1.5804 1.97625l-.5689-.17966.1264.17966c.1264.04491.3161.13474.4425 0zm.6321-.3144v.04491l.3793.08983v-.08983l-.3793-.04491zm1.1379-1.48219l-2.1493-.13474c-.1896.3144-.4425-.17966-.6321.04491-.1897.22458-.2529-.22457-.3793.08983.316-.08983.3793.3144.6321.04492l.0632.08983.1897-.08983c.5689-.04492.8218.35931 1.1378.04491.2529.35932.1897.13475.569.17966-.0632 0-.1265-.04491-.1265-.08983.2529-.22457.6322.04492.6954-.17966zm-.6954-.49406c.3161.26949.569-.04491.8218.04491l-.0632-.13474c-.4425.04492-.885-.40423-1.3907-.13474-.0632-.13475-.5057-.08983-.3793-.35932l-.1896-.04492c-.1265.53898.885.26949 1.201.62881zm.8851.76355l.2528.04491v-.08982l-.2528.04491zm-.569 1.34744c.1264.17966.5057 0 .569.3144.1264-.26948-.3161-.40423-.569-.3144zm1.9597-1.5271l-.569-.17966.0633.08983.5057.08983zm-1.0747-.71863c.1897.53897 1.2011.40423 1.6436.49406-.0632-.26949-.5057.13474-.3793-.22458-.3793.26949-.885-.13474-1.0746-.08983 0-.08982 0-.17965-.1897-.17965zm1.2643 1.07795v.04491l.5057.08983v-.08983l-.5057-.04491zm.6954 1.8415c-.2529-.04491-.0632-.22457-.3793-.22457-.1264.04491-.1264.08983-.1264.17966.1264-.04492.3792.26949.5057.04491zm0-2.56014l.2528.04492c.1265.04491.3793.04491.3161.17966.4425.08983.9482.08983 1.2011.40423.0632-.26949.5057-.08983.5689-.17966l-1.1379-.3144.0633.08983-.1265.04491c-.3793-.04491-.6953-.22457-.8218-.49406.1265.22457-.2528.13474-.316.22457zm2.4653 1.5271l-.316-.13474.0632.08983.2528.04491zm.2529-.53897c-.2529.35931-.5057-.26949-.8218.08983.1897-.04492.7586.3144.8218-.08983zm.1264-.49406l.1897-.04492h-.4425l.2528.04492zm.569 2.51522h-.5058l.3161.04491.1897-.04491zm.3792-2.56014l1.2011.13474v-.04491c-.3161-.04491-1.1378-.3144-1.2011-.08983zm1.454.17966l.3793.13474.3793-.08983-.7586-.04491zm.5689 2.33556l-.3161-.04491c0 .13474.1897.08983.3161.13474v-.08983zm1.0114-2.24573h-.4425c.1265.04491.3793 0 .4425.13474v-.13474zm.569 1.79659l.0632.08983.1264-.08983c-.1264.04491-.3161-.22458-.1896 0zm1.3275.13474c-.2529-.08983-.5057-.04491-.6322.08983.1897-.04491.5057-.04491.6322-.08983zm.316-.22457c-.6321-.3144-1.7067-.17966-2.4021-.35932l-.0632.13474.1896.04492c.9482-.08983 1.2643.17966 2.2757.17966zm-.5057 1.16778c.1265 0 .1265.13474.1897.17966l.0632-.13475-.2529-.04491zm.7586.26949v-.04492l-.2529-.04491c0 .08983.1265.08983.2529.08983zm-.1264.6288c.0632-.04491.3161-.08983.0632-.22457l.1896-.08983-.316-.17966c-.0632.26949-.4425-.04491-.5058.13475.3793-.08983.3793.22457.569.35931zm.7586-2.87454l.0632.08983.2528-.04491-.316-.04492zm.8217 1.43727l.6322.04492c-.1264-.17966-.5057-.08983-.6322-.04492zm2.2125 1.43727v-.08983l-.2528-.04491v.04491l.2528.08983zM81.61 7.81328l-.3161-.17966.1264.13475.1897.04491zm-1.5172 7.23122c.0632.045.0632 0 0 0 .0632 0 .0632 0 0 0-.0632-.0449-.1896-.1347-.2529-.1796l.569.0898c-.0632.1348.1896.1797.316.1797-.3792-.0449-.7585.1347-1.1378.1796l.0632.0899-1.3907-.0899c.0632-.0898-.0632-.1347-.1264-.2245.1896.1796.316.2245.6953.1796l.1264-.1796c-.1264-.1348-.3792-.0899-.5689-.1797l.7586-.0449-.1264.0449.1264.1797.5057-.2246-.0632-.0898.3161.0449c-.0633 0-.0633 0-.1265.0449-.0632.3144.1897.1796.3161.1796zm.0632 5.839v-.045l-.4425-.0449v.0449l.4425.045zm1.2643 1.2576l.0632-.1348-.316.0899.2528.0449zm1.9597-6.1983l.0632-.0898-.4425-.1347.3793.2245zm.7585.045l-.316-.1348-.0633.1348h.3793zm-.1896.5838l.0632.0899-.5057.2246.0632.0898c0 .1347-.1264.1347-.1896.2695l.2528.0449c-.0632-.1797.4425-.4042.4425-.5839l.1897-.0898c0-.2246-.1897-.0899-.3161-.045zm.6321-.4491v-.0449l-.2528-.0449v.0898h.2528zm.9483.6288c-.3161-.0898-.6954-.3593-1.0115-.2246.3793.2246.6954.1797 1.0115.2246zm-.2529.6288l.1896-.0449h-.5057l.3161.0449zm.6321-1.4822c-.1896-.0449-.4425.2246-.6953.2246.2528.3593.3793-.2695.6953-.2246zm.2529-.0898l.2529-.1347-.1897-.1797c-.1896.1347-.2528.2246-.0632.3144zM51.3302 5.92687l-.1897-.04492c0 .04492.0001.08983.0633.13474.0632 0 .1264 0 .1264-.08982zm-16.2461-.35932c-.0633-.04492-.0633-.08983-.1265-.13475 0 .04492.0632.08983.1265.13475zM88.3739 13.742l.2529.0899c.0632 0 .1896 0 .2528.0449v-.0449l-.2528-.045v-.0449c.0632-.0898.1896-.0449.316-.0449-.1264-.2695-.4425.1348-.5689.0449zM83.38 30.7198c.1264.0449.1896.1347.316.1796.0632 0 .1265 0 .1897-.0449v-.0898l-.1897.1347c-.0632-.0898-.1264-.2245-.316-.1796zm3.3503-11.9473v-.0899l-.5689-.0449v.0899l.5689.0449zm-2.4653 6.5126l.4425.1347v-.1347c-.0633-.0898-.3793-.1797-.4425 0zm-.0633.2246l-.0632.1347c.3793-.0898.7586.0449 1.0747-.1796-.4425 0-.6322.1796-1.0115.0449zm-1.3275 5.255v-.0898c-.0632-.0449-.1264-.1797-.2528-.1797l-.0632.2246.316.0449zm2.4022-10.2855l-.2529-.0898.2529.1797v-.0899zm-.7586 3.4585l-.2528-.045-.1265.045h.3793zm-.3793 2.5152v0c0-.0449.0632-.0449.1265-.0898.0632-.2246-.569-.4043-.1265-.5839-.1896 0-.3793-.1348-.5057-.2246l.4425-.1797-.2528-.2245-.0633.2245c-.2528.1797-.3792-.1796-.6321 0l.3793.1348-.1897.1347h.1897c.1896.0898.6953.1797.4425.4941.1896-.0449.2528.1796.1896.3144zm-3.2239-.5839v.0898l.7586.0899v-.0899l-.7586-.0898zm-1.8964 4.0872v-.0898l-.569-.0449v.0898l.569.0449zm1.1378-9.4321l-.0632-.0898c-.0632.0898 0 .0898.0632.0898.1264 0 .3161 0 .3793.045 0 .0898.0632.1347.1264.1796 0-.0898-.0632-.1347-.1264-.1796 0-.0899.0632-.1797.1896-.1797-.0632-.2695-.5689.1797-.5057-.2246l-.6321-.0898.6953.2695c0 .0898 0 .1796-.1264.1796zm-3.2239 7.5906l.3793-.0898h.0632c.0632.0449.1896.1347.1264.2246.3793-.1348.5057.0449.885-.0449l-.9482-.1797V27.98h-.5057v.1347zm-1.2011 1.2576v-.0898l-.2529-.0449v.0898l.2529.0449zm2.9711-16.9777v.0898c-.1264-.0449-.1897-.0898-.2529-.1347.0632 0 .1265.0449.2529.0449zm-2.0861 9.0278c-.1264-.1796-.3793-.0898-.5057-.0449-.0632-.0449-.0632-.0449-.1264-.0449 0-.0449-.0633-.0449-.0633-.1347l-.1896.1347c.1264.0449.1896 0 .2529 0 .0632.0449.0632.0449.1264.0449 0 0 .0632.0449.0632.0899.1264 0 .3793.0898.4425-.045zm-2.655-.4491v-.0449c.1896-.0449.4425-.1348.4425.1347l-.4425-.0898zm9.6086-7.7253c.0632 0 .0632 0 .1264.0449-.0632 0-.0632.0449-.1264.0449v-.0898zm-.6954-.0899c.0633 0 .0633 0 0 0 .0633.0449.1265.0449.1265.0899 0-.045-.0632-.0899-.1265-.0899zm3.4768.4941l.3161.3144c-.1264.0449-.4425.1797-.6953.0449v-.1347c-.1265 0-.1897-.0449-.3161-.0899-.1264 0-.2529.045-.3161-.0449.1264 0 .2529 0 .3161.0449.1264 0 .3161-.0449.3161.0899.1264.0898.2528.0449.3792-.2246zm.7586.2695l-.4425-.0449c.1264-.3144.1897.1347.3793-.0899-.0632.045 0 .0899.0632.1348zm-10.0511-2.65c-.1264.0449-.2529.1348-.3793.1797-.2528 0-.4425-.0449-.6321-.2246.316-.1347.6321-.0449 1.0114.0449zm2.1493 1.0331l.1896.2245c-.1896 0-.4425 0-.6321-.0898v-.0898c.1264 0 .1896-.0449.3161-.0899.0632.045.0632.045.1264.045zm.6954.3144h-.1265v-.0899c-.0632 0-.0632-.0449-.1264-.0898.1896.0449.3161.0449.5689.1797h-.316zm1.7068.2245c0 .0449.0632.0899.0632.0899-.2529-.045-.569-.0899-.8218-.2246.2528-.0449.5057.0898.7586.1347zm.9482.0449c-.0632 0-.1265-.0449-.1897-.0449-.1264.1797.2529.1797.2529.2695-.1264-.0449-.3161-.0449-.5057-.0898-.0632-.0449-.0632-.0898-.0632-.1348.0632 0 .1896-.0449.2528-.1347.0632.0449.2529.0449.2529.1347zm1.8964.5839c-.1264 0-.2529-.0449-.4425-.1347h-.0632l.0632-.0449c.1896.0449.3161.0449.4425-.0449l.1896.0449v.0449h.1897c-.1264.0449-.2529.0898-.3793.1347zm1.2643-.0449h-.0632l.0632.0898-.3161.1797-.1264-.1797-.0632.1348c-.0632.0898-.1897.0449-.3161.0449-.0632-.0449-.1264-.0898-.1264-.1797.0632-.0449.1264-.0898.1896-.0449l.0632-.1347.6322.0449s0 .0449.0632.0449zM3.66644 26.1834l-.25286-.1797c0 .0899.00001.1797-.12642.1797-.06321-.0449-.25287-.2246-.37929-.0898l-.06322.1347.37928-.0449h.44251zm-1.58036-6.2431c0 .1347.18964.2694.25286.4042l.12643-.0449c0-.1797 0-.4492-.37929-.3593zM81.041 16.8861l-.0632.1796.0632.0449c-.0632-.0449-.1264-.0449-.1896 0v-.0449c0-.0898 0-.1796.0632-.2246l.1264.045zm-.2528-.045h.2528l-.1264.045c-.0632 0-.0632-.045-.1264-.045zm3.0975.8983l-.0632.2246-.2529-.0449h.0632c-.0632-.0449-.1264-.0898-.2528-.0898v-.045c.0632-.0449 0-.0898-.0633-.1347h-.1896c.3793-.3144.3793.3593.7586.0898zm1.0114.7636v.0898l-.3793-.0449v-.0898l.3793.0449zm-2.5286-.8983l-.316-.0449c.1264 0 .2528.0449.316.0449zm-3.6664 1.4822c0 .1347-.5057-.0899-.6954-.1348l.6954.1348zm1.0114.2245l-.6321-.1347c.1264 0 .2528-.0449.316 0-.1264-.0449-.316 0-.316-.0898 0 0 .0632 0 .0632-.0449.0632.0898.3161.0898.5689.1347-.0632.0449-.0632.0898 0 .1347zm.4425.0899l-.4425-.0899c0-.0449.0632-.0898.0632-.1347.1265.0449.3161.0898.3793.2246zm-1.0114.2245l-.6322-.1347v-.0898l.6322.2245zm.1896.045l.5057-.045c-.1896.045-.3792.1797-.5057.045zm-3.4768-.3594h.1265c-.0633.045-.1265.045-.1265 0zm.569.2695c-.1265 0-.1897 0-.3161-.0449.1264 0 .1896 0 .3161.0449zm.7585-.0898v.0898h-.2528c-.0632-.0449-.1265-.0898-.2529-.0898.1897-.0449.3793 0 .5057 0zm.4425.2695l.3793.0449-.0632.0449c-.1264-.0449-.1896-.0449-.3161-.0898h-.1264l.0632-.0898.0632.0898zM2.90787 14.1463c-.18965-.4492.31607-.4941.75857-.4941 0 .0449-.06321.1347-.12643.2246l-.31608-.0449c.06322.0449.06323.1347.12644.1796l-.4425.1348zM41.5952 21.108c.0632.045.0632.0899.1896.0899l-.3161.0898c.1265 0 .1265-.0898.1265-.1797zm5.0571.3144c.0632 0 .1265 0 .1265.045l.1896.0898c-.1897.3144-.1264.0449-.1896-.0898l-.1265-.045zm36.9173-2.5601c-.3161.0449-.6954.2246-.9482.0449.0632-.0898.1896-.1347.2528-.1796.2529 0 .5058.0449.6954.1347zm-7.1432 1.033c.2528 0 .4425 0 .6953.045.1264.0449.2529.0898.4425.0898-.1264 0-.1896.0898-.3161.1796-.316-.1347-.885.1348-.8217-.3144zM5.43645 18.2784c.69536-.0449 1.45393-.2246 2.21251-.1797-.63215.1348-1.51715.1797-2.21251.1797zm79.58705-.7186l-.1264-.2246c0 .0898 0 .1797-.1264.1797.1264.0449.3161 0 .2528.0449zM4.04572 22.4106h-.18964c-.56893-.1348-.50572.3144-.4425.494.12643-.1796.75857-.1796.63214-.494zm-1.13785 6.827c.06321.0449.06321.1347.18964.1347v-.0898l-.18964-.0449zm.37929.8085l-.06323.1347.12644-.1347h-.06321zm.94821-2.9195l-.18965.0449c-.12642-.1796-.37928-.2695-.56893-.3593.18965-.1797.56893-.2246.75858-.2246-.4425-.2245-.69535.0449-.94821.1797-.06321-.0449-.12643-.0898-.18965-.1348-.06322 0-.12643.045-.12643.0899.12643 0 .18964 0 .25285.0449-.06321.0449-.12642.0449-.25285.0449-.06321-.4941-1.07465-.0898-1.45394-.3144-.06321-.1797.25286-.1797.25286-.3144-.44249-.3144-.885005.2695-1.201076.3593-.063217.2695-.5057068.4492-.568924.6737 1.07465-.2245 2.08608-.4491 3.28716-.2695 0 0 0-.0449.06321-.0449l.06321.0449c-.06322 0-.12642.045-.12642.0899.25286 0 .31607.0898.44249.2245.25286-.0449.44251-.0898.50572-.1347zm3.72966 2.4254l.12643-.0449h-.31608l.18965.0449zm12.39007 2.0661v-.0449h-.2529l.2529.0449zm6.5111 1.8864l.4425.1347c-.1265 0-.3161-.1796-.4425-.1347zm.885-.0898l-.3793.0898.0632.0449c.1264-.0449.3161-.0449.3161-.1347zm1.4539.3144h.3161c-.1264-.0449-.3793-.1348-.2529-.2246-.0632.0449-.1264.1797-.0632.2246zm3.6032-1.6619c.2529-.0898.6322 0 .9483-.0449l-.885-.0449-.0633.0898zm6.3215.0899c.9482 0 2.5918.1796 3.1607-.045-.3793-.0898-.6953.0449-1.0114-.0898-.6322.2695-1.6436-.1797-2.1493.1348zm3.3504.0898c.1264-.1348.316 0 .4425-.0449l-.3793-.0899-.0632.1348zm1.201-.0449c-.1264 0-.3793-.0899-.5689 0 .0632-.0449.4425.0449.5689 0zm2.0861.0898c-.3793-.0449-.6321-.0449-1.0746-.0449l1.2643.1347c.1896-.0449.5057-.0898.6321.0449.1264-.0449.2529-.0898.1897-.1796-.3161 0-.7586.1347-.9483-.1348 0 .0449 0 .1348-.0632.1797zm5.0572.2246c-.0632-.0449-.3793-.0449-.4425 0 .1264 0 .316.0898.4425 0zm3.4136.2245c-.5058-.0898-.9483-.0898-1.1379-.0449.3161.0899.7586.0449 1.1379.0449zm14.4761-9.3871c0 .1347-.1897.0449-.3161.0449v-.0898l.3161.0449zm6.2582 9.4321v-.045h-.2528l.2528.045zm.6954-1.2127v-.045l-.3793-.0449v.0449l.3793.045zm1.2643-2.9644l.0632-.0449-.2529-.0899.1897.1348zm0 3.8627v-.0899l-.2529.0899h.2529zm1.3907-4.4466l.0632-.0449-.3793-.0898.3161.1347zm-.3793.7636l-.1896.0898c.316.0898.316-.0449.5057-.0898-.1897-.1348-.3161-.0899-.5057-.045.1264-.0449.1264 0 .1896.045zm1.0114-.3145l.0633.045-.4425.1347.0632.0449c0 .0898-.1265.0898-.1265.1797l.2529.0449c-.0632-.1348.3793-.3144.3793-.4042l.1896-.0899c-.1264-.0898-.316 0-.3793.0449zm.3161-.3593h.0632-.0632zm1.1379.4941c-.3161-.0449-.6322-.2695-.9482-.1797.1896.0899.316.0899.5057.1348-.1897.0449-.0632.2245.0632.2695v-.2695c.0632 0 .1896 0 .3793.0449zm-.1897.4491l.1897-.0449h-.5057l.316.0449zm.4425-1.0779c-.1896 0-.3793.1796-.6321.1796l.0632.045c-.1264 0-.2529 0-.3793.0449l-.2528-.2246c0 .0449-.0633.0898-.0633.0898l-.1896-.0449v.0449c-.1896-.0898-.3161-.3144-.5057-.1796l.1896.0449-.1264-.0449v.0898h.2529l.1264.0449-.2529.1797c.2529.0449.4425-.1797.7586-.0449.6321.3144 1.2011.2694 1.8332.5839l-.3793.0898c.569-.0449.1265.2245.5058.3593l.1264-.1797c.1264 0 .1896.1797.3161.2695.0632-.0449.2528-.0898.2528-.1796-.1264 0-.1896-.1348-.2528-.1797 0 .0898 0 .1797-.1265.1797.0632-.1797-.2528-.2246-.3793-.3144.1897-.1348.4425.0449.569-.0899.3793.3593 1.4539.1348 1.5803.6288-.316.1797-.3793-.1347-.7585-.0898.1264.1348.7585.0898.5057.3593.1264.2246.316-.0898.4425.1348.316.2695.3793-.3593.8218-.1348l-.3161-.2695.2528-.0449c.2529-.0449.5058-.0449.4426-.2246h-.1897l.0632.0899-.1264.0449c-.2529-.4941-1.0114.2695-1.2643-.2695-.1264.0449-.1896.1348-.3161.0898-.0632-.0449-.1264-.0898-.0632-.1347-.3161-.0449-.7586.1347-.885-.2246-.7586.0449-1.4539-.3144-2.1493-.4042.1897-.1348.3161-.3144.5057-.3144zm.2529-.0449l.1896-.0899-.1896-.1347c-.1264.0898-.1897.1347 0 .2246zm.2529-.9882l.2528.045v-.045l-.2528-.0449v.0449zm.885-.0449l-.3161-.0449.1896.1797c.1265-.0449.0632-.0899.1265-.1348zm1.2642-.3593v-.0449l-.316-.0449c0 .0898.1896.0449.316.0898zm-24.6536 4.8059l-.0632.0449.1264.0449-.3161-.0898c.0632-.0449.1897 0 .2529 0zm11.0625.2695c.1265 0 .569-.1797.569.0449l-.569-.0449zm1.3275-.8983c.3793 0 .885-.1797 1.2643 0-.2528.1796-.885.1347-1.2643 0zm-.8218-.4492c.2529-.1347.569-.0449.9483-.0898.0632.1797.3792.1797.5689.1347.2528-.0449-.1264-.3144.3161-.1796-.4425.0898.0632.3593-.4425.3593v-.0898c-.569-.2246-.8218-.0899-1.3908-.1348zm.6954-2.9194l-.3161-.0449.1897-.0899.1264.1348zm2.2757.1347c-.1896.1348-.3793-.0898-.6321-.1347-.1265-.1348.316.2246.6321.1347zm.8218.0449l.1264-.1347c0-.0449-.0632-.0449-.1264-.0449 0-.0449-.0632-.0449-.0632-.0449h.3161l-.0632.0449.1264.1347.4425-.1347-.0632-.0449.2528.0449c-.0632 0-.0632 0-.1264.0449.0632.1797.3161.0898.4425.0898h0c-.0632-.0449-.1896-.0898-.2529-.1347l.5058.0449c-.0633.0898.1896.1347.316.1347h-.3793c-.0632-.0449-.1264-.0449-.2528-.0449-.0632.0449-.1897.0449-.1897.1348-.0632 0-.1264.0449-.2528.0449l.0632.0449-1.3275-.0449c.0632-.0898-.0632-.0898-.1264-.1797.2528.0899.316.0899.6321.0449zm-.2528-.5389c.2528 0 .5057 0 .6953.1796-.1264-.0449-.3161-.0898-.5057-.1347h.1264l-.316-.0449zm-1.0115.2694c.0632.045.1264 0 .1897-.0449.0632-.0449-.0633-.1347-.1265-.1347-.2528 0-.2528-.0898-.2528-.1797.5057-.1347.5057.4043.885.1348-.0632-.0449-.1265-.0449-.2529-.0899.1264.045.3161 0 .5057 0 0 0-.0632 0-.0632.045-.0632 0-.1264.0449-.1896.0449-.0632.0449 0 .0898.0632.0898l.2529.0449c-.4426 0-.6322.0449-.8851.0898h-.1264zm-.9482-.2245c-.0632 0-.0632 0 0 0zm0-.1348c.1264.0449.2529.0899.3793.0899h-.3161l-.0632-.0899zm1.3275-.7186l-.5689-.0898v-.0449l.5689.0898v.0449zm.3793 0l.3161.0449v.0449l-.3161-.0449v-.0449zm2.0861.2695l.316.0449v.0449l-.316-.0449v-.0449zm-1.3907.0898l-.3161-.1347.5689.0449-.2528.0898zm2.655.0898c.3792-.0449.1896.2246.316.3594-.1264.1347-.4425.1347-.5057.0449.0632-.0899-.0632-.0899-.1264-.1797-.1264.0898-.3161.0898-.4425 0l-.0632-.0449h.2528v-.0898l-.316-.0449-.0633-.045c.1265-.2694.5058.045.6954-.1796 0 .1347.1264.1796.2529.1796zm-1.0115.6288l-.316-.0449c-.0633-.0449.1896-.0449.316.0449zm1.1379.1797l.0632.0449c-.1264.0449-.4425-.2245-.6321-.0449l.1896.1797-.6954-.0899c.3161-.1347.7586-.1796 1.0747-.0898zm-1.4539 1.6618l-.2529-.0449h.3161l-.0632.0449zm.2528-3.3686c.4425-.1347 1.0114.2695 1.3275 0 .1264.045.2529 0 .3161.0899-.0632-.0449-.1264 0-.1897.0449.3793.0898.5058.1347.7586.2695-.6321-.2695-1.4539-.1797-2.2125-.4043zm-2.2757-.3144c.1896.045.3793.045.6321-.0449.4425.1797.6322.0449 1.0747.2246h-.7586v-.0449c-.2528.0449-.6321 0-.9482-.1348zm6.0686.7187c-.3161.0449-.3793.1347-.7586.0449l-.0632-.0449c-.1264.0898-.3161.0898-.4425 0-.1264-.4042.5689.1796.885-.0898l.3793.0898zm-9.735-1.6169c.1896-.0899.6321.1347.8217-.045-.0632.2695-.5057.045-.8217.045zm-.8218-.3145v-.0449l.316.0449v.045l-.316-.045zm-1.6436-.2694c.4425-.045.9482.0898 1.5171.1347-.3793.1347-.6953 0-1.0746-.0898v-.0449h-.4425zm4.0457.4491l-1.3907-.1347c.5689.0449.8218-.0899 1.3907.1347zm5.4365.4492c-.0633-.045-.0633-.0899-.0633-.1348l.2529.0898c-.2529-.0449.1264.0899-.1896.045zm-4.994-.6289v-.0898c.1264.1348.3793 0 .5689 0-.1264.1348-.316.1348-.5689.0898zm-.1264-.0898l-.3161.0449c0-.1347.1897-.0898.3161-.0449zm3.54.3144c-.1264-.0898.0632-.2246-.1264-.2695l.316.0899c.1265 0 .1897-.045.3161-.0899.3161.0449.6954.0899.885.2246-.2528.0898-.6953.1348-1.0114.1348.0632-.0899 0-.1348 0-.1348-.1264 0-.1897.0898-.3793.0449zm-.885-.3593l.1264.0449c-.0632.0449-.1264.0449-.1896.0449 0-.0449 0-.0898.0632-.0898zm-.8218.0449l.0632-.0449-.4425-.0898c.1897.0449.4425.0449.569-.0449l.1896.1347c0 .0449.0632.0449.0632.0449-.1264.0449-.3161.0449-.4425 0zm-2.8446-.5839c-.1897.0899-.4425.1797-.6954.1348.0632-.0899 0-.1348-.0632-.1348h.7586zm.3792-.0898c-.1264 0-.1896 0-.1896-.0898l.0632-.0449c0 .0449.0632.0898.1264.1347zm1.454.2695c-.3793.2695-.885 0-1.3907 0 .1264-.0449 0-.1348.0632-.2246.4425.2695.885.2695 1.3275.2246zm3.8561.2246v.0449l-.3161-.0449v-.045l.3161.045zm6.1318.4042c.0632-.1797-.1897 0-.1897-.1348.1265.045.4425 0 .3793.1348h-.1896zm-2.9711-.8085h-.1897l.0633-.0449c.0632 0 .0632 0 .1264.0449zm-6.0686-.8084v-.045h.0632v.045h-.0632zm-2.5286-.7636c.1264.0449.1897.0449.3161.0449-.0632 0-.1264.0449-.1897.0899-.0632 0-.1264 0-.1264-.1348zm-1.0114-.3593c.1264 0 .2528.0449.3793.0898-.0632 0-.1265 0-.1897.0899 0-.0899-.1896-.1348-.1896-.1797zm-1.2011-.0449c-.0632 0-.0632 0 0 0 .0632-.0449.1264-.0898.1896-.0898.1265 0 .1897.0449.3161.0449-.1264.0898-.3161.0449-.5057.0449zm1.8964.3593c-.0632-.0449 0-.0449 0 0l-.0632-.0449c-.0632-.0449-.1264-.0898-.1264-.1348.1264.045.3161.1348.4425.1797-.1264.0449-.1896 0-.2529 0zm2.4022-.1797c-.0632 0-.1264.045-.1264.0899.2528.0449.0632.0898.0632.1347-.0632 0-.0632 0-.0632-.0449l.1264.1347c-.1264 0-.1897 0-.3161.045-.1264 0-.1896 0-.3161-.045l-.3792-.1347v-.0898c.1264-.0449.2528-.0899.1896-.1348.3161.1348.3161 0 .6321.2246.0633 0 .0633-.3593.1897-.1797zm1.6436.6288s0 .045.0632.045h-.2529v-.045h.1897zm.9482.1348c0 .0449-.0632.0449-.1264.0449-.0633 0-.0633-.0449-.1265-.0449v-.0449l.2529.0449zm4.1721.6288c-.2528-.0449-.5057-.0449-.7585-.0449 0 0 0 .0449-.0632.0449 0-.0449 0-.0449-.1265-.0898l.2529-.0899.6953.1797zm2.5918.2246c-.0632.1347-.5057-.0899-.5057.0898h-.1896l.1896-.0898h.0632v-.0449l.4425.0449zm-2.1493-.1348c-.0632 0-.1264-.0449-.1896-.0449l.1896.0449zm-.0632.0899c.0632 0 .1265-.045.1265-.0899 0 0 0 .0449-.0633.0449l-.0632.045zm-.6953-.045h.4425-.4425zm-.5057-.0898c.0632 0 .0632-.0449 0 0zm2.7814 2.4254l-.3793.0898c.1264 0 .1264-.0898.1264-.1347l.2529.0449zm-49.4338-4.6262c-.1896 0-.4425-.0449-.6321 0l-.1264-.0898c.1896-.045.3792-.045.5057-.0899h.316c-.1896.0449-.1264.0899-.0632.1797zm3.3504-.0449h-.1264.1264zm.4425.0449l-.0632.0449c-.0632-.0898-.1264-.0898-.2529-.0898.1265 0 .2529 0 .3161.0449zm6.6375.3144c.0632.1797.4425.0898.8218.1347 0 .045 0 .0899-.0632.0899l-1.5804-.1797.8218-.0449zm.8218.0449c-.1264 0-.2528-.0449-.316-.0449.1896-.0449.3792-.0898.5689 0-.1897-.0449-.2529 0-.2529.0449zm1.9597.2246h-.1265v-.0449h-.1896v-.0899c.0632 0 .1264.045.1896.0899l.1265.0449zm.885.0898c-.1897 0-.3161-.0449-.4425-.0898.1264-.0898.1264-.1797.4425-.0898v.1796zm1.8332.0898h-.1896c.0632-.0449.1264 0 .1896 0zm2.5918.0899c-.1897-.0449-.4425-.0449-.6322-.0899.0633 0 .0633 0 .1265-.0449h.7585c-.0632.0899-.1264.1348-.2528.1348zm1.9596.1796c-.2528 0-.5057 0-.8217-.0449.316-.0898.5689-.2246.8217.0449zm3.6033.3144c-.5057-.0449-1.0115-.0898-1.454-.2245v-.045l-.1264.045c-.0632 0-.0632 0-.1264-.045.3161-.2245.4425.1348.7586-.1347l.0632.2246.3793-.0899-.0633.1348c.0633.1347.2529 0 .3793-.0449l.1897.1796zm2.7814.2246c-.5689-.0898-1.2011-.0898-1.8964-.1347-.1265-.0899-.3161-.1348-.4425-.2695.885-.1348 1.5803.1796 2.3389.4042zm2.0861-.0449c-.2529.4941-.8218 0-1.2643.1796-.1264.045-.3161.045-.4425 0l-.1264-.1347v-.0449c0-.0898.0632-.0898.1264-.1348.0632 0 .1264-.0449.1264-.0449.1265.0449.2529.1348.3793.0449.3161.0899.5689.3144.9482.3144l.0632-.1347c.0633-.0898.1265-.0898.1897-.0449zm1.2011.3144c-.1265 0-.2529-.0449-.3793-.0898.1896 0 .3161 0 .3793.0898.0632-.0449.0632 0 0 0zm2.7814.2695c-.0632-.0449-.1264 0-.1896 0-.1265 0-.3161.0898-.3793.1796-.0632 0-.0632-.0449-.1265-.0449l-.1264-.2246v.0899c-.0632-.0449-.0632-.0899-.1264-.0899.2528 0 .6321-.1347.9482-.0449-.0632.0449 0 .0899 0 .1348zm4.0457.3144c-.0632.0449-.0632.0898-.0632.0898-.1264.0898-.1896.2246-.2528.3144.1896-.0898.3792-.1796.5689-.2246.0632.045.1264.045.1264.1797-.1264.0898-.1896-.0449-.3161-.0449-.2528.4491-1.0114.0449-1.2642.0898-.0633-.0449-.0633-.0898-.0633-.1347l-.1896.1796c-.5689.0449-.2529-.4491-.3161-.4042-.1896-.0449-.3793-.0898-.5057-.1797-.1264 0-.3161 0-.5057-.0449v-.0898c.6954-.1797 1.2011 0 1.8332.1347.1264.1797-.3793.2246-.1896.2695 0-.0898.0632-.0898.1264-.1347l.0632.0898v-.0898c.1897 0 .2529.1796.4425.2695.0632-.0449.2529-.0899.0632-.1348l.1265-.0449-.3161-.1347.6321.0449zm4.1722 0c-.0632 0-.1264-.0449-.2529-.0449v-.0449l.3793.0449v.0898l-.1264-.0449zm3.8561 0h.5689c0-.0449 0-.1348.1264-.1348.1265.0899.3793.0899.3161.2246.1897 0 .3793.0449.4425.0898.0632 0 .0632-.1796.1264-.2245v.0898l.2529.0449c.1896.0898.3793.2246.5057.0449l.1264.1797.0633-.0449c.1264 0 .2528.0449.316.0898 0 .0449-.0632.0449-.0632.0898h.1264c-.1264.1348-.4425.0449-.6321.1797.5057.3144 1.1379-.1348 1.5804.2246h-.0632c-.1897 0-.3793 0-.5058-.1348l.0632.0898-.1896.045c-.4425 0-.8218-.045-1.2643-.0899l-.0632-.0449c.1264-.0898.1896-.1347.3161-.0898-.1265 0-.2529-.0449-.4425-.1348v-.0898l-.2529.1348c-.1896-.0899-.4425-.1348-.6953-.1797.0632 0 .1264-.0449.2528-.1347l-.0632.1347h-.1896c-.3161-.0449-.6322-.1347-.7586-.3593zm-.3793 0c.0632 0 .1896.0449.2528.0449l.0633.0449-.3793-.0449.0632-.0449zm-1.4539-.1348c.0632 0 .1264-.0449.1896-.0449l.0632.0899s-.1264 0-.2528-.045zm-.1265-.0898h0zm-1.8964-.3593h.2529c.0632.0449.1896.0449.2528.1347l-.1264.0449c.1264.3594.5057 0 .7586.0899l-.0633.2695c-.3792-.3144-.885-.1348-1.2643-.3594h-.0632l-.0632-.0898.1264.0898c.0633 0 .1265-.0898.1897-.1796zm-2.5286-.3144c.0632 0 .0632 0 .1264.0449.0633.0449.1265.1347.2529.1797.0632-.045.1264-.1348.1896-.1348.0633.0449.1265.0898.2529.1348-.0632.0449-.0632.0449-.1264.0449l-.2529-.0449-.4425-.045v-.1796zm.5057-.8534c-.2528 0-.5057-.0898-.7585-.1347.0632 0 .1264.0449.2528.0449.1897.0898.3793.0449.5057.0898zm1.8965.0449l-.3161-.0449.0632-.0449.2529.0898zm.8218.1348l.0632.1347s-.0632 0-.0632.0449c-.1897-.0449-.5058.0899-.569-.1347-.0632 0-.1264 0-.1896.0449-.0632-.0449-.1265-.0449-.1897-.0898l.2529-.1348h-.0632v-.0449c.2528.0898.5057.1348.7586.1797zm2.4653.4042v.0898c-.0632-.0898-.2528-.0449-.3793-.0449-.0632 0-.1264-.0449-.1264-.0449-.2529-.1347-.5057-.1347-.7586-.1347v-.0899c.1897.0449.4425.0899.6322.0899h.1896c.1264.0898.2529.1347.4425.1347zm5.4365 2.1559c.1264 0 .2528.0449.3793.0449-.1265 0-.3161 0-.3793-.0449zm-.9482.4941c-.0633 0-.1897-.0449-.2529-.0449.1264-.045.1896-.1348.2529-.2246.1264.1347.2528-.0449.3792.1347l-.3792.1348zm.2528.0449c-.0632 0-.1264 0-.2528-.0449.0632 0 .1264-.0449.1264-.0449l.1264.0898zm-3.6664-.2246c-.0632-.0449-.0632-.0449-.1265-.0898l.0633-.0449H77.8803v.1347h-.1264zm1.7068.1348c-.3161 0-.3793.1796-.6954.0898-.0632-.0449-.1264-.0449-.0632-.0898-.1897-.045-.5057 0-.7586-.045.5689-.0898 1.1379.1348 1.5172.045zm.7585.0898c-.0632 0-.1896-.0449-.2528-.0449.1264-.0449.2528-.0449.2528.0449.0632 0 .0632 0 0 0zm-8.0282-.3593l-.1264-.0449h.1264v.0449zm.1264.2695c-.3161-.045-.8218.0898-1.0746-.1797.316-.1347.6321-.0449 1.0114.0449.0632 0 .0632.0449.0632.1348zm3.3504.3593h-.1264c-.5058-.539-.7586-.0449-1.3275-.2246.1264.1347.4425.2246.6321.2246-.0632.1347-.3793.0449-.5057.0898-.0632-.2695-1.0114-.0449-1.2643-.3593v.0898c-.3161-.0449-.6322-.0449-.885-.1347l.2528-.0449s-.0632 0-.0632-.045v-.1347h.1265l-.0633-.0449c-.0632-.0449-.0632-.0899-.1264-.1348h.1897c-.1265-.0449-.3161 0-.3793-.0898l.1896-.0898c.1264.0449.3793 0 .4425.0898-.0632 0-.1264.0449-.1264.0898.5057.0899.9482 0 1.3275.2246l-.4425.1348.0632.0449.4425-.1348c.9482-.1347 1.6436.0449 2.3389.2246-.316.0449-.6321.0898-.9482-.0449-.0632.1796.3161.1796.2529.2695zm11.3786-1.3924l-.1264-.1347-.0632.0449c.1264.2695.5689 0 .7585.1796v.0899c-.0632.0449-.5057-.1348-.5689.0449-.1896 0-.3793-.0898-.3793-.1797-.3161.0449-.9482-.1347-.885.1797-.6321.2695-1.2643-.0449-1.9596-.1348l-.1265.1797c.2529.5839 1.454.1797 2.0861.539.2529-.2246.7586 0 1.1379 0v.0449l.1264-.0898.1264.1347c.1897.0449.2529.1797.3793.2246.0632-.1797-.3161-.2695-.4425-.4042l.3793-.1348-.1896-.1797c.2528-.0898.316-.1347.5689-.1796l-.1264-.1797c-.1897-.0898-.6322-.1796-.6954-.0449zM61.0652 34.5824c.0632.1797 0 .3594-.1264.4941-.1264.1348-.3161.2695-.5689.2695-.2529.0449-.4425 0-.6322-.0898-.1896-.0899-.316-.2246-.3793-.4043-.0632-.1796 0-.3593.1265-.494.1264-.1348.316-.2246.5689-.2695.2529-.0449.5057 0 .6954.0898.1896.0898.316.2246.316.4042zm11.4419-.9432c.1264.4492 0 .8983-.3793 1.3026-.3793.4042-.885.6737-1.5804.7635-.6321.0898-1.2011 0-1.77-.2695s-.885-.6288-1.0114-1.0779c-.1265-.4941 0-.8983.3793-1.3026.3792-.4042.885-.6737 1.5803-.7635.1897 0 .3161-.0449.4425-.0449-.3161-.0449-.6321-.0899-.885-.1348-.7586.3144-2.0228-.1347-2.9078-.0898-.9483-.0449-2.0229-.3593-2.8447-.1797-.2529-.1347-.6954-.3144-1.0747-.2245l-.4424.0898c0 .0898.1896.0449.316.0898-.1896.2246-1.0746 0-1.2011-.0449.1897.0898.3793-.0449.5058-.0898l-.1897-.1348-1.0114-.0449c-.0632.0449 0 .0899.0632.0899h.1896c-.0632.0898-.2528 0-.316 0-.1265-.1348-.2529-.2246-.5057-.2246l-.2529.1347c.1264.2695.4425 0 .6321.1797-.3792.1347-.9482-.2695-1.4539-.0898.0632.0898.1264.0449.2529.0898-.1265.0449-.2529-.0898-.4425 0l-.1897.0898-.5057-.3593-.4425.1797c0-.0899.1896-.0899.3161-.1797-.0632-.0449-.1265-.0449-.2529-.0898l-.1896.0898-.1265-.1797-.1896.0899c-.0632-.0449-.1264-.0449-.2529-.0899l-.1896.2695v.0449h-.1896v-.0449c.0632.0449.1264 0 .1896-.0449.1896-.1796-.3161-.1796-.3793-.1796-.4425.1347-1.0114.1347-1.5171.0898-.0632-.2246-.4425-.1348-.6954-.1348-.0632-.0449-.1264 0-.1896.045-.1265-.2246-.4425.0449-.6322-.045-.2528-.0449-.5057 0-.7586 0l-.2528-.1796c-.1897.1347-.3161.0449-.5057 0-.1897-.2695-.4425-.0449-.7586.0449 0-.0898-.1264-.1797-.3793-.1797-.1264.0899-.4425-.0898-.5057.1348-.9482-.2246-1.7068-.0449-2.5918-.1797-.3793-.0449-1.3907-.2245-2.0229-.1796-.5057.1347-.885-.1348-1.3907.0449-.7586-.0449-1.5171-.3144-2.2757-.1348-.0632-.0449-.0632-.0898-.1264-.0898l-.0633.0449.1265.1348c-.1265 0-.5057.0898-.569-.1348-.6321-.0898-1.3907.0899-1.8964-.1347-1.6436 0-3.0343-.1797-4.6147-.1348l-.1896.0899c-.0632-.1348-.3793-.045-.4425 0-1.4539-.0899-2.3389-.2695-3.6664 0-.6954-.4043-1.5172.0449-2.339-.1797-.3793.0898-.7586-.0898-1.2011.0449-.1264-.1347-.3792-.0449-.5689 0-.3161-.2695-.5689.1797-1.0114-.0449-.1897.4492-.7586.0449-1.1379 0-.8218-.1797-1.4539.1347-2.2125 0-.3161.1347-.7586 0-1.0746.0898-.7586-.0898-1.77-.0449-2.5918.0899-1.2643-.0899-2.339-.045-3.4136.0449-.3793.0449-1.3907.539-1.8964.0449H12.39l.0633.1347c-.3161-.0898-.885.1348-1.2643 0-.7586.045-1.45396.1797-2.14933.2695-.63214.0449-1.39072-.1796-1.83322.0899-.63215-.0899-1.20107.0449-1.77.0898-.25286-.4042-1.07466-.0898-1.39073-.3144.06322-.0899.31608-.1797.18965-.2695-.37928-.0449.06322.1347-.31607.1796l-.37929-.2245c.4425 0 .69536-.7187 1.32751-.3144.18964-.1797.44251.1347.69536 0-.06321-.0449-.12644-.0449-.25287-.0899.25286-.1796.8218.3144.88502-.1347.75858 0 1.83321 0 2.46536-.1797-.12642-.1347.06321-.3144.25286-.3593-.37929-.1347-.88501 0-1.32751.0449-.885-.0898-2.27572.1797-2.5918-.3144l.25286-.2245c-.06321-.045-.50571.0449-.4425-.1348l.63215.0449v-.2245c.50571-.3144 1.45392-.2246 1.77-.6288-.37929-.3594-1.3275.0449-1.51714-.4492-.56893-.1796-1.13786-.4042-1.45394-.7635l.31608.0449c.50571-.4043-.75858-.3144-.50573-.7636l.25286.2695c.12644-.1797.25287-.2695.12644-.4491-.50572-.0899-.18965-.4492-.25286-.6738.12642-.1796-.00001-.3593-.12644-.5389-.18964 0-.44249 0-.69535.0449-.18964.4042-.69536.5839-1.20108.7186-.06322-.3593-.69536-.6288-.885-.9881.37929-.2246.88499-.2695 1.3275-.4042.18964.3144.75858.3593 1.20108.3144-.12643-.1797-.18965-.3594.06321-.4941-.25286-.1347 0-.3593 0-.4941.50571-.1347.44251-.6737 1.07466-.7186-.50571-.3144-.94823-.6737-1.2643-.9881.06321-.1348.25286-.1797.37928-.3144-.25285.2695.12644.4491.3793.6737.18964-.0449.25285.0449.37928.1347.06322 0 .18965-.0449.25286-.0898-.18964-.0898-.25285-.2246-.50571-.2246l.12642-.0449-.31607-.3144c.44251.0449.82179.2246 1.13786.4043 0-.0899-.06321-.2246-.06321-.3144-.50572-.1797-.94821-.3594-1.3275-.6289l-.18965.1348-.82179-.1797.69536-.2245-.50571-.2695c.18964-.1348.18963-.3144.18963-.4941-.25285 0-.4425 0-.56892-.1347.06321-.1348.37929-.2246.18964-.4043-.37929-.0449.06321.1797-.31608.2246l-.37928-.3593c.50572 0 .82178-.9881 1.45393-.4042.18964-.2246.31608 0 .50572.0449h.12642s.06323 0 .06323-.0449c-.06321-.0899-.12643-.0899-.25287-.0899.31607-.2245.88501.4492.94822-.1796h-.25286c0-.4492-.75857-.0899-.82178-.539-.37929.1796-.18965-.3144-.56893-.2695.12642-.5839-1.01143-1.078-.50572-1.6618-.94822-.3144.18965-.6738-.06322-1.1678-.25285-.1797-.63214-.2695-.82178-.5839 0-.1348.25285-.4042-.06322-.4492.37929-.2245 1.07464-.0898 1.70679-.1347-.18964-.1797-.75857-.2695-.56892-.6737l.25285.4042c.18964-.2246.25286-.3593.18964-.6288-.56892-.1347-.18964-.6288-.18964-.9432.37929-.6737-.885-1.3025-.18964-1.88643-.25286-.17966 0-.44914 0-.71863h.06321-.37929c.44251-.22458.18965-.40423.69536-.58389l-.06321-.04492c-.18964.08983-.37929.13475-.44251.26949v-.3144c-.06321 0-.12642.04491-.18964.08983.06322-.04492.12644-.08983.25287-.13475.06321-.22457.18963-.44914.56892-.3144l.18964.04491c0 .08983.00001.17966-.0632.22458h.31606c.12644-.08983.25287-.13475.44252-.13475.06321-.04491.12642-.08983.18964-.13474h.25285c.4425-.53898.12642-1.16778.25286-1.8415-.18965-.08983-.37929-.40423-.63215-.31441-.12643-.17965.06322-.35931.06322-.53897.37928-.13475.82178-.04492 1.20107-.08983l2.1493.35932c.06321.17966.06321.3144.37928.26948l.12644-.04491c-.37929-.17966.12642-.26949.0632-.49406l.18965-.08983-2.84465-.49406c-.12643.04491-.25287.13474-.3793.08983-.25285-.17966.3793-.26949-.0632-.35932-.12644.26949-.25286.3144-.63215.3144-.12643 0-.12642-.13474-.12642-.22457.25285-.13475.25285-.3144.31606-.58389h.06321c0-.22458.25286-.49406.3793-.71864l1.26429-.3144-.25286.17966c.31607 0 .94822 0 1.07464.35932 1.01144.17965 1.77001 0 2.71822 0l.3161.26948c.1896-.13474.2528-.26948.5057-.26948.0632.35931.885.13474 1.2011.17965l.6321-.04491-.2528-.3144.6953.04491c0 .08983-.1264.22458 0 .26949.3161-.13474.1897-.22457.5689-.35932.569.13475 1.2011-.04491 1.5172.04492l-.1264.04491c.6953.35932 1.5171-.22457 2.2125.13475.885-.49407 1.77.40423 2.655-.22458.3793-.08983.5057.35932.8218.04492.3793.08983 1.1378.17966 1.1378-.08983.4425-.08983.6954.35932 1.2011.17966.3161.04491.6322 0 .9482-.13475.3161.44915.7586-.04491 1.2011.13475l.1897-.08983c-.0633-.04492-.0633-.08983-.0633-.13475.3161.44915.885-.08983 1.3908.22458l.0632-.13475c.316.26949.8218-.26949 1.0746.08983.8218.08983 1.8332-.22457 2.4654.22457.885-.08982 1.4539.08983 2.3389 0 .0632.08983-.0632.26949-.2528.31441-.4425.17966-1.0747-.04492-1.5804.08983l.1264.22457c-.1896-.13474-.2528.08983-.3793.13475.0633.3144.3161.08982.5058.08982h.0632c-.1897.17966-.5057.08983-.7586.22458.1264.26949.4425.40423.7586.40423 0 .08983-.3161.08983-.2529.22457l.0632.08983-.9482-.08983c.4425.08983-.1896.22458.0632.35932.5057.13475.885-.08983 1.3275 0l-.1264.04492c.2529.17966.6954.13474 1.0114.22457-.0632-.22457.3161-.22457.4425-.35932l-.2528-.40423c.1264.13474.5057.3144.6321.58389.2529-.04491.3161.13474.4425.26949.1265-.17966.6954 0 1.1379-.17966.1896-.13474 0-.26949-.1264-.35932.316.22458.6321-.04491 1.0746.17966.3793-.04491.6954-.40423.8218-.58389.3161.22457.2529.22457.0632.49406-.4425.04492-.4425.22458-.5689.49406.0632.13475.3161.08983.5057.13475.1264-.08983.0632-.26949.1264-.35932.0632.3144.4425.17966.7586.17966.1264-.04492.1264-.08983.1264-.17966.1265.04492.3793 0 .3793.13474l.1264-.04491-.1896-.3144c.3161 0 .885-.04492 1.2643.04491-.0632.04492-.1264.04492-.1264.13475.316.08982.2528.22457.5057.35931l1.3275.04492c0 .08983-.0632.08983-.1264.13474.9482.26949 1.9596.04492 2.971.26949.0633-.22457.2529-.22457.5058-.26949-.0633.13475 0 .22457.0632.3144l.1896-.08982c.0632.3144.4425.08982.6954.08982.2528.26949.7585-.04491 1.0114.22458l.3161-.13475c-.3161-.44914-1.3275.04492-1.3275-.49406-.5057-.22457-1.2011.13475-1.3907-.44914-.1897-.17966.4425.17965.4425-.22458l.885.35932-.1265.04491.0632.08983.3793-.13474c-.2528.13474-.1264.26949-.1896.40423 1.2011.13475 2.0861.44915 3.2871.35932.569.26949 1.7068.22457 2.5286.3144.3793-.35932.0632-.40423-.1264-.71863-.1896-.04492-.3793-.08983-.5689.04491l.0632.08983c-.4425.17966-.885-.08983-1.3275 0l-.1897-.04491c-.0632-.49407-.7585-.04492-1.0114-.44915.3161.17966 1.1379-.08983 1.6436.3144.1264-.04491.1264-.13474.1264-.17966l.2529.31441c.2528-.13475.5057-.22458.7585-.22458.1897-.04491.1265-.17966.0632-.26949.1897.44915.7586.13475.8851.5839l.6953.04491-.5057.13474c1.2011.40424 3.1607.71864 4.4882.71864.6954-.08983 0-.44915.1897-.76355.0632-.26949.1264-.49406.1896-.76355 0-.04491.0632-.13474.0632-.22457.0632 0 .1265.04491.1265.08983l-.1897.08983c0 .08982.1264.08982.2529.08982 0 .17966-.2529.40424 0 .5839l1.2643.22457c-.1897.13474-.569-.17966-.6322.08983l.1264.08983c-.1264-.08983-.2528.04491-.3792.08983.0632.26949.5057.17966.7585.26949-.0632.04491-.1264.04491-.1264.13474.0632.04491.0632.08983.1264.08983l.1265-.04492v.04492c1.5803.53898 3.6664.3144 4.8675.67372l.1264-.04492c-.0632.17966.3161.35932.5689.22458.4425-.26949 1.0747.44915 1.3908-.22458l-.0633-.08982.1897-.08983c-.1897-.17966-.5057-.35932-.6954-.31441-.2528-.40423-.8218.04492-1.3275-.13474l.1265-.04492-.3793-.22457c1.0746.08983 2.0228.40423 3.0975.53898 0-.04492.0632-.04492.0632-.04492l.1264.08983c-.0632 0-.1264-.04491-.2528-.04491-.1897.13474-.3793.40423-.6954.40423.3793.22457 1.0114.44915 1.3275.35932.4425.22457 1.2011.3144 1.7068.40423l.0632-.13474.1264.44914c.569-.67372 1.7701 0 2.5286-.04491.1265.13474.3793.17966.569.22457.0632-.08983-.3161.62876.316.53896l.2529-.22456c0 .08983-.0632.13475 0 .22456.3161-.08981 1.0746.4941 1.3907-.13473.1264 0 .1897.17963.3161.04492.1264-.40423-.6954-.08983-.3161-.53898l-.2528-.08983h.0632c.1264-.17966 0-.44914-.3161-.49406-.7586.13474-1.4539-.44915-2.2125-.22457-.1264-.22458-.6322 0-1.0114-.17966v-.08983h1.0114l-.1264.04491c.4425.17966.7585-.04491 1.201.13475.2529.04491.1897-.17966.4425-.08983.3161.22457 1.0115.40423 1.454.35932l1.5803.08983c.1265.3144.8218.13474 1.1379.40423.8218-.35932 1.5804.26949 2.3389.22457 1.0747.35932 2.2125.26949 3.224.71866l.7585-.1797c-.316-.0449-.4425-.40421-.8217-.26947.4425-.35932.6953.44917 1.1378-.08983l-.0632.22457c-.1264 0-.1896-.04491-.2529.04492.1897.31441.4425.08981.8218.35931v.0449c.8218.2695 1.7068.3144 2.7183.2695-.4425-.539-1.1379.0898-1.7068-.3593.1896-.1797.5689-.0449.6953-.2246-.0632-.13473-.1896-.17964-.3793-.22456l-.1264.04492-.1264-.22457c-.1897.26948-.4425-.08983-.6954-.08983l.1264-.04492c-.316-.3144-.2528.26949-.316.22457-.1265-.08982-.3161-.13474-.5057-.13474.0632-.17966-.2529-.22457-.3793-.35932-.1265.04492-.1265.08983-.1265.17966-.6953-.04491-1.3275-.04491-1.8964-.35932-.4425-.04491-.7586.17966-1.3275.26949l-.2529-.08983c.1265-.22457.569-.04491.7586-.22457-.3161.08983-.4425-.3144-.6321-.3144l-.3161.17966c.0632-.04492 0-.08983-.0632-.13475-.1897.26949-.4425-.13474-.6322-.04491l-.1264-.17966c-.3793.08983-.7586-.08983-1.2011-.26949-.1896.22457-.4425-.04492-.6321.08983.1264.08983.3161.17966.2528.3144-.316.04492-.7585-.26949-1.0114-.22457.1264 0 .2529 0 .3793-.08983-.1896-.08983-.1896-.17966-.3793-.35932-.1264.04492-.1264.08983-.1264.17966-.6322-.26949-1.5804-.22457-2.2757-.13474-.1265-.13475.1264-.17966-.0632-.31441l-.2529-.04491c.1264 0 .2529 0 .4425-.08983-.3793-.44915-1.0747-.3144-1.5804-.44915-1.0114-.04491-2.3389-.3144-3.4768-.49406l.569-.04491c-.1897-.35932-.6322-.04492-1.0115-.22458l-.2528.17966c0-.35932-.5057.04492-.6322-.22457v-.08983c.5057.22457 1.2011.04491 1.5172.04491.1264.26949.6321.13475.9482.13475.1264-.04492.2529-.13475.3793-.08983l-.0632.13474c.2528.13475.6953.17966 1.0746.04492-.3161.04491-.1896.26948-.3793.35931.1897-.08983.3793.31441.6322.04492l-.0632-.08983c.0632-.17966.316.22457.3792-.08983.3793 0 .1897.44915.6322.22457-.0632-.08983-.1264-.08983-.2529-.08983l.3161-.17965c.0632.04491.0632.08982.1264.08982.0632-.04491.1265-.04491.1265-.13474-.6954-.22457-1.7068-.3144-2.2758-.44915.6954-.40423 1.0747.31441 1.77 0-.1896-.13474-.6953-.13474-.5689-.44914l.9482.13474c0 .08983-.0632.08983-.1264.13474.6954.22458 1.1379.53898 1.9597.35932-.2529-.22457-.6954-.35932-.9483-.35932.1265 0 .3793-.22457.4425.04492l1.77.35932c-.2528 0-.5057-.17966-.6953.04491v.08983c.5057-.04491 1.0114.40423 1.5803.17966-.1264-.08983-.2528-.17966-.5057-.22457 0-.13475.2529 0 .3793 0 .1897.49406.9482.04491 1.3275.26948l.5057.08983-.1896.08983c.3793.13475.6321.53898 1.0746.22458l-.1264-.22458c.1264-.04491.8218.26949 1.2643.35932-.1264.40423.6322.17966.7586.40423.1896 0 .4425-.17966.5057 0l.0632-.13474c.5689.44915 1.7068.22457 2.4022.44915l.0632-.13475c.1264.08983.3793.26949.5689.17966l.1264-.04491v.04491c.5058 0 1.0747.3144 1.5172.3144l-.1264.04492c.4425.44915 1.201-.22458 1.77.13474l-.3793.13475c.3793.40423.9482.40423 1.5171.3144l.2529.17966c.3793.26949 1.2643 0 1.0114.49406l.2529.13474c-.7586-.22457-1.3907-.04491-2.2125-.04491-.1897.17966.1264.17966.1264.22457-.3161.2695-.5057-.08983-.7586-.13474-.1264.13474-.3161.13474-.4425 0-.1896.04491-.1264.22454-.1896.31444.316.0449.6953.4042.9482.1347.2529-.0449.1896.1797.3161.2695l.6953.0449-.5057.2246c.1264.2695.4425-.0898.5057.2246-.3793.3144-1.1378-.3144-1.77-.1348 0 .0449 0 .0449 0 0s0-.2246-.1896-.1796c0 .3593-.6322.0898-.9482.2245-.1265.0899-.6322-.2245-.6954.1797l.5689.1796c.1897.3594.885.2695 1.3275.4941-.8218-.1347-1.8332-.3144-2.5285-.539l.2528-.1796c-.2528-.0899-.5057-.3144-.7586-.1348 0 .1348.1897.0899.3161.1348-.1264 0-.6321.0898-.8218.3144-.0632-.0899-.2528-.1348-.3161-.2695-.1896.2246-.4425-.0449-.6321.0898.1264.4042.6954.2246 1.0746.3144-.0632.0449 0 .0898.0633.1348.3793.0898.4425-.1348.8218-.0899l-.1897-.2245c.5689.1347.8218.3144 1.3275.3593 0 .0898-.1264.1347-.2528.1796.4425.3144 1.0746-.2695 1.4539.2246-.3161.0898-.5057-.3593-.6954-.0449l.1265.1797.1264-.045c-.1264.3144.5057.0899.7586.1348.1264-.1348-.3793.494.316.4042 0 .0898-.0632.0898-.1264.1348l.5689.1796c-.2528 0-.5057.2695-.6953.0449l.1896-.0898c0-.0449 0-.0449-.0632-.0898-.1264-.0899-.3161-.1348-.4425-.0449l-.1264.0449.2528.1796c-.6321.0449-1.1378-.494-1.77-.3593-.3793.0898-.3793-.4042-.7585-.1796-.3161-.2246-.7586-.2695-1.2643-.1797l-.3793.0898.1896-.0898-.1264-.1797c-1.77-.0449-2.5918-.8983-4.2986-.6288l-.5057.2246-.0632-.0898.3793-.4043c-.4425-.2694-.885-.1347-1.454-.3144 0-.0898.0632-.0898.1265-.1347-.0633-.1347-.3161-.0898-.5058-.1347l-.1896.0898c.0632.1347.2528.0898.4425.1347h-.4425l.2528.1797c.0633 0 .1265-.0449.1897 0l-.0632.0898.0632.0449h-.1264l-.1265.1348c.0632 0 .1265.0449.1897.0449l-.3161.0898c.0632.0449.1264.0449.2529.0449 0 0-.0633 0-.0633.0449.2529.0899.5058.0899.7586.1348l.0632-.1348c.1897.4043 1.0115.1797 1.2643.4043.0632-.0449.1265 0 .1897.0898.1896 0 .316.0449.3793-.1347-.1897 0-.5058-.1348-.6322-.3144.6322.2245.9482-.4492 1.4539.3144l.569-.1348c.3161-.0898-.2529.0899 0 .2246l.1896-.0898c.2529.1796.885.3593 1.3275.2695l-.0632.1347c1.0747.1347 2.0861.4042 2.9711.6737h.3793l-.0632.0898.1896.045c.1264-.045.2529-.045.3793 0 0-.045.0632-.045.1264-.045l.2529.045c-.1264.1347-.1897.0898-.2529.0449.0632.0449.1265.0898.1897.1347 0 .0898-.0632.0898-.1897.1348h.2529l.0632.0449c.1896 0 .3161-.0899.2529-.2246.0632.0898.316.2246.3792.1347l.3161.2695s-.0632 0-.0632.045h.0632c0 .0449-.3793.1347-.1896.2694h.0632l-.2529.1797 1.1379.3593c-.4425-.0449-.885-.0898-1.3907-.1796 0 0-.0632.0449-.1265.0449l-.0632-.0449c-.1264 0-.316-.045-.4425-.045v.045l-.2528-.045v-.0449c-.2529-.0449-.5057-.0898-.8218-.1347-.0632.0449-.1264.0898-.1897.1796l-.0632-.2245h-.0632c-.1264.2245-.6954-.2246-.6954.1796.0633-.1347-.1264-.2245-.1896-.3144l-.2529.1797.4425.2695c-.1896-.2246-.5057.0898-.5689-.2246l-.3793.1347c0-.6288-.6953.1797-.885-.3593l-.316.1797c.0632.0449.1896.2246.316.1347l-.0632.1348c-.1264 0-.1896-.0449-.2528.0449.1896.2695.4425.0898.7585.2695.569.3144 1.2011-.0899 1.6436.494.4425 0 .7586-.0449 1.0747.2246-.6322.1797-1.3276-.3593-1.6436-.1796h.0632v.0898h-.1264c0 .0449-.0633.0449-.0633.0898-.0632-.0449-.1264-.0898-.2528-.1347h-.1264c-.1265 0-.1897 0-.3161.0898 0 .2246.5057.2246.3793.2695-.1897.0898-.4425-.0449-.6954-.0449.0632-.0899-.0632-.1348-.1264-.2246.0632.0449.1264 0 .1896-.0449-.1264-.2246-.3793-.2695-.6321-.3593l-.3161.1796c.1897.1348.5057.1797.6322.3593l-.1897.3144c-.3161-.0898-.5689-.1347-.6953-.4042-.1265.0449-.1265.0898-.1265.1797-.5057.0449-1.0114-.0899-1.5171-.0899l.1264.1797.1264-.0449.0632-.0449-.7585.0898c.2528.0898.4425.2246.7585.2695-.3792 0-.9482-.2695-1.3275-.1348.3161.3144 1.0115.1797 1.3908.4492l-.5058.0898c.4425.0449.9483 0 1.0115.4043.1264-.045.1264-.1348.1264-.1797l.3161.0449-.0632-.0898.2528.0898-.1264.0449c-.1896.4492.5689-.0898.5057.3144.1264-.0449.1264-.1347.1264-.1796l.3793.0898s-.0632-.0449-.0632 0c.1897-.0449.3793-.0898.5057.0898h-.0632l.1897.0449h-.2529c-.1264.0899-.2529.1797-.5057.0899l.1896-.0899h-.3793c0 .1348.0633.2246.1897.4043.1264-.0449.1264-.1348.1264-.1797.0632.0449.0632.0898.1264.1348h.1265l-.0632.0449c.2528.0898.5057.1347.7585.2245l.1897-.1347c-.0632-.0898-.1265-.0898-.2529-.0898l.2529-.1797c0 .1348.2528.0898.3793.0898l-.1265.045c.0632.0898.1265.0898.2529.0898.1264-.0898 0-.2695.3161-.1797 0 .0899-.1265.2246 0 .2695-.0633 0-.1897-.0449-.1265-.1796-.1896.2694-.6321-.045-.7585.2694.4425.1348.1264.539.7585.4492-.0632.2695.4425.0898.5058.2695.1264.2246.7585-.1348.8217.2246l-.3792.0449c.1264.0449.1896.2245.4425.1796-1.2643.7636-1.8333-.6737-2.9079-.1796.1896.0449.3793.0898.5689.1796.1897 0 .3161 0 .4425.1348-.4425.1347-1.1378.0449-1.7068.0898l.3161.0898-.3793-.0449v.0449c.8218.0899.6322.3593 1.5172.3144l.1264.1797c.2528-.1348.0632-.2246.0632-.3593l1.0747.0449c-.2529.1347-.4426 0-.7586-.0898-.4425.4042.5057.3593.5057.7186-.4425.0449-.6322-.539-1.0747-.1797l.3161.1797c0 .0898-.2528-.1797-.5057-.1347l-.0632-.0899.1896-.1347c0-.1348-.2528-.0899-.316-.0899-.1265.3594-.3161-.1796-.569.0899l.0632.0898c-.0632.1797-.5057-.1347-.5057.1797h-.1896c0-.0899.1896-.1348.2528-.1797-.316-.1797-.8217-.3144-1.2642-.2246-.3161-.494-.569.3144-.9483-.0449 0 .1797-.4425.4492-.8218.6288l.1265.1797c-.0632.0449-.3793-.0898-.4425-.2695-.0632.0898-.1897.1797-.3161.2246l.3161-.3593c-.3161-.045-.6322 0-.885.0449-.0632.0449-.0632.0898-.0632.1347v.0898c.2528.1348.6321-.1347.6953.2246l-.7586-.0898c.1265-.1348-.0632-.2246-.1264-.3144l-.3793.0898v.0449c.1265.0449-.3161-.0898-.3793.0449l.1897.2246h-.1265v-.0449c.0633 0 .1265.0449.1265.0898h.1896c.1897.3144.569.1348.885.3593.0632-.0449.2529-.0898.2529-.1796 0 .1347.1896.3144.4425.2695l.0632-.0449V20.7936v.0449l.0632.045c0 .1347.0632.3593.3793.2694.0632.1348.3161.0899.5057.1348l.1897-.0898c.1264.0449 1.4539.1796 2.2125.4042.316.1797.8218.1797 1.2643.2695-.6322.2246-1.0115-.1797-1.7068 0-.3793-.0898-.7586-.2246-1.2011-.2695l-.2529.1797c.0632-.4492-.5689-.1348-.8218-.2695v.0898l-1.1378-.0898v-.0899c-.5057-.0898-1.0114-.2245-1.6436-.1796-.3161-.1348-1.0114-.2695-1.4539-.2246-.0632-.0449-.0632-.0898-.1897-.0898-.1264.0898-.316.2246-.5689.1796-.0632-.0449-.0632-.0449-.1264-.0449l-.3161.1348c.5689.3593 1.2643.1796 1.8964.3593-.0632.2246-.6953-.0449-.4425.2695.1897.0449.3161.0449.4425-.0899.0632.0899.1265.0899.2529.0899l.3793-.1348c-.0632-.0449-.1265-.0898-.0632-.1347.1264-.0898.316 0 .4425 0-.5058-.0449-.1265.3144-.3161.4491.5689-.0449.6954.4492 1.0746.0449.5058.2246.6322-.4491 1.0747-.0449l-.9482.1348.4425.2695c-.6322 0-1.3275-.0899-2.0229-.1797.5689.2695 1.5804.1347 2.2125.3144v-.0898c.0632.0449.1264.0449.1897.0898l.2528-.0449v.0898l-.1896-.0449c.1264.0449.1896.0449.316 0l.0633-.0449v.0449c.4425 0 1.0114.2246 1.4539.2246l-.0632.0449c.4425.3144 1.0746-.1797 1.6436.0898l-.3793.0898c.3793.2695.9482.3145 1.4539.2246v-.0898c.3793.2246 1.1379 0 1.0114.3593l.2529.0898c-.7586-.1796-1.2643 0-2.0861-.0449-.1264.1348.1264.1348.1264.1797-.2528.1796-.5057-.0449-.6953-.0898-.1264.0898-.3161.0898-.4425 0v.0449c.6953.1796 1.0746.2245 1.6436.3144-.2529-.0899-.4425 0-.6322.0449v.0449l.3161.0449h.3793l-.1265.0449.3161.0449c-.1264 0-.3161 0-.4425-.0449l-.2528.0899c.1264.1796.3792-.0899.4425.1347-.1897.1347-.5058.0449-.885-.0449l.885.6737-.6322-.0898c.0632-.0449.2529-.0898.2529-.1797-.3161-.3593-.9482-.4491-1.5172-.4042l.2529-.1348c0-.0449-.0632-.0898-.1897-.0449 0 .1797-.2528.1348-.5057.1348.1897.1796.5057.1796.7586.3144l-.3161.0898c0 .0449 0 .0898.0632.0898.0633 0 .1265.045.1897.045.1264-.045.3161-.1348.4425-.1348-.0632 0-.1264.4042-.6322.2246l-.0632-.0898c-.2528-.045-.5057-.045-.7586-.0899-.1264.0449-.2528.0449-.316.0899h.1896c0 .0898-.1264.0898-.1896.1347.4425.2246 1.0114-.1797 1.3907.1797-.3161.0449-.5057-.2695-.6321-.045l.1264.1348v.0449c-.1264.2246.5057.0449.6953.0898.1265-.0898-.316.3593.3161.3144 0 .0449-.0632.0449-.1264.0899l.5057.1347c-.1896 0-.4425.1797-.6954 0l.1897-.0898c0-.0449-.0632-.0449-.0632-.0449-.1265-.0899-.3161-.0899-.3793-.045l-.1264.045.3792.0898c-.6321.0449-1.0746-.3593-1.7068-.2695-.316.0449-.3792-.2695-.6953-.1347-.2529-.1348-.5689-.1797-.9482-.1797 0 .0449-.0632.0898-.1265.0898-.1264.0449-.2528 0-.2528-.0449l-.2529.0449.1897-.0449-.1265-.1347c-.6321 0-1.1378-.0899-1.5803-.2246-.1897 0-.4425.0449-.6954.0898v.0899l.3161-.045c.3161-.0449-.1897.0899.0632.1348l.1896-.0898c.2529.1347.8218.2245 1.2643.2245v.0899c1.2011.1347 2.2758.3593 3.224.5839.1896-.0899.5057.0449.6321.1347 0 .0898-.1264.0898-.1896.1347.1264.045.6953.0899.5057-.1347.0632.0449.3161.1347.3793.0898l.2528.1797c-.1264.0449-.2528.0449-.3792.0898v-.0449c-.7586-.2246-1.3276-.0898-1.8965-.3593h-.5689v.0898c-.1264-.0449-.1897.0449-.2529.0898.3161.0899.3161.4492.7586.3594l.5689.0449c.1897 0-.316.0898-.3793.2245l-.0632-.1796c-.0632.2246-.6321-.1348-.6321.1796 0-.0898-.1264-.1347-.1897-.2245l-.1896.1347.2529.1348c-.1897-.1348-.4425.0898-.5058-.1797l-.3792.0898c-.0633-.4491-.6322.1348-.8218-.2695l-.2529.1348c.0632.0449.1897.1796.3161.0898v.0898c-.0632 0-.1897-.0449-.2529 0 .1897.2246.3793.0899.6954.1797.5057.2246 1.1378-.0449 1.5803.3593.4425 0 .6954-.0449 1.0115.1797-.6954.1347-1.454-.4042-1.6436 0-.1264-.0898-.4425-.2246-.6321-.0898 0 .1796.5057.1796.3792.1796-.1896.0898-.4425 0-.6321-.0449.0632-.0898-.0632-.0898-.1264-.1797.0632.045.1264 0 .1896-.0449-.1264-.1347-.3793-.1796-.5689-.2695l-.2529.1348c.1897.0898.4425.1347.569.2695l-.1265.2245c-.2528-.0449-.5689-.0898-.6953-.2694-.1265 0-.1265.0898-.1265.1347-.3793.0449-.885-.0449-1.2643-.0449 0 0-.0632 0-.0632.0449l-.1896.1347.0632-.0449.0632.0449-.6953.0899c.1896.0898.4425.1796.6953.1796-.3161 0-.885-.2245-1.2011-.0898.3161.2246.9483.1347 1.3275.3144l-.6953.0898c.3161-.0449.2528.3593.4425.0899.2528-.045.1264.1796.3793.1796l.2528-.0898v.0898h-.1896c-.0632.0898-.0632.3144.2528.3144l.2529.0449c-.5689 0-1.1379.1348-1.7068.1797.4425.1347.8218.1347 1.2011.1797.1896-.045 0-.1348 0-.2246h-.0632v-.0449l.2528.0449c0 .0449-.0632.0898-.1264.0898.1896.2246.3793-.0898.6954 0 .2528-.1796.7585-.0898 1.0746-.2695h.2529l-.3793.1797c.2528.1347.6321.1347.9482.2695-.6954.1347-1.1379-.4492-1.77-.1348l-.0632.0449c-.0632.0899-.4425 0-.3793.2246l.1264.1348c.6954.3144 1.454.1796 2.1493.4491-.5689-.1797-1.0746-.0898-1.6436-.1347.0632.1347.3161.1347 0 .2245l.6954.1348-2.4022-.2246c-.0632.1347-.2528.2246-.316.3593-.1897-.0898.1264-.1796.1896-.2695v-.0449c-.7586-.3144-2.0229.0449-2.9079-.4042-.1264 0-.0632.1347-.1264.1796.1897.2695.5689 0 .885.2246l.3161.0898c-.0632-.0449-.1264 0-.1897.045.2529.2245.6954.0898 1.0747.1347l.1896-.0898c0 .0898.1897.0449.3161.0898-.5057-.0898-.9482.3144-1.5171.0449-.3161-.0449-.885-.0898-1.2643 0 .6321.3593 1.8332.5839 2.655.3593.0632 0 .1264-.0449.1264-.0898 0 .0898-.1264.4042-.4425.4941l.2529-.2695c-.7586-.0898-1.3908.2695-2.0861-.0449l-.4425.0449c.0632.4042.7586-.0449.885.3593l.2528.0449c.1897.2246.5058.0898.8218.2695.0633-.0449.1897-.0449.1897-.1347 0 .0898.1896.2245.4425.2245v-.3144.0449l.0632.045c.0632.0898.1264.2245.3793.1796.0632.0898.3161.0898.4425.0898l.1896-.0898c.1265.0449 1.3275.1348 2.0861.3144.3161.1348.8218.1348 1.2011.1797-.5689.1796-.9482-.1348-1.5804 0-.3793-.0449-.6953-.1348-1.1378-.1797l-.1897.1348c.0632-.3144-.5689-.0899-.7586-.1797v.0449l-1.0746-.0449v-.0449c-.5057-.0449-.9482-.1348-1.5172-.1348-.316-.0898-.9482-.1796-1.3907-.1796-.0632-.0898-.316-.0898-.4425-.0898l-.5689.2245c.5689.2695 1.1379.1348 1.77.2695 0 .1348-.6321-.0449-.3793.2246.1264.0449.3161.0449.4425-.0449.0632.0898.1264.0449.2529.0898l.2528-.1347c-.0632-.0449-.1264-.045-.0632-.0899.1264-.0898.2529 0 .4425 0-.4425 0-.1264.2246-.2528.3144.5057-.0449.6321.3144 1.0114 0 .4425.1348.5689-.3144 1.0114-.0449l-.885.0899.4425.2245c-1.0114 0-2.1493-.1347-3.2871-.2695.1264.045.2528.0899.316.1348.5058.2246.8218.5839.9483 1.0779zm20.6711-23.5353l-.1264-.17963-.1264.08983c.1264.4042.6321 0 .8217.2695l-.0632.1347c-.1264.045-.5689-.2245-.6321.045-.1897 0-.3161-.1348-.3161-.2695-.3793.0449-1.0746-.1797-1.0114.2695-.6954.3593-1.3907-.045-2.0861-.1797l-.1896.2695c.1896.8084 1.5803.2695 2.2125.7635.316-.3593.8218 0 1.2643 0v.0899l.2528-.1797.1264.1797c.1897.0449.2529.2245.3793.3593.1265-.2695-.316-.3593-.4425-.5839l.4425-.2246-.316-.3144c.2528-.0898.316-.2246.6321-.2695l-.1264-.2246c-.1265-.0898-.569-.26944-.6954-.0449z" fill="#EDEDED"/></svg>